<?plantuml 1.2026.2?><svg xmlns="http://www.w3.org/2000/svg" xmlns:xlink="http://www.w3.org/1999/xlink" contentStyleType="text/css" data-diagram-type="ACTIVITY" height="1471px" preserveAspectRatio="none" style="width:933px;height:1471px;background:#FFFFFF;" version="1.1" viewBox="0 0 933 1471" width="933px" zoomAndPan="magnify"><defs/><g><rect fill="none" height="21.1992" style="stroke:none;stroke-width:1;" width="900.6987" x="15" y="12.2969"/><ellipse cx="216.0679" cy="48.4961" fill="#222222" rx="10" ry="10" style="stroke:#222222;stroke-width:1;"/><rect fill="#F1F1F1" height="34.1328" rx="12.5" ry="12.5" style="stroke:#181818;stroke-width:0.5;" width="211.4668" x="110.3345" y="78.4961"/><text fill="#000000" font-family="sans-serif" font-size="12" lengthAdjust="spacing" textLength="191.4668" x="120.3345" y="100.0977">Open Instructor Weekly Schedule</text><rect fill="#F1F1F1" height="34.1328" rx="12.5" ry="12.5" style="stroke:#181818;stroke-width:0.5;" width="110.627" x="160.7544" y="132.6289"/><text fill="#000000" font-family="sans-serif" font-size="12" lengthAdjust="spacing" textLength="90.627" x="170.7544" y="154.2305">Select semester</text><rect fill="#F1F1F1" height="34.1328" rx="12.5" ry="12.5" style="stroke:#181818;stroke-width:0.5;" width="159.4004" x="136.3677" y="412.6377"/><text fill="#000000" font-family="sans-serif" font-size="12" lengthAdjust="spacing" textLength="139.4004" x="146.3677" y="434.2393">Select another semester</text><ellipse cx="216.0679" cy="477.7705" fill="none" rx="11" ry="11" style="stroke:#222222;stroke-width:1;"/><ellipse cx="216.0679" cy="477.7705" fill="#222222" rx="6" ry="6" style="stroke:#222222;stroke-width:1;"/><rect fill="#F1F1F1" height="34.1328" rx="12.5" ry="12.5" style="stroke:#181818;stroke-width:0.5;" width="114.5293" x="158.8032" y="530.7705"/><text fill="#000000" font-family="sans-serif" font-size="12" lengthAdjust="spacing" textLength="94.5293" x="168.8032" y="552.3721">Select instructor</text><rect fill="#F1F1F1" height="34.1328" rx="12.5" ry="12.5" style="stroke:#181818;stroke-width:0.5;" width="135.1367" x="148.4995" y="584.9033"/><text fill="#000000" font-family="sans-serif" font-size="12" lengthAdjust="spacing" textLength="115.1367" x="158.4995" y="606.5049">Click View Schedule</text><rect fill="#F1F1F1" height="34.1328" rx="12.5" ry="12.5" style="stroke:#181818;stroke-width:0.5;" width="163.6367" x="242.4583" y="873.7002"/><text fill="#000000" font-family="sans-serif" font-size="12" lengthAdjust="spacing" textLength="143.6367" x="252.4583" y="895.3018">Review no-classes result</text><ellipse cx="324.2766" cy="938.833" fill="none" rx="11" ry="11" style="stroke:#222222;stroke-width:1;"/><ellipse cx="324.2766" cy="938.833" fill="#222222" rx="6" ry="6" style="stroke:#222222;stroke-width:1;"/><rect fill="#F1F1F1" height="34.1328" rx="12.5" ry="12.5" style="stroke:#181818;stroke-width:0.5;" width="168.3477" x="131.894" y="1018.3105"/><text fill="#000000" font-family="sans-serif" font-size="12" lengthAdjust="spacing" textLength="148.3477" x="141.894" y="1039.9121">For each overlapping pair</text><polygon fill="#F1F1F1" points="186.4624,1072.4434,245.6733,1072.4434,257.6733,1084.4434,245.6733,1096.4434,186.4624,1096.4434,174.4624,1084.4434,186.4624,1072.4434" style="stroke:#181818;stroke-width:0.5;"/><text fill="#000000" font-family="sans-serif" font-size="11" lengthAdjust="spacing" textLength="59.2109" x="186.4624" y="1088.6006">Same CRN?</text><text fill="#000000" font-family="sans-serif" font-size="11" lengthAdjust="spacing" textLength="17.4829" x="156.9795" y="1082.123">yes</text><text fill="#000000" font-family="sans-serif" font-size="11" lengthAdjust="spacing" textLength="13.5835" x="257.6733" y="1082.123">no</text><rect fill="#F1F1F1" height="48.2656" rx="12.5" ry="12.5" style="stroke:#181818;stroke-width:0.5;" width="147.9453" x="21" y="1106.4434"/><text fill="#000000" font-family="sans-serif" font-size="12" lengthAdjust="spacing" textLength="63.709" x="31" y="1128.0449">Ignore pair</text><text fill="#000000" font-family="sans-serif" font-size="12" lengthAdjust="spacing" textLength="127.9453" x="31" y="1142.1777">(duplicate same class)</text><polygon fill="#F1F1F1" points="277.9844,1106.4434,396.3418,1106.4434,408.3418,1119.3984,396.3418,1132.3535,277.9844,1132.3535,265.9844,1119.3984,277.9844,1106.4434" style="stroke:#181818;stroke-width:0.5;"/><text fill="#000000" font-family="sans-serif" font-size="11" lengthAdjust="spacing" textLength="105.3057" x="277.9844" y="1117.0781">Cross-listed UG/GR</text><text fill="#000000" font-family="sans-serif" font-size="11" lengthAdjust="spacing" textLength="104.4355" x="291.9063" y="1130.0332">same course name?</text><text fill="#000000" font-family="sans-serif" font-size="11" lengthAdjust="spacing" textLength="17.4829" x="248.5015" y="1117.0781">yes</text><text fill="#000000" font-family="sans-serif" font-size="11" lengthAdjust="spacing" textLength="13.5835" x="408.3418" y="1117.0781">no</text><rect fill="#F1F1F1" height="48.2656" rx="12.5" ry="12.5" style="stroke:#181818;stroke-width:0.5;" width="114.0781" x="198.9453" y="1142.3535"/><text fill="#000000" font-family="sans-serif" font-size="12" lengthAdjust="spacing" textLength="63.709" x="208.9453" y="1163.9551">Ignore pair</text><text fill="#000000" font-family="sans-serif" font-size="12" lengthAdjust="spacing" textLength="94.0781" x="208.9453" y="1178.0879">(valid cross-list)</text><rect fill="#F1F1F1" height="34.1328" rx="12.5" ry="12.5" style="stroke:#181818;stroke-width:0.5;" width="107" x="364.8418" y="1142.3535"/><text fill="#000000" font-family="sans-serif" font-size="12" lengthAdjust="spacing" textLength="87" x="374.8418" y="1163.9551">Record conflict</text><polygon fill="#F1F1F1" points="337.1631,1196.6191,349.1631,1208.6191,337.1631,1220.6191,325.1631,1208.6191,337.1631,1196.6191" style="stroke:#181818;stroke-width:0.5;"/><polygon fill="#F1F1F1" points="216.0679,1226.6191,228.0679,1238.6191,216.0679,1250.6191,204.0679,1238.6191,216.0679,1226.6191" style="stroke:#181818;stroke-width:0.5;"/><polygon fill="#F1F1F1" points="129.5154,969.833,302.6204,969.833,314.6204,981.833,302.6204,993.833,129.5154,993.833,117.5154,981.833,129.5154,969.833" style="stroke:#181818;stroke-width:0.5;"/><text fill="#000000" font-family="sans-serif" font-size="11" lengthAdjust="spacing" textLength="17.4829" x="220.0679" y="1004.4678">yes</text><text fill="#000000" font-family="sans-serif" font-size="11" lengthAdjust="spacing" textLength="173.105" x="129.5154" y="985.9902">Overlapping times on same day?</text><text fill="#000000" font-family="sans-serif" font-size="11" lengthAdjust="spacing" textLength="13.5835" x="314.6204" y="979.5127">no</text><polygon fill="#F1F1F1" points="216.0679,1270.6191,228.0679,1282.6191,216.0679,1294.6191,204.0679,1282.6191,216.0679,1270.6191" style="stroke:#181818;stroke-width:0.5;"/><rect fill="#F1F1F1" height="48.2656" rx="12.5" ry="12.5" style="stroke:#181818;stroke-width:0.5;" width="132.6699" x="149.7329" y="1314.6191"/><text fill="#000000" font-family="sans-serif" font-size="12" lengthAdjust="spacing" textLength="112.6699" x="159.7329" y="1336.2207">Render timetable +</text><text fill="#000000" font-family="sans-serif" font-size="12" lengthAdjust="spacing" textLength="82.0313" x="159.7329" y="1350.3535">conflict status</text><rect fill="#F1F1F1" height="34.1328" rx="12.5" ry="12.5" style="stroke:#181818;stroke-width:0.5;" width="170.5918" x="130.772" y="1382.8848"/><text fill="#000000" font-family="sans-serif" font-size="12" lengthAdjust="spacing" textLength="150.5918" x="140.772" y="1404.4863">Review schedule/conflicts</text><ellipse cx="216.0679" cy="1448.0176" fill="none" rx="11" ry="11" style="stroke:#222222;stroke-width:1;"/><ellipse cx="216.0679" cy="1448.0176" fill="#222222" rx="6" ry="6" style="stroke:#222222;stroke-width:1;"/><line style="stroke:#000000;stroke-width:1.5;" x1="15" x2="15" y1="12.2969" y2="1459.0176"/><rect fill="#F1F1F1" height="34.1328" rx="12.5" ry="12.5" style="stroke:#181818;stroke-width:0.5;" width="243.4648" x="586.1589" y="186.7617"/><text fill="#000000" font-family="sans-serif" font-size="12" lengthAdjust="spacing" textLength="223.4648" x="596.1589" y="208.3633">Load instructors for selected semester</text><rect fill="#F1F1F1" height="34.1328" rx="12.5" ry="12.5" style="stroke:#181818;stroke-width:0.5;" width="172.4551" x="621.6638" y="289.3721"/><text fill="#000000" font-family="sans-serif" font-size="12" lengthAdjust="spacing" textLength="152.4551" x="631.6638" y="310.9736">Show empty instructor list</text><rect fill="#F1F1F1" height="34.1328" rx="12.5" ry="12.5" style="stroke:#181818;stroke-width:0.5;" width="257.1699" x="579.3064" y="343.5049"/><text fill="#000000" font-family="sans-serif" font-size="12" lengthAdjust="spacing" textLength="237.1699" x="589.3064" y="365.1064">Prompt user to choose another semester</text><polygon fill="#F1F1F1" points="639.9202,240.8945,775.8625,240.8945,787.8625,252.8945,775.8625,264.8945,639.9202,264.8945,627.9202,252.8945,639.9202,240.8945" style="stroke:#181818;stroke-width:0.5;"/><text fill="#000000" font-family="sans-serif" font-size="11" lengthAdjust="spacing" textLength="13.5835" x="711.8914" y="275.5293">no</text><text fill="#000000" font-family="sans-serif" font-size="11" lengthAdjust="spacing" textLength="135.9424" x="639.9202" y="257.0518">Any instructors available?</text><text fill="#000000" font-family="sans-serif" font-size="11" lengthAdjust="spacing" textLength="17.4829" x="787.8625" y="250.5742">yes</text><rect fill="#F1F1F1" height="48.2656" rx="12.5" ry="12.5" style="stroke:#181818;stroke-width:0.5;" width="165.1426" x="625.3201" y="639.0361"/><text fill="#000000" font-family="sans-serif" font-size="12" lengthAdjust="spacing" textLength="145.1426" x="635.3201" y="660.6377">Load classes for selected</text><text fill="#000000" font-family="sans-serif" font-size="12" lengthAdjust="spacing" textLength="126.8203" x="635.3201" y="674.7705">instructor + semester</text><rect fill="#F1F1F1" height="34.1328" rx="12.5" ry="12.5" style="stroke:#181818;stroke-width:0.5;" width="170.8496" x="622.4666" y="707.3018"/><text fill="#000000" font-family="sans-serif" font-size="12" lengthAdjust="spacing" textLength="150.8496" x="632.4666" y="728.9033">Parse meeting days/times</text><polygon fill="#F1F1F1" points="621.6826,761.4346,794.1001,761.4346,806.1001,773.4346,794.1001,785.4346,621.6826,785.4346,609.6826,773.4346,621.6826,761.4346" style="stroke:#181818;stroke-width:0.5;"/><text fill="#000000" font-family="sans-serif" font-size="11" lengthAdjust="spacing" textLength="172.4175" x="621.6826" y="777.5918">Any classes with valid day/time?</text><text fill="#000000" font-family="sans-serif" font-size="11" lengthAdjust="spacing" textLength="17.4829" x="592.1997" y="771.1143">yes</text><text fill="#000000" font-family="sans-serif" font-size="11" lengthAdjust="spacing" textLength="13.5835" x="806.1001" y="771.1143">no</text><rect fill="#F1F1F1" height="34.1328" rx="12.5" ry="12.5" style="stroke:#181818;stroke-width:0.5;" width="177.6816" x="510.8418" y="805.4346"/><text fill="#000000" font-family="sans-serif" font-size="12" lengthAdjust="spacing" textLength="157.6816" x="520.8418" y="827.0361">Build weekly timetable grid</text><rect fill="#F1F1F1" height="48.2656" rx="12.5" ry="12.5" style="stroke:#181818;stroke-width:0.5;" width="187.502" x="722.3491" y="805.4346"/><text fill="#000000" font-family="sans-serif" font-size="12" lengthAdjust="spacing" textLength="167.502" x="732.3491" y="827.0361">Show "No classes scheduled"</text><text fill="#000000" font-family="sans-serif" font-size="12" lengthAdjust="spacing" textLength="50.918" x="732.3491" y="841.1689">message</text><line style="stroke:#000000;stroke-width:1.5;" x1="504.8418" x2="504.8418" y1="12.2969" y2="1459.0176"/><line style="stroke:#000000;stroke-width:1.5;" x1="913.8511" x2="913.8511" y1="12.2969" y2="1459.0176"/><line style="stroke:#181818;stroke-width:1;" x1="216.0679" x2="216.0679" y1="58.4961" y2="78.4961"/><polygon fill="#181818" points="212.0679,68.4961,216.0679,78.4961,220.0679,68.4961,216.0679,72.4961" style="stroke:#181818;stroke-width:1;"/><line style="stroke:#181818;stroke-width:1;" x1="216.0679" x2="216.0679" y1="112.6289" y2="132.6289"/><polygon fill="#181818" points="212.0679,122.6289,216.0679,132.6289,220.0679,122.6289,216.0679,126.6289" style="stroke:#181818;stroke-width:1;"/><line style="stroke:#181818;stroke-width:1;" x1="216.0679" x2="216.0679" y1="446.7705" y2="466.7705"/><polygon fill="#181818" points="212.0679,456.7705,216.0679,466.7705,220.0679,456.7705,216.0679,460.7705" style="stroke:#181818;stroke-width:1;"/><line style="stroke:#181818;stroke-width:1;" x1="216.0679" x2="216.0679" y1="564.9033" y2="584.9033"/><polygon fill="#181818" points="212.0679,574.9033,216.0679,584.9033,220.0679,574.9033,216.0679,578.9033" style="stroke:#181818;stroke-width:1;"/><line style="stroke:#181818;stroke-width:1;" x1="324.2766" x2="324.2766" y1="907.833" y2="927.833"/><polygon fill="#181818" points="320.2766,917.833,324.2766,927.833,328.2766,917.833,324.2766,921.833" style="stroke:#181818;stroke-width:1;"/><line style="stroke:#181818;stroke-width:1;" x1="265.9844" x2="255.9844" y1="1119.3984" y2="1119.3984"/><line style="stroke:#181818;stroke-width:1;" x1="255.9844" x2="255.9844" y1="1119.3984" y2="1142.3535"/><polygon fill="#181818" points="251.9844,1132.3535,255.9844,1142.3535,259.9844,1132.3535,255.9844,1136.3535" style="stroke:#181818;stroke-width:1;"/><line style="stroke:#181818;stroke-width:1;" x1="408.3418" x2="418.3418" y1="1119.3984" y2="1119.3984"/><line style="stroke:#181818;stroke-width:1;" x1="418.3418" x2="418.3418" y1="1119.3984" y2="1142.3535"/><polygon fill="#181818" points="414.3418,1132.3535,418.3418,1142.3535,422.3418,1132.3535,418.3418,1136.3535" style="stroke:#181818;stroke-width:1;"/><line style="stroke:#181818;stroke-width:1;" x1="255.9844" x2="255.9844" y1="1190.6191" y2="1208.6191"/><line style="stroke:#181818;stroke-width:1;" x1="255.9844" x2="325.1631" y1="1208.6191" y2="1208.6191"/><polygon fill="#181818" points="315.1631,1204.6191,325.1631,1208.6191,315.1631,1212.6191,319.1631,1208.6191" style="stroke:#181818;stroke-width:1;"/><line style="stroke:#181818;stroke-width:1;" x1="418.3418" x2="418.3418" y1="1176.4863" y2="1208.6191"/><line style="stroke:#181818;stroke-width:1;" x1="418.3418" x2="349.1631" y1="1208.6191" y2="1208.6191"/><polygon fill="#181818" points="359.1631,1204.6191,349.1631,1208.6191,359.1631,1212.6191,355.1631,1208.6191" style="stroke:#181818;stroke-width:1;"/><line style="stroke:#181818;stroke-width:1;" x1="174.4624" x2="94.9727" y1="1084.4434" y2="1084.4434"/><line style="stroke:#181818;stroke-width:1;" x1="94.9727" x2="94.9727" y1="1084.4434" y2="1106.4434"/><polygon fill="#181818" points="90.9727,1096.4434,94.9727,1106.4434,98.9727,1096.4434,94.9727,1100.4434" style="stroke:#181818;stroke-width:1;"/><line style="stroke:#181818;stroke-width:1;" x1="257.6733" x2="337.1631" y1="1084.4434" y2="1084.4434"/><line style="stroke:#181818;stroke-width:1;" x1="337.1631" x2="337.1631" y1="1084.4434" y2="1106.4434"/><polygon fill="#181818" points="333.1631,1096.4434,337.1631,1106.4434,341.1631,1096.4434,337.1631,1100.4434" style="stroke:#181818;stroke-width:1;"/><line style="stroke:#181818;stroke-width:1;" x1="94.9727" x2="94.9727" y1="1154.709" y2="1238.6191"/><line style="stroke:#181818;stroke-width:1;" x1="94.9727" x2="204.0679" y1="1238.6191" y2="1238.6191"/><polygon fill="#181818" points="194.0679,1234.6191,204.0679,1238.6191,194.0679,1242.6191,198.0679,1238.6191" style="stroke:#181818;stroke-width:1;"/><line style="stroke:#181818;stroke-width:1;" x1="337.1631" x2="337.1631" y1="1220.6191" y2="1238.6191"/><line style="stroke:#181818;stroke-width:1;" x1="337.1631" x2="228.0679" y1="1238.6191" y2="1238.6191"/><polygon fill="#181818" points="238.0679,1234.6191,228.0679,1238.6191,238.0679,1242.6191,234.0679,1238.6191" style="stroke:#181818;stroke-width:1;"/><line style="stroke:#181818;stroke-width:1;" x1="216.0679" x2="216.0679" y1="1052.4434" y2="1072.4434"/><polygon fill="#181818" points="212.0679,1062.4434,216.0679,1072.4434,220.0679,1062.4434,216.0679,1066.4434" style="stroke:#181818;stroke-width:1;"/><line style="stroke:#181818;stroke-width:1;" x1="216.0679" x2="216.0679" y1="993.833" y2="1018.3105"/><polygon fill="#181818" points="212.0679,1008.3105,216.0679,1018.3105,220.0679,1008.3105,216.0679,1012.3105" style="stroke:#181818;stroke-width:1;"/><line style="stroke:#181818;stroke-width:1;" x1="314.6204" x2="485.8418" y1="981.833" y2="981.833"/><polygon fill="#181818" points="481.8418,1116.9648,485.8418,1126.9648,489.8418,1116.9648,485.8418,1120.9648" style="stroke:#181818;stroke-width:1;"/><line style="stroke:#181818;stroke-width:1;" x1="485.8418" x2="485.8418" y1="981.833" y2="1282.6191"/><line style="stroke:#181818;stroke-width:1;" x1="485.8418" x2="228.0679" y1="1282.6191" y2="1282.6191"/><polygon fill="#181818" points="238.0679,1278.6191,228.0679,1282.6191,238.0679,1286.6191,234.0679,1282.6191" style="stroke:#181818;stroke-width:1;"/><line style="stroke:#181818;stroke-width:1;" x1="216.0679" x2="216.0679" y1="1250.6191" y2="1270.6191"/><polygon fill="#181818" points="212.0679,1260.6191,216.0679,1270.6191,220.0679,1260.6191,216.0679,1264.6191" style="stroke:#181818;stroke-width:1;"/><line style="stroke:#181818;stroke-width:1;" x1="216.0679" x2="216.0679" y1="1294.6191" y2="1314.6191"/><polygon fill="#181818" points="212.0679,1304.6191,216.0679,1314.6191,220.0679,1304.6191,216.0679,1308.6191" style="stroke:#181818;stroke-width:1;"/><line style="stroke:#181818;stroke-width:1;" x1="216.0679" x2="216.0679" y1="1362.8848" y2="1382.8848"/><polygon fill="#181818" points="212.0679,1372.8848,216.0679,1382.8848,220.0679,1372.8848,216.0679,1376.8848" style="stroke:#181818;stroke-width:1;"/><line style="stroke:#181818;stroke-width:1;" x1="216.0679" x2="216.0679" y1="1417.0176" y2="1437.0176"/><polygon fill="#181818" points="212.0679,1427.0176,216.0679,1437.0176,220.0679,1427.0176,216.0679,1431.0176" style="stroke:#181818;stroke-width:1;"/><line style="stroke:#181818;stroke-width:1;" x1="707.8914" x2="707.8914" y1="323.5049" y2="343.5049"/><polygon fill="#181818" points="703.8914,333.5049,707.8914,343.5049,711.8914,333.5049,707.8914,337.5049" style="stroke:#181818;stroke-width:1;"/><line style="stroke:#181818;stroke-width:1;" x1="707.8914" x2="707.8914" y1="264.8945" y2="289.3721"/><polygon fill="#181818" points="703.8914,279.3721,707.8914,289.3721,711.8914,279.3721,707.8914,283.3721" style="stroke:#181818;stroke-width:1;"/><line style="stroke:#181818;stroke-width:1;" x1="787.8625" x2="846.4763" y1="252.8945" y2="252.8945"/><polygon fill="#181818" points="842.4763,384.8213,846.4763,394.8213,850.4763,384.8213,846.4763,388.8213" style="stroke:#181818;stroke-width:1;"/><line style="stroke:#181818;stroke-width:1;" x1="846.4763" x2="846.4763" y1="252.8945" y2="515.7705"/><line style="stroke:#181818;stroke-width:1;" x1="846.4763" x2="216.0679" y1="515.7705" y2="515.7705"/><line style="stroke:#181818;stroke-width:1;" x1="216.0679" x2="216.0679" y1="515.7705" y2="530.7705"/><polygon fill="#181818" points="212.0679,520.7705,216.0679,530.7705,220.0679,520.7705,216.0679,524.7705" style="stroke:#181818;stroke-width:1;"/><line style="stroke:#181818;stroke-width:1;" x1="707.8914" x2="707.8914" y1="220.8945" y2="240.8945"/><polygon fill="#181818" points="703.8914,230.8945,707.8914,240.8945,711.8914,230.8945,707.8914,234.8945" style="stroke:#181818;stroke-width:1;"/><line style="stroke:#181818;stroke-width:1;" x1="707.8914" x2="707.8914" y1="687.3018" y2="707.3018"/><polygon fill="#181818" points="703.8914,697.3018,707.8914,707.3018,711.8914,697.3018,707.8914,701.3018" style="stroke:#181818;stroke-width:1;"/><line style="stroke:#181818;stroke-width:1;" x1="609.6826" x2="599.6826" y1="773.4346" y2="773.4346"/><line style="stroke:#181818;stroke-width:1;" x1="599.6826" x2="599.6826" y1="773.4346" y2="805.4346"/><polygon fill="#181818" points="595.6826,795.4346,599.6826,805.4346,603.6826,795.4346,599.6826,799.4346" style="stroke:#181818;stroke-width:1;"/><line style="stroke:#181818;stroke-width:1;" x1="806.1001" x2="816.1001" y1="773.4346" y2="773.4346"/><line style="stroke:#181818;stroke-width:1;" x1="816.1001" x2="816.1001" y1="773.4346" y2="805.4346"/><polygon fill="#181818" points="812.1001,795.4346,816.1001,805.4346,820.1001,795.4346,816.1001,799.4346" style="stroke:#181818;stroke-width:1;"/><line style="stroke:#181818;stroke-width:1;" x1="599.6826" x2="599.6826" y1="839.5674" y2="954.833"/><line style="stroke:#181818;stroke-width:1;" x1="599.6826" x2="216.0679" y1="954.833" y2="954.833"/><line style="stroke:#181818;stroke-width:1;" x1="216.0679" x2="216.0679" y1="954.833" y2="969.833"/><polygon fill="#181818" points="212.0679,959.833,216.0679,969.833,220.0679,959.833,216.0679,963.833" style="stroke:#181818;stroke-width:1;"/><line style="stroke:#181818;stroke-width:1;" x1="707.8914" x2="707.8914" y1="741.4346" y2="761.4346"/><polygon fill="#181818" points="703.8914,751.4346,707.8914,761.4346,711.8914,751.4346,707.8914,755.4346" style="stroke:#181818;stroke-width:1;"/><line style="stroke:#181818;stroke-width:1;" x1="216.0679" x2="216.0679" y1="166.7617" y2="171.7617"/><line style="stroke:#181818;stroke-width:1;" x1="216.0679" x2="707.8914" y1="171.7617" y2="171.7617"/><line style="stroke:#181818;stroke-width:1;" x1="707.8914" x2="707.8914" y1="171.7617" y2="186.7617"/><polygon fill="#181818" points="703.8914,176.7617,707.8914,186.7617,711.8914,176.7617,707.8914,180.7617" style="stroke:#181818;stroke-width:1;"/><line style="stroke:#181818;stroke-width:1;" x1="707.8914" x2="707.8914" y1="377.6377" y2="395.1377"/><line style="stroke:#181818;stroke-width:1;" x1="707.8914" x2="216.0679" y1="395.1377" y2="395.1377"/><line style="stroke:#181818;stroke-width:1;" x1="216.0679" x2="216.0679" y1="395.1377" y2="412.6377"/><polygon fill="#181818" points="212.0679,402.6377,216.0679,412.6377,220.0679,402.6377,216.0679,406.6377" style="stroke:#181818;stroke-width:1;"/><line style="stroke:#181818;stroke-width:1;" x1="216.0679" x2="216.0679" y1="619.0361" y2="624.0361"/><line style="stroke:#181818;stroke-width:1;" x1="216.0679" x2="707.8914" y1="624.0361" y2="624.0361"/><line style="stroke:#181818;stroke-width:1;" x1="707.8914" x2="707.8914" y1="624.0361" y2="639.0361"/><polygon fill="#181818" points="703.8914,629.0361,707.8914,639.0361,711.8914,629.0361,707.8914,633.0361" style="stroke:#181818;stroke-width:1;"/><line style="stroke:#181818;stroke-width:1;" x1="816.1001" x2="816.1001" y1="853.7002" y2="858.7002"/><line style="stroke:#181818;stroke-width:1;" x1="816.1001" x2="324.2766" y1="858.7002" y2="858.7002"/><line style="stroke:#181818;stroke-width:1;" x1="324.2766" x2="324.2766" y1="858.7002" y2="873.7002"/><polygon fill="#181818" points="320.2766,863.7002,324.2766,873.7002,328.2766,863.7002,324.2766,867.7002" style="stroke:#181818;stroke-width:1;"/><text fill="#000000" font-family="sans-serif" font-size="18" lengthAdjust="spacing" textLength="273.709" x="123.0664" y="29.6992">Scheduling Committee Member</text><text fill="#000000" font-family="sans-serif" font-size="18" lengthAdjust="spacing" textLength="61.8398" x="678.4265" y="29.6992">System</text><?plantuml-src ZLF1Rjim3BthAuYU4XH5xlQXs0AiAB2rHOnjPzLYOg6oP8XqWW3v-59od3ffqEram-Hxv7kFFbHrWwPtrczW6ThMCYF2BsnVCHuKiOwiYkSEFJnwujZN72ByHNnpUpX2iLH5XGvh1i8MYJ6MIXsglRor1rNy3Dg0FQ49ra916O1c0h5hc7tp-xDMlTNMwLU7ztFWHhQOxP7c2XqXp7oOAu2YQi8EiEru2WLdYSjKVeb1Qj0JHk00THE2WBKFmXSdum4ENtgH9Wqghs69GwVG6xjEqh_Y6La-TXN_bixMR_37ucxYwgM7jTD4UEwVcaY-dMnKlEWeCbj4JciOlQS5MwaAxMZqoBUptC1MEsjINsuxjrkaV--jCx0RWayTd5A1JRIcl1B7pLCuqTDHaBcHicn0UeF_PVSAjyaG7-v6geZKExxqE-bvtc9qkkiIMTO9mGFf5fEaJsf-Y5kewmR21DPfcwDCT5L2BbTFbqZ1FcvyY9YxyuUPwJj9JpCEy_AkyqGqjMMWNSP0T9TEKox_zyFYOPLB0oxqAJ6lFxj_TQvC7ZAhJwHvwkNSR6GTeZG6lvPD-TYLpHkV7vYZgGBo9lqofwnlrKWWxclkgVpdgHyJ72zWCH88D0Nu3W00?></g></svg>