<?plantuml 1.2026.2?><svg xmlns="http://www.w3.org/2000/svg" xmlns:xlink="http://www.w3.org/1999/xlink" contentStyleType="text/css" data-diagram-type="ACTIVITY" height="780px" preserveAspectRatio="none" style="width:997px;height:780px;background:#FFFFFF;" version="1.1" viewBox="0 0 997 780" width="997px" zoomAndPan="magnify"><title>IOD(1)_Pj2_T-1
US1: Upload Excel File and Import Data</title><defs/><g><rect fill="#FFFFCC" height="26.6406" rx="2.5" ry="2.5" style="stroke:#FFDD88;stroke-width:3;" width="986.9453" x="5" y="5"/><text fill="#000000" font-family="monospace" font-size="10" lengthAdjust="spacing" textLength="535.8252" x="10" y="20">This&#160;syntax&#160;is&#160;deprecated,&#160;you&#160;must&#160;add&#160;&lt;&lt;#ADD8E6&gt;&gt;&#160;at&#160;the&#160;end&#160;of&#160;the&#160;line,&#160;after&#160;the&#160;';'</text><g class="title" data-source-line="11"><text fill="#000000" font-family="Arial" font-size="14" font-weight="bold" lengthAdjust="spacing" textLength="115.1719" x="432.3867" y="69.6357">IOD(1)_Pj2_T-1</text><text fill="#000000" font-family="Arial" font-size="14" font-weight="bold" lengthAdjust="spacing" textLength="310.8301" x="334.5576" y="85.9326">US1: Upload Excel File and Import Data</text></g><path d="M519.3252,100.2344 L519.3252,125.3672 L664.3013,125.3672 L664.3013,110.2344 L654.3013,100.2344 L519.3252,100.2344" fill="#FFFFCC" style="stroke:#AAAAAA;stroke-width:0.5;"/><path d="M654.3013,100.2344 L654.3013,110.2344 L664.3013,110.2344 L654.3013,100.2344" fill="#FFFFCC" style="stroke:#AAAAAA;stroke-width:0.5;"/><text fill="#000000" font-family="Arial" font-size="13" lengthAdjust="spacing" textLength="123.9761" x="525.3252" y="117.3013">Author: MayfairMI6</text><ellipse cx="591.8132" cy="155.3672" fill="#222222" rx="10" ry="10" style="stroke:#222222;stroke-width:1;"/><rect fill="#FEFEFE" height="33.9688" rx="12.5" ry="12.5" style="stroke:#444444;stroke-width:0.5;" width="232.9414" x="475.3425" y="185.3672"/><text fill="#000000" font-family="Arial" font-size="12" lengthAdjust="spacing" textLength="212.9414" x="485.3425" y="206.5059">Actor navigates to the Upload Page</text><rect fill="#FEFEFE" height="61.9063" rx="12.5" ry="12.5" style="stroke:#444444;stroke-width:0.5;" width="279.8047" x="451.9109" y="239.3359"/><text fill="#000000" font-family="Arial" font-size="12" font-weight="bold" lengthAdjust="spacing" textLength="19.2773" x="461.9109" y="260.4746">ref</text><text fill="#000000" font-family="Arial" font-size="12" lengthAdjust="spacing" textLength="236.7129" x="485.0027" y="260.4746">UC_VALIDATE &#8212; Validate Uploaded File</text><text fill="#000000" font-family="Arial" font-size="12" lengthAdjust="spacing" textLength="238.4121" x="461.9109" y="274.4434">&#9472;&#9472;&#9472;&#9472;&#9472;&#9472;&#9472;&#9472;&#9472;&#9472;&#9472;&#9472;&#9472;&#9472;&#9472;&#9472;&#9472;&#9472;&#9472;&#9472;&#9472;&#9472;&#9472;&#9472;&#9472;&#9472;&#9472;&#9472;&#9472;&#9472;&#9472;&#9472;&#9472;</text><text fill="#000000" font-family="Arial" font-size="12" lengthAdjust="spacing" textLength="250.7109" x="461.9109" y="288.4121">System checks file extension and content</text><polygon fill="#FEFEFE" points="558.2278,321.2422,625.3987,321.2422,637.3987,333.2422,625.3987,345.2422,558.2278,345.2422,546.2278,333.2422,558.2278,321.2422" style="stroke:#444444;stroke-width:0.5;"/><text fill="#000000" font-family="Arial" font-size="11" lengthAdjust="spacing" textLength="67.1709" x="558.2278" y="337.0503">File is valid?</text><text fill="#000000" font-family="Arial" font-size="11" lengthAdjust="spacing" textLength="19.0083" x="527.2195" y="330.6479">yes</text><text fill="#000000" font-family="Arial" font-size="11" lengthAdjust="spacing" textLength="13.7017" x="637.3987" y="330.6479">no</text><rect fill="#FEFEFE" height="61.9063" rx="12.5" ry="12.5" style="stroke:#444444;stroke-width:0.5;" width="389.3809" x="143.6479" y="355.2422"/><text fill="#000000" font-family="Arial" font-size="12" font-weight="bold" lengthAdjust="spacing" textLength="19.2773" x="153.6479" y="376.3809">ref</text><text fill="#000000" font-family="Arial" font-size="12" lengthAdjust="spacing" textLength="270.3867" x="176.7397" y="376.3809">UC_DUP_FILE &#8212; Detect Duplicate Upload File</text><text fill="#000000" font-family="Arial" font-size="12" lengthAdjust="spacing" textLength="354.0059" x="153.6479" y="390.3496">&#9472;&#9472;&#9472;&#9472;&#9472;&#9472;&#9472;&#9472;&#9472;&#9472;&#9472;&#9472;&#9472;&#9472;&#9472;&#9472;&#9472;&#9472;&#9472;&#9472;&#9472;&#9472;&#9472;&#9472;&#9472;&#9472;&#9472;&#9472;&#9472;&#9472;&#9472;&#9472;&#9472;&#9472;&#9472;&#9472;&#9472;&#9472;&#9472;&#9472;&#9472;&#9472;&#9472;&#9472;&#9472;&#9472;&#9472;&#9472;&#9472;</text><text fill="#000000" font-family="Arial" font-size="12" lengthAdjust="spacing" textLength="369.3809" x="153.6479" y="404.3184">System computes SHA-256 hash and compares to saved files</text><polygon fill="#FEFEFE" points="282.9973,452.1484,393.6794,452.1484,405.6794,464.1484,393.6794,476.1484,282.9973,476.1484,270.9973,464.1484,282.9973,452.1484" style="stroke:#444444;stroke-width:0.5;"/><text fill="#000000" font-family="Arial" font-size="11" lengthAdjust="spacing" textLength="110.6821" x="282.9973" y="467.9565">Duplicate detected?</text><text fill="#000000" font-family="Arial" font-size="11" lengthAdjust="spacing" textLength="19.0083" x="251.989" y="461.5542">yes</text><text fill="#000000" font-family="Arial" font-size="11" lengthAdjust="spacing" textLength="13.7017" x="405.6794" y="461.5542">no</text><rect fill="#FEFEFE" height="33.9688" rx="12.5" ry="12.5" style="stroke:#444444;stroke-width:0.5;" width="223.4961" x="52.1826" y="486.1484"/><text fill="#000000" font-family="Arial" font-size="12" lengthAdjust="spacing" textLength="203.4961" x="62.1826" y="507.2871">System skips saving duplicate file</text><rect fill="#FEFEFE" height="33.9688" rx="12.5" ry="12.5" style="stroke:#444444;stroke-width:0.5;" width="305.8613" x="11" y="555.1172"/><text fill="#000000" font-family="Arial" font-size="12" lengthAdjust="spacing" textLength="285.8613" x="21" y="576.2559">System proceeds with import using existing file</text><rect fill="#FEFEFE" height="61.9063" rx="12.5" ry="12.5" style="stroke:#444444;stroke-width:0.5;" width="351.7695" x="336.8613" y="486.1484"/><text fill="#000000" font-family="Arial" font-size="12" font-weight="bold" lengthAdjust="spacing" textLength="19.2773" x="346.8613" y="507.2871">ref</text><text fill="#000000" font-family="Arial" font-size="12" lengthAdjust="spacing" textLength="195.0176" x="369.9531" y="507.2871">UC_UPLOAD &#8212; Upload Excel File</text><text fill="#000000" font-family="Arial" font-size="12" lengthAdjust="spacing" textLength="238.4121" x="346.8613" y="521.2559">&#9472;&#9472;&#9472;&#9472;&#9472;&#9472;&#9472;&#9472;&#9472;&#9472;&#9472;&#9472;&#9472;&#9472;&#9472;&#9472;&#9472;&#9472;&#9472;&#9472;&#9472;&#9472;&#9472;&#9472;&#9472;&#9472;&#9472;&#9472;&#9472;&#9472;&#9472;&#9472;&#9472;</text><text fill="#000000" font-family="Arial" font-size="12" lengthAdjust="spacing" textLength="331.7695" x="346.8613" y="535.2246">System saves file and imports class data into database</text><polygon fill="#FEFEFE" points="338.3384,595.0859,350.3384,607.0859,338.3384,619.0859,326.3384,607.0859,338.3384,595.0859" style="stroke:#444444;stroke-width:0.5;"/><rect fill="#FEFEFE" height="33.9688" rx="12.5" ry="12.5" style="stroke:#444444;stroke-width:0.5;" width="291.3477" x="192.6646" y="639.0859"/><text fill="#000000" font-family="Arial" font-size="12" lengthAdjust="spacing" textLength="271.3477" x="202.6646" y="660.2246">System displays import confirmation to actor</text><rect fill="#FEFEFE" height="33.9688" rx="12.5" ry="12.5" style="stroke:#444444;stroke-width:0.5;" width="230.5977" x="729.9893" y="355.2422"/><text fill="#000000" font-family="Arial" font-size="12" lengthAdjust="spacing" textLength="210.5977" x="739.9893" y="376.3809">System displays file error message</text><rect fill="#FEFEFE" height="33.9688" rx="12.5" ry="12.5" style="stroke:#444444;stroke-width:0.5;" width="253.3145" x="718.6309" y="424.2109"/><text fill="#000000" font-family="Arial" font-size="12" lengthAdjust="spacing" textLength="233.3145" x="728.6309" y="445.3496">Actor corrects file selection and retries</text><ellipse cx="845.2881" cy="504.1797" fill="none" rx="11" ry="11" style="stroke:#222222;stroke-width:1;"/><ellipse cx="845.2881" cy="504.1797" fill="#222222" rx="6" ry="6" style="stroke:#222222;stroke-width:1;"/><rect fill="#FEFEFE" height="33.9688" rx="12.5" ry="12.5" style="stroke:#444444;stroke-width:0.5;" width="181.6836" x="500.9714" y="693.0547"/><text fill="#000000" font-family="Arial" font-size="12" lengthAdjust="spacing" textLength="161.6836" x="510.9714" y="714.1934">Actor reviews confirmation</text><ellipse cx="591.8132" cy="758.0234" fill="none" rx="11" ry="11" style="stroke:#222222;stroke-width:1;"/><ellipse cx="591.8132" cy="758.0234" fill="#222222" rx="6" ry="6" style="stroke:#222222;stroke-width:1;"/><line style="stroke:#444444;stroke-width:1;" x1="591.8132" x2="591.8132" y1="125.3672" y2="145.3672"/><polygon fill="#444444" points="587.8132,135.3672,591.8132,145.3672,595.8132,135.3672,591.8132,139.3672" style="stroke:#444444;stroke-width:1;"/><line style="stroke:#444444;stroke-width:1;" x1="591.8132" x2="591.8132" y1="165.3672" y2="185.3672"/><polygon fill="#444444" points="587.8132,175.3672,591.8132,185.3672,595.8132,175.3672,591.8132,179.3672" style="stroke:#444444;stroke-width:1;"/><line style="stroke:#444444;stroke-width:1;" x1="591.8132" x2="591.8132" y1="219.3359" y2="239.3359"/><polygon fill="#444444" points="587.8132,229.3359,591.8132,239.3359,595.8132,229.3359,591.8132,233.3359" style="stroke:#444444;stroke-width:1;"/><line style="stroke:#444444;stroke-width:1;" x1="163.9307" x2="163.9307" y1="520.1172" y2="555.1172"/><polygon fill="#444444" points="159.9307,545.1172,163.9307,555.1172,167.9307,545.1172,163.9307,549.1172" style="stroke:#444444;stroke-width:1;"/><line style="stroke:#444444;stroke-width:1;" x1="270.9973" x2="163.9307" y1="464.1484" y2="464.1484"/><line style="stroke:#444444;stroke-width:1;" x1="163.9307" x2="163.9307" y1="464.1484" y2="486.1484"/><polygon fill="#444444" points="159.9307,476.1484,163.9307,486.1484,167.9307,476.1484,163.9307,480.1484" style="stroke:#444444;stroke-width:1;"/><line style="stroke:#444444;stroke-width:1;" x1="405.6794" x2="512.7461" y1="464.1484" y2="464.1484"/><line style="stroke:#444444;stroke-width:1;" x1="512.7461" x2="512.7461" y1="464.1484" y2="486.1484"/><polygon fill="#444444" points="508.7461,476.1484,512.7461,486.1484,516.7461,476.1484,512.7461,480.1484" style="stroke:#444444;stroke-width:1;"/><line style="stroke:#444444;stroke-width:1;" x1="163.9307" x2="163.9307" y1="589.0859" y2="607.0859"/><line style="stroke:#444444;stroke-width:1;" x1="163.9307" x2="326.3384" y1="607.0859" y2="607.0859"/><polygon fill="#444444" points="316.3384,603.0859,326.3384,607.0859,316.3384,611.0859,320.3384,607.0859" style="stroke:#444444;stroke-width:1;"/><line style="stroke:#444444;stroke-width:1;" x1="512.7461" x2="512.7461" y1="548.0547" y2="607.0859"/><line style="stroke:#444444;stroke-width:1;" x1="512.7461" x2="350.3384" y1="607.0859" y2="607.0859"/><polygon fill="#444444" points="360.3384,603.0859,350.3384,607.0859,360.3384,611.0859,356.3384,607.0859" style="stroke:#444444;stroke-width:1;"/><line style="stroke:#444444;stroke-width:1;" x1="338.3384" x2="338.3384" y1="417.1484" y2="452.1484"/><polygon fill="#444444" points="334.3384,442.1484,338.3384,452.1484,342.3384,442.1484,338.3384,446.1484" style="stroke:#444444;stroke-width:1;"/><line style="stroke:#444444;stroke-width:1;" x1="338.3384" x2="338.3384" y1="619.0859" y2="639.0859"/><polygon fill="#444444" points="334.3384,629.0859,338.3384,639.0859,342.3384,629.0859,338.3384,633.0859" style="stroke:#444444;stroke-width:1;"/><line style="stroke:#444444;stroke-width:1;" x1="845.2881" x2="845.2881" y1="389.2109" y2="424.2109"/><polygon fill="#444444" points="841.2881,414.2109,845.2881,424.2109,849.2881,414.2109,845.2881,418.2109" style="stroke:#444444;stroke-width:1;"/><line style="stroke:#444444;stroke-width:1;" x1="845.2881" x2="845.2881" y1="458.1797" y2="493.1797"/><polygon fill="#444444" points="841.2881,483.1797,845.2881,493.1797,849.2881,483.1797,845.2881,487.1797" style="stroke:#444444;stroke-width:1;"/><line style="stroke:#444444;stroke-width:1;" x1="546.2278" x2="338.3384" y1="333.2422" y2="333.2422"/><line style="stroke:#444444;stroke-width:1;" x1="338.3384" x2="338.3384" y1="333.2422" y2="355.2422"/><polygon fill="#444444" points="334.3384,345.2422,338.3384,355.2422,342.3384,345.2422,338.3384,349.2422" style="stroke:#444444;stroke-width:1;"/><line style="stroke:#444444;stroke-width:1;" x1="637.3987" x2="845.2881" y1="333.2422" y2="333.2422"/><line style="stroke:#444444;stroke-width:1;" x1="845.2881" x2="845.2881" y1="333.2422" y2="355.2422"/><polygon fill="#444444" points="841.2881,345.2422,845.2881,355.2422,849.2881,345.2422,845.2881,349.2422" style="stroke:#444444;stroke-width:1;"/><line style="stroke:#444444;stroke-width:1;" x1="338.3384" x2="338.3384" y1="673.0547" y2="678.0547"/><line style="stroke:#444444;stroke-width:1;" x1="338.3384" x2="591.8132" y1="678.0547" y2="678.0547"/><line style="stroke:#444444;stroke-width:1;" x1="591.8132" x2="591.8132" y1="678.0547" y2="693.0547"/><polygon fill="#444444" points="587.8132,683.0547,591.8132,693.0547,595.8132,683.0547,591.8132,687.0547" style="stroke:#444444;stroke-width:1;"/><line style="stroke:#444444;stroke-width:1;" x1="591.8132" x2="591.8132" y1="301.2422" y2="321.2422"/><polygon fill="#444444" points="587.8132,311.2422,591.8132,321.2422,595.8132,311.2422,591.8132,315.2422" style="stroke:#444444;stroke-width:1;"/><line style="stroke:#444444;stroke-width:1;" x1="591.8132" x2="591.8132" y1="727.0234" y2="747.0234"/><polygon fill="#444444" points="587.8132,737.0234,591.8132,747.0234,595.8132,737.0234,591.8132,741.0234" style="stroke:#444444;stroke-width:1;"/><?plantuml-src lPJFRjf04CRl-nGZvH10oY5H6rLmg5mCAbB-815ogeIczXXliNUjdO64MnuYJvWdwQvj4f9GgJqq2mTRdczdlz_Cx35ChkFEQNSn_NMsk3avXQU7HvWpEPY9TLiuxSEyAYocCBfFg82nBWZGf30fA-i4OXHKnn2j9RUk3vUupL2xoycvKhpIfaA79SIKuRgGiJLoXIL1v3GMUz-ZHFH6o_OR9gkbiskJ3crX7HoDH-5tADAwb5mRzQbU-r7EsRi_VRooGkyJ-JKSletQJnBLIodHuWcyXlR3p6T_1KePloqulSobVvYPe1Eb-jwdJsfmevSen20M9ATTXYakQQ3KKHJ7NqRd_LxFKTRhmNouk8qk9d5qCwhBU8k5JhsybL5Q7qezFJxyxx-QRLceX2IdPCMG1HPqBsHOMrDJINmla17lGcVGgM5fXaquyTTky6gWioNkAWLmm6Sydox6aul6Pqn2YIUyhWgTlFXjt09yWDz_vWEm8sJBQXqgFFiUdPnzFeSSEMy9bRuLczepRdpr0aOU12A1sOlTjFPFRy21N_qsY-_hYiCksYmXVHQ63GUl0Yjd4wAKuKvB3hfftJK76Trhbl2mKr7111rZcrG7YZIVNbn7SNEZl1sDMlCnf9zP1ufjCmR0ZJk6f41cy8E2e8s77Pv-8ZSUJQgpG7m7ADLS5RZb7HlVnvbs9KfeR2_6CBY-HljmtccRUV2Nb8EIcEjfzc7Dq2VMEL_EDegfy2-xgN4aJeSU062nbMgFroeTRJJTyQip3SATOglV?></g></svg>