<svg xmlns="http://www.w3.org/2000/svg" xmlns:xlink="http://www.w3.org/1999/xlink" contentStyleType="text/css" height="1026px" preserveAspectRatio="none" style="width:869px;height:1026px;background:#FFFFFF;" version="1.1" viewBox="0 0 869 1026" width="869px" zoomAndPan="magnify"><title>IOD(6)_Pj2_T-1</title><defs/><g><text fill="#000000" font-family="Arial" font-size="14" font-weight="bold" lengthAdjust="spacing" textLength="115.1719" x="375.7139" y="32.9951">IOD(6)_Pj2_T-1</text><text fill="#000000" font-family="Arial" font-size="14" font-weight="bold" lengthAdjust="spacing" textLength="277.3066" x="294.6465" y="49.292">US6: Compare Semester Schedules</text><ellipse cx="500.2974" cy="73.5938" fill="#222222" rx="10" ry="10" style="stroke:#222222;stroke-width:1;"/><rect fill="#FEFEFE" height="47.9375" rx="12.5" ry="12.5" style="stroke:#444444;stroke-width:0.5;" width="346.1738" x="327.2104" y="103.5938"/><text fill="#000000" font-family="Arial" font-size="12" lengthAdjust="spacing" textLength="326.1738" x="337.2104" y="124.7324">Prerequisite: data for at least two semesters imported</text><text fill="#000000" font-family="Arial" font-size="12" lengthAdjust="spacing" textLength="180.4863" x="337.2104" y="138.7012">(see US1 &#8212; Upload Excel File)</text><rect fill="#FEFEFE" height="33.9688" rx="12.5" ry="12.5" style="stroke:#444444;stroke-width:0.5;" width="310.8008" x="344.897" y="171.5313"/><text fill="#000000" font-family="Arial" font-size="12" lengthAdjust="spacing" textLength="290.8008" x="354.897" y="192.6699">Actor navigates to the Compare Schedules Page</text><rect fill="#FEFEFE" height="33.9688" rx="12.5" ry="12.5" style="stroke:#444444;stroke-width:0.5;" width="317.1699" x="341.7124" y="225.5"/><text fill="#000000" font-family="Arial" font-size="12" lengthAdjust="spacing" textLength="297.1699" x="351.7124" y="246.6387">Actor selects Semester A from the first dropdown</text><rect fill="#FEFEFE" height="33.9688" rx="12.5" ry="12.5" style="stroke:#444444;stroke-width:0.5;" width="336.541" x="332.0269" y="279.4688"/><text fill="#000000" font-family="Arial" font-size="12" lengthAdjust="spacing" textLength="316.541" x="342.0269" y="300.6074">Actor selects Semester B from the second dropdown</text><rect fill="#FEFEFE" height="33.9688" rx="12.5" ry="12.5" style="stroke:#444444;stroke-width:0.5;" width="339.5469" x="330.5239" y="381.8398"/><text fill="#000000" font-family="Arial" font-size="12" lengthAdjust="spacing" textLength="319.5469" x="340.5239" y="402.9785">System alerts actor to select two different semesters</text><ellipse cx="500.2974" cy="455.3242" fill="none" rx="11" ry="11" style="stroke:#222222;stroke-width:1;"/><ellipse cx="500.2974" cy="455.3242" fill="#222222" rx="6" ry="6" style="stroke:#222222;stroke-width:1;"/><polygon fill="#FEFEFE" points="389.3655,333.4375,611.2292,333.4375,623.2292,345.4375,611.2292,357.4375,389.3655,357.4375,377.3655,345.4375,389.3655,333.4375" style="stroke:#444444;stroke-width:0.5;"/><text fill="#000000" font-family="Arial" font-size="11" lengthAdjust="spacing" textLength="19.0083" x="504.2974" y="367.6479">yes</text><text fill="#000000" font-family="Arial" font-size="11" lengthAdjust="spacing" textLength="221.8638" x="389.3655" y="349.2456">Same semester selected for both fields?</text><text fill="#000000" font-family="Arial" font-size="11" lengthAdjust="spacing" textLength="13.7017" x="623.2292" y="342.8433">no</text><rect fill="#FEFEFE" height="33.9688" rx="12.5" ry="12.5" style="stroke:#444444;stroke-width:0.5;" width="223.4258" x="388.5845" y="508.3242"/><text fill="#000000" font-family="Arial" font-size="12" lengthAdjust="spacing" textLength="203.4258" x="398.5845" y="529.4629">Actor clicks "Compare Schedules"</text><rect fill="#ADD8E6" height="61.9063" rx="12.5" ry="12.5" style="stroke:#444444;stroke-width:0.5;" width="616.7188" x="191.938" y="562.293"/><text fill="#000000" font-family="Arial" font-size="12" font-weight="bold" lengthAdjust="spacing" textLength="19.2773" x="201.938" y="583.4316">ref</text><text fill="#000000" font-family="Arial" font-size="12" lengthAdjust="spacing" textLength="283.4004" x="225.0298" y="583.4316">UC_COMPARE &#8212; Compare Semester Schedules</text><text fill="#000000" font-family="Arial" font-size="12" lengthAdjust="spacing" textLength="440.7012" x="201.938" y="597.4004">&#9472;&#9472;&#9472;&#9472;&#9472;&#9472;&#9472;&#9472;&#9472;&#9472;&#9472;&#9472;&#9472;&#9472;&#9472;&#9472;&#9472;&#9472;&#9472;&#9472;&#9472;&#9472;&#9472;&#9472;&#9472;&#9472;&#9472;&#9472;&#9472;&#9472;&#9472;&#9472;&#9472;&#9472;&#9472;&#9472;&#9472;&#9472;&#9472;&#9472;&#9472;&#9472;&#9472;&#9472;&#9472;&#9472;&#9472;&#9472;&#9472;&#9472;&#9472;&#9472;&#9472;&#9472;&#9472;&#9472;&#9472;&#9472;&#9472;&#9472;&#9472;</text><text fill="#000000" font-family="Arial" font-size="12" lengthAdjust="spacing" textLength="596.7188" x="201.938" y="611.3691">System identifies courses exclusive to Semester A,\nexclusive to Semester B, and common to both</text><rect fill="#ADD8E6" height="61.9063" rx="12.5" ry="12.5" style="stroke:#444444;stroke-width:0.5;" width="556.4902" x="222.0522" y="644.1992"/><text fill="#000000" font-family="Arial" font-size="12" font-weight="bold" lengthAdjust="spacing" textLength="19.2773" x="232.0522" y="665.3379">ref</text><text fill="#000000" font-family="Arial" font-size="12" lengthAdjust="spacing" textLength="229.4648" x="255.144" y="665.3379">UC_STATS &#8212; View Semester Statistics</text><text fill="#000000" font-family="Arial" font-size="12" lengthAdjust="spacing" textLength="419.0273" x="232.0522" y="679.3066">&#9472;&#9472;&#9472;&#9472;&#9472;&#9472;&#9472;&#9472;&#9472;&#9472;&#9472;&#9472;&#9472;&#9472;&#9472;&#9472;&#9472;&#9472;&#9472;&#9472;&#9472;&#9472;&#9472;&#9472;&#9472;&#9472;&#9472;&#9472;&#9472;&#9472;&#9472;&#9472;&#9472;&#9472;&#9472;&#9472;&#9472;&#9472;&#9472;&#9472;&#9472;&#9472;&#9472;&#9472;&#9472;&#9472;&#9472;&#9472;&#9472;&#9472;&#9472;&#9472;&#9472;&#9472;&#9472;&#9472;&#9472;&#9472;</text><text fill="#000000" font-family="Arial" font-size="12" lengthAdjust="spacing" textLength="536.4902" x="232.0522" y="693.2754">System computes total classes, unique courses,\nand total enrollment for each semester</text><rect fill="#FEFEFE" height="47.9375" rx="12.5" ry="12.5" style="stroke:#444444;stroke-width:0.5;" width="335.5918" x="332.5015" y="726.1055"/><text fill="#000000" font-family="Arial" font-size="12" lengthAdjust="spacing" textLength="247.6699" x="342.5015" y="747.2441">System displays side-by-side comparison</text><text fill="#000000" font-family="Arial" font-size="12" lengthAdjust="spacing" textLength="315.5918" x="342.5015" y="761.2129">with categorized course lists and summary statistics</text><polygon fill="#FEFEFE" points="384.6899,794.043,615.9048,794.043,627.9048,806.043,615.9048,818.043,384.6899,818.043,372.6899,806.043,384.6899,794.043" style="stroke:#444444;stroke-width:0.5;"/><text fill="#000000" font-family="Arial" font-size="11" lengthAdjust="spacing" textLength="231.2148" x="384.6899" y="809.8511">Actor selects a specific course for details?</text><text fill="#000000" font-family="Arial" font-size="11" lengthAdjust="spacing" textLength="19.0083" x="353.6816" y="803.4487">yes</text><text fill="#000000" font-family="Arial" font-size="11" lengthAdjust="spacing" textLength="13.7017" x="627.9048" y="803.4487">no</text><rect fill="#ADD8E6" height="61.9063" rx="12.5" ry="12.5" style="stroke:#444444;stroke-width:0.5;" width="544.7949" x="11" y="828.043"/><text fill="#000000" font-family="Arial" font-size="12" font-weight="bold" lengthAdjust="spacing" textLength="19.2773" x="21" y="849.1816">ref</text><text fill="#000000" font-family="Arial" font-size="12" lengthAdjust="spacing" textLength="202.5352" x="44.0918" y="849.1816">UC_DETAILS &#8212; View Class Details</text><text fill="#000000" font-family="Arial" font-size="12" lengthAdjust="spacing" textLength="354.0059" x="21" y="863.1504">&#9472;&#9472;&#9472;&#9472;&#9472;&#9472;&#9472;&#9472;&#9472;&#9472;&#9472;&#9472;&#9472;&#9472;&#9472;&#9472;&#9472;&#9472;&#9472;&#9472;&#9472;&#9472;&#9472;&#9472;&#9472;&#9472;&#9472;&#9472;&#9472;&#9472;&#9472;&#9472;&#9472;&#9472;&#9472;&#9472;&#9472;&#9472;&#9472;&#9472;&#9472;&#9472;&#9472;&#9472;&#9472;&#9472;&#9472;&#9472;&#9472;</text><text fill="#000000" font-family="Arial" font-size="12" lengthAdjust="spacing" textLength="524.7949" x="21" y="877.1191">System shows section counts, enrollment,\nand a change summary for both semesters</text><rect fill="#FEFEFE" height="33.9688" rx="12.5" ry="12.5" style="stroke:#444444;stroke-width:0.5;" width="216.1367" x="175.3291" y="909.9492"/><text fill="#000000" font-family="Arial" font-size="12" lengthAdjust="spacing" textLength="196.1367" x="185.3291" y="931.0879">Actor reviews course-level detail</text><rect fill="#FEFEFE" height="33.9688" rx="12.5" ry="12.5" style="stroke:#444444;stroke-width:0.5;" width="282.8047" x="575.7949" y="828.043"/><text fill="#000000" font-family="Arial" font-size="12" lengthAdjust="spacing" textLength="262.8047" x="585.7949" y="849.1816">Actor reviews high-level comparison results</text><polygon fill="#FEFEFE" points="500.2974,949.918,512.2974,961.918,500.2974,973.918,488.2974,961.918,500.2974,949.918" style="stroke:#444444;stroke-width:0.5;"/><ellipse cx="500.2974" cy="1004.918" fill="none" rx="11" ry="11" style="stroke:#222222;stroke-width:1;"/><ellipse cx="500.2974" cy="1004.918" fill="#222222" rx="6" ry="6" style="stroke:#222222;stroke-width:1;"/><line style="stroke:#444444;stroke-width:1;" x1="500.2974" x2="500.2974" y1="83.5938" y2="103.5938"/><polygon fill="#444444" points="496.2974,93.5938,500.2974,103.5938,504.2974,93.5938,500.2974,97.5938" style="stroke:#444444;stroke-width:1;"/><line style="stroke:#444444;stroke-width:1;" x1="500.2974" x2="500.2974" y1="151.5313" y2="171.5313"/><polygon fill="#444444" points="496.2974,161.5313,500.2974,171.5313,504.2974,161.5313,500.2974,165.5313" style="stroke:#444444;stroke-width:1;"/><line style="stroke:#444444;stroke-width:1;" x1="500.2974" x2="500.2974" y1="205.5" y2="225.5"/><polygon fill="#444444" points="496.2974,215.5,500.2974,225.5,504.2974,215.5,500.2974,219.5" style="stroke:#444444;stroke-width:1;"/><line style="stroke:#444444;stroke-width:1;" x1="500.2974" x2="500.2974" y1="259.4688" y2="279.4688"/><polygon fill="#444444" points="496.2974,269.4688,500.2974,279.4688,504.2974,269.4688,500.2974,273.4688" style="stroke:#444444;stroke-width:1;"/><line style="stroke:#444444;stroke-width:1;" x1="500.2974" x2="500.2974" y1="415.8086" y2="444.3242"/><polygon fill="#444444" points="496.2974,434.3242,500.2974,444.3242,504.2974,434.3242,500.2974,438.3242" style="stroke:#444444;stroke-width:1;"/><line style="stroke:#444444;stroke-width:1;" x1="500.2974" x2="500.2974" y1="357.4375" y2="381.8398"/><polygon fill="#444444" points="496.2974,371.8398,500.2974,381.8398,504.2974,371.8398,500.2974,375.8398" style="stroke:#444444;stroke-width:1;"/><line style="stroke:#444444;stroke-width:1;" x1="623.2292" x2="680.0708" y1="345.4375" y2="345.4375"/><polygon fill="#444444" points="676.0708,414.3242,680.0708,424.3242,684.0708,414.3242,680.0708,418.3242" style="stroke:#444444;stroke-width:1;"/><line style="stroke:#444444;stroke-width:1;" x1="680.0708" x2="680.0708" y1="345.4375" y2="488.3242"/><line style="stroke:#444444;stroke-width:1;" x1="680.0708" x2="500.2974" y1="488.3242" y2="488.3242"/><line style="stroke:#444444;stroke-width:1;" x1="500.2974" x2="500.2974" y1="488.3242" y2="508.3242"/><polygon fill="#444444" points="496.2974,498.3242,500.2974,508.3242,504.2974,498.3242,500.2974,502.3242" style="stroke:#444444;stroke-width:1;"/><line style="stroke:#444444;stroke-width:1;" x1="500.2974" x2="500.2974" y1="313.4375" y2="333.4375"/><polygon fill="#444444" points="496.2974,323.4375,500.2974,333.4375,504.2974,323.4375,500.2974,327.4375" style="stroke:#444444;stroke-width:1;"/><line style="stroke:#444444;stroke-width:1;" x1="500.2974" x2="500.2974" y1="542.293" y2="562.293"/><polygon fill="#444444" points="496.2974,552.293,500.2974,562.293,504.2974,552.293,500.2974,556.293" style="stroke:#444444;stroke-width:1;"/><line style="stroke:#444444;stroke-width:1;" x1="500.2974" x2="500.2974" y1="624.1992" y2="644.1992"/><polygon fill="#444444" points="496.2974,634.1992,500.2974,644.1992,504.2974,634.1992,500.2974,638.1992" style="stroke:#444444;stroke-width:1;"/><line style="stroke:#444444;stroke-width:1;" x1="500.2974" x2="500.2974" y1="706.1055" y2="726.1055"/><polygon fill="#444444" points="496.2974,716.1055,500.2974,726.1055,504.2974,716.1055,500.2974,720.1055" style="stroke:#444444;stroke-width:1;"/><line style="stroke:#444444;stroke-width:1;" x1="283.3975" x2="283.3975" y1="889.9492" y2="909.9492"/><polygon fill="#444444" points="279.3975,899.9492,283.3975,909.9492,287.3975,899.9492,283.3975,903.9492" style="stroke:#444444;stroke-width:1;"/><line style="stroke:#444444;stroke-width:1;" x1="372.6899" x2="283.3975" y1="806.043" y2="806.043"/><line style="stroke:#444444;stroke-width:1;" x1="283.3975" x2="283.3975" y1="806.043" y2="828.043"/><polygon fill="#444444" points="279.3975,818.043,283.3975,828.043,287.3975,818.043,283.3975,822.043" style="stroke:#444444;stroke-width:1;"/><line style="stroke:#444444;stroke-width:1;" x1="627.9048" x2="717.1973" y1="806.043" y2="806.043"/><line style="stroke:#444444;stroke-width:1;" x1="717.1973" x2="717.1973" y1="806.043" y2="828.043"/><polygon fill="#444444" points="713.1973,818.043,717.1973,828.043,721.1973,818.043,717.1973,822.043" style="stroke:#444444;stroke-width:1;"/><line style="stroke:#444444;stroke-width:1;" x1="283.3975" x2="283.3975" y1="943.918" y2="961.918"/><line style="stroke:#444444;stroke-width:1;" x1="283.3975" x2="488.2974" y1="961.918" y2="961.918"/><polygon fill="#444444" points="478.2974,957.918,488.2974,961.918,478.2974,965.918,482.2974,961.918" style="stroke:#444444;stroke-width:1;"/><line style="stroke:#444444;stroke-width:1;" x1="717.1973" x2="717.1973" y1="862.0117" y2="961.918"/><line style="stroke:#444444;stroke-width:1;" x1="717.1973" x2="512.2974" y1="961.918" y2="961.918"/><polygon fill="#444444" points="522.2974,957.918,512.2974,961.918,522.2974,965.918,518.2974,961.918" style="stroke:#444444;stroke-width:1;"/><line style="stroke:#444444;stroke-width:1;" x1="500.2974" x2="500.2974" y1="774.043" y2="794.043"/><polygon fill="#444444" points="496.2974,784.043,500.2974,794.043,504.2974,784.043,500.2974,788.043" style="stroke:#444444;stroke-width:1;"/><line style="stroke:#444444;stroke-width:1;" x1="500.2974" x2="500.2974" y1="973.918" y2="993.918"/><polygon fill="#444444" points="496.2974,983.918,500.2974,993.918,504.2974,983.918,500.2974,987.918" style="stroke:#444444;stroke-width:1;"/><!--SRC=[rPNDRjf04CVlVefHSYYWS6XLHHKSAWU85AbDK0qz8KMRtJ7UPhthxAmXz9I7o1FcIJfsp4S2QQ-DGV9XFlVttnb_W8khOUkqVJt-zUbwqlq8Jm-FC2Nqa0JdLt3QWu7B2-4H4ioHGcMH6QhI84KHtMhBHf7345DHcd3kRBWKEKBijJ0xzbW6lT1XTIRaxToxqgg1Cyx3yVce-XtoT5wXRxm-ry-kb_Tk-PRnqWNSByJFOF3QQxT8N3zH57Gm-0hCp4wJVy48meSeweqzUhmhDUc0FL0Y24WvlGXWK520i7H0JJo1pWld0wgPRH4YJ9D6Wy8ueM1qBz70kJROxdDgPiEPh5ZekGX841o43BTThPk1iPZZDe3Ge0oqxJg6rBkyZasrvvwKTuLoIzj_C-Hi6q8edLKxCP5EePLKig_FrSIZgez-uqB6XT0e-jgkKbXehP3Q4K0lMR5_3iAWvtAYBXvS4r-pKZfDcQWDMsfzZgJWYWWD8RIiQqTesMzpOccql2KusYDpnDqUnyFXbz5fhzFnc7OwC1rS3ww-Z-CVenhzNpH-UdnuZ_-eWQmLKzGi185qfIT-uxqq9Ua5Lj2tz-DaPWzRpav0iFRIvRcpbQNIzZ3JP19FafheJutB7Pn114r1o_V6SusH3r-Kp-CNXE6x9eXHda1fzLs9QxICi2Brx8FMEsFowX9N0u52PflRNCrfarbfAenO4H1BrRrPTQjtNKzuJSxEx5BpA4aU_hdp-ZUgfXeO9agrD5JckU3LJHlCpO2-76m1LA3aoo3NAQh650QXpTwK7b1tE9h45zzsz1rK6FWxK2VWcFzHG806D6LkITKY2vglCGEmWGNSgjI89q1cmivn0tMppLwiecRfU5mmYFLiTGqkU7S_4-tlRAez_qpFiyPxApLRYJ-edB_PRDM- -mC0]--></g></svg>