<svg xmlns="http://www.w3.org/2000/svg" xmlns:xlink="http://www.w3.org/1999/xlink" contentStyleType="text/css" height="686px" preserveAspectRatio="none" style="width:940px;height:686px;background:#FFFFFF;" version="1.1" viewBox="0 0 940 686" width="940px" zoomAndPan="magnify"><title>IOD(2)_Pj2_T-1</title><defs/><g><text fill="#000000" font-family="Arial" font-size="14" font-weight="bold" lengthAdjust="spacing" textLength="115.1719" x="410.9355" y="32.9951">IOD(2)_Pj2_T-1</text><text fill="#000000" font-family="Arial" font-size="14" font-weight="bold" lengthAdjust="spacing" textLength="241.1855" x="347.9287" y="49.292">US2: Search and Filter Classes</text><ellipse cx="568.7178" cy="73.5938" fill="#222222" rx="10" ry="10" style="stroke:#222222;stroke-width:1;"/><rect fill="#FEFEFE" height="33.9688" rx="12.5" ry="12.5" style="stroke:#444444;stroke-width:0.5;" width="328.9824" x="404.2266" y="103.5938"/><text fill="#000000" font-family="Arial" font-size="12" lengthAdjust="spacing" textLength="308.9824" x="414.2266" y="124.7324">Actor navigates to the Search &amp; Filter Classes Page</text><rect fill="#FEFEFE" height="47.9375" rx="12.5" ry="12.5" style="stroke:#444444;stroke-width:0.5;" width="310.1035" x="413.666" y="157.5625"/><text fill="#000000" font-family="Arial" font-size="12" lengthAdjust="spacing" textLength="241.5879" x="423.666" y="178.7012">Actor enters one or more search criteria</text><text fill="#000000" font-family="Arial" font-size="12" lengthAdjust="spacing" textLength="290.1035" x="423.666" y="192.6699">(course code, instructor, semester, department)</text><rect fill="#ADD8E6" height="61.9063" rx="12.5" ry="12.5" style="stroke:#444444;stroke-width:0.5;" width="377.2109" x="380.1123" y="225.5"/><text fill="#000000" font-family="Arial" font-size="12" font-weight="bold" lengthAdjust="spacing" textLength="19.2773" x="390.1123" y="246.6387">ref</text><text fill="#000000" font-family="Arial" font-size="12" lengthAdjust="spacing" textLength="243.2461" x="413.2041" y="246.6387">UC_SEARCH &#8212; Search and Filter Classes</text><text fill="#000000" font-family="Arial" font-size="12" lengthAdjust="spacing" textLength="325.1074" x="390.1123" y="260.6074">&#9472;&#9472;&#9472;&#9472;&#9472;&#9472;&#9472;&#9472;&#9472;&#9472;&#9472;&#9472;&#9472;&#9472;&#9472;&#9472;&#9472;&#9472;&#9472;&#9472;&#9472;&#9472;&#9472;&#9472;&#9472;&#9472;&#9472;&#9472;&#9472;&#9472;&#9472;&#9472;&#9472;&#9472;&#9472;&#9472;&#9472;&#9472;&#9472;&#9472;&#9472;&#9472;&#9472;&#9472;&#9472;</text><text fill="#000000" font-family="Arial" font-size="12" lengthAdjust="spacing" textLength="357.2109" x="390.1123" y="274.5762">System queries the database and returns matching classes</text><polygon fill="#FEFEFE" points="528.1794,307.4063,609.2561,307.4063,621.2561,319.4063,609.2561,331.4063,528.1794,331.4063,516.1794,319.4063,528.1794,307.4063" style="stroke:#444444;stroke-width:0.5;"/><text fill="#000000" font-family="Arial" font-size="11" lengthAdjust="spacing" textLength="81.0767" x="528.1794" y="323.2144">Results found?</text><text fill="#000000" font-family="Arial" font-size="11" lengthAdjust="spacing" textLength="19.0083" x="497.1711" y="316.812">yes</text><text fill="#000000" font-family="Arial" font-size="11" lengthAdjust="spacing" textLength="13.7017" x="621.2561" y="316.812">no</text><rect fill="#FEFEFE" height="47.9375" rx="12.5" ry="12.5" style="stroke:#444444;stroke-width:0.5;" width="322.1855" x="191.7139" y="341.4063"/><text fill="#000000" font-family="Arial" font-size="12" lengthAdjust="spacing" textLength="241.8047" x="201.7139" y="362.5449">System displays list of matching classes</text><text fill="#000000" font-family="Arial" font-size="12" lengthAdjust="spacing" textLength="302.1855" x="201.7139" y="376.5137">(title, section, instructor, room, times, enrollment)</text><polygon fill="#FEFEFE" points="271.3137,423.3125,434.2996,423.3125,446.2996,435.3125,434.2996,447.3125,271.3137,447.3125,259.3137,435.3125,271.3137,423.3125" style="stroke:#444444;stroke-width:0.5;"/><text fill="#000000" font-family="Arial" font-size="11" lengthAdjust="spacing" textLength="162.9858" x="271.3137" y="439.1206">Actor selects a specific class?</text><text fill="#000000" font-family="Arial" font-size="11" lengthAdjust="spacing" textLength="19.0083" x="240.3054" y="432.7183">yes</text><text fill="#000000" font-family="Arial" font-size="11" lengthAdjust="spacing" textLength="13.7017" x="446.2996" y="432.7183">no</text><rect fill="#ADD8E6" height="61.9063" rx="12.5" ry="12.5" style="stroke:#444444;stroke-width:0.5;" width="374.0059" x="11" y="457.3125"/><text fill="#000000" font-family="Arial" font-size="12" font-weight="bold" lengthAdjust="spacing" textLength="19.2773" x="21" y="478.4512">ref</text><text fill="#000000" font-family="Arial" font-size="12" lengthAdjust="spacing" textLength="202.5352" x="44.0918" y="478.4512">UC_DETAILS &#8212; View Class Details</text><text fill="#000000" font-family="Arial" font-size="12" lengthAdjust="spacing" textLength="354.0059" x="21" y="492.4199">&#9472;&#9472;&#9472;&#9472;&#9472;&#9472;&#9472;&#9472;&#9472;&#9472;&#9472;&#9472;&#9472;&#9472;&#9472;&#9472;&#9472;&#9472;&#9472;&#9472;&#9472;&#9472;&#9472;&#9472;&#9472;&#9472;&#9472;&#9472;&#9472;&#9472;&#9472;&#9472;&#9472;&#9472;&#9472;&#9472;&#9472;&#9472;&#9472;&#9472;&#9472;&#9472;&#9472;&#9472;&#9472;&#9472;&#9472;&#9472;&#9472;</text><text fill="#000000" font-family="Arial" font-size="12" lengthAdjust="spacing" textLength="309.1055" x="21" y="506.3887">System displays full attributes of the selected class</text><rect fill="#FEFEFE" height="33.9688" rx="12.5" ry="12.5" style="stroke:#444444;stroke-width:0.5;" width="261.2305" x="67.3877" y="539.2188"/><text fill="#000000" font-family="Arial" font-size="12" lengthAdjust="spacing" textLength="241.2305" x="77.3877" y="560.3574">Actor reviews detailed class information</text><rect fill="#FEFEFE" height="33.9688" rx="12.5" ry="12.5" style="stroke:#444444;stroke-width:0.5;" width="205.209" x="405.0059" y="457.3125"/><text fill="#000000" font-family="Arial" font-size="12" lengthAdjust="spacing" textLength="185.209" x="415.0059" y="478.4512">Actor reviews search result list</text><polygon fill="#FEFEFE" points="352.8066,579.1875,364.8066,591.1875,352.8066,603.1875,340.8066,591.1875,352.8066,579.1875" style="stroke:#444444;stroke-width:0.5;"/><rect fill="#FEFEFE" height="33.9688" rx="12.5" ry="12.5" style="stroke:#444444;stroke-width:0.5;" width="288.8281" x="640.2148" y="341.4063"/><text fill="#000000" font-family="Arial" font-size="12" lengthAdjust="spacing" textLength="268.8281" x="650.2148" y="362.5449">System displays "No results found" message</text><rect fill="#FEFEFE" height="33.9688" rx="12.5" ry="12.5" style="stroke:#444444;stroke-width:0.5;" width="214.2383" x="677.5098" y="409.3438"/><text fill="#000000" font-family="Arial" font-size="12" lengthAdjust="spacing" textLength="194.2383" x="687.5098" y="430.4824">Actor adjusts criteria and retries</text><polygon fill="#FEFEFE" points="568.7178,609.1875,580.7178,621.1875,568.7178,633.1875,556.7178,621.1875,568.7178,609.1875" style="stroke:#444444;stroke-width:0.5;"/><ellipse cx="568.7178" cy="664.1875" fill="none" rx="11" ry="11" style="stroke:#222222;stroke-width:1;"/><ellipse cx="568.7178" cy="664.1875" fill="#222222" rx="6" ry="6" style="stroke:#222222;stroke-width:1;"/><line style="stroke:#444444;stroke-width:1;" x1="568.7178" x2="568.7178" y1="83.5938" y2="103.5938"/><polygon fill="#444444" points="564.7178,93.5938,568.7178,103.5938,572.7178,93.5938,568.7178,97.5938" style="stroke:#444444;stroke-width:1;"/><line style="stroke:#444444;stroke-width:1;" x1="568.7178" x2="568.7178" y1="137.5625" y2="157.5625"/><polygon fill="#444444" points="564.7178,147.5625,568.7178,157.5625,572.7178,147.5625,568.7178,151.5625" style="stroke:#444444;stroke-width:1;"/><line style="stroke:#444444;stroke-width:1;" x1="568.7178" x2="568.7178" y1="205.5" y2="225.5"/><polygon fill="#444444" points="564.7178,215.5,568.7178,225.5,572.7178,215.5,568.7178,219.5" style="stroke:#444444;stroke-width:1;"/><line style="stroke:#444444;stroke-width:1;" x1="198.0029" x2="198.0029" y1="519.2188" y2="539.2188"/><polygon fill="#444444" points="194.0029,529.2188,198.0029,539.2188,202.0029,529.2188,198.0029,533.2188" style="stroke:#444444;stroke-width:1;"/><line style="stroke:#444444;stroke-width:1;" x1="259.3137" x2="198.0029" y1="435.3125" y2="435.3125"/><line style="stroke:#444444;stroke-width:1;" x1="198.0029" x2="198.0029" y1="435.3125" y2="457.3125"/><polygon fill="#444444" points="194.0029,447.3125,198.0029,457.3125,202.0029,447.3125,198.0029,451.3125" style="stroke:#444444;stroke-width:1;"/><line style="stroke:#444444;stroke-width:1;" x1="446.2996" x2="507.6104" y1="435.3125" y2="435.3125"/><line style="stroke:#444444;stroke-width:1;" x1="507.6104" x2="507.6104" y1="435.3125" y2="457.3125"/><polygon fill="#444444" points="503.6104,447.3125,507.6104,457.3125,511.6104,447.3125,507.6104,451.3125" style="stroke:#444444;stroke-width:1;"/><line style="stroke:#444444;stroke-width:1;" x1="198.0029" x2="198.0029" y1="573.1875" y2="591.1875"/><line style="stroke:#444444;stroke-width:1;" x1="198.0029" x2="340.8066" y1="591.1875" y2="591.1875"/><polygon fill="#444444" points="330.8066,587.1875,340.8066,591.1875,330.8066,595.1875,334.8066,591.1875" style="stroke:#444444;stroke-width:1;"/><line style="stroke:#444444;stroke-width:1;" x1="507.6104" x2="507.6104" y1="491.2813" y2="591.1875"/><line style="stroke:#444444;stroke-width:1;" x1="507.6104" x2="364.8066" y1="591.1875" y2="591.1875"/><polygon fill="#444444" points="374.8066,587.1875,364.8066,591.1875,374.8066,595.1875,370.8066,591.1875" style="stroke:#444444;stroke-width:1;"/><line style="stroke:#444444;stroke-width:1;" x1="352.8066" x2="352.8066" y1="389.3438" y2="423.3125"/><polygon fill="#444444" points="348.8066,413.3125,352.8066,423.3125,356.8066,413.3125,352.8066,417.3125" style="stroke:#444444;stroke-width:1;"/><line style="stroke:#444444;stroke-width:1;" x1="784.6289" x2="784.6289" y1="375.375" y2="409.3438"/><polygon fill="#444444" points="780.6289,399.3438,784.6289,409.3438,788.6289,399.3438,784.6289,403.3438" style="stroke:#444444;stroke-width:1;"/><line style="stroke:#444444;stroke-width:1;" x1="516.1794" x2="352.8066" y1="319.4063" y2="319.4063"/><line style="stroke:#444444;stroke-width:1;" x1="352.8066" x2="352.8066" y1="319.4063" y2="341.4063"/><polygon fill="#444444" points="348.8066,331.4063,352.8066,341.4063,356.8066,331.4063,352.8066,335.4063" style="stroke:#444444;stroke-width:1;"/><line style="stroke:#444444;stroke-width:1;" x1="621.2561" x2="784.6289" y1="319.4063" y2="319.4063"/><line style="stroke:#444444;stroke-width:1;" x1="784.6289" x2="784.6289" y1="319.4063" y2="341.4063"/><polygon fill="#444444" points="780.6289,331.4063,784.6289,341.4063,788.6289,331.4063,784.6289,335.4063" style="stroke:#444444;stroke-width:1;"/><line style="stroke:#444444;stroke-width:1;" x1="352.8066" x2="352.8066" y1="603.1875" y2="621.1875"/><line style="stroke:#444444;stroke-width:1;" x1="352.8066" x2="556.7178" y1="621.1875" y2="621.1875"/><polygon fill="#444444" points="546.7178,617.1875,556.7178,621.1875,546.7178,625.1875,550.7178,621.1875" style="stroke:#444444;stroke-width:1;"/><line style="stroke:#444444;stroke-width:1;" x1="784.6289" x2="784.6289" y1="443.3125" y2="621.1875"/><line style="stroke:#444444;stroke-width:1;" x1="784.6289" x2="580.7178" y1="621.1875" y2="621.1875"/><polygon fill="#444444" points="590.7178,617.1875,580.7178,621.1875,590.7178,625.1875,586.7178,621.1875" style="stroke:#444444;stroke-width:1;"/><line style="stroke:#444444;stroke-width:1;" x1="568.7178" x2="568.7178" y1="287.4063" y2="307.4063"/><polygon fill="#444444" points="564.7178,297.4063,568.7178,307.4063,572.7178,297.4063,568.7178,301.4063" style="stroke:#444444;stroke-width:1;"/><line style="stroke:#444444;stroke-width:1;" x1="568.7178" x2="568.7178" y1="633.1875" y2="653.1875"/><polygon fill="#444444" points="564.7178,643.1875,568.7178,653.1875,572.7178,643.1875,568.7178,647.1875" style="stroke:#444444;stroke-width:1;"/><!--SRC=[pLDDRzf04BtxLumIgGL43qLLLS6XeeQeaIeQXT1J9BInnsIJzIwT6HDnou_8BymlwQnj8a8IzPg5YpNpvkEzDn_XzFUaC-Wkpsu6oujFd-7n_W4MZ0Hp2RI5mH3cQ2Yx1kDpEB5ED9GwmuoS97nh_TgGAM62XQcSd0GlCrCYZCaQjnSVPs8tLhO_J7Qxeb3vF0qk41oVJEFljSn0ELARzQL- -rb4uUwju2m8lcoaBqqFi_QRZEkN96B5uG4lbtun_myNOaYIPAZpQp5lDdPb11aaW5pZ3ldX00TdPeMZ9nXwZJ44Zw1VPI04Re0PMGrPS-axMQY84RAGOn-iPw4gWlkQMY9hLXzor1sbr79TBNuydao-JRyEUpt2ejU3HRgSJyVdwSzQxRTtUdouVm__PBxLhKhuMoa1aL6bCpTYheoo4CScb8eyGsaakxP-1LcpWAvk2-YS8wir6OheXk_TYFVGsI9t4u1XMpotl7Pco-0i2uJYHJ4blZP6f5aj6lnpxYc4iWzYLO6-oaZ1kHtz076AHc16fsW60xp6p1OsQ-eVZWNmYcYJwSNuzDUyLksFnRj6ABqzCTPnZNedaZsJByvro79HEGT6XEnL5Qz42O-oDlHWtf0ogg7jQH1kT6LMQyTjTocgGH58jL91OZewzKJ7X-vhqFQKgFP3BNGDyRajacGV-S8KHxFGmbeR7O4ApVNjFhKn-Kt5ch0xrPqtesb7ITk69Qp_0G00]--></g></svg>