<?plantuml 1.2026.2?><svg xmlns="http://www.w3.org/2000/svg" xmlns:xlink="http://www.w3.org/1999/xlink" contentStyleType="text/css" data-diagram-type="ACTIVITY" height="702px" preserveAspectRatio="none" style="width:1002px;height:702px;background:#FFFFFF;" version="1.1" viewBox="0 0 1002 702" width="1002px" zoomAndPan="magnify"><title>IOD(9)_Pj2_T-1
US9: Remove Uploaded File</title><defs/><g><rect fill="#FFFFCC" height="26.6406" rx="2.5" ry="2.5" style="stroke:#FFDD88;stroke-width:3;" width="991.0391" x="5" y="5"/><text fill="#000000" font-family="monospace" font-size="10" lengthAdjust="spacing" textLength="535.8252" x="10" y="20">This&#160;syntax&#160;is&#160;deprecated,&#160;you&#160;must&#160;add&#160;&lt;&lt;#ADD8E6&gt;&gt;&#160;at&#160;the&#160;end&#160;of&#160;the&#160;line,&#160;after&#160;the&#160;';'</text><g class="title" data-source-line="11"><text fill="#000000" font-family="Arial" font-size="14" font-weight="bold" lengthAdjust="spacing" textLength="115.1719" x="434.4336" y="69.6357">IOD(9)_Pj2_T-1</text><text fill="#000000" font-family="Arial" font-size="14" font-weight="bold" lengthAdjust="spacing" textLength="217.9639" x="383.0376" y="85.9326">US9: Remove Uploaded File</text></g><path d="M528.4895,100.2344 L528.4895,125.3672 L673.4656,125.3672 L673.4656,110.2344 L663.4656,100.2344 L528.4895,100.2344" fill="#FFFFCC" style="stroke:#AAAAAA;stroke-width:0.5;"/><path d="M663.4656,100.2344 L663.4656,110.2344 L673.4656,110.2344 L663.4656,100.2344" fill="#FFFFCC" style="stroke:#AAAAAA;stroke-width:0.5;"/><text fill="#000000" font-family="Arial" font-size="13" lengthAdjust="spacing" textLength="123.9761" x="534.4895" y="117.3013">Author: MayfairMI6</text><ellipse cx="600.9775" cy="155.3672" fill="#222222" rx="10" ry="10" style="stroke:#222222;stroke-width:1;"/><rect fill="#FEFEFE" height="33.9688" rx="12.5" ry="12.5" style="stroke:#444444;stroke-width:0.5;" width="278.9609" x="461.4971" y="185.3672"/><text fill="#000000" font-family="Arial" font-size="12" lengthAdjust="spacing" textLength="258.9609" x="471.4971" y="206.5059">Actor navigates to the Uploaded Files Page</text><rect fill="#FEFEFE" height="33.9688" rx="12.5" ry="12.5" style="stroke:#444444;stroke-width:0.5;" width="361.7363" x="420.1094" y="239.3359"/><text fill="#000000" font-family="Arial" font-size="12" lengthAdjust="spacing" textLength="341.7363" x="430.1094" y="260.4746">System displays list of all previously uploaded Excel files</text><polygon fill="#FEFEFE" points="547.2021,293.3047,654.7529,293.3047,666.7529,305.3047,654.7529,317.3047,547.2021,317.3047,535.2021,305.3047,547.2021,293.3047" style="stroke:#444444;stroke-width:0.5;"/><text fill="#000000" font-family="Arial" font-size="11" lengthAdjust="spacing" textLength="107.5508" x="547.2021" y="309.1128">Any files in the list?</text><text fill="#000000" font-family="Arial" font-size="11" lengthAdjust="spacing" textLength="19.0083" x="516.1938" y="302.7104">yes</text><text fill="#000000" font-family="Arial" font-size="11" lengthAdjust="spacing" textLength="13.7017" x="666.7529" y="302.7104">no</text><rect fill="#FEFEFE" height="33.9688" rx="12.5" ry="12.5" style="stroke:#444444;stroke-width:0.5;" width="208.6133" x="250.4111" y="327.3047"/><text fill="#000000" font-family="Arial" font-size="12" lengthAdjust="spacing" textLength="188.6133" x="260.4111" y="348.4434">Actor selects the file to remove</text><rect fill="#FEFEFE" height="33.9688" rx="12.5" ry="12.5" style="stroke:#444444;stroke-width:0.5;" width="311.7266" x="198.8545" y="381.2734"/><text fill="#000000" font-family="Arial" font-size="12" lengthAdjust="spacing" textLength="291.7266" x="208.8545" y="402.4121">Actor clicks the "Remove" button next to the file</text><rect fill="#FEFEFE" height="61.9063" rx="12.5" ry="12.5" style="stroke:#444444;stroke-width:0.5;" width="687.4355" x="11" y="435.2422"/><text fill="#000000" font-family="Arial" font-size="12" font-weight="bold" lengthAdjust="spacing" textLength="19.2773" x="21" y="456.3809">ref</text><text fill="#000000" font-family="Arial" font-size="12" lengthAdjust="spacing" textLength="229.166" x="44.0918" y="456.3809">UC_REMOVE &#8212; Remove Uploaded File</text><text fill="#000000" font-family="Arial" font-size="12" lengthAdjust="spacing" textLength="375.6797" x="21" y="470.3496">&#9472;&#9472;&#9472;&#9472;&#9472;&#9472;&#9472;&#9472;&#9472;&#9472;&#9472;&#9472;&#9472;&#9472;&#9472;&#9472;&#9472;&#9472;&#9472;&#9472;&#9472;&#9472;&#9472;&#9472;&#9472;&#9472;&#9472;&#9472;&#9472;&#9472;&#9472;&#9472;&#9472;&#9472;&#9472;&#9472;&#9472;&#9472;&#9472;&#9472;&#9472;&#9472;&#9472;&#9472;&#9472;&#9472;&#9472;&#9472;&#9472;&#9472;&#9472;&#9472;</text><text fill="#000000" font-family="Arial" font-size="12" lengthAdjust="spacing" textLength="667.4355" x="21" y="484.3184">System deletes the selected file from the uploads folder\nand removes its records from the schedule database</text><rect fill="#FEFEFE" height="33.9688" rx="12.5" ry="12.5" style="stroke:#444444;stroke-width:0.5;" width="239.4102" x="235.0127" y="517.1484"/><text fill="#000000" font-family="Arial" font-size="12" lengthAdjust="spacing" textLength="219.4102" x="245.0127" y="538.2871">System confirms successful removal</text><rect fill="#FEFEFE" height="47.9375" rx="12.5" ry="12.5" style="stroke:#444444;stroke-width:0.5;" width="225.9922" x="241.7217" y="571.1172"/><text fill="#000000" font-family="Arial" font-size="12" lengthAdjust="spacing" textLength="179.0449" x="251.7217" y="592.2559">Actor reviews updated file list</text><text fill="#000000" font-family="Arial" font-size="12" lengthAdjust="spacing" textLength="205.9922" x="251.7217" y="606.2246">(selected file is no longer present)</text><rect fill="#FEFEFE" height="33.9688" rx="12.5" ry="12.5" style="stroke:#444444;stroke-width:0.5;" width="257.6035" x="718.4355" y="327.3047"/><text fill="#000000" font-family="Arial" font-size="12" lengthAdjust="spacing" textLength="237.6035" x="728.4355" y="348.4434">System shows empty uploaded files list</text><rect fill="#FEFEFE" height="33.9688" rx="12.5" ry="12.5" style="stroke:#444444;stroke-width:0.5;" width="191.9492" x="751.2627" y="381.2734"/><text fill="#000000" font-family="Arial" font-size="12" lengthAdjust="spacing" textLength="171.9492" x="761.2627" y="402.4121">Actor has nothing to remove</text><polygon fill="#FEFEFE" points="600.9775,625.0547,612.9775,637.0547,600.9775,649.0547,588.9775,637.0547,600.9775,625.0547" style="stroke:#444444;stroke-width:0.5;"/><ellipse cx="600.9775" cy="680.0547" fill="none" rx="11" ry="11" style="stroke:#222222;stroke-width:1;"/><ellipse cx="600.9775" cy="680.0547" fill="#222222" rx="6" ry="6" style="stroke:#222222;stroke-width:1;"/><line style="stroke:#444444;stroke-width:1;" x1="600.9775" x2="600.9775" y1="125.3672" y2="145.3672"/><polygon fill="#444444" points="596.9775,135.3672,600.9775,145.3672,604.9775,135.3672,600.9775,139.3672" style="stroke:#444444;stroke-width:1;"/><line style="stroke:#444444;stroke-width:1;" x1="600.9775" x2="600.9775" y1="165.3672" y2="185.3672"/><polygon fill="#444444" points="596.9775,175.3672,600.9775,185.3672,604.9775,175.3672,600.9775,179.3672" style="stroke:#444444;stroke-width:1;"/><line style="stroke:#444444;stroke-width:1;" x1="600.9775" x2="600.9775" y1="219.3359" y2="239.3359"/><polygon fill="#444444" points="596.9775,229.3359,600.9775,239.3359,604.9775,229.3359,600.9775,233.3359" style="stroke:#444444;stroke-width:1;"/><line style="stroke:#444444;stroke-width:1;" x1="354.7178" x2="354.7178" y1="361.2734" y2="381.2734"/><polygon fill="#444444" points="350.7178,371.2734,354.7178,381.2734,358.7178,371.2734,354.7178,375.2734" style="stroke:#444444;stroke-width:1;"/><line style="stroke:#444444;stroke-width:1;" x1="354.7178" x2="354.7178" y1="415.2422" y2="435.2422"/><polygon fill="#444444" points="350.7178,425.2422,354.7178,435.2422,358.7178,425.2422,354.7178,429.2422" style="stroke:#444444;stroke-width:1;"/><line style="stroke:#444444;stroke-width:1;" x1="354.7178" x2="354.7178" y1="497.1484" y2="517.1484"/><polygon fill="#444444" points="350.7178,507.1484,354.7178,517.1484,358.7178,507.1484,354.7178,511.1484" style="stroke:#444444;stroke-width:1;"/><line style="stroke:#444444;stroke-width:1;" x1="354.7178" x2="354.7178" y1="551.1172" y2="571.1172"/><polygon fill="#444444" points="350.7178,561.1172,354.7178,571.1172,358.7178,561.1172,354.7178,565.1172" style="stroke:#444444;stroke-width:1;"/><line style="stroke:#444444;stroke-width:1;" x1="847.2373" x2="847.2373" y1="361.2734" y2="381.2734"/><polygon fill="#444444" points="843.2373,371.2734,847.2373,381.2734,851.2373,371.2734,847.2373,375.2734" style="stroke:#444444;stroke-width:1;"/><line style="stroke:#444444;stroke-width:1;" x1="535.2021" x2="354.7178" y1="305.3047" y2="305.3047"/><line style="stroke:#444444;stroke-width:1;" x1="354.7178" x2="354.7178" y1="305.3047" y2="327.3047"/><polygon fill="#444444" points="350.7178,317.3047,354.7178,327.3047,358.7178,317.3047,354.7178,321.3047" style="stroke:#444444;stroke-width:1;"/><line style="stroke:#444444;stroke-width:1;" x1="666.7529" x2="847.2373" y1="305.3047" y2="305.3047"/><line style="stroke:#444444;stroke-width:1;" x1="847.2373" x2="847.2373" y1="305.3047" y2="327.3047"/><polygon fill="#444444" points="843.2373,317.3047,847.2373,327.3047,851.2373,317.3047,847.2373,321.3047" style="stroke:#444444;stroke-width:1;"/><line style="stroke:#444444;stroke-width:1;" x1="354.7178" x2="354.7178" y1="619.0547" y2="637.0547"/><line style="stroke:#444444;stroke-width:1;" x1="354.7178" x2="588.9775" y1="637.0547" y2="637.0547"/><polygon fill="#444444" points="578.9775,633.0547,588.9775,637.0547,578.9775,641.0547,582.9775,637.0547" style="stroke:#444444;stroke-width:1;"/><line style="stroke:#444444;stroke-width:1;" x1="847.2373" x2="847.2373" y1="415.2422" y2="637.0547"/><line style="stroke:#444444;stroke-width:1;" x1="847.2373" x2="612.9775" y1="637.0547" y2="637.0547"/><polygon fill="#444444" points="622.9775,633.0547,612.9775,637.0547,622.9775,641.0547,618.9775,637.0547" style="stroke:#444444;stroke-width:1;"/><line style="stroke:#444444;stroke-width:1;" x1="600.9775" x2="600.9775" y1="273.3047" y2="293.3047"/><polygon fill="#444444" points="596.9775,283.3047,600.9775,293.3047,604.9775,283.3047,600.9775,287.3047" style="stroke:#444444;stroke-width:1;"/><line style="stroke:#444444;stroke-width:1;" x1="600.9775" x2="600.9775" y1="649.0547" y2="669.0547"/><polygon fill="#444444" points="596.9775,659.0547,600.9775,669.0547,604.9775,659.0547,600.9775,663.0547" style="stroke:#444444;stroke-width:1;"/><?plantuml-src pLHDRzf04BtxLuoIGm2fXrPLrC2XSlcGSY29aj8J4jhOOtlBUiVQ6PFubX-HNvXVqbqR59UIUzSSC7xptioRPoxW-dOsk1fkxdv_sVpyz1dUNbvXnUZWGSWrS3M6UonfXx2g3AaKKrXeWz45nBKKvCQmL4scj5jUNqOHRxMjb5Cbp31JjP45MRbH9KBij3Azvt4YUgUb-Q6IRUwejkcK33auNyp3TGf9BaMtHtrjJn_b73rzzF261FyLycSwFKRrHUBsH95eCNZaqzgk7Zxo9hAU2PpE2ncVjacKaoWQ-z6yZbKxdIj11Y6GueYDuKxbEF7eXuO5IqWrLqOr34Qp06MWZ87AuKvJpQQ1-b0zVqxGG1OuVBdEO13Rfhi7RLkbGF5z6BvQ63J8moW2sBV5Q30HRd6XA7Jdsd4dFLHYTBBjG6UT6MVmM8kG1OlFSXWf4BHbv_5izcr-EHwD76QZ4Qocc_lvylRNl0tUIJi1tbvV_jkFR--m66zOkqK_RsUUdw1rBdDKjZztks78oFYOhQsowTvJlnBljSF41v3V2pWfCAqzHQf4FIhUUxzNJCXcsfKCN2S9CcUrwUYKwUyeP0EVsAjxbaDFOVLhE_YxKSrW2GpPtFy1-4mnMXbwAZICCB0qx8bpGPuJoqfwcUlI5RWdx_g52hHIQ9ltGuGsrLbu6QZw0m00?></g></svg>