<svg xmlns="http://www.w3.org/2000/svg" xmlns:xlink="http://www.w3.org/1999/xlink" contentStyleType="text/css" height="758px" preserveAspectRatio="none" style="width:660px;height:758px;background:#FFFFFF;" version="1.1" viewBox="0 0 660 758" width="660px" zoomAndPan="magnify"><title>IOD(5)_Pj2_T-1</title><defs/><g><text fill="#000000" font-family="Arial" font-size="14" font-weight="bold" lengthAdjust="spacing" textLength="115.1719" x="271.0391" y="32.9951">IOD(5)_Pj2_T-1</text><text fill="#000000" font-family="Arial" font-size="14" font-weight="bold" lengthAdjust="spacing" textLength="363.7471" x="146.7515" y="49.292">US5: Suggest Available Rooms and Time Slots</text><ellipse cx="322.1563" cy="73.5938" fill="#222222" rx="10" ry="10" style="stroke:#222222;stroke-width:1;"/><rect fill="#FEFEFE" height="47.9375" rx="12.5" ry="12.5" style="stroke:#444444;stroke-width:0.5;" width="301.8418" x="171.2354" y="103.5938"/><text fill="#000000" font-family="Arial" font-size="12" lengthAdjust="spacing" textLength="281.8418" x="181.2354" y="124.7324">Prerequisite: schedule data has been imported</text><text fill="#000000" font-family="Arial" font-size="12" lengthAdjust="spacing" textLength="180.4863" x="181.2354" y="138.7012">(see US1 &#8212; Upload Excel File)</text><rect fill="#FEFEFE" height="33.9688" rx="12.5" ry="12.5" style="stroke:#444444;stroke-width:0.5;" width="287.0176" x="178.6475" y="171.5313"/><text fill="#000000" font-family="Arial" font-size="12" lengthAdjust="spacing" textLength="267.0176" x="188.6475" y="192.6699">Actor navigates to the Vacancy Search Page</text><rect fill="#FEFEFE" height="75.875" rx="12.5" ry="12.5" style="stroke:#444444;stroke-width:0.5;" width="223.9531" x="210.1797" y="225.5"/><text fill="#000000" font-family="Arial" font-size="12" lengthAdjust="spacing" textLength="182.3496" x="220.1797" y="246.6387">Actor specifies search criteria:</text><text fill="#000000" font-family="Arial" font-size="12" lengthAdjust="spacing" textLength="65.4902" x="220.1797" y="260.6074">- Semester</text><text fill="#000000" font-family="Arial" font-size="12" lengthAdjust="spacing" textLength="203.9531" x="220.1797" y="274.5762">- Desired class duration (minutes)</text><text fill="#000000" font-family="Arial" font-size="12" lengthAdjust="spacing" textLength="178.9277" x="220.1797" y="288.5449">- Optional: specific room filter</text><rect fill="#FEFEFE" height="33.9688" rx="12.5" ry="12.5" style="stroke:#444444;stroke-width:0.5;" width="146.9961" x="248.6582" y="321.375"/><text fill="#000000" font-family="Arial" font-size="12" lengthAdjust="spacing" textLength="126.9961" x="258.6582" y="342.5137">Actor submits search</text><rect fill="#ADD8E6" height="61.9063" rx="12.5" ry="12.5" style="stroke:#444444;stroke-width:0.5;" width="496.8242" x="73.7441" y="375.3438"/><text fill="#000000" font-family="Arial" font-size="12" font-weight="bold" lengthAdjust="spacing" textLength="19.2773" x="83.7441" y="396.4824">ref</text><text fill="#000000" font-family="Arial" font-size="12" lengthAdjust="spacing" textLength="338.209" x="106.8359" y="396.4824">UC_ROOM &#8212; View Room Schedule (per candidate room)</text><text fill="#000000" font-family="Arial" font-size="12" lengthAdjust="spacing" textLength="476.8242" x="83.7441" y="410.4512">&#9472;&#9472;&#9472;&#9472;&#9472;&#9472;&#9472;&#9472;&#9472;&#9472;&#9472;&#9472;&#9472;&#9472;&#9472;&#9472;&#9472;&#9472;&#9472;&#9472;&#9472;&#9472;&#9472;&#9472;&#9472;&#9472;&#9472;&#9472;&#9472;&#9472;&#9472;&#9472;&#9472;&#9472;&#9472;&#9472;&#9472;&#9472;&#9472;&#9472;&#9472;&#9472;&#9472;&#9472;&#9472;&#9472;&#9472;&#9472;&#9472;&#9472;&#9472;&#9472;&#9472;&#9472;&#9472;&#9472;&#9472;&#9472;&#9472;&#9472;&#9472;&#9472;&#9472;&#9472;&#9472;&#9472;</text><text fill="#000000" font-family="Arial" font-size="12" lengthAdjust="spacing" textLength="437.9063" x="83.7441" y="424.4199">System loads current timetable for each room\nin the selected semester</text><rect fill="#ADD8E6" height="61.9063" rx="12.5" ry="12.5" style="stroke:#444444;stroke-width:0.5;" width="535.4023" x="54.4551" y="457.25"/><text fill="#000000" font-family="Arial" font-size="12" font-weight="bold" lengthAdjust="spacing" textLength="19.2773" x="64.4551" y="478.3887">ref</text><text fill="#000000" font-family="Arial" font-size="12" lengthAdjust="spacing" textLength="196.6055" x="87.5469" y="478.3887">UC_VACANCY &#8212; Vacancy Search</text><text fill="#000000" font-family="Arial" font-size="12" lengthAdjust="spacing" textLength="346.7813" x="64.4551" y="492.3574">&#9472;&#9472;&#9472;&#9472;&#9472;&#9472;&#9472;&#9472;&#9472;&#9472;&#9472;&#9472;&#9472;&#9472;&#9472;&#9472;&#9472;&#9472;&#9472;&#9472;&#9472;&#9472;&#9472;&#9472;&#9472;&#9472;&#9472;&#9472;&#9472;&#9472;&#9472;&#9472;&#9472;&#9472;&#9472;&#9472;&#9472;&#9472;&#9472;&#9472;&#9472;&#9472;&#9472;&#9472;&#9472;&#9472;&#9472;&#9472;</text><text fill="#000000" font-family="Arial" font-size="12" lengthAdjust="spacing" textLength="515.4023" x="64.4551" y="506.3262">System identifies open time slots that are at\nleast as long as the requested duration</text><polygon fill="#FEFEFE" points="268.0264,539.1563,376.2861,539.1563,388.2861,551.1563,376.2861,563.1563,268.0264,563.1563,256.0264,551.1563,268.0264,539.1563" style="stroke:#444444;stroke-width:0.5;"/><text fill="#000000" font-family="Arial" font-size="11" lengthAdjust="spacing" textLength="108.2598" x="268.0264" y="554.9644">Vacant slots found?</text><text fill="#000000" font-family="Arial" font-size="11" lengthAdjust="spacing" textLength="19.0083" x="237.0181" y="548.562">yes</text><text fill="#000000" font-family="Arial" font-size="11" lengthAdjust="spacing" textLength="13.7017" x="388.2861" y="548.562">no</text><rect fill="#FEFEFE" height="47.9375" rx="12.5" ry="12.5" style="stroke:#444444;stroke-width:0.5;" width="293.1875" x="11" y="573.1563"/><text fill="#000000" font-family="Arial" font-size="12" lengthAdjust="spacing" textLength="225.1523" x="21" y="594.2949">System displays vacancy table listing</text><text fill="#000000" font-family="Arial" font-size="12" lengthAdjust="spacing" textLength="273.1875" x="21" y="608.2637">room, day, start time, end time, and duration</text><rect fill="#FEFEFE" height="33.9688" rx="12.5" ry="12.5" style="stroke:#444444;stroke-width:0.5;" width="290.1699" x="12.5088" y="641.0938"/><text fill="#000000" font-family="Arial" font-size="12" lengthAdjust="spacing" textLength="270.1699" x="22.5088" y="662.2324">Actor reviews available rooms and time slots</text><rect fill="#FEFEFE" height="33.9688" rx="12.5" ry="12.5" style="stroke:#444444;stroke-width:0.5;" width="325.0625" x="324.1875" y="573.1563"/><text fill="#000000" font-family="Arial" font-size="12" lengthAdjust="spacing" textLength="305.0625" x="334.1875" y="594.2949">System displays "No vacant spots found" message</text><polygon fill="#FEFEFE" points="322.1563,681.0625,334.1563,693.0625,322.1563,705.0625,310.1563,693.0625,322.1563,681.0625" style="stroke:#444444;stroke-width:0.5;"/><ellipse cx="322.1563" cy="736.0625" fill="none" rx="11" ry="11" style="stroke:#222222;stroke-width:1;"/><ellipse cx="322.1563" cy="736.0625" fill="#222222" rx="6" ry="6" style="stroke:#222222;stroke-width:1;"/><line style="stroke:#444444;stroke-width:1;" x1="322.1563" x2="322.1563" y1="83.5938" y2="103.5938"/><polygon fill="#444444" points="318.1563,93.5938,322.1563,103.5938,326.1563,93.5938,322.1563,97.5938" style="stroke:#444444;stroke-width:1;"/><line style="stroke:#444444;stroke-width:1;" x1="322.1563" x2="322.1563" y1="151.5313" y2="171.5313"/><polygon fill="#444444" points="318.1563,161.5313,322.1563,171.5313,326.1563,161.5313,322.1563,165.5313" style="stroke:#444444;stroke-width:1;"/><line style="stroke:#444444;stroke-width:1;" x1="322.1563" x2="322.1563" y1="205.5" y2="225.5"/><polygon fill="#444444" points="318.1563,215.5,322.1563,225.5,326.1563,215.5,322.1563,219.5" style="stroke:#444444;stroke-width:1;"/><line style="stroke:#444444;stroke-width:1;" x1="322.1563" x2="322.1563" y1="301.375" y2="321.375"/><polygon fill="#444444" points="318.1563,311.375,322.1563,321.375,326.1563,311.375,322.1563,315.375" style="stroke:#444444;stroke-width:1;"/><line style="stroke:#444444;stroke-width:1;" x1="322.1563" x2="322.1563" y1="355.3438" y2="375.3438"/><polygon fill="#444444" points="318.1563,365.3438,322.1563,375.3438,326.1563,365.3438,322.1563,369.3438" style="stroke:#444444;stroke-width:1;"/><line style="stroke:#444444;stroke-width:1;" x1="322.1563" x2="322.1563" y1="437.25" y2="457.25"/><polygon fill="#444444" points="318.1563,447.25,322.1563,457.25,326.1563,447.25,322.1563,451.25" style="stroke:#444444;stroke-width:1;"/><line style="stroke:#444444;stroke-width:1;" x1="157.5938" x2="157.5938" y1="621.0938" y2="641.0938"/><polygon fill="#444444" points="153.5938,631.0938,157.5938,641.0938,161.5938,631.0938,157.5938,635.0938" style="stroke:#444444;stroke-width:1;"/><line style="stroke:#444444;stroke-width:1;" x1="256.0264" x2="157.5938" y1="551.1563" y2="551.1563"/><line style="stroke:#444444;stroke-width:1;" x1="157.5938" x2="157.5938" y1="551.1563" y2="573.1563"/><polygon fill="#444444" points="153.5938,563.1563,157.5938,573.1563,161.5938,563.1563,157.5938,567.1563" style="stroke:#444444;stroke-width:1;"/><line style="stroke:#444444;stroke-width:1;" x1="388.2861" x2="486.7188" y1="551.1563" y2="551.1563"/><line style="stroke:#444444;stroke-width:1;" x1="486.7188" x2="486.7188" y1="551.1563" y2="573.1563"/><polygon fill="#444444" points="482.7188,563.1563,486.7188,573.1563,490.7188,563.1563,486.7188,567.1563" style="stroke:#444444;stroke-width:1;"/><line style="stroke:#444444;stroke-width:1;" x1="157.5938" x2="157.5938" y1="675.0625" y2="693.0625"/><line style="stroke:#444444;stroke-width:1;" x1="157.5938" x2="310.1563" y1="693.0625" y2="693.0625"/><polygon fill="#444444" points="300.1563,689.0625,310.1563,693.0625,300.1563,697.0625,304.1563,693.0625" style="stroke:#444444;stroke-width:1;"/><line style="stroke:#444444;stroke-width:1;" x1="486.7188" x2="486.7188" y1="607.125" y2="693.0625"/><line style="stroke:#444444;stroke-width:1;" x1="486.7188" x2="334.1563" y1="693.0625" y2="693.0625"/><polygon fill="#444444" points="344.1563,689.0625,334.1563,693.0625,344.1563,697.0625,340.1563,693.0625" style="stroke:#444444;stroke-width:1;"/><line style="stroke:#444444;stroke-width:1;" x1="322.1563" x2="322.1563" y1="519.1563" y2="539.1563"/><polygon fill="#444444" points="318.1563,529.1563,322.1563,539.1563,326.1563,529.1563,322.1563,533.1563" style="stroke:#444444;stroke-width:1;"/><line style="stroke:#444444;stroke-width:1;" x1="322.1563" x2="322.1563" y1="705.0625" y2="725.0625"/><polygon fill="#444444" points="318.1563,715.0625,322.1563,725.0625,326.1563,715.0625,322.1563,719.0625" style="stroke:#444444;stroke-width:1;"/><!--SRC=[tLJ1Rjim3BtxAuZsi2He3nlMON0FWvUqm0vBYhefC210mTgqmrMMF4bEvri_eb_OBobbfqcwPOVTXia6B5YKoFVudjx0bzbaS3AykVZ-xkRg-2qyFJp2t965r1lRmaaCQLEMv3maAsI5juhWqfZA0UeShhWYI9NnBehS7UiQBLOmeG8RvS-DzbEKWCGogftr9FEyOjz-nkokjARH-TWeO-7m_2my-oADpSckezvtOpVAMdF_fyMfyVHx8XdZyQzHkqcIRaIHPo-8NvEqqFFqRuZnQ7qKnHUMBFresB6d65osfBoHJJbwX2Kwk2NIm5LjhATyeGUE2ERfkYMrCfZ3sS-C59opek6fd2ZqIAqQLroY9mVUW5yIN6E6EciX9RJP4Ywmf6sqgodZWYNQzSkPbNgaG_527ykMIY2H3VC9ERQKGwRGESWRYvwDXa75kf5imn0pgyC_LF7BkHbO8G4ALdBAJjRcjcB_abF-7oQJoSUp3_5ePAaOZM0-lhcSpRvsOA-PxZik8NqXQL2B90LLpa8NTJc6qTFZmt_mHcahZ5SG6kmWQwmbxS6BW7mdgaBe8vH61T0BpRhhiID5cUX49dt7zdDwdOoJwVXRJ-ihMKJ_AW-S2_vUeQOMHmGcm0Kh2N3qW9O0_K8hGZ6V-4OPNOPle2KOBD2HR_Ggl701WmwyNvzJXAlWqp3i43stekK885xdpzdL2bi7gpLVVHiKEy-wNEZGXYDnRNi4dREx0e-0nFNzBFX_crqExYrWQIMwbkjXSrtOpNMnnNWQaNAYTstsrdGmDNrT0gNUG3a0qO3hR2vbS17k75C_0m00]--></g></svg>