<?plantuml 1.2026.2?><svg xmlns="http://www.w3.org/2000/svg" xmlns:xlink="http://www.w3.org/1999/xlink" contentStyleType="text/css" data-diagram-type="ACTIVITY" height="1060px" preserveAspectRatio="none" style="width:1098px;height:1060px;background:#FFFFFF;" version="1.1" viewBox="0 0 1098 1060" width="1098px" zoomAndPan="magnify"><title>IOD(4)_Pj2_T-1
US4: View Instructor Weekly Schedule</title><defs/><g><rect fill="#FFFFCC" height="26.6406" rx="2.5" ry="2.5" style="stroke:#FFDD88;stroke-width:3;" width="1087.168" x="5" y="5"/><text fill="#000000" font-family="monospace" font-size="10" lengthAdjust="spacing" textLength="535.8252" x="10" y="20">This&#160;syntax&#160;is&#160;deprecated,&#160;you&#160;must&#160;add&#160;&lt;&lt;#ADD8E6&gt;&gt;&#160;at&#160;the&#160;end&#160;of&#160;the&#160;line,&#160;after&#160;the&#160;';'</text><g class="title" data-source-line="11"><text fill="#000000" font-family="Arial" font-size="14" font-weight="bold" lengthAdjust="spacing" textLength="115.1719" x="482.498" y="69.6357">IOD(4)_Pj2_T-1</text><text fill="#000000" font-family="Arial" font-size="14" font-weight="bold" lengthAdjust="spacing" textLength="302.7295" x="388.7192" y="85.9326">US4: View Instructor Weekly Schedule</text></g><path d="M578.9404,100.2344 L578.9404,125.3672 L751.1416,125.3672 L751.1416,110.2344 L741.1416,100.2344 L578.9404,100.2344" fill="#FFFFCC" style="stroke:#AAAAAA;stroke-width:0.5;"/><path d="M741.1416,100.2344 L741.1416,110.2344 L751.1416,110.2344 L741.1416,100.2344" fill="#FFFFCC" style="stroke:#AAAAAA;stroke-width:0.5;"/><text fill="#000000" font-family="Arial" font-size="13" lengthAdjust="spacing" textLength="151.2012" x="584.9404" y="117.3013">Author: Anthony Saade</text><ellipse cx="665.041" cy="155.3672" fill="#222222" rx="10" ry="10" style="stroke:#222222;stroke-width:1;"/><rect fill="#FEFEFE" height="47.9375" rx="12.5" ry="12.5" style="stroke:#444444;stroke-width:0.5;" width="301.8418" x="514.1201" y="185.3672"/><text fill="#000000" font-family="Arial" font-size="12" lengthAdjust="spacing" textLength="281.8418" x="524.1201" y="206.5059">Prerequisite: schedule data has been imported</text><text fill="#000000" font-family="Arial" font-size="12" lengthAdjust="spacing" textLength="180.4863" x="524.1201" y="220.4746">(see US1 &#8212; Upload Excel File)</text><rect fill="#FEFEFE" height="33.9688" rx="12.5" ry="12.5" style="stroke:#444444;stroke-width:0.5;" width="308.0703" x="511.0059" y="253.3047"/><text fill="#000000" font-family="Arial" font-size="12" lengthAdjust="spacing" textLength="288.0703" x="521.0059" y="274.4434">Actor navigates to the Instructor Schedule Page</text><rect fill="#FEFEFE" height="33.9688" rx="12.5" ry="12.5" style="stroke:#444444;stroke-width:0.5;" width="287.6855" x="521.1982" y="307.2734"/><text fill="#000000" font-family="Arial" font-size="12" lengthAdjust="spacing" textLength="267.6855" x="531.1982" y="328.4121">Actor selects a semester from the dropdown</text><polygon fill="#FEFEFE" points="556.365,361.2422,773.717,361.2422,785.717,373.2422,773.717,385.2422,556.365,385.2422,544.365,373.2422,556.365,361.2422" style="stroke:#444444;stroke-width:0.5;"/><text fill="#000000" font-family="Arial" font-size="11" lengthAdjust="spacing" textLength="217.3521" x="556.365" y="377.0503">Instructors available for that semester?</text><text fill="#000000" font-family="Arial" font-size="11" lengthAdjust="spacing" textLength="19.0083" x="525.3567" y="370.6479">yes</text><text fill="#000000" font-family="Arial" font-size="11" lengthAdjust="spacing" textLength="13.7017" x="785.717" y="370.6479">no</text><rect fill="#FEFEFE" height="33.9688" rx="12.5" ry="12.5" style="stroke:#444444;stroke-width:0.5;" width="297.3242" x="246.0869" y="395.2422"/><text fill="#000000" font-family="Arial" font-size="12" lengthAdjust="spacing" textLength="277.3242" x="256.0869" y="416.3809">Actor selects an instructor from the dropdown</text><rect fill="#FEFEFE" height="33.9688" rx="12.5" ry="12.5" style="stroke:#444444;stroke-width:0.5;" width="191.2168" x="299.1406" y="449.2109"/><text fill="#000000" font-family="Arial" font-size="12" lengthAdjust="spacing" textLength="171.2168" x="309.1406" y="470.3496">Actor clicks "View Schedule"</text><rect fill="#FEFEFE" height="61.9063" rx="12.5" ry="12.5" style="stroke:#444444;stroke-width:0.5;" width="566.5449" x="111.4766" y="503.1797"/><text fill="#000000" font-family="Arial" font-size="12" font-weight="bold" lengthAdjust="spacing" textLength="19.2773" x="121.4766" y="524.3184">ref</text><text fill="#000000" font-family="Arial" font-size="12" lengthAdjust="spacing" textLength="270.5977" x="144.5684" y="524.3184">UC_INSTRUCTOR &#8212; View Instructor Schedule</text><text fill="#000000" font-family="Arial" font-size="12" lengthAdjust="spacing" textLength="419.0273" x="121.4766" y="538.2871">&#9472;&#9472;&#9472;&#9472;&#9472;&#9472;&#9472;&#9472;&#9472;&#9472;&#9472;&#9472;&#9472;&#9472;&#9472;&#9472;&#9472;&#9472;&#9472;&#9472;&#9472;&#9472;&#9472;&#9472;&#9472;&#9472;&#9472;&#9472;&#9472;&#9472;&#9472;&#9472;&#9472;&#9472;&#9472;&#9472;&#9472;&#9472;&#9472;&#9472;&#9472;&#9472;&#9472;&#9472;&#9472;&#9472;&#9472;&#9472;&#9472;&#9472;&#9472;&#9472;&#9472;&#9472;&#9472;&#9472;&#9472;&#9472;</text><text fill="#000000" font-family="Arial" font-size="12" lengthAdjust="spacing" textLength="546.5449" x="121.4766" y="552.2559">System retrieves all classes for the selected instructor\nand builds a weekly timetable grid</text><rect fill="#FEFEFE" height="61.9063" rx="12.5" ry="12.5" style="stroke:#444444;stroke-width:0.5;" width="767.498" x="11" y="585.0859"/><text fill="#000000" font-family="Arial" font-size="12" font-weight="bold" lengthAdjust="spacing" textLength="19.2773" x="21" y="606.2246">ref</text><text fill="#000000" font-family="Arial" font-size="12" lengthAdjust="spacing" textLength="268.1602" x="44.0918" y="606.2246">UC_CONFLICT &#8212; Detect Scheduling Conflicts</text><text fill="#000000" font-family="Arial" font-size="12" lengthAdjust="spacing" textLength="440.7012" x="21" y="620.1934">&#9472;&#9472;&#9472;&#9472;&#9472;&#9472;&#9472;&#9472;&#9472;&#9472;&#9472;&#9472;&#9472;&#9472;&#9472;&#9472;&#9472;&#9472;&#9472;&#9472;&#9472;&#9472;&#9472;&#9472;&#9472;&#9472;&#9472;&#9472;&#9472;&#9472;&#9472;&#9472;&#9472;&#9472;&#9472;&#9472;&#9472;&#9472;&#9472;&#9472;&#9472;&#9472;&#9472;&#9472;&#9472;&#9472;&#9472;&#9472;&#9472;&#9472;&#9472;&#9472;&#9472;&#9472;&#9472;&#9472;&#9472;&#9472;&#9472;&#9472;&#9472;</text><text fill="#000000" font-family="Arial" font-size="12" lengthAdjust="spacing" textLength="747.498" x="21" y="634.1621">System checks for overlapping class times on the same day\n(excluding same-CRN duplicates and cross-listed UG/GR pairs)</text><polygon fill="#FEFEFE" points="341.8813,666.9922,447.6167,666.9922,459.6167,678.9922,447.6167,690.9922,341.8813,690.9922,329.8813,678.9922,341.8813,666.9922" style="stroke:#444444;stroke-width:0.5;"/><text fill="#000000" font-family="Arial" font-size="11" lengthAdjust="spacing" textLength="105.7354" x="341.8813" y="682.8003">Conflicts detected?</text><text fill="#000000" font-family="Arial" font-size="11" lengthAdjust="spacing" textLength="19.0083" x="310.873" y="676.3979">yes</text><text fill="#000000" font-family="Arial" font-size="11" lengthAdjust="spacing" textLength="13.7017" x="459.6167" y="676.3979">no</text><rect fill="#FEFEFE" height="47.9375" rx="12.5" ry="12.5" style="stroke:#444444;stroke-width:0.5;" width="263.8848" x="103.6699" y="700.9922"/><text fill="#000000" font-family="Arial" font-size="12" lengthAdjust="spacing" textLength="243.8848" x="113.6699" y="722.1309">System highlights conflicting slots in red</text><text fill="#000000" font-family="Arial" font-size="12" lengthAdjust="spacing" textLength="229.5117" x="113.6699" y="736.0996">and lists conflicts above the timetable</text><rect fill="#FEFEFE" height="33.9688" rx="12.5" ry="12.5" style="stroke:#444444;stroke-width:0.5;" width="332.6621" x="387.5547" y="700.9922"/><text fill="#000000" font-family="Arial" font-size="12" lengthAdjust="spacing" textLength="312.6621" x="397.5547" y="722.1309">System displays timetable with no conflict warnings</text><polygon fill="#FEFEFE" points="394.749,754.9297,406.749,766.9297,394.749,778.9297,382.749,766.9297,394.749,754.9297" style="stroke:#444444;stroke-width:0.5;"/><rect fill="#FEFEFE" height="33.9688" rx="12.5" ry="12.5" style="stroke:#444444;stroke-width:0.5;" width="319.8066" x="234.8457" y="798.9297"/><text fill="#000000" font-family="Arial" font-size="12" lengthAdjust="spacing" textLength="299.8066" x="244.8457" y="820.0684">Actor reviews weekly schedule and conflict status</text><rect fill="#FEFEFE" height="33.9688" rx="12.5" ry="12.5" style="stroke:#444444;stroke-width:0.5;" width="273.6699" x="798.498" y="395.2422"/><text fill="#000000" font-family="Arial" font-size="12" lengthAdjust="spacing" textLength="253.6699" x="808.498" y="416.3809">System shows empty instructor dropdown</text><rect fill="#FEFEFE" height="33.9688" rx="12.5" ry="12.5" style="stroke:#444444;stroke-width:0.5;" width="223.6953" x="823.4854" y="449.2109"/><text fill="#000000" font-family="Arial" font-size="12" lengthAdjust="spacing" textLength="203.6953" x="833.4854" y="470.3496">Actor selects a different semester</text><ellipse cx="935.333" cy="514.1797" fill="none" rx="11" ry="11" style="stroke:#222222;stroke-width:1;"/><ellipse cx="935.333" cy="514.1797" fill="#222222" rx="6" ry="6" style="stroke:#222222;stroke-width:1;"/><rect fill="#FEFEFE" height="33.9688" rx="12.5" ry="12.5" style="stroke:#444444;stroke-width:0.5;" width="318.7871" x="505.6475" y="901.3008"/><text fill="#000000" font-family="Arial" font-size="12" lengthAdjust="spacing" textLength="298.7871" x="515.6475" y="922.4395">System displays "No classes scheduled" message</text><ellipse cx="665.041" cy="974.7852" fill="none" rx="11" ry="11" style="stroke:#222222;stroke-width:1;"/><ellipse cx="665.041" cy="974.7852" fill="#222222" rx="6" ry="6" style="stroke:#222222;stroke-width:1;"/><polygon fill="#FEFEFE" points="558.8733,852.8984,771.2087,852.8984,783.2087,864.8984,771.2087,876.8984,558.8733,876.8984,546.8733,864.8984,558.8733,852.8984" style="stroke:#444444;stroke-width:0.5;"/><text fill="#000000" font-family="Arial" font-size="11" lengthAdjust="spacing" textLength="19.0083" x="669.041" y="887.1089">yes</text><text fill="#000000" font-family="Arial" font-size="11" lengthAdjust="spacing" textLength="212.3354" x="558.8733" y="868.7065">Instructor has no valid meeting times?</text><text fill="#000000" font-family="Arial" font-size="11" lengthAdjust="spacing" textLength="13.7017" x="783.2087" y="862.3042">no</text><ellipse cx="665.041" cy="1038.7852" fill="none" rx="11" ry="11" style="stroke:#222222;stroke-width:1;"/><ellipse cx="665.041" cy="1038.7852" fill="#222222" rx="6" ry="6" style="stroke:#222222;stroke-width:1;"/><line style="stroke:#444444;stroke-width:1;" x1="665.041" x2="665.041" y1="125.3672" y2="145.3672"/><polygon fill="#444444" points="661.041,135.3672,665.041,145.3672,669.041,135.3672,665.041,139.3672" style="stroke:#444444;stroke-width:1;"/><line style="stroke:#444444;stroke-width:1;" x1="665.041" x2="665.041" y1="165.3672" y2="185.3672"/><polygon fill="#444444" points="661.041,175.3672,665.041,185.3672,669.041,175.3672,665.041,179.3672" style="stroke:#444444;stroke-width:1;"/><line style="stroke:#444444;stroke-width:1;" x1="665.041" x2="665.041" y1="233.3047" y2="253.3047"/><polygon fill="#444444" points="661.041,243.3047,665.041,253.3047,669.041,243.3047,665.041,247.3047" style="stroke:#444444;stroke-width:1;"/><line style="stroke:#444444;stroke-width:1;" x1="665.041" x2="665.041" y1="287.2734" y2="307.2734"/><polygon fill="#444444" points="661.041,297.2734,665.041,307.2734,669.041,297.2734,665.041,301.2734" style="stroke:#444444;stroke-width:1;"/><line style="stroke:#444444;stroke-width:1;" x1="394.749" x2="394.749" y1="429.2109" y2="449.2109"/><polygon fill="#444444" points="390.749,439.2109,394.749,449.2109,398.749,439.2109,394.749,443.2109" style="stroke:#444444;stroke-width:1;"/><line style="stroke:#444444;stroke-width:1;" x1="394.749" x2="394.749" y1="483.1797" y2="503.1797"/><polygon fill="#444444" points="390.749,493.1797,394.749,503.1797,398.749,493.1797,394.749,497.1797" style="stroke:#444444;stroke-width:1;"/><line style="stroke:#444444;stroke-width:1;" x1="394.749" x2="394.749" y1="565.0859" y2="585.0859"/><polygon fill="#444444" points="390.749,575.0859,394.749,585.0859,398.749,575.0859,394.749,579.0859" style="stroke:#444444;stroke-width:1;"/><line style="stroke:#444444;stroke-width:1;" x1="329.8813" x2="235.6123" y1="678.9922" y2="678.9922"/><line style="stroke:#444444;stroke-width:1;" x1="235.6123" x2="235.6123" y1="678.9922" y2="700.9922"/><polygon fill="#444444" points="231.6123,690.9922,235.6123,700.9922,239.6123,690.9922,235.6123,694.9922" style="stroke:#444444;stroke-width:1;"/><line style="stroke:#444444;stroke-width:1;" x1="459.6167" x2="553.8857" y1="678.9922" y2="678.9922"/><line style="stroke:#444444;stroke-width:1;" x1="553.8857" x2="553.8857" y1="678.9922" y2="700.9922"/><polygon fill="#444444" points="549.8857,690.9922,553.8857,700.9922,557.8857,690.9922,553.8857,694.9922" style="stroke:#444444;stroke-width:1;"/><line style="stroke:#444444;stroke-width:1;" x1="235.6123" x2="235.6123" y1="748.9297" y2="766.9297"/><line style="stroke:#444444;stroke-width:1;" x1="235.6123" x2="382.749" y1="766.9297" y2="766.9297"/><polygon fill="#444444" points="372.749,762.9297,382.749,766.9297,372.749,770.9297,376.749,766.9297" style="stroke:#444444;stroke-width:1;"/><line style="stroke:#444444;stroke-width:1;" x1="553.8857" x2="553.8857" y1="734.9609" y2="766.9297"/><line style="stroke:#444444;stroke-width:1;" x1="553.8857" x2="406.749" y1="766.9297" y2="766.9297"/><polygon fill="#444444" points="416.749,762.9297,406.749,766.9297,416.749,770.9297,412.749,766.9297" style="stroke:#444444;stroke-width:1;"/><line style="stroke:#444444;stroke-width:1;" x1="394.749" x2="394.749" y1="646.9922" y2="666.9922"/><polygon fill="#444444" points="390.749,656.9922,394.749,666.9922,398.749,656.9922,394.749,660.9922" style="stroke:#444444;stroke-width:1;"/><line style="stroke:#444444;stroke-width:1;" x1="394.749" x2="394.749" y1="778.9297" y2="798.9297"/><polygon fill="#444444" points="390.749,788.9297,394.749,798.9297,398.749,788.9297,394.749,792.9297" style="stroke:#444444;stroke-width:1;"/><line style="stroke:#444444;stroke-width:1;" x1="935.333" x2="935.333" y1="429.2109" y2="449.2109"/><polygon fill="#444444" points="931.333,439.2109,935.333,449.2109,939.333,439.2109,935.333,443.2109" style="stroke:#444444;stroke-width:1;"/><line style="stroke:#444444;stroke-width:1;" x1="935.333" x2="935.333" y1="483.1797" y2="503.1797"/><polygon fill="#444444" points="931.333,493.1797,935.333,503.1797,939.333,493.1797,935.333,497.1797" style="stroke:#444444;stroke-width:1;"/><line style="stroke:#444444;stroke-width:1;" x1="544.365" x2="394.749" y1="373.2422" y2="373.2422"/><line style="stroke:#444444;stroke-width:1;" x1="394.749" x2="394.749" y1="373.2422" y2="395.2422"/><polygon fill="#444444" points="390.749,385.2422,394.749,395.2422,398.749,385.2422,394.749,389.2422" style="stroke:#444444;stroke-width:1;"/><line style="stroke:#444444;stroke-width:1;" x1="785.717" x2="935.333" y1="373.2422" y2="373.2422"/><line style="stroke:#444444;stroke-width:1;" x1="935.333" x2="935.333" y1="373.2422" y2="395.2422"/><polygon fill="#444444" points="931.333,385.2422,935.333,395.2422,939.333,385.2422,935.333,389.2422" style="stroke:#444444;stroke-width:1;"/><line style="stroke:#444444;stroke-width:1;" x1="394.749" x2="394.749" y1="832.8984" y2="837.8984"/><line style="stroke:#444444;stroke-width:1;" x1="394.749" x2="665.041" y1="837.8984" y2="837.8984"/><line style="stroke:#444444;stroke-width:1;" x1="665.041" x2="665.041" y1="837.8984" y2="852.8984"/><polygon fill="#444444" points="661.041,842.8984,665.041,852.8984,669.041,842.8984,665.041,846.8984" style="stroke:#444444;stroke-width:1;"/><line style="stroke:#444444;stroke-width:1;" x1="665.041" x2="665.041" y1="341.2422" y2="361.2422"/><polygon fill="#444444" points="661.041,351.2422,665.041,361.2422,669.041,351.2422,665.041,355.2422" style="stroke:#444444;stroke-width:1;"/><line style="stroke:#444444;stroke-width:1;" x1="665.041" x2="665.041" y1="935.2695" y2="963.7852"/><polygon fill="#444444" points="661.041,953.7852,665.041,963.7852,669.041,953.7852,665.041,957.7852" style="stroke:#444444;stroke-width:1;"/><line style="stroke:#444444;stroke-width:1;" x1="665.041" x2="665.041" y1="876.8984" y2="901.3008"/><polygon fill="#444444" points="661.041,891.3008,665.041,901.3008,669.041,891.3008,665.041,895.3008" style="stroke:#444444;stroke-width:1;"/><line style="stroke:#444444;stroke-width:1;" x1="783.2087" x2="834.4346" y1="864.8984" y2="864.8984"/><polygon fill="#444444" points="830.4346,933.7852,834.4346,943.7852,838.4346,933.7852,834.4346,937.7852" style="stroke:#444444;stroke-width:1;"/><line style="stroke:#444444;stroke-width:1;" x1="834.4346" x2="834.4346" y1="864.8984" y2="1007.7852"/><line style="stroke:#444444;stroke-width:1;" x1="834.4346" x2="665.041" y1="1007.7852" y2="1007.7852"/><line style="stroke:#444444;stroke-width:1;" x1="665.041" x2="665.041" y1="1007.7852" y2="1027.7852"/><polygon fill="#444444" points="661.041,1017.7852,665.041,1027.7852,669.041,1017.7852,665.041,1021.7852" style="stroke:#444444;stroke-width:1;"/><?plantuml-src rLJDRjf04BxxAKRa442AgbPHLP53HKs8a2eIyTDU8aMBTy1RrhlkxXhYMnuYJvWdwUo2ZKE8r6iM95lh-Vdc-sRc74QtW_Pbv-7kpvU7sSLdU7bwXhb50rEdJGcNFVWbS0iZPPqf4hg3tuXhMS8qIP4N4gDpw1SkrQO7VKLFHPyOunX5TYrKpWpBO81BLaWtrCgDMORGDuB9nlT-uiH6kF87IzOheml5OoqfrTdmslzEMMh3qUojBiDfMXcZj-zz76k7RnFHYUDZgsQIVZXHv8IJUCJQlPfF_uEfI55GC6ALkjwxf3bcN1JrxWmQ_5i8AnpsmEv306UEGSeiB10LY2pNnY6_LssB2FFfNhzSQiRX-Z512KCXiND54Vi1as8RiM8EBJWDBiKctWeetB4L7bmiIaoS1KPl6Lf7pR4qEWlUtEYSwwqYQx64zY4OcM-Oa6n1uPOKnANCrVxVEzvPGRj4suaYWEDCLDe1rebajKSYHRAsq0hKL_XRLpxcMNym-7RzjTVj6bnskp2F7qRZwMmoZsUtay3JiLwrK00lpqyVw4-0foKHcu51PmHkI5uc9R73hANtdG2uvnTvWzrxnHI7HI4azmflTothH8OkQBSoWhz7Ptmx7luSnRD0vW0TnQuu56e5iLPBaiVP3yVd2MAfBDzedaczGIDPdliQ0yE1BWjQxKZs6uwpaeOI7nDPS6_dBo_YoHXuaHCdOG0zyOdHrbv8ORqgyvjFDnF8cJ2s4pZt8rMp23mmZFprz02TtXvaIgj5-lLY8TcxXUHIqurGr1ryfxTFUB0XA0igAg2lbVT3Xj8Yj9L-dOKBcqjMsaQNR8LBGUaw8coPKPJQXYYAYsLZoWrkQF1irMlrRWjyL05e3xg2tACcXWg1JJNvOvQxihaeJko7m-uY34jQgUgmXRoPTJgFzW1VBx2mPQca3PE2GuOOg0nA7mlmXfZMMDUpLvN7MnJ4sh1PgxnrQNi4_lOV?></g></svg>