<svg xmlns="http://www.w3.org/2000/svg" xmlns:xlink="http://www.w3.org/1999/xlink" contentStyleType="text/css" height="838px" preserveAspectRatio="none" style="width:685px;height:838px;background:#FFFFFF;" version="1.1" viewBox="0 0 685 838" width="685px" zoomAndPan="magnify"><title>IOD(8)_Pj2_T-1</title><defs/><g><text fill="#000000" font-family="Arial" font-size="14" font-weight="bold" lengthAdjust="spacing" textLength="115.1719" x="283.5635" y="32.9951">IOD(8)_Pj2_T-1</text><text fill="#000000" font-family="Arial" font-size="14" font-weight="bold" lengthAdjust="spacing" textLength="216.5557" x="232.8716" y="49.292">US8: Export Class Schedule</text><ellipse cx="397.7261" cy="73.5938" fill="#222222" rx="10" ry="10" style="stroke:#222222;stroke-width:1;"/><rect fill="#FEFEFE" height="47.9375" rx="12.5" ry="12.5" style="stroke:#444444;stroke-width:0.5;" width="301.8418" x="246.8052" y="103.5938"/><text fill="#000000" font-family="Arial" font-size="12" lengthAdjust="spacing" textLength="281.8418" x="256.8052" y="124.7324">Prerequisite: schedule data has been imported</text><text fill="#000000" font-family="Arial" font-size="12" lengthAdjust="spacing" textLength="180.4863" x="256.8052" y="138.7012">(see US1 &#8212; Upload Excel File)</text><rect fill="#FEFEFE" height="47.9375" rx="12.5" ry="12.5" style="stroke:#444444;stroke-width:0.5;" width="328.9824" x="233.2349" y="171.5313"/><text fill="#000000" font-family="Arial" font-size="12" lengthAdjust="spacing" textLength="308.9824" x="243.2349" y="192.6699">Actor navigates to the Search &amp; Filter Classes Page</text><text fill="#000000" font-family="Arial" font-size="12" lengthAdjust="spacing" textLength="257.6484" x="243.2349" y="206.6387">(or directly to the Export / Download Page)</text><polygon fill="#FEFEFE" points="301.0706,239.4688,494.3816,239.4688,506.3816,251.4688,494.3816,263.4688,301.0706,263.4688,289.0706,251.4688,301.0706,239.4688" style="stroke:#444444;stroke-width:0.5;"/><text fill="#000000" font-family="Arial" font-size="11" lengthAdjust="spacing" textLength="193.311" x="301.0706" y="255.2769">Actor wants to filter before export?</text><text fill="#000000" font-family="Arial" font-size="11" lengthAdjust="spacing" textLength="19.0083" x="270.0623" y="248.8745">yes</text><text fill="#000000" font-family="Arial" font-size="11" lengthAdjust="spacing" textLength="13.7017" x="506.3816" y="248.8745">no</text><rect fill="#FEFEFE" height="33.9688" rx="12.5" ry="12.5" style="stroke:#444444;stroke-width:0.5;" width="184.1914" x="134.8057" y="273.4688"/><text fill="#000000" font-family="Arial" font-size="12" lengthAdjust="spacing" textLength="164.1914" x="144.8057" y="294.6074">Actor enters search criteria</text><rect fill="#ADD8E6" height="61.9063" rx="12.5" ry="12.5" style="stroke:#444444;stroke-width:0.5;" width="431.8027" x="11" y="327.4375"/><text fill="#000000" font-family="Arial" font-size="12" font-weight="bold" lengthAdjust="spacing" textLength="19.2773" x="21" y="348.5762">ref</text><text fill="#000000" font-family="Arial" font-size="12" lengthAdjust="spacing" textLength="243.2461" x="44.0918" y="348.5762">UC_SEARCH &#8212; Search and Filter Classes</text><text fill="#000000" font-family="Arial" font-size="12" lengthAdjust="spacing" textLength="411.8027" x="21" y="362.5449">&#9472;&#9472;&#9472;&#9472;&#9472;&#9472;&#9472;&#9472;&#9472;&#9472;&#9472;&#9472;&#9472;&#9472;&#9472;&#9472;&#9472;&#9472;&#9472;&#9472;&#9472;&#9472;&#9472;&#9472;&#9472;&#9472;&#9472;&#9472;&#9472;&#9472;&#9472;&#9472;&#9472;&#9472;&#9472;&#9472;&#9472;&#9472;&#9472;&#9472;&#9472;&#9472;&#9472;&#9472;&#9472;&#9472;&#9472;&#9472;&#9472;&#9472;&#9472;&#9472;&#9472;&#9472;&#9472;&#9472;&#9472;</text><text fill="#000000" font-family="Arial" font-size="12" lengthAdjust="spacing" textLength="324.4922" x="21" y="376.5137">System retrieves matching classes from the database</text><rect fill="#FEFEFE" height="33.9688" rx="12.5" ry="12.5" style="stroke:#444444;stroke-width:0.5;" width="219.1953" x="117.3037" y="409.3438"/><text fill="#000000" font-family="Arial" font-size="12" lengthAdjust="spacing" textLength="199.1953" x="127.3037" y="430.4824">System displays filtered class list</text><rect fill="#FEFEFE" height="33.9688" rx="12.5" ry="12.5" style="stroke:#444444;stroke-width:0.5;" width="211.4961" x="462.8027" y="273.4688"/><text fill="#000000" font-family="Arial" font-size="12" lengthAdjust="spacing" textLength="191.4961" x="472.8027" y="294.6074">Actor proceeds with full dataset</text><polygon fill="#FEFEFE" points="397.7261,449.3125,409.7261,461.3125,397.7261,473.3125,385.7261,461.3125,397.7261,449.3125" style="stroke:#444444;stroke-width:0.5;"/><rect fill="#FEFEFE" height="33.9688" rx="12.5" ry="12.5" style="stroke:#444444;stroke-width:0.5;" width="273.752" x="260.8501" y="493.3125"/><text fill="#000000" font-family="Arial" font-size="12" lengthAdjust="spacing" textLength="253.752" x="270.8501" y="514.4512">Actor selects export format (Excel or CSV)</text><rect fill="#FEFEFE" height="33.9688" rx="12.5" ry="12.5" style="stroke:#444444;stroke-width:0.5;" width="225.1602" x="285.146" y="547.2813"/><text fill="#000000" font-family="Arial" font-size="12" lengthAdjust="spacing" textLength="205.1602" x="295.146" y="568.4199">Actor clicks "Download" / "Export"</text><rect fill="#ADD8E6" height="61.9063" rx="12.5" ry="12.5" style="stroke:#444444;stroke-width:0.5;" width="514.5605" x="140.4458" y="601.25"/><text fill="#000000" font-family="Arial" font-size="12" font-weight="bold" lengthAdjust="spacing" textLength="19.2773" x="150.4458" y="622.3887">ref</text><text fill="#000000" font-family="Arial" font-size="12" lengthAdjust="spacing" textLength="189.1816" x="173.5376" y="622.3887">UC_EXPORT &#8212; Export Schedule</text><text fill="#000000" font-family="Arial" font-size="12" lengthAdjust="spacing" textLength="317.8828" x="150.4458" y="636.3574">&#9472;&#9472;&#9472;&#9472;&#9472;&#9472;&#9472;&#9472;&#9472;&#9472;&#9472;&#9472;&#9472;&#9472;&#9472;&#9472;&#9472;&#9472;&#9472;&#9472;&#9472;&#9472;&#9472;&#9472;&#9472;&#9472;&#9472;&#9472;&#9472;&#9472;&#9472;&#9472;&#9472;&#9472;&#9472;&#9472;&#9472;&#9472;&#9472;&#9472;&#9472;&#9472;&#9472;&#9472;</text><text fill="#000000" font-family="Arial" font-size="12" lengthAdjust="spacing" textLength="494.5605" x="150.4458" y="650.3262">System serializes the selected class data\ninto the chosen file format (xlsx or csv)</text><rect fill="#FEFEFE" height="33.9688" rx="12.5" ry="12.5" style="stroke:#444444;stroke-width:0.5;" width="289.6191" x="252.9165" y="683.1563"/><text fill="#000000" font-family="Arial" font-size="12" lengthAdjust="spacing" textLength="269.6191" x="262.9165" y="704.2949">System triggers file download in the browser</text><rect fill="#FEFEFE" height="47.9375" rx="12.5" ry="12.5" style="stroke:#444444;stroke-width:0.5;" width="262.584" x="266.4341" y="737.125"/><text fill="#000000" font-family="Arial" font-size="12" lengthAdjust="spacing" textLength="242.4902" x="276.4341" y="758.2637">Actor receives downloaded schedule file</text><text fill="#000000" font-family="Arial" font-size="12" lengthAdjust="spacing" textLength="242.584" x="276.4341" y="772.2324">for distribution to departments and staff</text><ellipse cx="397.7261" cy="816.0625" fill="none" rx="11" ry="11" style="stroke:#222222;stroke-width:1;"/><ellipse cx="397.7261" cy="816.0625" fill="#222222" rx="6" ry="6" style="stroke:#222222;stroke-width:1;"/><line style="stroke:#444444;stroke-width:1;" x1="397.7261" x2="397.7261" y1="83.5938" y2="103.5938"/><polygon fill="#444444" points="393.7261,93.5938,397.7261,103.5938,401.7261,93.5938,397.7261,97.5938" style="stroke:#444444;stroke-width:1;"/><line style="stroke:#444444;stroke-width:1;" x1="397.7261" x2="397.7261" y1="151.5313" y2="171.5313"/><polygon fill="#444444" points="393.7261,161.5313,397.7261,171.5313,401.7261,161.5313,397.7261,165.5313" style="stroke:#444444;stroke-width:1;"/><line style="stroke:#444444;stroke-width:1;" x1="226.9014" x2="226.9014" y1="307.4375" y2="327.4375"/><polygon fill="#444444" points="222.9014,317.4375,226.9014,327.4375,230.9014,317.4375,226.9014,321.4375" style="stroke:#444444;stroke-width:1;"/><line style="stroke:#444444;stroke-width:1;" x1="226.9014" x2="226.9014" y1="389.3438" y2="409.3438"/><polygon fill="#444444" points="222.9014,399.3438,226.9014,409.3438,230.9014,399.3438,226.9014,403.3438" style="stroke:#444444;stroke-width:1;"/><line style="stroke:#444444;stroke-width:1;" x1="289.0706" x2="226.9014" y1="251.4688" y2="251.4688"/><line style="stroke:#444444;stroke-width:1;" x1="226.9014" x2="226.9014" y1="251.4688" y2="273.4688"/><polygon fill="#444444" points="222.9014,263.4688,226.9014,273.4688,230.9014,263.4688,226.9014,267.4688" style="stroke:#444444;stroke-width:1;"/><line style="stroke:#444444;stroke-width:1;" x1="506.3816" x2="568.5508" y1="251.4688" y2="251.4688"/><line style="stroke:#444444;stroke-width:1;" x1="568.5508" x2="568.5508" y1="251.4688" y2="273.4688"/><polygon fill="#444444" points="564.5508,263.4688,568.5508,273.4688,572.5508,263.4688,568.5508,267.4688" style="stroke:#444444;stroke-width:1;"/><line style="stroke:#444444;stroke-width:1;" x1="226.9014" x2="226.9014" y1="443.3125" y2="461.3125"/><line style="stroke:#444444;stroke-width:1;" x1="226.9014" x2="385.7261" y1="461.3125" y2="461.3125"/><polygon fill="#444444" points="375.7261,457.3125,385.7261,461.3125,375.7261,465.3125,379.7261,461.3125" style="stroke:#444444;stroke-width:1;"/><line style="stroke:#444444;stroke-width:1;" x1="568.5508" x2="568.5508" y1="307.4375" y2="461.3125"/><line style="stroke:#444444;stroke-width:1;" x1="568.5508" x2="409.7261" y1="461.3125" y2="461.3125"/><polygon fill="#444444" points="419.7261,457.3125,409.7261,461.3125,419.7261,465.3125,415.7261,461.3125" style="stroke:#444444;stroke-width:1;"/><line style="stroke:#444444;stroke-width:1;" x1="397.7261" x2="397.7261" y1="219.4688" y2="239.4688"/><polygon fill="#444444" points="393.7261,229.4688,397.7261,239.4688,401.7261,229.4688,397.7261,233.4688" style="stroke:#444444;stroke-width:1;"/><line style="stroke:#444444;stroke-width:1;" x1="397.7261" x2="397.7261" y1="473.3125" y2="493.3125"/><polygon fill="#444444" points="393.7261,483.3125,397.7261,493.3125,401.7261,483.3125,397.7261,487.3125" style="stroke:#444444;stroke-width:1;"/><line style="stroke:#444444;stroke-width:1;" x1="397.7261" x2="397.7261" y1="527.2813" y2="547.2813"/><polygon fill="#444444" points="393.7261,537.2813,397.7261,547.2813,401.7261,537.2813,397.7261,541.2813" style="stroke:#444444;stroke-width:1;"/><line style="stroke:#444444;stroke-width:1;" x1="397.7261" x2="397.7261" y1="581.25" y2="601.25"/><polygon fill="#444444" points="393.7261,591.25,397.7261,601.25,401.7261,591.25,397.7261,595.25" style="stroke:#444444;stroke-width:1;"/><line style="stroke:#444444;stroke-width:1;" x1="397.7261" x2="397.7261" y1="663.1563" y2="683.1563"/><polygon fill="#444444" points="393.7261,673.1563,397.7261,683.1563,401.7261,673.1563,397.7261,677.1563" style="stroke:#444444;stroke-width:1;"/><line style="stroke:#444444;stroke-width:1;" x1="397.7261" x2="397.7261" y1="717.125" y2="737.125"/><polygon fill="#444444" points="393.7261,727.125,397.7261,737.125,401.7261,727.125,397.7261,731.125" style="stroke:#444444;stroke-width:1;"/><line style="stroke:#444444;stroke-width:1;" x1="397.7261" x2="397.7261" y1="785.0625" y2="805.0625"/><polygon fill="#444444" points="393.7261,795.0625,397.7261,805.0625,401.7261,795.0625,397.7261,799.0625" style="stroke:#444444;stroke-width:1;"/><!--SRC=[rLJDRXen4BxlKuo8r09ILRMggeWSAheGjPS4PKFL0r9ax5dMZR6fnq38AG-H9yoJTEmr94hJdjk5cx_vyVVZr_3rVDGzxbrDVho_kdpp3Xxkxc5AwA4Apk_WU03ZcvNp0KeZYA2I3QgrmQAWQsrNmeibZB0MQnDEdGrdOeamz5gO9-T36VH6Xzrd8QyNtgsjAfrn7evEn_7t4j9vXJwZFgJlASfxj_tJuPaB-FiW_ihoEUhfa67wYYBeOF0P9pCxhVx2Gn0-5CLWuj7ZpxKc7N00bCz1YI2W4GHpH0jw6NkWcjak8SAqoeIlZ1EA9qWqSAeDzawu8xF1grcnqGiHa20u20r2XSBB1bv5O62Xqa9yF14BvBvSehH76SnkNv4tVmiZjxLfKiJ66Rg6RZjcAsn88-gswnnhvn4mbNxgnJuMkZkaNb40vDtGCfI0sesavwkpzYSHSJGSZOx77mVzliUwtuTfULMDXnVbbtJXV0TXrRDRSEN3_Tt_ykTjgnq5N8B7u3LkM8Qb2BBHTW4owr9xjqmoH2lC1M7YPv0BbQQL4JlAlADgwy1e2Wn4GmXTwtgFfA-yauYAOAj30_NQcDIPaF5ebQuFrY4qx0FA8W8Boij1jxKPdvVLDpP11akZvJL1P- -H3lkbqpgdmukyeEVu- -JyuZBfcHrsICK_8KvccA8dZRwD2M8LMb8EF4VgPbRR71NPE6AZinXuuEl6q4saIz8cvJBtPS4NYsZ_15RxQ6cR6itvZUB9ZpdcIAAE1jaZUON3An5Rp6oTialSUBuEsjaOHuNyOeKbndJ6kF1pKzSdyTbngry0]--></g></svg>