<?plantuml 1.2026.2?><svg xmlns="http://www.w3.org/2000/svg" xmlns:xlink="http://www.w3.org/1999/xlink" contentStyleType="text/css" data-diagram-type="ACTIVITY" height="839px" preserveAspectRatio="none" style="width:675px;height:839px;background:#FFFFFF;" version="1.1" viewBox="0 0 675 839" width="675px" zoomAndPan="magnify"><title>IOD(5)_Pj2_T-1
US5: Suggest Available Rooms and Time Slots</title><defs/><g><rect fill="#FFFFCC" height="26.6406" rx="2.5" ry="2.5" style="stroke:#FFDD88;stroke-width:3;" width="664.25" x="5" y="5"/><text fill="#000000" font-family="monospace" font-size="10" lengthAdjust="spacing" textLength="535.8252" x="10" y="20">This&#160;syntax&#160;is&#160;deprecated,&#160;you&#160;must&#160;add&#160;&lt;&lt;#ADD8E6&gt;&gt;&#160;at&#160;the&#160;end&#160;of&#160;the&#160;line,&#160;after&#160;the&#160;';'</text><g class="title" data-source-line="11"><text fill="#000000" font-family="Arial" font-size="14" font-weight="bold" lengthAdjust="spacing" textLength="115.1719" x="271.0391" y="69.6357">IOD(5)_Pj2_T-1</text><text fill="#000000" font-family="Arial" font-size="14" font-weight="bold" lengthAdjust="spacing" textLength="363.7471" x="146.7515" y="85.9326">US5: Suggest Available Rooms and Time Slots</text></g><path d="M251.5217,100.2344 L251.5217,125.3672 L392.7908,125.3672 L392.7908,110.2344 L382.7908,100.2344 L251.5217,100.2344" fill="#FFFFCC" style="stroke:#AAAAAA;stroke-width:0.5;"/><path d="M382.7908,100.2344 L382.7908,110.2344 L392.7908,110.2344 L382.7908,100.2344" fill="#FFFFCC" style="stroke:#AAAAAA;stroke-width:0.5;"/><text fill="#000000" font-family="Arial" font-size="13" lengthAdjust="spacing" textLength="120.269" x="257.5217" y="117.3013">Author: Jose Wong</text><ellipse cx="322.1563" cy="155.3672" fill="#222222" rx="10" ry="10" style="stroke:#222222;stroke-width:1;"/><rect fill="#FEFEFE" height="47.9375" rx="12.5" ry="12.5" style="stroke:#444444;stroke-width:0.5;" width="301.8418" x="171.2354" y="185.3672"/><text fill="#000000" font-family="Arial" font-size="12" lengthAdjust="spacing" textLength="281.8418" x="181.2354" y="206.5059">Prerequisite: schedule data has been imported</text><text fill="#000000" font-family="Arial" font-size="12" lengthAdjust="spacing" textLength="180.4863" x="181.2354" y="220.4746">(see US1 &#8212; Upload Excel File)</text><rect fill="#FEFEFE" height="33.9688" rx="12.5" ry="12.5" style="stroke:#444444;stroke-width:0.5;" width="287.0176" x="178.6475" y="253.3047"/><text fill="#000000" font-family="Arial" font-size="12" lengthAdjust="spacing" textLength="267.0176" x="188.6475" y="274.4434">Actor navigates to the Vacancy Search Page</text><rect fill="#FEFEFE" height="75.875" rx="12.5" ry="12.5" style="stroke:#444444;stroke-width:0.5;" width="223.9531" x="210.1797" y="307.2734"/><text fill="#000000" font-family="Arial" font-size="12" lengthAdjust="spacing" textLength="182.3496" x="220.1797" y="328.4121">Actor specifies search criteria:</text><text fill="#000000" font-family="Arial" font-size="12" lengthAdjust="spacing" textLength="65.4902" x="220.1797" y="342.3809">- Semester</text><text fill="#000000" font-family="Arial" font-size="12" lengthAdjust="spacing" textLength="203.9531" x="220.1797" y="356.3496">- Desired class duration (minutes)</text><text fill="#000000" font-family="Arial" font-size="12" lengthAdjust="spacing" textLength="178.9277" x="220.1797" y="370.3184">- Optional: specific room filter</text><rect fill="#FEFEFE" height="33.9688" rx="12.5" ry="12.5" style="stroke:#444444;stroke-width:0.5;" width="146.9961" x="248.6582" y="403.1484"/><text fill="#000000" font-family="Arial" font-size="12" lengthAdjust="spacing" textLength="126.9961" x="258.6582" y="424.2871">Actor submits search</text><rect fill="#FEFEFE" height="61.9063" rx="12.5" ry="12.5" style="stroke:#444444;stroke-width:0.5;" width="496.8242" x="73.7441" y="457.1172"/><text fill="#000000" font-family="Arial" font-size="12" font-weight="bold" lengthAdjust="spacing" textLength="19.2773" x="83.7441" y="478.2559">ref</text><text fill="#000000" font-family="Arial" font-size="12" lengthAdjust="spacing" textLength="338.209" x="106.8359" y="478.2559">UC_ROOM &#8212; View Room Schedule (per candidate room)</text><text fill="#000000" font-family="Arial" font-size="12" lengthAdjust="spacing" textLength="476.8242" x="83.7441" y="492.2246">&#9472;&#9472;&#9472;&#9472;&#9472;&#9472;&#9472;&#9472;&#9472;&#9472;&#9472;&#9472;&#9472;&#9472;&#9472;&#9472;&#9472;&#9472;&#9472;&#9472;&#9472;&#9472;&#9472;&#9472;&#9472;&#9472;&#9472;&#9472;&#9472;&#9472;&#9472;&#9472;&#9472;&#9472;&#9472;&#9472;&#9472;&#9472;&#9472;&#9472;&#9472;&#9472;&#9472;&#9472;&#9472;&#9472;&#9472;&#9472;&#9472;&#9472;&#9472;&#9472;&#9472;&#9472;&#9472;&#9472;&#9472;&#9472;&#9472;&#9472;&#9472;&#9472;&#9472;&#9472;&#9472;&#9472;</text><text fill="#000000" font-family="Arial" font-size="12" lengthAdjust="spacing" textLength="437.9063" x="83.7441" y="506.1934">System loads current timetable for each room\nin the selected semester</text><rect fill="#FEFEFE" height="61.9063" rx="12.5" ry="12.5" style="stroke:#444444;stroke-width:0.5;" width="535.4023" x="54.4551" y="539.0234"/><text fill="#000000" font-family="Arial" font-size="12" font-weight="bold" lengthAdjust="spacing" textLength="19.2773" x="64.4551" y="560.1621">ref</text><text fill="#000000" font-family="Arial" font-size="12" lengthAdjust="spacing" textLength="196.6055" x="87.5469" y="560.1621">UC_VACANCY &#8212; Vacancy Search</text><text fill="#000000" font-family="Arial" font-size="12" lengthAdjust="spacing" textLength="346.7813" x="64.4551" y="574.1309">&#9472;&#9472;&#9472;&#9472;&#9472;&#9472;&#9472;&#9472;&#9472;&#9472;&#9472;&#9472;&#9472;&#9472;&#9472;&#9472;&#9472;&#9472;&#9472;&#9472;&#9472;&#9472;&#9472;&#9472;&#9472;&#9472;&#9472;&#9472;&#9472;&#9472;&#9472;&#9472;&#9472;&#9472;&#9472;&#9472;&#9472;&#9472;&#9472;&#9472;&#9472;&#9472;&#9472;&#9472;&#9472;&#9472;&#9472;&#9472;</text><text fill="#000000" font-family="Arial" font-size="12" lengthAdjust="spacing" textLength="515.4023" x="64.4551" y="588.0996">System identifies open time slots that are at\nleast as long as the requested duration</text><polygon fill="#FEFEFE" points="268.0264,620.9297,376.2861,620.9297,388.2861,632.9297,376.2861,644.9297,268.0264,644.9297,256.0264,632.9297,268.0264,620.9297" style="stroke:#444444;stroke-width:0.5;"/><text fill="#000000" font-family="Arial" font-size="11" lengthAdjust="spacing" textLength="108.2598" x="268.0264" y="636.7378">Vacant slots found?</text><text fill="#000000" font-family="Arial" font-size="11" lengthAdjust="spacing" textLength="19.0083" x="237.0181" y="630.3354">yes</text><text fill="#000000" font-family="Arial" font-size="11" lengthAdjust="spacing" textLength="13.7017" x="388.2861" y="630.3354">no</text><rect fill="#FEFEFE" height="47.9375" rx="12.5" ry="12.5" style="stroke:#444444;stroke-width:0.5;" width="293.1875" x="11" y="654.9297"/><text fill="#000000" font-family="Arial" font-size="12" lengthAdjust="spacing" textLength="225.1523" x="21" y="676.0684">System displays vacancy table listing</text><text fill="#000000" font-family="Arial" font-size="12" lengthAdjust="spacing" textLength="273.1875" x="21" y="690.0371">room, day, start time, end time, and duration</text><rect fill="#FEFEFE" height="33.9688" rx="12.5" ry="12.5" style="stroke:#444444;stroke-width:0.5;" width="290.1699" x="12.5088" y="722.8672"/><text fill="#000000" font-family="Arial" font-size="12" lengthAdjust="spacing" textLength="270.1699" x="22.5088" y="744.0059">Actor reviews available rooms and time slots</text><rect fill="#FEFEFE" height="33.9688" rx="12.5" ry="12.5" style="stroke:#444444;stroke-width:0.5;" width="325.0625" x="324.1875" y="654.9297"/><text fill="#000000" font-family="Arial" font-size="12" lengthAdjust="spacing" textLength="305.0625" x="334.1875" y="676.0684">System displays "No vacant spots found" message</text><polygon fill="#FEFEFE" points="322.1563,762.8359,334.1563,774.8359,322.1563,786.8359,310.1563,774.8359,322.1563,762.8359" style="stroke:#444444;stroke-width:0.5;"/><ellipse cx="322.1563" cy="817.8359" fill="none" rx="11" ry="11" style="stroke:#222222;stroke-width:1;"/><ellipse cx="322.1563" cy="817.8359" fill="#222222" rx="6" ry="6" style="stroke:#222222;stroke-width:1;"/><line style="stroke:#444444;stroke-width:1;" x1="322.1563" x2="322.1563" y1="125.3672" y2="145.3672"/><polygon fill="#444444" points="318.1563,135.3672,322.1563,145.3672,326.1563,135.3672,322.1563,139.3672" style="stroke:#444444;stroke-width:1;"/><line style="stroke:#444444;stroke-width:1;" x1="322.1563" x2="322.1563" y1="165.3672" y2="185.3672"/><polygon fill="#444444" points="318.1563,175.3672,322.1563,185.3672,326.1563,175.3672,322.1563,179.3672" style="stroke:#444444;stroke-width:1;"/><line style="stroke:#444444;stroke-width:1;" x1="322.1563" x2="322.1563" y1="233.3047" y2="253.3047"/><polygon fill="#444444" points="318.1563,243.3047,322.1563,253.3047,326.1563,243.3047,322.1563,247.3047" style="stroke:#444444;stroke-width:1;"/><line style="stroke:#444444;stroke-width:1;" x1="322.1563" x2="322.1563" y1="287.2734" y2="307.2734"/><polygon fill="#444444" points="318.1563,297.2734,322.1563,307.2734,326.1563,297.2734,322.1563,301.2734" style="stroke:#444444;stroke-width:1;"/><line style="stroke:#444444;stroke-width:1;" x1="322.1563" x2="322.1563" y1="383.1484" y2="403.1484"/><polygon fill="#444444" points="318.1563,393.1484,322.1563,403.1484,326.1563,393.1484,322.1563,397.1484" style="stroke:#444444;stroke-width:1;"/><line style="stroke:#444444;stroke-width:1;" x1="322.1563" x2="322.1563" y1="437.1172" y2="457.1172"/><polygon fill="#444444" points="318.1563,447.1172,322.1563,457.1172,326.1563,447.1172,322.1563,451.1172" style="stroke:#444444;stroke-width:1;"/><line style="stroke:#444444;stroke-width:1;" x1="322.1563" x2="322.1563" y1="519.0234" y2="539.0234"/><polygon fill="#444444" points="318.1563,529.0234,322.1563,539.0234,326.1563,529.0234,322.1563,533.0234" style="stroke:#444444;stroke-width:1;"/><line style="stroke:#444444;stroke-width:1;" x1="157.5938" x2="157.5938" y1="702.8672" y2="722.8672"/><polygon fill="#444444" points="153.5938,712.8672,157.5938,722.8672,161.5938,712.8672,157.5938,716.8672" style="stroke:#444444;stroke-width:1;"/><line style="stroke:#444444;stroke-width:1;" x1="256.0264" x2="157.5938" y1="632.9297" y2="632.9297"/><line style="stroke:#444444;stroke-width:1;" x1="157.5938" x2="157.5938" y1="632.9297" y2="654.9297"/><polygon fill="#444444" points="153.5938,644.9297,157.5938,654.9297,161.5938,644.9297,157.5938,648.9297" style="stroke:#444444;stroke-width:1;"/><line style="stroke:#444444;stroke-width:1;" x1="388.2861" x2="486.7188" y1="632.9297" y2="632.9297"/><line style="stroke:#444444;stroke-width:1;" x1="486.7188" x2="486.7188" y1="632.9297" y2="654.9297"/><polygon fill="#444444" points="482.7188,644.9297,486.7188,654.9297,490.7188,644.9297,486.7188,648.9297" style="stroke:#444444;stroke-width:1;"/><line style="stroke:#444444;stroke-width:1;" x1="157.5938" x2="157.5938" y1="756.8359" y2="774.8359"/><line style="stroke:#444444;stroke-width:1;" x1="157.5938" x2="310.1563" y1="774.8359" y2="774.8359"/><polygon fill="#444444" points="300.1563,770.8359,310.1563,774.8359,300.1563,778.8359,304.1563,774.8359" style="stroke:#444444;stroke-width:1;"/><line style="stroke:#444444;stroke-width:1;" x1="486.7188" x2="486.7188" y1="688.8984" y2="774.8359"/><line style="stroke:#444444;stroke-width:1;" x1="486.7188" x2="334.1563" y1="774.8359" y2="774.8359"/><polygon fill="#444444" points="344.1563,770.8359,334.1563,774.8359,344.1563,778.8359,340.1563,774.8359" style="stroke:#444444;stroke-width:1;"/><line style="stroke:#444444;stroke-width:1;" x1="322.1563" x2="322.1563" y1="600.9297" y2="620.9297"/><polygon fill="#444444" points="318.1563,610.9297,322.1563,620.9297,326.1563,610.9297,322.1563,614.9297" style="stroke:#444444;stroke-width:1;"/><line style="stroke:#444444;stroke-width:1;" x1="322.1563" x2="322.1563" y1="786.8359" y2="806.8359"/><polygon fill="#444444" points="318.1563,796.8359,322.1563,806.8359,326.1563,796.8359,322.1563,800.8359" style="stroke:#444444;stroke-width:1;"/><?plantuml-src tLJ1Rjim3BtxAuZsq2He3nlMON0FWvUqm0OiAUgcmu00XMhJ3bTPyYGwdM_zY7vXlsIKdQRfbW4x3fCDMB0eak_naGVmSJOP70-lpx-zlhuyUWMFzmymz-WWPUjQE8uXRSeIFKEoKgJLZKQuiBRoe4mEbrGXfDgoZmuWQNXfNGoVh4VuOaqPHVwMJAsSgc22XMeqdrd3KoMN4aTARvqd6TEAkFsWijlIsSRaOwkjW_spq_3iihGkHxUsUjEjRIldxDsV3gUMyVT0iiRZNwssWoJTYY8c5XPU4hSmy_JloOgC-0P7vPBZdRonSXn5yRb3XzyRyiGOWy-Mc3VYCrUiOAayt20QeAgsZZ5Vc857X7cwhcAjhShXz4U66iv8u_14F0fx0iMe5PMAqGDRu2N2bSgKoLf8KRbi2UUgn6ThNsD61Ocrxuyp9_b80UE5EP8hbI165_OJzEGmXqmhxo5ld6Ao1WOLcKQY3OFDh0x_b8wV_6RWX2CeI8kNhQZDJKNy55F-xoUJoRlJj_5evB0OZM0-lhwOpJvtOAy8xpgg8NqYQL2BYWLLJa8NTZ66qUF3_N_mHcahZ5SG2kmXQvn3my2YB-uqLmXzgAHG0VJ2aEbgx55Z9ZgHJL-ntPnU9UDaElxQq_f25j6_oWFbWhzNgAsb8m8Ju4Ed2N35e1o2ueNHgAGtfM-qT5du1bf2WmKwyerUXHSgOD21vxMV8aoAzyDmG_JSYfOZW7WTFoTVQzLwMAtvwikWoJEPSc526GwbQzj3w3gxI_0GK8P2lmlZuJcwEEvRmE5AT2tJOpDDt6QQF6CyYL3Bv1WOkpEdlQdjyn8ezGRA7eW6VDVcaWOLOURO-YS0?></g></svg>