<?plantuml 1.2026.2?><svg xmlns="http://www.w3.org/2000/svg" xmlns:xlink="http://www.w3.org/1999/xlink" contentStyleType="text/css" data-diagram-type="ACTIVITY" height="771px" preserveAspectRatio="none" style="width:983px;height:771px;background:#FFFFFF;" version="1.1" viewBox="0 0 983 771" width="983px" zoomAndPan="magnify"><title>IOD(2)_Pj2_T-1
US2: Search and Filter Classes</title><defs/><g><rect fill="#FFFFCC" height="26.6406" rx="2.5" ry="2.5" style="stroke:#FFDD88;stroke-width:3;" width="972.4375" x="5" y="5"/><text fill="#000000" font-family="monospace" font-size="10" lengthAdjust="spacing" textLength="535.8252" x="10" y="20">This&#160;syntax&#160;is&#160;deprecated,&#160;you&#160;must&#160;add&#160;&lt;&lt;#ADD8E6&gt;&gt;&#160;at&#160;the&#160;end&#160;of&#160;the&#160;line,&#160;after&#160;the&#160;';'</text><g class="title" data-source-line="11"><text fill="#000000" font-family="Arial" font-size="14" font-weight="bold" lengthAdjust="spacing" textLength="115.1719" x="425.1328" y="69.6357">IOD(2)_Pj2_T-1</text><text fill="#000000" font-family="Arial" font-size="14" font-weight="bold" lengthAdjust="spacing" textLength="241.1855" x="362.126" y="85.9326">US2: Search and Filter Classes</text></g><path d="M496.2297,100.2344 L496.2297,125.3672 L641.2058,125.3672 L641.2058,110.2344 L631.2058,100.2344 L496.2297,100.2344" fill="#FFFFCC" style="stroke:#AAAAAA;stroke-width:0.5;"/><path d="M631.2058,100.2344 L631.2058,110.2344 L641.2058,110.2344 L631.2058,100.2344" fill="#FFFFCC" style="stroke:#AAAAAA;stroke-width:0.5;"/><text fill="#000000" font-family="Arial" font-size="13" lengthAdjust="spacing" textLength="123.9761" x="502.2297" y="117.3013">Author: MayfairMI6</text><ellipse cx="568.7178" cy="155.3672" fill="#222222" rx="10" ry="10" style="stroke:#222222;stroke-width:1;"/><path d="M753.209,182.2188 L753.209,198.3516 L733.209,202.3516 L753.209,206.3516 L753.209,222.4844 A0,0 0 0 0 753.209,222.4844 L956.4375,222.4844 A0,0 0 0 0 956.4375,222.4844 L956.4375,192.2188 L946.4375,182.2188 L753.209,182.2188 A0,0 0 0 0 753.209,182.2188" fill="#FFFFCC" style="stroke:#AAAAAA;stroke-width:0.5;"/><path d="M946.4375,182.2188 L946.4375,192.2188 L956.4375,192.2188 L946.4375,182.2188" fill="#FFFFCC" style="stroke:#AAAAAA;stroke-width:0.5;"/><text fill="#000000" font-family="Arial" font-size="13" lengthAdjust="spacing" textLength="163.5854" x="759.209" y="199.2856">Prerequisite: at least one</text><text fill="#000000" font-family="Arial" font-size="13" lengthAdjust="spacing" textLength="182.2285" x="759.209" y="214.4185">semester's data is imported</text><rect fill="#FEFEFE" height="33.9688" rx="12.5" ry="12.5" style="stroke:#444444;stroke-width:0.5;" width="328.9824" x="404.2266" y="185.3672"/><text fill="#000000" font-family="Arial" font-size="12" lengthAdjust="spacing" textLength="308.9824" x="414.2266" y="206.5059">Actor navigates to the Search &amp; Filter Classes Page</text><rect fill="#FEFEFE" height="47.9375" rx="12.5" ry="12.5" style="stroke:#444444;stroke-width:0.5;" width="310.1035" x="413.666" y="242.4844"/><text fill="#000000" font-family="Arial" font-size="12" lengthAdjust="spacing" textLength="241.5879" x="423.666" y="263.623">Actor enters one or more search criteria</text><text fill="#000000" font-family="Arial" font-size="12" lengthAdjust="spacing" textLength="290.1035" x="423.666" y="277.5918">(course code, instructor, semester, department)</text><rect fill="#FEFEFE" height="61.9063" rx="12.5" ry="12.5" style="stroke:#444444;stroke-width:0.5;" width="377.2109" x="380.1123" y="310.4219"/><text fill="#000000" font-family="Arial" font-size="12" font-weight="bold" lengthAdjust="spacing" textLength="19.2773" x="390.1123" y="331.5605">ref</text><text fill="#000000" font-family="Arial" font-size="12" lengthAdjust="spacing" textLength="243.2461" x="413.2041" y="331.5605">UC_SEARCH &#8212; Search and Filter Classes</text><text fill="#000000" font-family="Arial" font-size="12" lengthAdjust="spacing" textLength="325.1074" x="390.1123" y="345.5293">&#9472;&#9472;&#9472;&#9472;&#9472;&#9472;&#9472;&#9472;&#9472;&#9472;&#9472;&#9472;&#9472;&#9472;&#9472;&#9472;&#9472;&#9472;&#9472;&#9472;&#9472;&#9472;&#9472;&#9472;&#9472;&#9472;&#9472;&#9472;&#9472;&#9472;&#9472;&#9472;&#9472;&#9472;&#9472;&#9472;&#9472;&#9472;&#9472;&#9472;&#9472;&#9472;&#9472;&#9472;&#9472;</text><text fill="#000000" font-family="Arial" font-size="12" lengthAdjust="spacing" textLength="357.2109" x="390.1123" y="359.498">System queries the database and returns matching classes</text><polygon fill="#FEFEFE" points="528.1794,392.3281,609.2561,392.3281,621.2561,404.3281,609.2561,416.3281,528.1794,416.3281,516.1794,404.3281,528.1794,392.3281" style="stroke:#444444;stroke-width:0.5;"/><text fill="#000000" font-family="Arial" font-size="11" lengthAdjust="spacing" textLength="81.0767" x="528.1794" y="408.1362">Results found?</text><text fill="#000000" font-family="Arial" font-size="11" lengthAdjust="spacing" textLength="19.0083" x="497.1711" y="401.7339">yes</text><text fill="#000000" font-family="Arial" font-size="11" lengthAdjust="spacing" textLength="13.7017" x="621.2561" y="401.7339">no</text><rect fill="#FEFEFE" height="47.9375" rx="12.5" ry="12.5" style="stroke:#444444;stroke-width:0.5;" width="322.1855" x="191.7139" y="426.3281"/><text fill="#000000" font-family="Arial" font-size="12" lengthAdjust="spacing" textLength="241.8047" x="201.7139" y="447.4668">System displays list of matching classes</text><text fill="#000000" font-family="Arial" font-size="12" lengthAdjust="spacing" textLength="302.1855" x="201.7139" y="461.4355">(title, section, instructor, room, times, enrollment)</text><polygon fill="#FEFEFE" points="271.3137,508.2344,434.2996,508.2344,446.2996,520.2344,434.2996,532.2344,271.3137,532.2344,259.3137,520.2344,271.3137,508.2344" style="stroke:#444444;stroke-width:0.5;"/><text fill="#000000" font-family="Arial" font-size="11" lengthAdjust="spacing" textLength="162.9858" x="271.3137" y="524.0425">Actor selects a specific class?</text><text fill="#000000" font-family="Arial" font-size="11" lengthAdjust="spacing" textLength="19.0083" x="240.3054" y="517.6401">yes</text><text fill="#000000" font-family="Arial" font-size="11" lengthAdjust="spacing" textLength="13.7017" x="446.2996" y="517.6401">no</text><rect fill="#FEFEFE" height="61.9063" rx="12.5" ry="12.5" style="stroke:#444444;stroke-width:0.5;" width="374.0059" x="11" y="542.2344"/><text fill="#000000" font-family="Arial" font-size="12" font-weight="bold" lengthAdjust="spacing" textLength="19.2773" x="21" y="563.373">ref</text><text fill="#000000" font-family="Arial" font-size="12" lengthAdjust="spacing" textLength="202.5352" x="44.0918" y="563.373">UC_DETAILS &#8212; View Class Details</text><text fill="#000000" font-family="Arial" font-size="12" lengthAdjust="spacing" textLength="354.0059" x="21" y="577.3418">&#9472;&#9472;&#9472;&#9472;&#9472;&#9472;&#9472;&#9472;&#9472;&#9472;&#9472;&#9472;&#9472;&#9472;&#9472;&#9472;&#9472;&#9472;&#9472;&#9472;&#9472;&#9472;&#9472;&#9472;&#9472;&#9472;&#9472;&#9472;&#9472;&#9472;&#9472;&#9472;&#9472;&#9472;&#9472;&#9472;&#9472;&#9472;&#9472;&#9472;&#9472;&#9472;&#9472;&#9472;&#9472;&#9472;&#9472;&#9472;&#9472;</text><text fill="#000000" font-family="Arial" font-size="12" lengthAdjust="spacing" textLength="309.1055" x="21" y="591.3105">System displays full attributes of the selected class</text><rect fill="#FEFEFE" height="33.9688" rx="12.5" ry="12.5" style="stroke:#444444;stroke-width:0.5;" width="261.2305" x="67.3877" y="624.1406"/><text fill="#000000" font-family="Arial" font-size="12" lengthAdjust="spacing" textLength="241.2305" x="77.3877" y="645.2793">Actor reviews detailed class information</text><rect fill="#FEFEFE" height="33.9688" rx="12.5" ry="12.5" style="stroke:#444444;stroke-width:0.5;" width="205.209" x="405.0059" y="542.2344"/><text fill="#000000" font-family="Arial" font-size="12" lengthAdjust="spacing" textLength="185.209" x="415.0059" y="563.373">Actor reviews search result list</text><polygon fill="#FEFEFE" points="352.8066,664.1094,364.8066,676.1094,352.8066,688.1094,340.8066,676.1094,352.8066,664.1094" style="stroke:#444444;stroke-width:0.5;"/><rect fill="#FEFEFE" height="33.9688" rx="12.5" ry="12.5" style="stroke:#444444;stroke-width:0.5;" width="288.8281" x="640.2148" y="426.3281"/><text fill="#000000" font-family="Arial" font-size="12" lengthAdjust="spacing" textLength="268.8281" x="650.2148" y="447.4668">System displays "No results found" message</text><rect fill="#FEFEFE" height="33.9688" rx="12.5" ry="12.5" style="stroke:#444444;stroke-width:0.5;" width="214.2383" x="677.5098" y="494.2656"/><text fill="#000000" font-family="Arial" font-size="12" lengthAdjust="spacing" textLength="194.2383" x="687.5098" y="515.4043">Actor adjusts criteria and retries</text><polygon fill="#FEFEFE" points="568.7178,694.1094,580.7178,706.1094,568.7178,718.1094,556.7178,706.1094,568.7178,694.1094" style="stroke:#444444;stroke-width:0.5;"/><ellipse cx="568.7178" cy="749.1094" fill="none" rx="11" ry="11" style="stroke:#222222;stroke-width:1;"/><ellipse cx="568.7178" cy="749.1094" fill="#222222" rx="6" ry="6" style="stroke:#222222;stroke-width:1;"/><line style="stroke:#444444;stroke-width:1;" x1="568.7178" x2="568.7178" y1="125.3672" y2="145.3672"/><polygon fill="#444444" points="564.7178,135.3672,568.7178,145.3672,572.7178,135.3672,568.7178,139.3672" style="stroke:#444444;stroke-width:1;"/><line style="stroke:#444444;stroke-width:1;" x1="568.7178" x2="568.7178" y1="165.3672" y2="185.3672"/><polygon fill="#444444" points="564.7178,175.3672,568.7178,185.3672,572.7178,175.3672,568.7178,179.3672" style="stroke:#444444;stroke-width:1;"/><line style="stroke:#444444;stroke-width:1;" x1="568.7178" x2="568.7178" y1="219.3359" y2="242.4844"/><polygon fill="#444444" points="564.7178,232.4844,568.7178,242.4844,572.7178,232.4844,568.7178,236.4844" style="stroke:#444444;stroke-width:1;"/><line style="stroke:#444444;stroke-width:1;" x1="568.7178" x2="568.7178" y1="290.4219" y2="310.4219"/><polygon fill="#444444" points="564.7178,300.4219,568.7178,310.4219,572.7178,300.4219,568.7178,304.4219" style="stroke:#444444;stroke-width:1;"/><line style="stroke:#444444;stroke-width:1;" x1="198.0029" x2="198.0029" y1="604.1406" y2="624.1406"/><polygon fill="#444444" points="194.0029,614.1406,198.0029,624.1406,202.0029,614.1406,198.0029,618.1406" style="stroke:#444444;stroke-width:1;"/><line style="stroke:#444444;stroke-width:1;" x1="259.3137" x2="198.0029" y1="520.2344" y2="520.2344"/><line style="stroke:#444444;stroke-width:1;" x1="198.0029" x2="198.0029" y1="520.2344" y2="542.2344"/><polygon fill="#444444" points="194.0029,532.2344,198.0029,542.2344,202.0029,532.2344,198.0029,536.2344" style="stroke:#444444;stroke-width:1;"/><line style="stroke:#444444;stroke-width:1;" x1="446.2996" x2="507.6104" y1="520.2344" y2="520.2344"/><line style="stroke:#444444;stroke-width:1;" x1="507.6104" x2="507.6104" y1="520.2344" y2="542.2344"/><polygon fill="#444444" points="503.6104,532.2344,507.6104,542.2344,511.6104,532.2344,507.6104,536.2344" style="stroke:#444444;stroke-width:1;"/><line style="stroke:#444444;stroke-width:1;" x1="198.0029" x2="198.0029" y1="658.1094" y2="676.1094"/><line style="stroke:#444444;stroke-width:1;" x1="198.0029" x2="340.8066" y1="676.1094" y2="676.1094"/><polygon fill="#444444" points="330.8066,672.1094,340.8066,676.1094,330.8066,680.1094,334.8066,676.1094" style="stroke:#444444;stroke-width:1;"/><line style="stroke:#444444;stroke-width:1;" x1="507.6104" x2="507.6104" y1="576.2031" y2="676.1094"/><line style="stroke:#444444;stroke-width:1;" x1="507.6104" x2="364.8066" y1="676.1094" y2="676.1094"/><polygon fill="#444444" points="374.8066,672.1094,364.8066,676.1094,374.8066,680.1094,370.8066,676.1094" style="stroke:#444444;stroke-width:1;"/><line style="stroke:#444444;stroke-width:1;" x1="352.8066" x2="352.8066" y1="474.2656" y2="508.2344"/><polygon fill="#444444" points="348.8066,498.2344,352.8066,508.2344,356.8066,498.2344,352.8066,502.2344" style="stroke:#444444;stroke-width:1;"/><line style="stroke:#444444;stroke-width:1;" x1="784.6289" x2="784.6289" y1="460.2969" y2="494.2656"/><polygon fill="#444444" points="780.6289,484.2656,784.6289,494.2656,788.6289,484.2656,784.6289,488.2656" style="stroke:#444444;stroke-width:1;"/><line style="stroke:#444444;stroke-width:1;" x1="516.1794" x2="352.8066" y1="404.3281" y2="404.3281"/><line style="stroke:#444444;stroke-width:1;" x1="352.8066" x2="352.8066" y1="404.3281" y2="426.3281"/><polygon fill="#444444" points="348.8066,416.3281,352.8066,426.3281,356.8066,416.3281,352.8066,420.3281" style="stroke:#444444;stroke-width:1;"/><line style="stroke:#444444;stroke-width:1;" x1="621.2561" x2="784.6289" y1="404.3281" y2="404.3281"/><line style="stroke:#444444;stroke-width:1;" x1="784.6289" x2="784.6289" y1="404.3281" y2="426.3281"/><polygon fill="#444444" points="780.6289,416.3281,784.6289,426.3281,788.6289,416.3281,784.6289,420.3281" style="stroke:#444444;stroke-width:1;"/><line style="stroke:#444444;stroke-width:1;" x1="352.8066" x2="352.8066" y1="688.1094" y2="706.1094"/><line style="stroke:#444444;stroke-width:1;" x1="352.8066" x2="556.7178" y1="706.1094" y2="706.1094"/><polygon fill="#444444" points="546.7178,702.1094,556.7178,706.1094,546.7178,710.1094,550.7178,706.1094" style="stroke:#444444;stroke-width:1;"/><line style="stroke:#444444;stroke-width:1;" x1="784.6289" x2="784.6289" y1="528.2344" y2="706.1094"/><line style="stroke:#444444;stroke-width:1;" x1="784.6289" x2="580.7178" y1="706.1094" y2="706.1094"/><polygon fill="#444444" points="590.7178,702.1094,580.7178,706.1094,590.7178,710.1094,586.7178,706.1094" style="stroke:#444444;stroke-width:1;"/><line style="stroke:#444444;stroke-width:1;" x1="568.7178" x2="568.7178" y1="372.3281" y2="392.3281"/><polygon fill="#444444" points="564.7178,382.3281,568.7178,392.3281,572.7178,382.3281,568.7178,386.3281" style="stroke:#444444;stroke-width:1;"/><line style="stroke:#444444;stroke-width:1;" x1="568.7178" x2="568.7178" y1="718.1094" y2="738.1094"/><polygon fill="#444444" points="564.7178,728.1094,568.7178,738.1094,572.7178,728.1094,568.7178,732.1094" style="stroke:#444444;stroke-width:1;"/><?plantuml-src pLF1JXin4BtxAqOWbIHA3qKLgf93bIP1HIeK4UW92PdTsSJWjSFCB2WtFe8lv4iOxoOeXD0pJYuhptlZUU_D7Xpz7RNssrUdD_jNvr-_mVFZ4rmm4amaqWBsUp11IzaCRCZXq7dHgw6tpCXc3mQLp2BruDWk2kle-EZ06BvrOMx9bZ32mbPU3cEG4riY3CXPltO_oCJTErdyijdjb68Lyc7qaM3tS9n-soeZvKZBgk_rMQyYYWyVNPv4mVUDz0o7crNhJGRrCKQSUDmGwp9SJFuha0bA1-IcC-bjrqeiYJ4zdK-R1NllfbQGGIB835VCNpPuuTHEiV-6_9IGyAvox0HxO0KyMXQ80Iy3Ouciy3s6t8e5n-3AUIJ1_BKr1YtWL0_wLKP2uAPvHagfnbs6LXOhOeGivjW55rYeIk0kh3fq8KVLKKgbQ_UDsHsCHZ_61xrEXx3eTE1YU3KP3yw6l-kOVQpRyzFZP_YRoKAdAk6kKW6IAsf9Kl3QgWhfsOHIKM0ehMGp5wQGDGFewAw0rXconf-XI8dxsKxu0Aq5Sji0z9RakUEvjmi6xv9XnJio5RuENv9Pro26jzfJZ6KNnAa3NRMHelSh-G7IAng36RsY6Ipm73DNkApXttmMm1RJHkFpmT6VIUtQFuSFZL6wtsATvnhrIInxOrzwrwRAHUMzxeUGkwxIfgdWoTP67imRKVerTBaQXFSwikvEFUsgH3qe8gbNQaWgHw-PQ8NOtWPThXBLUQYDhY4XTuKnwyXteTWvYKlOCaOxe4PplV-lRMn-Kx4Mh5PrbSqKshvPjc69ynS0?></g></svg>