<?plantuml 1.2026.2?><svg xmlns="http://www.w3.org/2000/svg" xmlns:xlink="http://www.w3.org/1999/xlink" contentStyleType="text/css" data-diagram-type="ACTIVITY" height="739px" preserveAspectRatio="none" style="width:896px;height:739px;background:#FFFFFF;" version="1.1" viewBox="0 0 896 739" width="896px" zoomAndPan="magnify"><title>IOD(3)_Pj2_T-1
US3: View Room Weekly Timetable</title><defs/><g><rect fill="#FFFFCC" height="26.6406" rx="2.5" ry="2.5" style="stroke:#FFDD88;stroke-width:3;" width="885.1519" x="5" y="5"/><text fill="#000000" font-family="monospace" font-size="10" lengthAdjust="spacing" textLength="535.8252" x="10" y="20">This&#160;syntax&#160;is&#160;deprecated,&#160;you&#160;must&#160;add&#160;&lt;&lt;#ADD8E6&gt;&gt;&#160;at&#160;the&#160;end&#160;of&#160;the&#160;line,&#160;after&#160;the&#160;';'</text><g class="title" data-source-line="11"><text fill="#000000" font-family="Arial" font-size="14" font-weight="bold" lengthAdjust="spacing" textLength="115.1719" x="381.49" y="69.6357">IOD(3)_Pj2_T-1</text><text fill="#000000" font-family="Arial" font-size="14" font-weight="bold" lengthAdjust="spacing" textLength="275.5088" x="301.3215" y="85.9326">US3: View Room Weekly Timetable</text></g><path d="M412.3201,100.2344 L412.3201,125.3672 L557.2961,125.3672 L557.2961,110.2344 L547.2961,100.2344 L412.3201,100.2344" fill="#FFFFCC" style="stroke:#AAAAAA;stroke-width:0.5;"/><path d="M547.2961,100.2344 L547.2961,110.2344 L557.2961,110.2344 L547.2961,100.2344" fill="#FFFFCC" style="stroke:#AAAAAA;stroke-width:0.5;"/><text fill="#000000" font-family="Arial" font-size="13" lengthAdjust="spacing" textLength="123.9761" x="418.3201" y="117.3013">Author: MayfairMI6</text><ellipse cx="484.8081" cy="155.3672" fill="#222222" rx="10" ry="10" style="stroke:#222222;stroke-width:1;"/><path d="M655.729,189.2031 L655.729,205.3359 L635.729,209.3359 L655.729,213.3359 L655.729,229.4688 A0,0 0 0 0 655.729,229.4688 L869.1519,229.4688 A0,0 0 0 0 869.1519,229.4688 L869.1519,199.2031 L859.1519,189.2031 L655.729,189.2031 A0,0 0 0 0 655.729,189.2031" fill="#FFFFCC" style="stroke:#AAAAAA;stroke-width:0.5;"/><path d="M859.1519,189.2031 L859.1519,199.2031 L869.1519,199.2031 L859.1519,189.2031" fill="#FFFFCC" style="stroke:#AAAAAA;stroke-width:0.5;"/><text fill="#000000" font-family="Arial" font-size="13" lengthAdjust="spacing" textLength="153.0166" x="661.729" y="206.27">At least one semester's</text><text fill="#000000" font-family="Arial" font-size="13" lengthAdjust="spacing" textLength="192.4229" x="661.729" y="221.4028">data must be in the database</text><rect fill="#FEFEFE" height="47.9375" rx="12.5" ry="12.5" style="stroke:#444444;stroke-width:0.5;" width="301.8418" x="333.8872" y="185.3672"/><text fill="#000000" font-family="Arial" font-size="12" lengthAdjust="spacing" textLength="281.8418" x="343.8872" y="206.5059">Prerequisite: schedule data has been imported</text><text fill="#000000" font-family="Arial" font-size="12" lengthAdjust="spacing" textLength="180.4863" x="343.8872" y="220.4746">(see US1 &#8212; Upload Excel File)</text><rect fill="#FEFEFE" height="33.9688" rx="12.5" ry="12.5" style="stroke:#444444;stroke-width:0.5;" width="289.5488" x="340.0337" y="253.3047"/><text fill="#000000" font-family="Arial" font-size="12" lengthAdjust="spacing" textLength="269.5488" x="350.0337" y="274.4434">Actor navigates to the Room Timetable Page</text><rect fill="#FEFEFE" height="33.9688" rx="12.5" ry="12.5" style="stroke:#444444;stroke-width:0.5;" width="287.6855" x="340.9653" y="307.2734"/><text fill="#000000" font-family="Arial" font-size="12" lengthAdjust="spacing" textLength="267.6855" x="350.9653" y="328.4121">Actor selects a semester from the dropdown</text><polygon fill="#FEFEFE" points="386.9065,361.2422,582.7097,361.2422,594.7097,373.2422,582.7097,385.2422,386.9065,385.2422,374.9065,373.2422,386.9065,361.2422" style="stroke:#444444;stroke-width:0.5;"/><text fill="#000000" font-family="Arial" font-size="11" lengthAdjust="spacing" textLength="195.8032" x="386.9065" y="377.0503">Rooms available for that semester?</text><text fill="#000000" font-family="Arial" font-size="11" lengthAdjust="spacing" textLength="19.0083" x="355.8982" y="370.6479">yes</text><text fill="#000000" font-family="Arial" font-size="11" lengthAdjust="spacing" textLength="13.7017" x="594.7097" y="370.6479">no</text><rect fill="#FEFEFE" height="33.9688" rx="12.5" ry="12.5" style="stroke:#444444;stroke-width:0.5;" width="263.0117" x="151.417" y="395.2422"/><text fill="#000000" font-family="Arial" font-size="12" lengthAdjust="spacing" textLength="243.0117" x="161.417" y="416.3809">Actor selects a room from the dropdown</text><rect fill="#FEFEFE" height="33.9688" rx="12.5" ry="12.5" style="stroke:#444444;stroke-width:0.5;" width="196.2031" x="184.8213" y="449.2109"/><text fill="#000000" font-family="Arial" font-size="12" lengthAdjust="spacing" textLength="176.2031" x="194.8213" y="470.3496">Actor clicks "View Timetable"</text><rect fill="#FEFEFE" height="61.9063" rx="12.5" ry="12.5" style="stroke:#444444;stroke-width:0.5;" width="543.8457" x="11" y="503.1797"/><text fill="#000000" font-family="Arial" font-size="12" font-weight="bold" lengthAdjust="spacing" textLength="19.2773" x="21" y="524.3184">ref</text><text fill="#000000" font-family="Arial" font-size="12" lengthAdjust="spacing" textLength="206.5957" x="44.0918" y="524.3184">UC_ROOM &#8212; View Room Schedule</text><text fill="#000000" font-family="Arial" font-size="12" lengthAdjust="spacing" textLength="325.1074" x="21" y="538.2871">&#9472;&#9472;&#9472;&#9472;&#9472;&#9472;&#9472;&#9472;&#9472;&#9472;&#9472;&#9472;&#9472;&#9472;&#9472;&#9472;&#9472;&#9472;&#9472;&#9472;&#9472;&#9472;&#9472;&#9472;&#9472;&#9472;&#9472;&#9472;&#9472;&#9472;&#9472;&#9472;&#9472;&#9472;&#9472;&#9472;&#9472;&#9472;&#9472;&#9472;&#9472;&#9472;&#9472;&#9472;&#9472;</text><text fill="#000000" font-family="Arial" font-size="12" lengthAdjust="spacing" textLength="523.8457" x="21" y="552.2559">System builds a weekly grid of scheduled classes\nfor the selected room and semester</text><rect fill="#FEFEFE" height="47.9375" rx="12.5" ry="12.5" style="stroke:#444444;stroke-width:0.5;" width="275.3457" x="145.25" y="585.0859"/><text fill="#000000" font-family="Arial" font-size="12" lengthAdjust="spacing" textLength="255.3457" x="155.25" y="606.2246">System displays the weekly timetable grid</text><text fill="#000000" font-family="Arial" font-size="12" lengthAdjust="spacing" textLength="225.3633" x="155.25" y="620.1934">(days as columns, time slots as rows)</text><rect fill="#FEFEFE" height="33.9688" rx="12.5" ry="12.5" style="stroke:#444444;stroke-width:0.5;" width="321.2246" x="122.3105" y="653.0234"/><text fill="#000000" font-family="Arial" font-size="12" lengthAdjust="spacing" textLength="301.2246" x="132.3105" y="674.1621">Actor reviews room occupancy and available slots</text><rect fill="#FEFEFE" height="33.9688" rx="12.5" ry="12.5" style="stroke:#444444;stroke-width:0.5;" width="211.8418" x="580.7725" y="395.2422"/><text fill="#000000" font-family="Arial" font-size="12" lengthAdjust="spacing" textLength="191.8418" x="590.7725" y="416.3809">System shows empty dropdown</text><rect fill="#FEFEFE" height="33.9688" rx="12.5" ry="12.5" style="stroke:#444444;stroke-width:0.5;" width="223.6953" x="574.8457" y="449.2109"/><text fill="#000000" font-family="Arial" font-size="12" lengthAdjust="spacing" textLength="203.6953" x="584.8457" y="470.3496">Actor selects a different semester</text><ellipse cx="686.6934" cy="514.1797" fill="none" rx="11" ry="11" style="stroke:#222222;stroke-width:1;"/><ellipse cx="686.6934" cy="514.1797" fill="#222222" rx="6" ry="6" style="stroke:#222222;stroke-width:1;"/><ellipse cx="484.8081" cy="717.9922" fill="none" rx="11" ry="11" style="stroke:#222222;stroke-width:1;"/><ellipse cx="484.8081" cy="717.9922" fill="#222222" rx="6" ry="6" style="stroke:#222222;stroke-width:1;"/><line style="stroke:#444444;stroke-width:1;" x1="484.8081" x2="484.8081" y1="125.3672" y2="145.3672"/><polygon fill="#444444" points="480.8081,135.3672,484.8081,145.3672,488.8081,135.3672,484.8081,139.3672" style="stroke:#444444;stroke-width:1;"/><line style="stroke:#444444;stroke-width:1;" x1="484.8081" x2="484.8081" y1="165.3672" y2="185.3672"/><polygon fill="#444444" points="480.8081,175.3672,484.8081,185.3672,488.8081,175.3672,484.8081,179.3672" style="stroke:#444444;stroke-width:1;"/><line style="stroke:#444444;stroke-width:1;" x1="484.8081" x2="484.8081" y1="233.3047" y2="253.3047"/><polygon fill="#444444" points="480.8081,243.3047,484.8081,253.3047,488.8081,243.3047,484.8081,247.3047" style="stroke:#444444;stroke-width:1;"/><line style="stroke:#444444;stroke-width:1;" x1="484.8081" x2="484.8081" y1="287.2734" y2="307.2734"/><polygon fill="#444444" points="480.8081,297.2734,484.8081,307.2734,488.8081,297.2734,484.8081,301.2734" style="stroke:#444444;stroke-width:1;"/><line style="stroke:#444444;stroke-width:1;" x1="282.9229" x2="282.9229" y1="429.2109" y2="449.2109"/><polygon fill="#444444" points="278.9229,439.2109,282.9229,449.2109,286.9229,439.2109,282.9229,443.2109" style="stroke:#444444;stroke-width:1;"/><line style="stroke:#444444;stroke-width:1;" x1="282.9229" x2="282.9229" y1="483.1797" y2="503.1797"/><polygon fill="#444444" points="278.9229,493.1797,282.9229,503.1797,286.9229,493.1797,282.9229,497.1797" style="stroke:#444444;stroke-width:1;"/><line style="stroke:#444444;stroke-width:1;" x1="282.9229" x2="282.9229" y1="565.0859" y2="585.0859"/><polygon fill="#444444" points="278.9229,575.0859,282.9229,585.0859,286.9229,575.0859,282.9229,579.0859" style="stroke:#444444;stroke-width:1;"/><line style="stroke:#444444;stroke-width:1;" x1="282.9229" x2="282.9229" y1="633.0234" y2="653.0234"/><polygon fill="#444444" points="278.9229,643.0234,282.9229,653.0234,286.9229,643.0234,282.9229,647.0234" style="stroke:#444444;stroke-width:1;"/><line style="stroke:#444444;stroke-width:1;" x1="686.6934" x2="686.6934" y1="429.2109" y2="449.2109"/><polygon fill="#444444" points="682.6934,439.2109,686.6934,449.2109,690.6934,439.2109,686.6934,443.2109" style="stroke:#444444;stroke-width:1;"/><line style="stroke:#444444;stroke-width:1;" x1="686.6934" x2="686.6934" y1="483.1797" y2="503.1797"/><polygon fill="#444444" points="682.6934,493.1797,686.6934,503.1797,690.6934,493.1797,686.6934,497.1797" style="stroke:#444444;stroke-width:1;"/><line style="stroke:#444444;stroke-width:1;" x1="374.9065" x2="282.9229" y1="373.2422" y2="373.2422"/><line style="stroke:#444444;stroke-width:1;" x1="282.9229" x2="282.9229" y1="373.2422" y2="395.2422"/><polygon fill="#444444" points="278.9229,385.2422,282.9229,395.2422,286.9229,385.2422,282.9229,389.2422" style="stroke:#444444;stroke-width:1;"/><line style="stroke:#444444;stroke-width:1;" x1="594.7097" x2="686.6934" y1="373.2422" y2="373.2422"/><line style="stroke:#444444;stroke-width:1;" x1="686.6934" x2="686.6934" y1="373.2422" y2="395.2422"/><polygon fill="#444444" points="682.6934,385.2422,686.6934,395.2422,690.6934,385.2422,686.6934,389.2422" style="stroke:#444444;stroke-width:1;"/><line style="stroke:#444444;stroke-width:1;" x1="282.9229" x2="282.9229" y1="686.9922" y2="691.9922"/><line style="stroke:#444444;stroke-width:1;" x1="282.9229" x2="484.8081" y1="691.9922" y2="691.9922"/><line style="stroke:#444444;stroke-width:1;" x1="484.8081" x2="484.8081" y1="691.9922" y2="706.9922"/><polygon fill="#444444" points="480.8081,696.9922,484.8081,706.9922,488.8081,696.9922,484.8081,700.9922" style="stroke:#444444;stroke-width:1;"/><line style="stroke:#444444;stroke-width:1;" x1="484.8081" x2="484.8081" y1="341.2422" y2="361.2422"/><polygon fill="#444444" points="480.8081,351.2422,484.8081,361.2422,488.8081,351.2422,484.8081,355.2422" style="stroke:#444444;stroke-width:1;"/><?plantuml-src pLFBRjim4BphAnR98RRH7jeKGQ4S2jTEW1poG1ot5mF1MbnPh2bIvQxiwfQFo1VcIqhHXkmcRi-bVTBEpYndbYTmTJlkdVOVxtvyV7nu_m5UdfvXokHX8iutS9h2Dqrhk7UkXEz4IzF0Wov9S6ueEO5XBONpALnZawFsrrTdIS9BRIlqMCAOSgoDN3ehDrWI3Br6irSVPg9NMfglc2qNtjLMZPnn7eulBzhV8QJpYlmMzIcUVPJtRlstueqJUYiKpcZq6hKlCemdIKIBeLTkpUnqyc-74XlumEj58UbXimIz94bwvydJprgp5ag1iu9K7VGK2aA137CY2xgid1TICzjZ8fXEjdbLng62YryP6RZKXlhdV-eA648MS9Q0gIGMyYSyiv6zh4DbJg0jIB5Hd2E7qTDWUd30uaelK8X1N4J4ctPNX3jSq7c7PZAK2GDsGf3xW8_KtbNAhMr0wnnwBKy0hb2RI9I7TYbGkiul_RRDGgyXxYS9m1iDtuvoWB-3PaPdIuQZ654tyz5votOy78y_NvobWu6dV320wUZn_lRsEbgwYtIoZI8ql3m__G__CCca2VwKCA-rKQqFwytUBRnMuF9kVLIuFp9JY7fZBcsz2vLe7LhLkHqzIRVCIdDbiE7OisMNBl9M9-oWQW5XDpDdwjBokuW0DaxYv_0MkR-NXQTLS9KtoYxBwWfjriGPTaiGkyCeP9YWPrr_RoWk0YDGMKbpAElTMYYTv-4vMTcx702BgnAoeTW-ErVz1W00?></g></svg>