<?plantuml 1.2026.2?><svg xmlns="http://www.w3.org/2000/svg" xmlns:xlink="http://www.w3.org/1999/xlink" contentStyleType="text/css" data-diagram-type="ACTIVITY" height="919px" preserveAspectRatio="none" style="width:700px;height:919px;background:#FFFFFF;" version="1.1" viewBox="0 0 700 919" width="700px" zoomAndPan="magnify"><title>IOD(8)_Pj2_T-1
US8: Export Class Schedule</title><defs/><g><rect fill="#FFFFCC" height="26.6406" rx="2.5" ry="2.5" style="stroke:#FFDD88;stroke-width:3;" width="689.2988" x="5" y="5"/><text fill="#000000" font-family="monospace" font-size="10" lengthAdjust="spacing" textLength="535.8252" x="10" y="20">This&#160;syntax&#160;is&#160;deprecated,&#160;you&#160;must&#160;add&#160;&lt;&lt;#ADD8E6&gt;&gt;&#160;at&#160;the&#160;end&#160;of&#160;the&#160;line,&#160;after&#160;the&#160;';'</text><g class="title" data-source-line="11"><text fill="#000000" font-family="Arial" font-size="14" font-weight="bold" lengthAdjust="spacing" textLength="115.1719" x="283.5635" y="69.6357">IOD(8)_Pj2_T-1</text><text fill="#000000" font-family="Arial" font-size="14" font-weight="bold" lengthAdjust="spacing" textLength="216.5557" x="232.8716" y="85.9326">US8: Export Class Schedule</text></g><path d="M325.238,100.2344 L325.238,125.3672 L470.2141,125.3672 L470.2141,110.2344 L460.2141,100.2344 L325.238,100.2344" fill="#FFFFCC" style="stroke:#AAAAAA;stroke-width:0.5;"/><path d="M460.2141,100.2344 L460.2141,110.2344 L470.2141,110.2344 L460.2141,100.2344" fill="#FFFFCC" style="stroke:#AAAAAA;stroke-width:0.5;"/><text fill="#000000" font-family="Arial" font-size="13" lengthAdjust="spacing" textLength="123.9761" x="331.238" y="117.3013">Author: MayfairMI6</text><ellipse cx="397.7261" cy="155.3672" fill="#222222" rx="10" ry="10" style="stroke:#222222;stroke-width:1;"/><rect fill="#FEFEFE" height="47.9375" rx="12.5" ry="12.5" style="stroke:#444444;stroke-width:0.5;" width="301.8418" x="246.8052" y="185.3672"/><text fill="#000000" font-family="Arial" font-size="12" lengthAdjust="spacing" textLength="281.8418" x="256.8052" y="206.5059">Prerequisite: schedule data has been imported</text><text fill="#000000" font-family="Arial" font-size="12" lengthAdjust="spacing" textLength="180.4863" x="256.8052" y="220.4746">(see US1 &#8212; Upload Excel File)</text><rect fill="#FEFEFE" height="47.9375" rx="12.5" ry="12.5" style="stroke:#444444;stroke-width:0.5;" width="328.9824" x="233.2349" y="253.3047"/><text fill="#000000" font-family="Arial" font-size="12" lengthAdjust="spacing" textLength="308.9824" x="243.2349" y="274.4434">Actor navigates to the Search &amp; Filter Classes Page</text><text fill="#000000" font-family="Arial" font-size="12" lengthAdjust="spacing" textLength="257.6484" x="243.2349" y="288.4121">(or directly to the Export / Download Page)</text><polygon fill="#FEFEFE" points="301.0706,321.2422,494.3816,321.2422,506.3816,333.2422,494.3816,345.2422,301.0706,345.2422,289.0706,333.2422,301.0706,321.2422" style="stroke:#444444;stroke-width:0.5;"/><text fill="#000000" font-family="Arial" font-size="11" lengthAdjust="spacing" textLength="193.311" x="301.0706" y="337.0503">Actor wants to filter before export?</text><text fill="#000000" font-family="Arial" font-size="11" lengthAdjust="spacing" textLength="19.0083" x="270.0623" y="330.6479">yes</text><text fill="#000000" font-family="Arial" font-size="11" lengthAdjust="spacing" textLength="13.7017" x="506.3816" y="330.6479">no</text><rect fill="#FEFEFE" height="33.9688" rx="12.5" ry="12.5" style="stroke:#444444;stroke-width:0.5;" width="184.1914" x="134.8057" y="355.2422"/><text fill="#000000" font-family="Arial" font-size="12" lengthAdjust="spacing" textLength="164.1914" x="144.8057" y="376.3809">Actor enters search criteria</text><rect fill="#FEFEFE" height="61.9063" rx="12.5" ry="12.5" style="stroke:#444444;stroke-width:0.5;" width="431.8027" x="11" y="409.2109"/><text fill="#000000" font-family="Arial" font-size="12" font-weight="bold" lengthAdjust="spacing" textLength="19.2773" x="21" y="430.3496">ref</text><text fill="#000000" font-family="Arial" font-size="12" lengthAdjust="spacing" textLength="243.2461" x="44.0918" y="430.3496">UC_SEARCH &#8212; Search and Filter Classes</text><text fill="#000000" font-family="Arial" font-size="12" lengthAdjust="spacing" textLength="411.8027" x="21" y="444.3184">&#9472;&#9472;&#9472;&#9472;&#9472;&#9472;&#9472;&#9472;&#9472;&#9472;&#9472;&#9472;&#9472;&#9472;&#9472;&#9472;&#9472;&#9472;&#9472;&#9472;&#9472;&#9472;&#9472;&#9472;&#9472;&#9472;&#9472;&#9472;&#9472;&#9472;&#9472;&#9472;&#9472;&#9472;&#9472;&#9472;&#9472;&#9472;&#9472;&#9472;&#9472;&#9472;&#9472;&#9472;&#9472;&#9472;&#9472;&#9472;&#9472;&#9472;&#9472;&#9472;&#9472;&#9472;&#9472;&#9472;&#9472;</text><text fill="#000000" font-family="Arial" font-size="12" lengthAdjust="spacing" textLength="324.4922" x="21" y="458.2871">System retrieves matching classes from the database</text><rect fill="#FEFEFE" height="33.9688" rx="12.5" ry="12.5" style="stroke:#444444;stroke-width:0.5;" width="219.1953" x="117.3037" y="491.1172"/><text fill="#000000" font-family="Arial" font-size="12" lengthAdjust="spacing" textLength="199.1953" x="127.3037" y="512.2559">System displays filtered class list</text><rect fill="#FEFEFE" height="33.9688" rx="12.5" ry="12.5" style="stroke:#444444;stroke-width:0.5;" width="211.4961" x="462.8027" y="355.2422"/><text fill="#000000" font-family="Arial" font-size="12" lengthAdjust="spacing" textLength="191.4961" x="472.8027" y="376.3809">Actor proceeds with full dataset</text><polygon fill="#FEFEFE" points="397.7261,531.0859,409.7261,543.0859,397.7261,555.0859,385.7261,543.0859,397.7261,531.0859" style="stroke:#444444;stroke-width:0.5;"/><rect fill="#FEFEFE" height="33.9688" rx="12.5" ry="12.5" style="stroke:#444444;stroke-width:0.5;" width="273.752" x="260.8501" y="575.0859"/><text fill="#000000" font-family="Arial" font-size="12" lengthAdjust="spacing" textLength="253.752" x="270.8501" y="596.2246">Actor selects export format (Excel or CSV)</text><rect fill="#FEFEFE" height="33.9688" rx="12.5" ry="12.5" style="stroke:#444444;stroke-width:0.5;" width="225.1602" x="285.146" y="629.0547"/><text fill="#000000" font-family="Arial" font-size="12" lengthAdjust="spacing" textLength="205.1602" x="295.146" y="650.1934">Actor clicks "Download" / "Export"</text><rect fill="#FEFEFE" height="61.9063" rx="12.5" ry="12.5" style="stroke:#444444;stroke-width:0.5;" width="514.5605" x="140.4458" y="683.0234"/><text fill="#000000" font-family="Arial" font-size="12" font-weight="bold" lengthAdjust="spacing" textLength="19.2773" x="150.4458" y="704.1621">ref</text><text fill="#000000" font-family="Arial" font-size="12" lengthAdjust="spacing" textLength="189.1816" x="173.5376" y="704.1621">UC_EXPORT &#8212; Export Schedule</text><text fill="#000000" font-family="Arial" font-size="12" lengthAdjust="spacing" textLength="317.8828" x="150.4458" y="718.1309">&#9472;&#9472;&#9472;&#9472;&#9472;&#9472;&#9472;&#9472;&#9472;&#9472;&#9472;&#9472;&#9472;&#9472;&#9472;&#9472;&#9472;&#9472;&#9472;&#9472;&#9472;&#9472;&#9472;&#9472;&#9472;&#9472;&#9472;&#9472;&#9472;&#9472;&#9472;&#9472;&#9472;&#9472;&#9472;&#9472;&#9472;&#9472;&#9472;&#9472;&#9472;&#9472;&#9472;&#9472;</text><text fill="#000000" font-family="Arial" font-size="12" lengthAdjust="spacing" textLength="494.5605" x="150.4458" y="732.0996">System serializes the selected class data\ninto the chosen file format (xlsx or csv)</text><rect fill="#FEFEFE" height="33.9688" rx="12.5" ry="12.5" style="stroke:#444444;stroke-width:0.5;" width="289.6191" x="252.9165" y="764.9297"/><text fill="#000000" font-family="Arial" font-size="12" lengthAdjust="spacing" textLength="269.6191" x="262.9165" y="786.0684">System triggers file download in the browser</text><rect fill="#FEFEFE" height="47.9375" rx="12.5" ry="12.5" style="stroke:#444444;stroke-width:0.5;" width="262.584" x="266.4341" y="818.8984"/><text fill="#000000" font-family="Arial" font-size="12" lengthAdjust="spacing" textLength="242.4902" x="276.4341" y="840.0371">Actor receives downloaded schedule file</text><text fill="#000000" font-family="Arial" font-size="12" lengthAdjust="spacing" textLength="242.584" x="276.4341" y="854.0059">for distribution to departments and staff</text><ellipse cx="397.7261" cy="897.8359" fill="none" rx="11" ry="11" style="stroke:#222222;stroke-width:1;"/><ellipse cx="397.7261" cy="897.8359" fill="#222222" rx="6" ry="6" style="stroke:#222222;stroke-width:1;"/><line style="stroke:#444444;stroke-width:1;" x1="397.7261" x2="397.7261" y1="125.3672" y2="145.3672"/><polygon fill="#444444" points="393.7261,135.3672,397.7261,145.3672,401.7261,135.3672,397.7261,139.3672" style="stroke:#444444;stroke-width:1;"/><line style="stroke:#444444;stroke-width:1;" x1="397.7261" x2="397.7261" y1="165.3672" y2="185.3672"/><polygon fill="#444444" points="393.7261,175.3672,397.7261,185.3672,401.7261,175.3672,397.7261,179.3672" style="stroke:#444444;stroke-width:1;"/><line style="stroke:#444444;stroke-width:1;" x1="397.7261" x2="397.7261" y1="233.3047" y2="253.3047"/><polygon fill="#444444" points="393.7261,243.3047,397.7261,253.3047,401.7261,243.3047,397.7261,247.3047" style="stroke:#444444;stroke-width:1;"/><line style="stroke:#444444;stroke-width:1;" x1="226.9014" x2="226.9014" y1="389.2109" y2="409.2109"/><polygon fill="#444444" points="222.9014,399.2109,226.9014,409.2109,230.9014,399.2109,226.9014,403.2109" style="stroke:#444444;stroke-width:1;"/><line style="stroke:#444444;stroke-width:1;" x1="226.9014" x2="226.9014" y1="471.1172" y2="491.1172"/><polygon fill="#444444" points="222.9014,481.1172,226.9014,491.1172,230.9014,481.1172,226.9014,485.1172" style="stroke:#444444;stroke-width:1;"/><line style="stroke:#444444;stroke-width:1;" x1="289.0706" x2="226.9014" y1="333.2422" y2="333.2422"/><line style="stroke:#444444;stroke-width:1;" x1="226.9014" x2="226.9014" y1="333.2422" y2="355.2422"/><polygon fill="#444444" points="222.9014,345.2422,226.9014,355.2422,230.9014,345.2422,226.9014,349.2422" style="stroke:#444444;stroke-width:1;"/><line style="stroke:#444444;stroke-width:1;" x1="506.3816" x2="568.5508" y1="333.2422" y2="333.2422"/><line style="stroke:#444444;stroke-width:1;" x1="568.5508" x2="568.5508" y1="333.2422" y2="355.2422"/><polygon fill="#444444" points="564.5508,345.2422,568.5508,355.2422,572.5508,345.2422,568.5508,349.2422" style="stroke:#444444;stroke-width:1;"/><line style="stroke:#444444;stroke-width:1;" x1="226.9014" x2="226.9014" y1="525.0859" y2="543.0859"/><line style="stroke:#444444;stroke-width:1;" x1="226.9014" x2="385.7261" y1="543.0859" y2="543.0859"/><polygon fill="#444444" points="375.7261,539.0859,385.7261,543.0859,375.7261,547.0859,379.7261,543.0859" style="stroke:#444444;stroke-width:1;"/><line style="stroke:#444444;stroke-width:1;" x1="568.5508" x2="568.5508" y1="389.2109" y2="543.0859"/><line style="stroke:#444444;stroke-width:1;" x1="568.5508" x2="409.7261" y1="543.0859" y2="543.0859"/><polygon fill="#444444" points="419.7261,539.0859,409.7261,543.0859,419.7261,547.0859,415.7261,543.0859" style="stroke:#444444;stroke-width:1;"/><line style="stroke:#444444;stroke-width:1;" x1="397.7261" x2="397.7261" y1="301.2422" y2="321.2422"/><polygon fill="#444444" points="393.7261,311.2422,397.7261,321.2422,401.7261,311.2422,397.7261,315.2422" style="stroke:#444444;stroke-width:1;"/><line style="stroke:#444444;stroke-width:1;" x1="397.7261" x2="397.7261" y1="555.0859" y2="575.0859"/><polygon fill="#444444" points="393.7261,565.0859,397.7261,575.0859,401.7261,565.0859,397.7261,569.0859" style="stroke:#444444;stroke-width:1;"/><line style="stroke:#444444;stroke-width:1;" x1="397.7261" x2="397.7261" y1="609.0547" y2="629.0547"/><polygon fill="#444444" points="393.7261,619.0547,397.7261,629.0547,401.7261,619.0547,397.7261,623.0547" style="stroke:#444444;stroke-width:1;"/><line style="stroke:#444444;stroke-width:1;" x1="397.7261" x2="397.7261" y1="663.0234" y2="683.0234"/><polygon fill="#444444" points="393.7261,673.0234,397.7261,683.0234,401.7261,673.0234,397.7261,677.0234" style="stroke:#444444;stroke-width:1;"/><line style="stroke:#444444;stroke-width:1;" x1="397.7261" x2="397.7261" y1="744.9297" y2="764.9297"/><polygon fill="#444444" points="393.7261,754.9297,397.7261,764.9297,401.7261,754.9297,397.7261,758.9297" style="stroke:#444444;stroke-width:1;"/><line style="stroke:#444444;stroke-width:1;" x1="397.7261" x2="397.7261" y1="798.8984" y2="818.8984"/><polygon fill="#444444" points="393.7261,808.8984,397.7261,818.8984,401.7261,808.8984,397.7261,812.8984" style="stroke:#444444;stroke-width:1;"/><line style="stroke:#444444;stroke-width:1;" x1="397.7261" x2="397.7261" y1="866.8359" y2="886.8359"/><polygon fill="#444444" points="393.7261,876.8359,397.7261,886.8359,401.7261,876.8359,397.7261,880.8359" style="stroke:#444444;stroke-width:1;"/><?plantuml-src rLJTJjim5BxFKnmLQRILfcdJX52ucBgqQ5m05Q7JBYeXDpv9F1oxivsMx8g7u0bvaXqxRa4CxhUqT_xEZxyV7yBPvNHuFBgP__nqS_t-8ppUFy32ee7SQTF1SGgpkxKs3ZB9h8Myg96t4fD3cBIkrYQ5SzQLJ9ZpiwCaiRT2hPbX3KonPArqfrgv2zOWJ8nWyjdvf71Y8rptbHMtbT6jufcMsi31wSp_NaDgmz54rEVmFKSPexTl7LveXtyFeY_BNgAU3vc4BqcSS19V4BLKY_nDSX95hS28gdRfwpmvPboIf7E31d-rmWg7ATXO3vmv1ZMpi49K81e_0_bI3IqYBFAeqbfgncc30YMS2ecZ4-f8RD7gYcr4nHnQS1fSZP0ZCqKDxppGaRfXOJgUimgfBvLmOR1mijjLn9jzWAdUgZ39O_qCKSAm7xDboeKHPTzrXQKs21XAluny7mN33kqeIG3YRgW8Qi7s6nM6haxUEF68WybqUZmxIiTZW-Lu38li9fzDhh9luSBn3apn5xUWoiU7-__bJzlcdNNOW45d16v8XeQveXQgWYBgKXhT11cy5LRCOk0dZOLSsBLadOsy8-_hG0hh28ZI8WoL7ZsHlZQwGEGMjiBLKBPIXiuM2O-AYt9l7OkIV62ZY422qd8mx6r6vrd-dKmGmOKKnQs5mSuZ0_BBe7VEW1PvHS_PZ_dbrNNGCpfidvf_Gfp8iFMUbEAtJn2fq9EovzbJjrH2nQWKjRPaT183ztpTINldwIhi9kGozYN1gyhRFu3vBbf2XKOhUiDeybEEAP8el45sI5fX_qhu5ajLXknQQhngdT3Anv4ZlMYkGPzE7nTwRihon3yxUlq7?></g></svg>