<svg xmlns="http://www.w3.org/2000/svg" xmlns:xlink="http://www.w3.org/1999/xlink" contentStyleType="text/css" height="716px" preserveAspectRatio="none" style="width:1369px;height:716px;background:#FFFFFF;" version="1.1" viewBox="0 0 1369 716" width="1369px" zoomAndPan="magnify"><title>IOD(10)_Pj2_T-1</title><defs/><g><text fill="#000000" font-family="Arial" font-size="14" font-weight="bold" lengthAdjust="spacing" textLength="124.9131" x="620.9653" y="32.9951">IOD(10)_Pj2_T-1</text><text fill="#000000" font-family="Arial" font-size="14" font-weight="bold" lengthAdjust="spacing" textLength="304.5479" x="531.1479" y="49.292">US10: View Detailed Class Information</text><ellipse cx="872.4688" cy="73.5938" fill="#222222" rx="10" ry="10" style="stroke:#222222;stroke-width:1;"/><rect fill="#FEFEFE" height="47.9375" rx="12.5" ry="12.5" style="stroke:#444444;stroke-width:0.5;" width="301.8418" x="721.5479" y="103.5938"/><text fill="#000000" font-family="Arial" font-size="12" lengthAdjust="spacing" textLength="281.8418" x="731.5479" y="124.7324">Prerequisite: schedule data has been imported</text><text fill="#000000" font-family="Arial" font-size="12" lengthAdjust="spacing" textLength="180.4863" x="731.5479" y="138.7012">(see US1 &#8212; Upload Excel File)</text><rect fill="#FEFEFE" height="33.9688" rx="12.5" ry="12.5" style="stroke:#444444;stroke-width:0.5;" width="328.9824" x="707.9775" y="171.5313"/><text fill="#000000" font-family="Arial" font-size="12" lengthAdjust="spacing" textLength="308.9824" x="717.9775" y="192.6699">Actor navigates to the Search &amp; Filter Classes Page</text><rect fill="#FEFEFE" height="47.9375" rx="12.5" ry="12.5" style="stroke:#444444;stroke-width:0.5;" width="334.5078" x="705.2148" y="225.5"/><text fill="#000000" font-family="Arial" font-size="12" lengthAdjust="spacing" textLength="314.5078" x="715.2148" y="246.6387">Actor enters search criteria to locate a specific class</text><text fill="#000000" font-family="Arial" font-size="12" lengthAdjust="spacing" textLength="279.5859" x="715.2148" y="260.6074">(e.g., course code, instructor name, semester)</text><rect fill="#ADD8E6" height="61.9063" rx="12.5" ry="12.5" style="stroke:#444444;stroke-width:0.5;" width="431.8027" x="656.5674" y="293.4375"/><text fill="#000000" font-family="Arial" font-size="12" font-weight="bold" lengthAdjust="spacing" textLength="19.2773" x="666.5674" y="314.5762">ref</text><text fill="#000000" font-family="Arial" font-size="12" lengthAdjust="spacing" textLength="243.2461" x="689.6592" y="314.5762">UC_SEARCH &#8212; Search and Filter Classes</text><text fill="#000000" font-family="Arial" font-size="12" lengthAdjust="spacing" textLength="411.8027" x="666.5674" y="328.5449">&#9472;&#9472;&#9472;&#9472;&#9472;&#9472;&#9472;&#9472;&#9472;&#9472;&#9472;&#9472;&#9472;&#9472;&#9472;&#9472;&#9472;&#9472;&#9472;&#9472;&#9472;&#9472;&#9472;&#9472;&#9472;&#9472;&#9472;&#9472;&#9472;&#9472;&#9472;&#9472;&#9472;&#9472;&#9472;&#9472;&#9472;&#9472;&#9472;&#9472;&#9472;&#9472;&#9472;&#9472;&#9472;&#9472;&#9472;&#9472;&#9472;&#9472;&#9472;&#9472;&#9472;&#9472;&#9472;&#9472;&#9472;</text><text fill="#000000" font-family="Arial" font-size="12" lengthAdjust="spacing" textLength="357.2109" x="666.5674" y="342.5137">System queries the database and returns matching classes</text><polygon fill="#FEFEFE" points="831.9304,375.3438,913.0071,375.3438,925.0071,387.3438,913.0071,399.3438,831.9304,399.3438,819.9304,387.3438,831.9304,375.3438" style="stroke:#444444;stroke-width:0.5;"/><text fill="#000000" font-family="Arial" font-size="11" lengthAdjust="spacing" textLength="81.0767" x="831.9304" y="391.1519">Results found?</text><text fill="#000000" font-family="Arial" font-size="11" lengthAdjust="spacing" textLength="19.0083" x="800.9221" y="384.7495">yes</text><text fill="#000000" font-family="Arial" font-size="11" lengthAdjust="spacing" textLength="13.7017" x="925.0071" y="384.7495">no</text><rect fill="#FEFEFE" height="33.9688" rx="12.5" ry="12.5" style="stroke:#444444;stroke-width:0.5;" width="261.8047" x="399.6055" y="409.3438"/><text fill="#000000" font-family="Arial" font-size="12" lengthAdjust="spacing" textLength="241.8047" x="409.6055" y="430.4824">System displays list of matching classes</text><rect fill="#FEFEFE" height="33.9688" rx="12.5" ry="12.5" style="stroke:#444444;stroke-width:0.5;" width="291.2246" x="384.8955" y="463.3125"/><text fill="#000000" font-family="Arial" font-size="12" lengthAdjust="spacing" textLength="271.2246" x="394.8955" y="484.4512">Actor selects a specific class from the results</text><rect fill="#ADD8E6" height="61.9063" rx="12.5" ry="12.5" style="stroke:#444444;stroke-width:0.5;" width="1039.0156" x="11" y="517.2813"/><text fill="#000000" font-family="Arial" font-size="12" font-weight="bold" lengthAdjust="spacing" textLength="19.2773" x="21" y="538.4199">ref</text><text fill="#000000" font-family="Arial" font-size="12" lengthAdjust="spacing" textLength="202.5352" x="44.0918" y="538.4199">UC_DETAILS &#8212; View Class Details</text><text fill="#000000" font-family="Arial" font-size="12" lengthAdjust="spacing" textLength="440.7012" x="21" y="552.3887">&#9472;&#9472;&#9472;&#9472;&#9472;&#9472;&#9472;&#9472;&#9472;&#9472;&#9472;&#9472;&#9472;&#9472;&#9472;&#9472;&#9472;&#9472;&#9472;&#9472;&#9472;&#9472;&#9472;&#9472;&#9472;&#9472;&#9472;&#9472;&#9472;&#9472;&#9472;&#9472;&#9472;&#9472;&#9472;&#9472;&#9472;&#9472;&#9472;&#9472;&#9472;&#9472;&#9472;&#9472;&#9472;&#9472;&#9472;&#9472;&#9472;&#9472;&#9472;&#9472;&#9472;&#9472;&#9472;&#9472;&#9472;&#9472;&#9472;&#9472;&#9472;</text><text fill="#000000" font-family="Arial" font-size="12" lengthAdjust="spacing" textLength="1019.0156" x="21" y="566.3574">System retrieves and displays all attributes of the class:\nCRN, course code, title, section, credits, instructor,\nenrollment, room, meeting days, meeting times, semester</text><rect fill="#FEFEFE" height="33.9688" rx="12.5" ry="12.5" style="stroke:#444444;stroke-width:0.5;" width="268.5547" x="396.2305" y="599.1875"/><text fill="#000000" font-family="Arial" font-size="12" lengthAdjust="spacing" textLength="248.5547" x="406.2305" y="620.3262">Actor reviews complete class information</text><rect fill="#FEFEFE" height="33.9688" rx="12.5" ry="12.5" style="stroke:#444444;stroke-width:0.5;" width="288.8281" x="1070.0156" y="409.3438"/><text fill="#000000" font-family="Arial" font-size="12" lengthAdjust="spacing" textLength="268.8281" x="1080.0156" y="430.4824">System displays "No results found" message</text><rect fill="#FEFEFE" height="33.9688" rx="12.5" ry="12.5" style="stroke:#444444;stroke-width:0.5;" width="264.1484" x="1082.3555" y="463.3125"/><text fill="#000000" font-family="Arial" font-size="12" lengthAdjust="spacing" textLength="244.1484" x="1092.3555" y="484.4512">Actor refines criteria and searches again</text><polygon fill="#FEFEFE" points="872.4688,639.1563,884.4688,651.1563,872.4688,663.1563,860.4688,651.1563,872.4688,639.1563" style="stroke:#444444;stroke-width:0.5;"/><ellipse cx="872.4688" cy="694.1563" fill="none" rx="11" ry="11" style="stroke:#222222;stroke-width:1;"/><ellipse cx="872.4688" cy="694.1563" fill="#222222" rx="6" ry="6" style="stroke:#222222;stroke-width:1;"/><line style="stroke:#444444;stroke-width:1;" x1="872.4688" x2="872.4688" y1="83.5938" y2="103.5938"/><polygon fill="#444444" points="868.4688,93.5938,872.4688,103.5938,876.4688,93.5938,872.4688,97.5938" style="stroke:#444444;stroke-width:1;"/><line style="stroke:#444444;stroke-width:1;" x1="872.4688" x2="872.4688" y1="151.5313" y2="171.5313"/><polygon fill="#444444" points="868.4688,161.5313,872.4688,171.5313,876.4688,161.5313,872.4688,165.5313" style="stroke:#444444;stroke-width:1;"/><line style="stroke:#444444;stroke-width:1;" x1="872.4688" x2="872.4688" y1="205.5" y2="225.5"/><polygon fill="#444444" points="868.4688,215.5,872.4688,225.5,876.4688,215.5,872.4688,219.5" style="stroke:#444444;stroke-width:1;"/><line style="stroke:#444444;stroke-width:1;" x1="872.4688" x2="872.4688" y1="273.4375" y2="293.4375"/><polygon fill="#444444" points="868.4688,283.4375,872.4688,293.4375,876.4688,283.4375,872.4688,287.4375" style="stroke:#444444;stroke-width:1;"/><line style="stroke:#444444;stroke-width:1;" x1="530.5078" x2="530.5078" y1="443.3125" y2="463.3125"/><polygon fill="#444444" points="526.5078,453.3125,530.5078,463.3125,534.5078,453.3125,530.5078,457.3125" style="stroke:#444444;stroke-width:1;"/><line style="stroke:#444444;stroke-width:1;" x1="530.5078" x2="530.5078" y1="497.2813" y2="517.2813"/><polygon fill="#444444" points="526.5078,507.2813,530.5078,517.2813,534.5078,507.2813,530.5078,511.2813" style="stroke:#444444;stroke-width:1;"/><line style="stroke:#444444;stroke-width:1;" x1="530.5078" x2="530.5078" y1="579.1875" y2="599.1875"/><polygon fill="#444444" points="526.5078,589.1875,530.5078,599.1875,534.5078,589.1875,530.5078,593.1875" style="stroke:#444444;stroke-width:1;"/><line style="stroke:#444444;stroke-width:1;" x1="1214.4297" x2="1214.4297" y1="443.3125" y2="463.3125"/><polygon fill="#444444" points="1210.4297,453.3125,1214.4297,463.3125,1218.4297,453.3125,1214.4297,457.3125" style="stroke:#444444;stroke-width:1;"/><line style="stroke:#444444;stroke-width:1;" x1="819.9304" x2="530.5078" y1="387.3438" y2="387.3438"/><line style="stroke:#444444;stroke-width:1;" x1="530.5078" x2="530.5078" y1="387.3438" y2="409.3438"/><polygon fill="#444444" points="526.5078,399.3438,530.5078,409.3438,534.5078,399.3438,530.5078,403.3438" style="stroke:#444444;stroke-width:1;"/><line style="stroke:#444444;stroke-width:1;" x1="925.0071" x2="1214.4297" y1="387.3438" y2="387.3438"/><line style="stroke:#444444;stroke-width:1;" x1="1214.4297" x2="1214.4297" y1="387.3438" y2="409.3438"/><polygon fill="#444444" points="1210.4297,399.3438,1214.4297,409.3438,1218.4297,399.3438,1214.4297,403.3438" style="stroke:#444444;stroke-width:1;"/><line style="stroke:#444444;stroke-width:1;" x1="530.5078" x2="530.5078" y1="633.1563" y2="651.1563"/><line style="stroke:#444444;stroke-width:1;" x1="530.5078" x2="860.4688" y1="651.1563" y2="651.1563"/><polygon fill="#444444" points="850.4688,647.1563,860.4688,651.1563,850.4688,655.1563,854.4688,651.1563" style="stroke:#444444;stroke-width:1;"/><line style="stroke:#444444;stroke-width:1;" x1="1214.4297" x2="1214.4297" y1="497.2813" y2="651.1563"/><line style="stroke:#444444;stroke-width:1;" x1="1214.4297" x2="884.4688" y1="651.1563" y2="651.1563"/><polygon fill="#444444" points="894.4688,647.1563,884.4688,651.1563,894.4688,655.1563,890.4688,651.1563" style="stroke:#444444;stroke-width:1;"/><line style="stroke:#444444;stroke-width:1;" x1="872.4688" x2="872.4688" y1="355.3438" y2="375.3438"/><polygon fill="#444444" points="868.4688,365.3438,872.4688,375.3438,876.4688,365.3438,872.4688,369.3438" style="stroke:#444444;stroke-width:1;"/><line style="stroke:#444444;stroke-width:1;" x1="872.4688" x2="872.4688" y1="663.1563" y2="683.1563"/><polygon fill="#444444" points="868.4688,673.1563,872.4688,683.1563,876.4688,673.1563,872.4688,677.1563" style="stroke:#444444;stroke-width:1;"/><!--SRC=[rLJ1RXen4BtlLumIgGL4ewIggeeUAheGDL95KKXwGeeSUnRSUEtDZ9UKMpuYNvWlwNYN9fHIgTSiI2kOyRpdzsRcDPnz6tLEZhjNqnzlhoxUdC3Z_GDSCXBCOg0rd1mFuBl5EnXXLDQXWTmfPZZpHQ1IHHjybl6DzPKYLKfMeMeNJuEF4rKY3CagjnKVwcXNDgu_Atspe51xamSN20vFn-cpBpEGGTfalMkUxIoYSFUlu2H4_1j8dZpVpTe66JPFbaKR7UxgC_UNi__J92gAMJQO4XBUrfPjn06mNgAffQnHKS5ICLmZUh1b5IYYcViE8u90j3vKBYW3uvyQ7PmAKlUZL1HbXAPNAxjG4HbYWBX4cA4YlOHNAJ6AVmqd2K_L0f-FePSO0xV9ceILM9HgkA2b72ZW2hKjh0QTAWWbF5eSzK67cXZbPR0FrdEaUaEab3yOIsIfbHWU3aUZ3-FtWrwFiEZru3A_ces7v_cNvb8RdigR7QRPuyFzI_bcixNSjeJRMkHB7YnRIw-LI9IkHXXhyWpI3dff_Q8L4rdaiGLqpf5bJ1YAr9cVkkcyXyuQkPjb08DDTMEvSchDu2n72CM-QfBTEileK4l9NGEXe50s1Aa5RGxjyMWqlXYUVPqr9ZNjtNPrs-GiPrwGFtzu1R3HKqmHjrRYLxBeILtb7AWeeUiwpPFedDHgn1lCVNu-sMd-PZ6abjTfr2L8Q6paxQdepprw2iwLCd1ze13AFfI8CPbd1FJvLxGoESy3j6qfuKfyO84jAuTnmqbWdlQCPACJOXqVkliQvs0IVjlUzjg1u38tAs4Bfh1UBlwq3P8wxOP8KYsK5HpqnXPfhONg5m00]--></g></svg>