<svg xmlns="http://www.w3.org/2000/svg" xmlns:xlink="http://www.w3.org/1999/xlink" contentStyleType="text/css" height="620px" preserveAspectRatio="none" style="width:987px;height:620px;background:#FFFFFF;" version="1.1" viewBox="0 0 987 620" width="987px" zoomAndPan="magnify"><title>IOD(9)_Pj2_T-1</title><defs/><g><text fill="#000000" font-family="Arial" font-size="14" font-weight="bold" lengthAdjust="spacing" textLength="115.1719" x="434.4336" y="32.9951">IOD(9)_Pj2_T-1</text><text fill="#000000" font-family="Arial" font-size="14" font-weight="bold" lengthAdjust="spacing" textLength="217.9639" x="383.0376" y="49.292">US9: Remove Uploaded File</text><ellipse cx="600.9775" cy="73.5938" fill="#222222" rx="10" ry="10" style="stroke:#222222;stroke-width:1;"/><rect fill="#FEFEFE" height="33.9688" rx="12.5" ry="12.5" style="stroke:#444444;stroke-width:0.5;" width="278.9609" x="461.4971" y="103.5938"/><text fill="#000000" font-family="Arial" font-size="12" lengthAdjust="spacing" textLength="258.9609" x="471.4971" y="124.7324">Actor navigates to the Uploaded Files Page</text><rect fill="#FEFEFE" height="33.9688" rx="12.5" ry="12.5" style="stroke:#444444;stroke-width:0.5;" width="361.7363" x="420.1094" y="157.5625"/><text fill="#000000" font-family="Arial" font-size="12" lengthAdjust="spacing" textLength="341.7363" x="430.1094" y="178.7012">System displays list of all previously uploaded Excel files</text><polygon fill="#FEFEFE" points="547.2021,211.5313,654.7529,211.5313,666.7529,223.5313,654.7529,235.5313,547.2021,235.5313,535.2021,223.5313,547.2021,211.5313" style="stroke:#444444;stroke-width:0.5;"/><text fill="#000000" font-family="Arial" font-size="11" lengthAdjust="spacing" textLength="107.5508" x="547.2021" y="227.3394">Any files in the list?</text><text fill="#000000" font-family="Arial" font-size="11" lengthAdjust="spacing" textLength="19.0083" x="516.1938" y="220.937">yes</text><text fill="#000000" font-family="Arial" font-size="11" lengthAdjust="spacing" textLength="13.7017" x="666.7529" y="220.937">no</text><rect fill="#FEFEFE" height="33.9688" rx="12.5" ry="12.5" style="stroke:#444444;stroke-width:0.5;" width="208.6133" x="250.4111" y="245.5313"/><text fill="#000000" font-family="Arial" font-size="12" lengthAdjust="spacing" textLength="188.6133" x="260.4111" y="266.6699">Actor selects the file to remove</text><rect fill="#FEFEFE" height="33.9688" rx="12.5" ry="12.5" style="stroke:#444444;stroke-width:0.5;" width="311.7266" x="198.8545" y="299.5"/><text fill="#000000" font-family="Arial" font-size="12" lengthAdjust="spacing" textLength="291.7266" x="208.8545" y="320.6387">Actor clicks the "Remove" button next to the file</text><rect fill="#ADD8E6" height="61.9063" rx="12.5" ry="12.5" style="stroke:#444444;stroke-width:0.5;" width="687.4355" x="11" y="353.4688"/><text fill="#000000" font-family="Arial" font-size="12" font-weight="bold" lengthAdjust="spacing" textLength="19.2773" x="21" y="374.6074">ref</text><text fill="#000000" font-family="Arial" font-size="12" lengthAdjust="spacing" textLength="229.166" x="44.0918" y="374.6074">UC_REMOVE &#8212; Remove Uploaded File</text><text fill="#000000" font-family="Arial" font-size="12" lengthAdjust="spacing" textLength="375.6797" x="21" y="388.5762">&#9472;&#9472;&#9472;&#9472;&#9472;&#9472;&#9472;&#9472;&#9472;&#9472;&#9472;&#9472;&#9472;&#9472;&#9472;&#9472;&#9472;&#9472;&#9472;&#9472;&#9472;&#9472;&#9472;&#9472;&#9472;&#9472;&#9472;&#9472;&#9472;&#9472;&#9472;&#9472;&#9472;&#9472;&#9472;&#9472;&#9472;&#9472;&#9472;&#9472;&#9472;&#9472;&#9472;&#9472;&#9472;&#9472;&#9472;&#9472;&#9472;&#9472;&#9472;&#9472;</text><text fill="#000000" font-family="Arial" font-size="12" lengthAdjust="spacing" textLength="667.4355" x="21" y="402.5449">System deletes the selected file from the uploads folder\nand removes its records from the schedule database</text><rect fill="#FEFEFE" height="33.9688" rx="12.5" ry="12.5" style="stroke:#444444;stroke-width:0.5;" width="239.4102" x="235.0127" y="435.375"/><text fill="#000000" font-family="Arial" font-size="12" lengthAdjust="spacing" textLength="219.4102" x="245.0127" y="456.5137">System confirms successful removal</text><rect fill="#FEFEFE" height="47.9375" rx="12.5" ry="12.5" style="stroke:#444444;stroke-width:0.5;" width="225.9922" x="241.7217" y="489.3438"/><text fill="#000000" font-family="Arial" font-size="12" lengthAdjust="spacing" textLength="179.0449" x="251.7217" y="510.4824">Actor reviews updated file list</text><text fill="#000000" font-family="Arial" font-size="12" lengthAdjust="spacing" textLength="205.9922" x="251.7217" y="524.4512">(selected file is no longer present)</text><rect fill="#FEFEFE" height="33.9688" rx="12.5" ry="12.5" style="stroke:#444444;stroke-width:0.5;" width="257.6035" x="718.4355" y="245.5313"/><text fill="#000000" font-family="Arial" font-size="12" lengthAdjust="spacing" textLength="237.6035" x="728.4355" y="266.6699">System shows empty uploaded files list</text><rect fill="#FEFEFE" height="33.9688" rx="12.5" ry="12.5" style="stroke:#444444;stroke-width:0.5;" width="191.9492" x="751.2627" y="299.5"/><text fill="#000000" font-family="Arial" font-size="12" lengthAdjust="spacing" textLength="171.9492" x="761.2627" y="320.6387">Actor has nothing to remove</text><polygon fill="#FEFEFE" points="600.9775,543.2813,612.9775,555.2813,600.9775,567.2813,588.9775,555.2813,600.9775,543.2813" style="stroke:#444444;stroke-width:0.5;"/><ellipse cx="600.9775" cy="598.2813" fill="none" rx="11" ry="11" style="stroke:#222222;stroke-width:1;"/><ellipse cx="600.9775" cy="598.2813" fill="#222222" rx="6" ry="6" style="stroke:#222222;stroke-width:1;"/><line style="stroke:#444444;stroke-width:1;" x1="600.9775" x2="600.9775" y1="83.5938" y2="103.5938"/><polygon fill="#444444" points="596.9775,93.5938,600.9775,103.5938,604.9775,93.5938,600.9775,97.5938" style="stroke:#444444;stroke-width:1;"/><line style="stroke:#444444;stroke-width:1;" x1="600.9775" x2="600.9775" y1="137.5625" y2="157.5625"/><polygon fill="#444444" points="596.9775,147.5625,600.9775,157.5625,604.9775,147.5625,600.9775,151.5625" style="stroke:#444444;stroke-width:1;"/><line style="stroke:#444444;stroke-width:1;" x1="354.7178" x2="354.7178" y1="279.5" y2="299.5"/><polygon fill="#444444" points="350.7178,289.5,354.7178,299.5,358.7178,289.5,354.7178,293.5" style="stroke:#444444;stroke-width:1;"/><line style="stroke:#444444;stroke-width:1;" x1="354.7178" x2="354.7178" y1="333.4688" y2="353.4688"/><polygon fill="#444444" points="350.7178,343.4688,354.7178,353.4688,358.7178,343.4688,354.7178,347.4688" style="stroke:#444444;stroke-width:1;"/><line style="stroke:#444444;stroke-width:1;" x1="354.7178" x2="354.7178" y1="415.375" y2="435.375"/><polygon fill="#444444" points="350.7178,425.375,354.7178,435.375,358.7178,425.375,354.7178,429.375" style="stroke:#444444;stroke-width:1;"/><line style="stroke:#444444;stroke-width:1;" x1="354.7178" x2="354.7178" y1="469.3438" y2="489.3438"/><polygon fill="#444444" points="350.7178,479.3438,354.7178,489.3438,358.7178,479.3438,354.7178,483.3438" style="stroke:#444444;stroke-width:1;"/><line style="stroke:#444444;stroke-width:1;" x1="847.2373" x2="847.2373" y1="279.5" y2="299.5"/><polygon fill="#444444" points="843.2373,289.5,847.2373,299.5,851.2373,289.5,847.2373,293.5" style="stroke:#444444;stroke-width:1;"/><line style="stroke:#444444;stroke-width:1;" x1="535.2021" x2="354.7178" y1="223.5313" y2="223.5313"/><line style="stroke:#444444;stroke-width:1;" x1="354.7178" x2="354.7178" y1="223.5313" y2="245.5313"/><polygon fill="#444444" points="350.7178,235.5313,354.7178,245.5313,358.7178,235.5313,354.7178,239.5313" style="stroke:#444444;stroke-width:1;"/><line style="stroke:#444444;stroke-width:1;" x1="666.7529" x2="847.2373" y1="223.5313" y2="223.5313"/><line style="stroke:#444444;stroke-width:1;" x1="847.2373" x2="847.2373" y1="223.5313" y2="245.5313"/><polygon fill="#444444" points="843.2373,235.5313,847.2373,245.5313,851.2373,235.5313,847.2373,239.5313" style="stroke:#444444;stroke-width:1;"/><line style="stroke:#444444;stroke-width:1;" x1="354.7178" x2="354.7178" y1="537.2813" y2="555.2813"/><line style="stroke:#444444;stroke-width:1;" x1="354.7178" x2="588.9775" y1="555.2813" y2="555.2813"/><polygon fill="#444444" points="578.9775,551.2813,588.9775,555.2813,578.9775,559.2813,582.9775,555.2813" style="stroke:#444444;stroke-width:1;"/><line style="stroke:#444444;stroke-width:1;" x1="847.2373" x2="847.2373" y1="333.4688" y2="555.2813"/><line style="stroke:#444444;stroke-width:1;" x1="847.2373" x2="612.9775" y1="555.2813" y2="555.2813"/><polygon fill="#444444" points="622.9775,551.2813,612.9775,555.2813,622.9775,559.2813,618.9775,555.2813" style="stroke:#444444;stroke-width:1;"/><line style="stroke:#444444;stroke-width:1;" x1="600.9775" x2="600.9775" y1="191.5313" y2="211.5313"/><polygon fill="#444444" points="596.9775,201.5313,600.9775,211.5313,604.9775,201.5313,600.9775,205.5313" style="stroke:#444444;stroke-width:1;"/><line style="stroke:#444444;stroke-width:1;" x1="600.9775" x2="600.9775" y1="567.2813" y2="587.2813"/><polygon fill="#444444" points="596.9775,577.2813,600.9775,587.2813,604.9775,577.2813,600.9775,581.2813" style="stroke:#444444;stroke-width:1;"/><!--SRC=[pLDDRzim3BtxLn3jOKc07JOCmveSYYmVm0vhYsRPAK2WohIjHHODaKxhMtz4Vs5_oIGxGRsqlK_sGROU7yd7fm_mute-k1XkR_vytlxw-0cU7vzWpUXX9UGRk1Z3BPQqHrXNbbIAAIoDnIJXdN6Lygg4EMQgjh8a9rUgH9XwesplVAh5x8qqtvNUvPvgbyx8aeVpvI8-Ro79f-WFg2_jwgEyf_lt3gz8y7MYi6QpKrG_oRHTII96B9v8id7hrVioYFAI9EDGUk1nQczo9SWW15ASe1bkL8wJW5urB5X2QhYogc6mXWKe0sKjL1xtXcgs3TJ7wCM3HWjPv0ZX9eF1r3NTDnZNPeeKbyEuTJ1ea8T90d0eYz6Y5cvnCIXMvzjs9ZsKjaRlEj1Pr-mPtDKYvC3XWnnRYWHjsFbqFl-s-3eUZJncen6iPzlRnS_htulMGs_A1V3yzFZVlg6yus22OEqKGx-TUA63LhdCKzd-xcR3a94DDjeuvTA3fc4aGMkFEXYCNm9O5vZMWI9LekuK7xG_PDJaCkDB1gwrHkQijXsTilqPHM_WFOViWULOKnpznWt-BTGmE09BBWztENYAqSamKA5bX86ZOIyv5nGuiQoavxdENP5xyfA_K95M2kFoledGfIQBbu6glm00]--></g></svg>