<svg xmlns="http://www.w3.org/2000/svg" xmlns:xlink="http://www.w3.org/1999/xlink" contentStyleType="text/css" height="768px" preserveAspectRatio="none" style="width:1075px;height:768px;background:#FFFFFF;" version="1.1" viewBox="0 0 1075 768" width="1075px" zoomAndPan="magnify"><title>IOD(7)_Pj2_T-1</title><defs/><g><text fill="#000000" font-family="Arial" font-size="14" font-weight="bold" lengthAdjust="spacing" textLength="115.1719" x="478.7861" y="32.9951">IOD(7)_Pj2_T-1</text><text fill="#000000" font-family="Arial" font-size="14" font-weight="bold" lengthAdjust="spacing" textLength="364.123" x="354.3105" y="49.292">US7: Visualize Classroom Utilization Statistics</text><ellipse cx="672.8267" cy="73.5938" fill="#222222" rx="10" ry="10" style="stroke:#222222;stroke-width:1;"/><rect fill="#FEFEFE" height="47.9375" rx="12.5" ry="12.5" style="stroke:#444444;stroke-width:0.5;" width="301.8418" x="521.9058" y="103.5938"/><text fill="#000000" font-family="Arial" font-size="12" lengthAdjust="spacing" textLength="281.8418" x="531.9058" y="124.7324">Prerequisite: schedule data has been imported</text><text fill="#000000" font-family="Arial" font-size="12" lengthAdjust="spacing" textLength="180.4863" x="531.9058" y="138.7012">(see US1 &#8212; Upload Excel File)</text><rect fill="#FEFEFE" height="33.9688" rx="12.5" ry="12.5" style="stroke:#444444;stroke-width:0.5;" width="289.5488" x="528.0522" y="171.5313"/><text fill="#000000" font-family="Arial" font-size="12" lengthAdjust="spacing" textLength="269.5488" x="538.0522" y="192.6699">Actor navigates to the Room Timetable Page</text><rect fill="#FEFEFE" height="33.9688" rx="12.5" ry="12.5" style="stroke:#444444;stroke-width:0.5;" width="287.6855" x="528.9839" y="225.5"/><text fill="#000000" font-family="Arial" font-size="12" lengthAdjust="spacing" textLength="267.6855" x="538.9839" y="246.6387">Actor selects a semester from the dropdown</text><polygon fill="#FEFEFE" points="574.925,279.4688,770.7283,279.4688,782.7283,291.4688,770.7283,303.4688,574.925,303.4688,562.925,291.4688,574.925,279.4688" style="stroke:#444444;stroke-width:0.5;"/><text fill="#000000" font-family="Arial" font-size="11" lengthAdjust="spacing" textLength="195.8032" x="574.925" y="295.2769">Rooms available for that semester?</text><text fill="#000000" font-family="Arial" font-size="11" lengthAdjust="spacing" textLength="19.0083" x="543.9167" y="288.8745">yes</text><text fill="#000000" font-family="Arial" font-size="11" lengthAdjust="spacing" textLength="13.7017" x="782.7283" y="288.8745">no</text><rect fill="#FEFEFE" height="33.9688" rx="12.5" ry="12.5" style="stroke:#444444;stroke-width:0.5;" width="263.0117" x="272.8848" y="313.4688"/><text fill="#000000" font-family="Arial" font-size="12" lengthAdjust="spacing" textLength="243.0117" x="282.8848" y="334.6074">Actor selects a room from the dropdown</text><rect fill="#FEFEFE" height="33.9688" rx="12.5" ry="12.5" style="stroke:#444444;stroke-width:0.5;" width="196.2031" x="306.2891" y="367.4375"/><text fill="#000000" font-family="Arial" font-size="12" lengthAdjust="spacing" textLength="176.2031" x="316.2891" y="388.5762">Actor clicks "View Timetable"</text><rect fill="#ADD8E6" height="61.9063" rx="12.5" ry="12.5" style="stroke:#444444;stroke-width:0.5;" width="532.6895" x="138.0459" y="421.4063"/><text fill="#000000" font-family="Arial" font-size="12" font-weight="bold" lengthAdjust="spacing" textLength="19.2773" x="148.0459" y="442.5449">ref</text><text fill="#000000" font-family="Arial" font-size="12" lengthAdjust="spacing" textLength="206.5957" x="171.1377" y="442.5449">UC_ROOM &#8212; View Room Schedule</text><text fill="#000000" font-family="Arial" font-size="12" lengthAdjust="spacing" textLength="325.1074" x="148.0459" y="456.5137">&#9472;&#9472;&#9472;&#9472;&#9472;&#9472;&#9472;&#9472;&#9472;&#9472;&#9472;&#9472;&#9472;&#9472;&#9472;&#9472;&#9472;&#9472;&#9472;&#9472;&#9472;&#9472;&#9472;&#9472;&#9472;&#9472;&#9472;&#9472;&#9472;&#9472;&#9472;&#9472;&#9472;&#9472;&#9472;&#9472;&#9472;&#9472;&#9472;&#9472;&#9472;&#9472;&#9472;&#9472;&#9472;</text><text fill="#000000" font-family="Arial" font-size="12" lengthAdjust="spacing" textLength="512.6895" x="148.0459" y="470.4824">System builds the weekly timetable grid\nshowing all scheduled classes for the room</text><rect fill="#ADD8E6" height="61.9063" rx="12.5" ry="12.5" style="stroke:#444444;stroke-width:0.5;" width="786.7813" x="11" y="503.3125"/><text fill="#000000" font-family="Arial" font-size="12" font-weight="bold" lengthAdjust="spacing" textLength="19.2773" x="21" y="524.4512">ref</text><text fill="#000000" font-family="Arial" font-size="12" lengthAdjust="spacing" textLength="229.4648" x="44.0918" y="524.4512">UC_STATS &#8212; View Semester Statistics</text><text fill="#000000" font-family="Arial" font-size="12" lengthAdjust="spacing" textLength="404.5781" x="21" y="538.4199">&#9472;&#9472;&#9472;&#9472;&#9472;&#9472;&#9472;&#9472;&#9472;&#9472;&#9472;&#9472;&#9472;&#9472;&#9472;&#9472;&#9472;&#9472;&#9472;&#9472;&#9472;&#9472;&#9472;&#9472;&#9472;&#9472;&#9472;&#9472;&#9472;&#9472;&#9472;&#9472;&#9472;&#9472;&#9472;&#9472;&#9472;&#9472;&#9472;&#9472;&#9472;&#9472;&#9472;&#9472;&#9472;&#9472;&#9472;&#9472;&#9472;&#9472;&#9472;&#9472;&#9472;&#9472;&#9472;&#9472;</text><text fill="#000000" font-family="Arial" font-size="12" lengthAdjust="spacing" textLength="766.7813" x="21" y="552.3887">System calculates occupancy percentage\n(hours occupied / total schedulable hours &#215; 100)\nand total number of booked slots</text><rect fill="#FEFEFE" height="75.875" rx="12.5" ry="12.5" style="stroke:#444444;stroke-width:0.5;" width="332.1289" x="238.3262" y="585.2188"/><text fill="#000000" font-family="Arial" font-size="12" lengthAdjust="spacing" textLength="312.1289" x="248.3262" y="606.3574">System displays timetable with utilization statistics:</text><text fill="#000000" font-family="Arial" font-size="12" lengthAdjust="spacing" textLength="180.5566" x="248.3262" y="620.3262">- Percentage of time occupied</text><text fill="#000000" font-family="Arial" font-size="12" lengthAdjust="spacing" textLength="157.9043" x="248.3262" y="634.2949">- Total scheduled sessions</text><text fill="#000000" font-family="Arial" font-size="12" lengthAdjust="spacing" textLength="119.7949" x="248.3262" y="648.2637">- Breakdown by day</text><rect fill="#FEFEFE" height="33.9688" rx="12.5" ry="12.5" style="stroke:#444444;stroke-width:0.5;" width="293.6738" x="257.5537" y="681.0938"/><text fill="#000000" font-family="Arial" font-size="12" lengthAdjust="spacing" textLength="273.6738" x="267.5537" y="702.2324">Actor reviews statistics to assess room usage</text><rect fill="#FEFEFE" height="33.9688" rx="12.5" ry="12.5" style="stroke:#444444;stroke-width:0.5;" width="246.9629" x="817.7813" y="313.4688"/><text fill="#000000" font-family="Arial" font-size="12" lengthAdjust="spacing" textLength="226.9629" x="827.7813" y="334.6074">System shows empty room dropdown</text><rect fill="#FEFEFE" height="33.9688" rx="12.5" ry="12.5" style="stroke:#444444;stroke-width:0.5;" width="223.6953" x="829.415" y="367.4375"/><text fill="#000000" font-family="Arial" font-size="12" lengthAdjust="spacing" textLength="203.6953" x="839.415" y="388.5762">Actor selects a different semester</text><ellipse cx="941.2627" cy="432.4063" fill="none" rx="11" ry="11" style="stroke:#222222;stroke-width:1;"/><ellipse cx="941.2627" cy="432.4063" fill="#222222" rx="6" ry="6" style="stroke:#222222;stroke-width:1;"/><ellipse cx="672.8267" cy="746.0625" fill="none" rx="11" ry="11" style="stroke:#222222;stroke-width:1;"/><ellipse cx="672.8267" cy="746.0625" fill="#222222" rx="6" ry="6" style="stroke:#222222;stroke-width:1;"/><line style="stroke:#444444;stroke-width:1;" x1="672.8267" x2="672.8267" y1="83.5938" y2="103.5938"/><polygon fill="#444444" points="668.8267,93.5938,672.8267,103.5938,676.8267,93.5938,672.8267,97.5938" style="stroke:#444444;stroke-width:1;"/><line style="stroke:#444444;stroke-width:1;" x1="672.8267" x2="672.8267" y1="151.5313" y2="171.5313"/><polygon fill="#444444" points="668.8267,161.5313,672.8267,171.5313,676.8267,161.5313,672.8267,165.5313" style="stroke:#444444;stroke-width:1;"/><line style="stroke:#444444;stroke-width:1;" x1="672.8267" x2="672.8267" y1="205.5" y2="225.5"/><polygon fill="#444444" points="668.8267,215.5,672.8267,225.5,676.8267,215.5,672.8267,219.5" style="stroke:#444444;stroke-width:1;"/><line style="stroke:#444444;stroke-width:1;" x1="404.3906" x2="404.3906" y1="347.4375" y2="367.4375"/><polygon fill="#444444" points="400.3906,357.4375,404.3906,367.4375,408.3906,357.4375,404.3906,361.4375" style="stroke:#444444;stroke-width:1;"/><line style="stroke:#444444;stroke-width:1;" x1="404.3906" x2="404.3906" y1="401.4063" y2="421.4063"/><polygon fill="#444444" points="400.3906,411.4063,404.3906,421.4063,408.3906,411.4063,404.3906,415.4063" style="stroke:#444444;stroke-width:1;"/><line style="stroke:#444444;stroke-width:1;" x1="404.3906" x2="404.3906" y1="483.3125" y2="503.3125"/><polygon fill="#444444" points="400.3906,493.3125,404.3906,503.3125,408.3906,493.3125,404.3906,497.3125" style="stroke:#444444;stroke-width:1;"/><line style="stroke:#444444;stroke-width:1;" x1="404.3906" x2="404.3906" y1="565.2188" y2="585.2188"/><polygon fill="#444444" points="400.3906,575.2188,404.3906,585.2188,408.3906,575.2188,404.3906,579.2188" style="stroke:#444444;stroke-width:1;"/><line style="stroke:#444444;stroke-width:1;" x1="404.3906" x2="404.3906" y1="661.0938" y2="681.0938"/><polygon fill="#444444" points="400.3906,671.0938,404.3906,681.0938,408.3906,671.0938,404.3906,675.0938" style="stroke:#444444;stroke-width:1;"/><line style="stroke:#444444;stroke-width:1;" x1="941.2627" x2="941.2627" y1="347.4375" y2="367.4375"/><polygon fill="#444444" points="937.2627,357.4375,941.2627,367.4375,945.2627,357.4375,941.2627,361.4375" style="stroke:#444444;stroke-width:1;"/><line style="stroke:#444444;stroke-width:1;" x1="941.2627" x2="941.2627" y1="401.4063" y2="421.4063"/><polygon fill="#444444" points="937.2627,411.4063,941.2627,421.4063,945.2627,411.4063,941.2627,415.4063" style="stroke:#444444;stroke-width:1;"/><line style="stroke:#444444;stroke-width:1;" x1="562.925" x2="404.3906" y1="291.4688" y2="291.4688"/><line style="stroke:#444444;stroke-width:1;" x1="404.3906" x2="404.3906" y1="291.4688" y2="313.4688"/><polygon fill="#444444" points="400.3906,303.4688,404.3906,313.4688,408.3906,303.4688,404.3906,307.4688" style="stroke:#444444;stroke-width:1;"/><line style="stroke:#444444;stroke-width:1;" x1="782.7283" x2="941.2627" y1="291.4688" y2="291.4688"/><line style="stroke:#444444;stroke-width:1;" x1="941.2627" x2="941.2627" y1="291.4688" y2="313.4688"/><polygon fill="#444444" points="937.2627,303.4688,941.2627,313.4688,945.2627,303.4688,941.2627,307.4688" style="stroke:#444444;stroke-width:1;"/><line style="stroke:#444444;stroke-width:1;" x1="404.3906" x2="404.3906" y1="715.0625" y2="720.0625"/><line style="stroke:#444444;stroke-width:1;" x1="404.3906" x2="672.8267" y1="720.0625" y2="720.0625"/><line style="stroke:#444444;stroke-width:1;" x1="672.8267" x2="672.8267" y1="720.0625" y2="735.0625"/><polygon fill="#444444" points="668.8267,725.0625,672.8267,735.0625,676.8267,725.0625,672.8267,729.0625" style="stroke:#444444;stroke-width:1;"/><line style="stroke:#444444;stroke-width:1;" x1="672.8267" x2="672.8267" y1="259.4688" y2="279.4688"/><polygon fill="#444444" points="668.8267,269.4688,672.8267,279.4688,676.8267,269.4688,672.8267,273.4688" style="stroke:#444444;stroke-width:1;"/><!--SRC=[pPJDRjf04CVlVefHSoWWHKsgggd8eIAGI3qqGJ7aX1GjzXYsh7VTdJ7KFUKX8lM1-YPvaiuQQgny77ABGJ9Y_lEnlvdPz_3jQjGvwTwEVtoydHmUmyFTFKm9FSJiV0KdVRZHL2gZVoCCZIBopkKmPIt_ADREYb3Un3gXAAALjeNoAeSHPgeqVE4iNweSOU2rCYtx866zrboTgMIryAwqwT0Pv-7WuZnydbCwdwBVgJxLJrlblTkyPBnqZ4yJoJCSFbQrampg9ufOiy57e6Ps6hyM3YlFKTGVU_JuizIa6Vj0oHBJKkAdYXKi5S4SqOBE2-SPqvdj429Currh2kDK2kU_4ZHmeGrsJoMY899whLhhXM8aO0UyHBWErKnqZgpcac2i5hXN4nfCc439hno9fUMP5trmJBqhKhUnejOPT48S4QwLDdMWJDnvgRZn_DeDRXOw5L8tYW2UvAZ1F1E_aIP69ok2TpSQD_kQtvs6Q0U3qUZB-UT-h-Snw_LWEhozlhhwNWEfzVL1unr8SNYultiBNwaaheHF3lDIcvJgisyGLwO2Rjgoy5gwJ4ktqNO1ofXc95AX8aCb3TqInnhZIqZYoM0Ixvd4_xlQ6i4tG-OLw19bajBKO-sIf2oKJIeeq2TeMGPQzcFfIhypQc7sGSQVLKEnPhoL_Fq3nqT7tPbLDjs9R9dFXP7BOExSIhp9EAOQSNzNGAgfCAgYLiiscfTGjjQS6iRzcJs4SLDUY1pyclA2UTAkB-H48eb2mNRcKQt2Ri2yaYkXEcsjayUrT9PQsSAcrnD2smqhQRlZQ0YXOrstTOumOGIO5rnjnSziuNvXKvrbSatP_P876R4h8hHY3DUPA_u1]--></g></svg>