<?plantuml 1.2026.2?><svg xmlns="http://www.w3.org/2000/svg" xmlns:xlink="http://www.w3.org/1999/xlink" contentStyleType="text/css" data-diagram-type="ACTIVITY" height="1111px" preserveAspectRatio="none" style="width:897px;height:1111px;background:#FFFFFF;" version="1.1" viewBox="0 0 897 1111" width="897px" zoomAndPan="magnify"><title>IOD(6)_Pj2_T-1
US6: Compare Semester Schedules</title><defs/><g><rect fill="#FFFFCC" height="26.6406" rx="2.5" ry="2.5" style="stroke:#FFDD88;stroke-width:3;" width="886.0366" x="5" y="5"/><text fill="#000000" font-family="monospace" font-size="10" lengthAdjust="spacing" textLength="535.8252" x="10" y="20">This&#160;syntax&#160;is&#160;deprecated,&#160;you&#160;must&#160;add&#160;&lt;&lt;#ADD8E6&gt;&gt;&#160;at&#160;the&#160;end&#160;of&#160;the&#160;line,&#160;after&#160;the&#160;';'</text><g class="title" data-source-line="11"><text fill="#000000" font-family="Arial" font-size="14" font-weight="bold" lengthAdjust="spacing" textLength="115.1719" x="381.9324" y="69.6357">IOD(6)_Pj2_T-1</text><text fill="#000000" font-family="Arial" font-size="14" font-weight="bold" lengthAdjust="spacing" textLength="277.3066" x="300.865" y="85.9326">US6: Compare Semester Schedules</text></g><path d="M427.8093,100.2344 L427.8093,125.3672 L572.7854,125.3672 L572.7854,110.2344 L562.7854,100.2344 L427.8093,100.2344" fill="#FFFFCC" style="stroke:#AAAAAA;stroke-width:0.5;"/><path d="M562.7854,100.2344 L562.7854,110.2344 L572.7854,110.2344 L562.7854,100.2344" fill="#FFFFCC" style="stroke:#AAAAAA;stroke-width:0.5;"/><text fill="#000000" font-family="Arial" font-size="13" lengthAdjust="spacing" textLength="123.9761" x="433.8093" y="117.3013">Author: MayfairMI6</text><ellipse cx="500.2974" cy="155.3672" fill="#222222" rx="10" ry="10" style="stroke:#222222;stroke-width:1;"/><rect fill="#FEFEFE" height="47.9375" rx="12.5" ry="12.5" style="stroke:#444444;stroke-width:0.5;" width="346.1738" x="327.2104" y="185.3672"/><text fill="#000000" font-family="Arial" font-size="12" lengthAdjust="spacing" textLength="326.1738" x="337.2104" y="206.5059">Prerequisite: data for at least two semesters imported</text><text fill="#000000" font-family="Arial" font-size="12" lengthAdjust="spacing" textLength="180.4863" x="337.2104" y="220.4746">(see US1 &#8212; Upload Excel File)</text><rect fill="#FEFEFE" height="33.9688" rx="12.5" ry="12.5" style="stroke:#444444;stroke-width:0.5;" width="310.8008" x="344.897" y="253.3047"/><text fill="#000000" font-family="Arial" font-size="12" lengthAdjust="spacing" textLength="290.8008" x="354.897" y="274.4434">Actor navigates to the Compare Schedules Page</text><rect fill="#FEFEFE" height="33.9688" rx="12.5" ry="12.5" style="stroke:#444444;stroke-width:0.5;" width="317.1699" x="341.7124" y="307.2734"/><text fill="#000000" font-family="Arial" font-size="12" lengthAdjust="spacing" textLength="297.1699" x="351.7124" y="328.4121">Actor selects Semester A from the first dropdown</text><path d="M688.5679,358.0938 L688.5679,374.2266 L668.5679,378.2266 L688.5679,382.2266 L688.5679,398.3594 A0,0 0 0 0 688.5679,398.3594 L870.0366,398.3594 A0,0 0 0 0 870.0366,398.3594 L870.0366,368.0938 L860.0366,358.0938 L688.5679,358.0938 A0,0 0 0 0 688.5679,358.0938" fill="#FFFFCC" style="stroke:#AAAAAA;stroke-width:0.5;"/><path d="M860.0366,358.0938 L860.0366,368.0938 L870.0366,368.0938 L860.0366,358.0938" fill="#FFFFCC" style="stroke:#AAAAAA;stroke-width:0.5;"/><text fill="#000000" font-family="Arial" font-size="13" lengthAdjust="spacing" textLength="160.4688" x="694.5679" y="375.1606">Semesters A and B must</text><text fill="#000000" font-family="Arial" font-size="13" lengthAdjust="spacing" textLength="76.0767" x="694.5679" y="390.2935">be different</text><rect fill="#FEFEFE" height="33.9688" rx="12.5" ry="12.5" style="stroke:#444444;stroke-width:0.5;" width="336.541" x="332.0269" y="361.2422"/><text fill="#000000" font-family="Arial" font-size="12" lengthAdjust="spacing" textLength="316.541" x="342.0269" y="382.3809">Actor selects Semester B from the second dropdown</text><rect fill="#FEFEFE" height="33.9688" rx="12.5" ry="12.5" style="stroke:#444444;stroke-width:0.5;" width="339.5469" x="330.5239" y="466.7617"/><text fill="#000000" font-family="Arial" font-size="12" lengthAdjust="spacing" textLength="319.5469" x="340.5239" y="487.9004">System alerts actor to select two different semesters</text><ellipse cx="500.2974" cy="540.2461" fill="none" rx="11" ry="11" style="stroke:#222222;stroke-width:1;"/><ellipse cx="500.2974" cy="540.2461" fill="#222222" rx="6" ry="6" style="stroke:#222222;stroke-width:1;"/><polygon fill="#FEFEFE" points="389.3655,418.3594,611.2292,418.3594,623.2292,430.3594,611.2292,442.3594,389.3655,442.3594,377.3655,430.3594,389.3655,418.3594" style="stroke:#444444;stroke-width:0.5;"/><text fill="#000000" font-family="Arial" font-size="11" lengthAdjust="spacing" textLength="19.0083" x="504.2974" y="452.5698">yes</text><text fill="#000000" font-family="Arial" font-size="11" lengthAdjust="spacing" textLength="221.8638" x="389.3655" y="434.1675">Same semester selected for both fields?</text><text fill="#000000" font-family="Arial" font-size="11" lengthAdjust="spacing" textLength="13.7017" x="623.2292" y="427.7651">no</text><rect fill="#FEFEFE" height="33.9688" rx="12.5" ry="12.5" style="stroke:#444444;stroke-width:0.5;" width="223.4258" x="388.5845" y="593.2461"/><text fill="#000000" font-family="Arial" font-size="12" lengthAdjust="spacing" textLength="203.4258" x="398.5845" y="614.3848">Actor clicks "Compare Schedules"</text><rect fill="#FEFEFE" height="61.9063" rx="12.5" ry="12.5" style="stroke:#444444;stroke-width:0.5;" width="616.7188" x="191.938" y="647.2148"/><text fill="#000000" font-family="Arial" font-size="12" font-weight="bold" lengthAdjust="spacing" textLength="19.2773" x="201.938" y="668.3535">ref</text><text fill="#000000" font-family="Arial" font-size="12" lengthAdjust="spacing" textLength="283.4004" x="225.0298" y="668.3535">UC_COMPARE &#8212; Compare Semester Schedules</text><text fill="#000000" font-family="Arial" font-size="12" lengthAdjust="spacing" textLength="440.7012" x="201.938" y="682.3223">&#9472;&#9472;&#9472;&#9472;&#9472;&#9472;&#9472;&#9472;&#9472;&#9472;&#9472;&#9472;&#9472;&#9472;&#9472;&#9472;&#9472;&#9472;&#9472;&#9472;&#9472;&#9472;&#9472;&#9472;&#9472;&#9472;&#9472;&#9472;&#9472;&#9472;&#9472;&#9472;&#9472;&#9472;&#9472;&#9472;&#9472;&#9472;&#9472;&#9472;&#9472;&#9472;&#9472;&#9472;&#9472;&#9472;&#9472;&#9472;&#9472;&#9472;&#9472;&#9472;&#9472;&#9472;&#9472;&#9472;&#9472;&#9472;&#9472;&#9472;&#9472;</text><text fill="#000000" font-family="Arial" font-size="12" lengthAdjust="spacing" textLength="596.7188" x="201.938" y="696.291">System identifies courses exclusive to Semester A,\nexclusive to Semester B, and common to both</text><rect fill="#FEFEFE" height="61.9063" rx="12.5" ry="12.5" style="stroke:#444444;stroke-width:0.5;" width="556.4902" x="222.0522" y="729.1211"/><text fill="#000000" font-family="Arial" font-size="12" font-weight="bold" lengthAdjust="spacing" textLength="19.2773" x="232.0522" y="750.2598">ref</text><text fill="#000000" font-family="Arial" font-size="12" lengthAdjust="spacing" textLength="229.4648" x="255.144" y="750.2598">UC_STATS &#8212; View Semester Statistics</text><text fill="#000000" font-family="Arial" font-size="12" lengthAdjust="spacing" textLength="419.0273" x="232.0522" y="764.2285">&#9472;&#9472;&#9472;&#9472;&#9472;&#9472;&#9472;&#9472;&#9472;&#9472;&#9472;&#9472;&#9472;&#9472;&#9472;&#9472;&#9472;&#9472;&#9472;&#9472;&#9472;&#9472;&#9472;&#9472;&#9472;&#9472;&#9472;&#9472;&#9472;&#9472;&#9472;&#9472;&#9472;&#9472;&#9472;&#9472;&#9472;&#9472;&#9472;&#9472;&#9472;&#9472;&#9472;&#9472;&#9472;&#9472;&#9472;&#9472;&#9472;&#9472;&#9472;&#9472;&#9472;&#9472;&#9472;&#9472;&#9472;&#9472;</text><text fill="#000000" font-family="Arial" font-size="12" lengthAdjust="spacing" textLength="536.4902" x="232.0522" y="778.1973">System computes total classes, unique courses,\nand total enrollment for each semester</text><rect fill="#FEFEFE" height="47.9375" rx="12.5" ry="12.5" style="stroke:#444444;stroke-width:0.5;" width="335.5918" x="332.5015" y="811.0273"/><text fill="#000000" font-family="Arial" font-size="12" lengthAdjust="spacing" textLength="247.6699" x="342.5015" y="832.166">System displays side-by-side comparison</text><text fill="#000000" font-family="Arial" font-size="12" lengthAdjust="spacing" textLength="315.5918" x="342.5015" y="846.1348">with categorized course lists and summary statistics</text><polygon fill="#FEFEFE" points="384.6899,878.9648,615.9048,878.9648,627.9048,890.9648,615.9048,902.9648,384.6899,902.9648,372.6899,890.9648,384.6899,878.9648" style="stroke:#444444;stroke-width:0.5;"/><text fill="#000000" font-family="Arial" font-size="11" lengthAdjust="spacing" textLength="231.2148" x="384.6899" y="894.7729">Actor selects a specific course for details?</text><text fill="#000000" font-family="Arial" font-size="11" lengthAdjust="spacing" textLength="19.0083" x="353.6816" y="888.3706">yes</text><text fill="#000000" font-family="Arial" font-size="11" lengthAdjust="spacing" textLength="13.7017" x="627.9048" y="888.3706">no</text><rect fill="#FEFEFE" height="61.9063" rx="12.5" ry="12.5" style="stroke:#444444;stroke-width:0.5;" width="544.7949" x="11" y="912.9648"/><text fill="#000000" font-family="Arial" font-size="12" font-weight="bold" lengthAdjust="spacing" textLength="19.2773" x="21" y="934.1035">ref</text><text fill="#000000" font-family="Arial" font-size="12" lengthAdjust="spacing" textLength="202.5352" x="44.0918" y="934.1035">UC_DETAILS &#8212; View Class Details</text><text fill="#000000" font-family="Arial" font-size="12" lengthAdjust="spacing" textLength="354.0059" x="21" y="948.0723">&#9472;&#9472;&#9472;&#9472;&#9472;&#9472;&#9472;&#9472;&#9472;&#9472;&#9472;&#9472;&#9472;&#9472;&#9472;&#9472;&#9472;&#9472;&#9472;&#9472;&#9472;&#9472;&#9472;&#9472;&#9472;&#9472;&#9472;&#9472;&#9472;&#9472;&#9472;&#9472;&#9472;&#9472;&#9472;&#9472;&#9472;&#9472;&#9472;&#9472;&#9472;&#9472;&#9472;&#9472;&#9472;&#9472;&#9472;&#9472;&#9472;</text><text fill="#000000" font-family="Arial" font-size="12" lengthAdjust="spacing" textLength="524.7949" x="21" y="962.041">System shows section counts, enrollment,\nand a change summary for both semesters</text><rect fill="#FEFEFE" height="33.9688" rx="12.5" ry="12.5" style="stroke:#444444;stroke-width:0.5;" width="216.1367" x="175.3291" y="994.8711"/><text fill="#000000" font-family="Arial" font-size="12" lengthAdjust="spacing" textLength="196.1367" x="185.3291" y="1016.0098">Actor reviews course-level detail</text><rect fill="#FEFEFE" height="33.9688" rx="12.5" ry="12.5" style="stroke:#444444;stroke-width:0.5;" width="282.8047" x="575.7949" y="912.9648"/><text fill="#000000" font-family="Arial" font-size="12" lengthAdjust="spacing" textLength="262.8047" x="585.7949" y="934.1035">Actor reviews high-level comparison results</text><polygon fill="#FEFEFE" points="500.2974,1034.8398,512.2974,1046.8398,500.2974,1058.8398,488.2974,1046.8398,500.2974,1034.8398" style="stroke:#444444;stroke-width:0.5;"/><ellipse cx="500.2974" cy="1089.8398" fill="none" rx="11" ry="11" style="stroke:#222222;stroke-width:1;"/><ellipse cx="500.2974" cy="1089.8398" fill="#222222" rx="6" ry="6" style="stroke:#222222;stroke-width:1;"/><line style="stroke:#444444;stroke-width:1;" x1="500.2974" x2="500.2974" y1="125.3672" y2="145.3672"/><polygon fill="#444444" points="496.2974,135.3672,500.2974,145.3672,504.2974,135.3672,500.2974,139.3672" style="stroke:#444444;stroke-width:1;"/><line style="stroke:#444444;stroke-width:1;" x1="500.2974" x2="500.2974" y1="165.3672" y2="185.3672"/><polygon fill="#444444" points="496.2974,175.3672,500.2974,185.3672,504.2974,175.3672,500.2974,179.3672" style="stroke:#444444;stroke-width:1;"/><line style="stroke:#444444;stroke-width:1;" x1="500.2974" x2="500.2974" y1="233.3047" y2="253.3047"/><polygon fill="#444444" points="496.2974,243.3047,500.2974,253.3047,504.2974,243.3047,500.2974,247.3047" style="stroke:#444444;stroke-width:1;"/><line style="stroke:#444444;stroke-width:1;" x1="500.2974" x2="500.2974" y1="287.2734" y2="307.2734"/><polygon fill="#444444" points="496.2974,297.2734,500.2974,307.2734,504.2974,297.2734,500.2974,301.2734" style="stroke:#444444;stroke-width:1;"/><line style="stroke:#444444;stroke-width:1;" x1="500.2974" x2="500.2974" y1="341.2422" y2="361.2422"/><polygon fill="#444444" points="496.2974,351.2422,500.2974,361.2422,504.2974,351.2422,500.2974,355.2422" style="stroke:#444444;stroke-width:1;"/><line style="stroke:#444444;stroke-width:1;" x1="500.2974" x2="500.2974" y1="500.7305" y2="529.2461"/><polygon fill="#444444" points="496.2974,519.2461,500.2974,529.2461,504.2974,519.2461,500.2974,523.2461" style="stroke:#444444;stroke-width:1;"/><line style="stroke:#444444;stroke-width:1;" x1="500.2974" x2="500.2974" y1="442.3594" y2="466.7617"/><polygon fill="#444444" points="496.2974,456.7617,500.2974,466.7617,504.2974,456.7617,500.2974,460.7617" style="stroke:#444444;stroke-width:1;"/><line style="stroke:#444444;stroke-width:1;" x1="623.2292" x2="680.0708" y1="430.3594" y2="430.3594"/><polygon fill="#444444" points="676.0708,499.2461,680.0708,509.2461,684.0708,499.2461,680.0708,503.2461" style="stroke:#444444;stroke-width:1;"/><line style="stroke:#444444;stroke-width:1;" x1="680.0708" x2="680.0708" y1="430.3594" y2="573.2461"/><line style="stroke:#444444;stroke-width:1;" x1="680.0708" x2="500.2974" y1="573.2461" y2="573.2461"/><line style="stroke:#444444;stroke-width:1;" x1="500.2974" x2="500.2974" y1="573.2461" y2="593.2461"/><polygon fill="#444444" points="496.2974,583.2461,500.2974,593.2461,504.2974,583.2461,500.2974,587.2461" style="stroke:#444444;stroke-width:1;"/><line style="stroke:#444444;stroke-width:1;" x1="500.2974" x2="500.2974" y1="395.2109" y2="418.3594"/><polygon fill="#444444" points="496.2974,408.3594,500.2974,418.3594,504.2974,408.3594,500.2974,412.3594" style="stroke:#444444;stroke-width:1;"/><line style="stroke:#444444;stroke-width:1;" x1="500.2974" x2="500.2974" y1="627.2148" y2="647.2148"/><polygon fill="#444444" points="496.2974,637.2148,500.2974,647.2148,504.2974,637.2148,500.2974,641.2148" style="stroke:#444444;stroke-width:1;"/><line style="stroke:#444444;stroke-width:1;" x1="500.2974" x2="500.2974" y1="709.1211" y2="729.1211"/><polygon fill="#444444" points="496.2974,719.1211,500.2974,729.1211,504.2974,719.1211,500.2974,723.1211" style="stroke:#444444;stroke-width:1;"/><line style="stroke:#444444;stroke-width:1;" x1="500.2974" x2="500.2974" y1="791.0273" y2="811.0273"/><polygon fill="#444444" points="496.2974,801.0273,500.2974,811.0273,504.2974,801.0273,500.2974,805.0273" style="stroke:#444444;stroke-width:1;"/><line style="stroke:#444444;stroke-width:1;" x1="283.3975" x2="283.3975" y1="974.8711" y2="994.8711"/><polygon fill="#444444" points="279.3975,984.8711,283.3975,994.8711,287.3975,984.8711,283.3975,988.8711" style="stroke:#444444;stroke-width:1;"/><line style="stroke:#444444;stroke-width:1;" x1="372.6899" x2="283.3975" y1="890.9648" y2="890.9648"/><line style="stroke:#444444;stroke-width:1;" x1="283.3975" x2="283.3975" y1="890.9648" y2="912.9648"/><polygon fill="#444444" points="279.3975,902.9648,283.3975,912.9648,287.3975,902.9648,283.3975,906.9648" style="stroke:#444444;stroke-width:1;"/><line style="stroke:#444444;stroke-width:1;" x1="627.9048" x2="717.1973" y1="890.9648" y2="890.9648"/><line style="stroke:#444444;stroke-width:1;" x1="717.1973" x2="717.1973" y1="890.9648" y2="912.9648"/><polygon fill="#444444" points="713.1973,902.9648,717.1973,912.9648,721.1973,902.9648,717.1973,906.9648" style="stroke:#444444;stroke-width:1;"/><line style="stroke:#444444;stroke-width:1;" x1="283.3975" x2="283.3975" y1="1028.8398" y2="1046.8398"/><line style="stroke:#444444;stroke-width:1;" x1="283.3975" x2="488.2974" y1="1046.8398" y2="1046.8398"/><polygon fill="#444444" points="478.2974,1042.8398,488.2974,1046.8398,478.2974,1050.8398,482.2974,1046.8398" style="stroke:#444444;stroke-width:1;"/><line style="stroke:#444444;stroke-width:1;" x1="717.1973" x2="717.1973" y1="946.9336" y2="1046.8398"/><line style="stroke:#444444;stroke-width:1;" x1="717.1973" x2="512.2974" y1="1046.8398" y2="1046.8398"/><polygon fill="#444444" points="522.2974,1042.8398,512.2974,1046.8398,522.2974,1050.8398,518.2974,1046.8398" style="stroke:#444444;stroke-width:1;"/><line style="stroke:#444444;stroke-width:1;" x1="500.2974" x2="500.2974" y1="858.9648" y2="878.9648"/><polygon fill="#444444" points="496.2974,868.9648,500.2974,878.9648,504.2974,868.9648,500.2974,872.9648" style="stroke:#444444;stroke-width:1;"/><line style="stroke:#444444;stroke-width:1;" x1="500.2974" x2="500.2974" y1="1058.8398" y2="1078.8398"/><polygon fill="#444444" points="496.2974,1068.8398,500.2974,1078.8398,504.2974,1068.8398,500.2974,1072.8398" style="stroke:#444444;stroke-width:1;"/><?plantuml-src rPNDJjj04CVlVeeH74WYEBIgK9KSAfC42Qbyg0uzHKBBUXnlMU-6dN52Uk8XU4AUf6FZV402v-94yc7dox__pEm1d5qEMiVjcwi_Nsz6Hr_W-V49hWa39Ep30ewxqFV5L0M410iahavqZcbfaQ83Y4lEVUZ2kLfaoeJpi-CeeZlZn4CLCC1CbPPFlUCBLI34mIYxSHvhDZF3YnEbxoR1boxjU-i3x9yEgzykInzI38tLj_hPj0h1pzyxlF2CsudawVVVMcqcYUidYjYmnJUqnkuw-PXGv2GU13F9kRiR5gl0KTIz2XZmlZHa6BkGAbQGINh5O54H0yyzK1EVm1HJ7nZJiMiH8bmdZN1JwrKAmmUD5awDnNPFGWixYUJKp4mK8m5xu1pNLI-BXIirmRK3eKNDjFwg6BBWYzetCq5gIeEVfdxkUk-wdAnT2BLtwORF9fbazMKnAB4wWQ8a7hjRXDHacQ1n0ibaq4ggFbg2Q19YMhEwzPnBPMXJ-j6kSZfeBP3Q4K0tMOXz0SfYaFfKNItxnh-6kygpnjmJJs8_ZT0IGilvTeHEx5Q8j3NwZc1l2-MUODoF1uFlm-DkfnCmwtJWkd_Jlpo_YdyDQwq-Q9hdfyVF-8yQo2OLYaQ48D2-32HlVD2s93F32lgweGx7RlV9oM7T1jeNXNVLIQNjRgR9A1ubDT7V1kSRE5cn8JRwi_5SOfIFdvOlyyhAIgyf4fI7K3fpN-8IhI2iIBtOe0lUsg9guceWKEbyrStLO3UHKqDJgnO4958TtIwEgdUTJmL3tetTtCWeQTaM4n_CNqoRR625ADNIK5aKIYu8Mc7klGpewqsWWAQefHdqCaHLM8giZDsQqXtg3eQZ-EpdXhxz2eDSB7K0yVaV1GHeG5FkvrHjFZRInWB0iGYuLgaHJu7EbPlW2kfgcxrQHStI2JWJ4ClPEh8uasN_GhItiQcsx7DPjOtrMcev9RcX9NwpsQfzzmy0?></g></svg>