<svg xmlns="http://www.w3.org/2000/svg" xmlns:xlink="http://www.w3.org/1999/xlink" contentStyleType="text/css" height="698px" preserveAspectRatio="none" style="width:982px;height:698px;background:#FFFFFF;" version="1.1" viewBox="0 0 982 698" width="982px" zoomAndPan="magnify"><title>IOD(1)_Pj2_T-1</title><defs/><g><text fill="#000000" font-family="Arial" font-size="14" font-weight="bold" lengthAdjust="spacing" textLength="115.1719" x="432.3867" y="32.9951">IOD(1)_Pj2_T-1</text><text fill="#000000" font-family="Arial" font-size="14" font-weight="bold" lengthAdjust="spacing" textLength="310.8301" x="334.5576" y="49.292">US1: Upload Excel File and Import Data</text><ellipse cx="591.8132" cy="73.5938" fill="#222222" rx="10" ry="10" style="stroke:#222222;stroke-width:1;"/><rect fill="#FEFEFE" height="33.9688" rx="12.5" ry="12.5" style="stroke:#444444;stroke-width:0.5;" width="232.9414" x="475.3425" y="103.5938"/><text fill="#000000" font-family="Arial" font-size="12" lengthAdjust="spacing" textLength="212.9414" x="485.3425" y="124.7324">Actor navigates to the Upload Page</text><rect fill="#ADD8E6" height="61.9063" rx="12.5" ry="12.5" style="stroke:#444444;stroke-width:0.5;" width="279.8047" x="451.9109" y="157.5625"/><text fill="#000000" font-family="Arial" font-size="12" font-weight="bold" lengthAdjust="spacing" textLength="19.2773" x="461.9109" y="178.7012">ref</text><text fill="#000000" font-family="Arial" font-size="12" lengthAdjust="spacing" textLength="236.7129" x="485.0027" y="178.7012">UC_VALIDATE &#8212; Validate Uploaded File</text><text fill="#000000" font-family="Arial" font-size="12" lengthAdjust="spacing" textLength="238.4121" x="461.9109" y="192.6699">&#9472;&#9472;&#9472;&#9472;&#9472;&#9472;&#9472;&#9472;&#9472;&#9472;&#9472;&#9472;&#9472;&#9472;&#9472;&#9472;&#9472;&#9472;&#9472;&#9472;&#9472;&#9472;&#9472;&#9472;&#9472;&#9472;&#9472;&#9472;&#9472;&#9472;&#9472;&#9472;&#9472;</text><text fill="#000000" font-family="Arial" font-size="12" lengthAdjust="spacing" textLength="250.7109" x="461.9109" y="206.6387">System checks file extension and content</text><polygon fill="#FEFEFE" points="558.2278,239.4688,625.3987,239.4688,637.3987,251.4688,625.3987,263.4688,558.2278,263.4688,546.2278,251.4688,558.2278,239.4688" style="stroke:#444444;stroke-width:0.5;"/><text fill="#000000" font-family="Arial" font-size="11" lengthAdjust="spacing" textLength="67.1709" x="558.2278" y="255.2769">File is valid?</text><text fill="#000000" font-family="Arial" font-size="11" lengthAdjust="spacing" textLength="19.0083" x="527.2195" y="248.8745">yes</text><text fill="#000000" font-family="Arial" font-size="11" lengthAdjust="spacing" textLength="13.7017" x="637.3987" y="248.8745">no</text><rect fill="#ADD8E6" height="61.9063" rx="12.5" ry="12.5" style="stroke:#444444;stroke-width:0.5;" width="389.3809" x="143.6479" y="273.4688"/><text fill="#000000" font-family="Arial" font-size="12" font-weight="bold" lengthAdjust="spacing" textLength="19.2773" x="153.6479" y="294.6074">ref</text><text fill="#000000" font-family="Arial" font-size="12" lengthAdjust="spacing" textLength="270.3867" x="176.7397" y="294.6074">UC_DUP_FILE &#8212; Detect Duplicate Upload File</text><text fill="#000000" font-family="Arial" font-size="12" lengthAdjust="spacing" textLength="354.0059" x="153.6479" y="308.5762">&#9472;&#9472;&#9472;&#9472;&#9472;&#9472;&#9472;&#9472;&#9472;&#9472;&#9472;&#9472;&#9472;&#9472;&#9472;&#9472;&#9472;&#9472;&#9472;&#9472;&#9472;&#9472;&#9472;&#9472;&#9472;&#9472;&#9472;&#9472;&#9472;&#9472;&#9472;&#9472;&#9472;&#9472;&#9472;&#9472;&#9472;&#9472;&#9472;&#9472;&#9472;&#9472;&#9472;&#9472;&#9472;&#9472;&#9472;&#9472;&#9472;</text><text fill="#000000" font-family="Arial" font-size="12" lengthAdjust="spacing" textLength="369.3809" x="153.6479" y="322.5449">System computes SHA-256 hash and compares to saved files</text><polygon fill="#FEFEFE" points="282.9973,370.375,393.6794,370.375,405.6794,382.375,393.6794,394.375,282.9973,394.375,270.9973,382.375,282.9973,370.375" style="stroke:#444444;stroke-width:0.5;"/><text fill="#000000" font-family="Arial" font-size="11" lengthAdjust="spacing" textLength="110.6821" x="282.9973" y="386.1831">Duplicate detected?</text><text fill="#000000" font-family="Arial" font-size="11" lengthAdjust="spacing" textLength="19.0083" x="251.989" y="379.7808">yes</text><text fill="#000000" font-family="Arial" font-size="11" lengthAdjust="spacing" textLength="13.7017" x="405.6794" y="379.7808">no</text><rect fill="#FEFEFE" height="33.9688" rx="12.5" ry="12.5" style="stroke:#444444;stroke-width:0.5;" width="223.4961" x="52.1826" y="404.375"/><text fill="#000000" font-family="Arial" font-size="12" lengthAdjust="spacing" textLength="203.4961" x="62.1826" y="425.5137">System skips saving duplicate file</text><rect fill="#FEFEFE" height="33.9688" rx="12.5" ry="12.5" style="stroke:#444444;stroke-width:0.5;" width="305.8613" x="11" y="473.3438"/><text fill="#000000" font-family="Arial" font-size="12" lengthAdjust="spacing" textLength="285.8613" x="21" y="494.4824">System proceeds with import using existing file</text><rect fill="#ADD8E6" height="61.9063" rx="12.5" ry="12.5" style="stroke:#444444;stroke-width:0.5;" width="351.7695" x="336.8613" y="404.375"/><text fill="#000000" font-family="Arial" font-size="12" font-weight="bold" lengthAdjust="spacing" textLength="19.2773" x="346.8613" y="425.5137">ref</text><text fill="#000000" font-family="Arial" font-size="12" lengthAdjust="spacing" textLength="195.0176" x="369.9531" y="425.5137">UC_UPLOAD &#8212; Upload Excel File</text><text fill="#000000" font-family="Arial" font-size="12" lengthAdjust="spacing" textLength="238.4121" x="346.8613" y="439.4824">&#9472;&#9472;&#9472;&#9472;&#9472;&#9472;&#9472;&#9472;&#9472;&#9472;&#9472;&#9472;&#9472;&#9472;&#9472;&#9472;&#9472;&#9472;&#9472;&#9472;&#9472;&#9472;&#9472;&#9472;&#9472;&#9472;&#9472;&#9472;&#9472;&#9472;&#9472;&#9472;&#9472;</text><text fill="#000000" font-family="Arial" font-size="12" lengthAdjust="spacing" textLength="331.7695" x="346.8613" y="453.4512">System saves file and imports class data into database</text><polygon fill="#FEFEFE" points="338.3384,513.3125,350.3384,525.3125,338.3384,537.3125,326.3384,525.3125,338.3384,513.3125" style="stroke:#444444;stroke-width:0.5;"/><rect fill="#FEFEFE" height="33.9688" rx="12.5" ry="12.5" style="stroke:#444444;stroke-width:0.5;" width="291.3477" x="192.6646" y="557.3125"/><text fill="#000000" font-family="Arial" font-size="12" lengthAdjust="spacing" textLength="271.3477" x="202.6646" y="578.4512">System displays import confirmation to actor</text><rect fill="#FEFEFE" height="33.9688" rx="12.5" ry="12.5" style="stroke:#444444;stroke-width:0.5;" width="230.5977" x="729.9893" y="273.4688"/><text fill="#000000" font-family="Arial" font-size="12" lengthAdjust="spacing" textLength="210.5977" x="739.9893" y="294.6074">System displays file error message</text><rect fill="#FEFEFE" height="33.9688" rx="12.5" ry="12.5" style="stroke:#444444;stroke-width:0.5;" width="253.3145" x="718.6309" y="342.4375"/><text fill="#000000" font-family="Arial" font-size="12" lengthAdjust="spacing" textLength="233.3145" x="728.6309" y="363.5762">Actor corrects file selection and retries</text><ellipse cx="845.2881" cy="422.4063" fill="none" rx="11" ry="11" style="stroke:#222222;stroke-width:1;"/><ellipse cx="845.2881" cy="422.4063" fill="#222222" rx="6" ry="6" style="stroke:#222222;stroke-width:1;"/><rect fill="#FEFEFE" height="33.9688" rx="12.5" ry="12.5" style="stroke:#444444;stroke-width:0.5;" width="181.6836" x="500.9714" y="611.2813"/><text fill="#000000" font-family="Arial" font-size="12" lengthAdjust="spacing" textLength="161.6836" x="510.9714" y="632.4199">Actor reviews confirmation</text><ellipse cx="591.8132" cy="676.25" fill="none" rx="11" ry="11" style="stroke:#222222;stroke-width:1;"/><ellipse cx="591.8132" cy="676.25" fill="#222222" rx="6" ry="6" style="stroke:#222222;stroke-width:1;"/><line style="stroke:#444444;stroke-width:1;" x1="591.8132" x2="591.8132" y1="83.5938" y2="103.5938"/><polygon fill="#444444" points="587.8132,93.5938,591.8132,103.5938,595.8132,93.5938,591.8132,97.5938" style="stroke:#444444;stroke-width:1;"/><line style="stroke:#444444;stroke-width:1;" x1="591.8132" x2="591.8132" y1="137.5625" y2="157.5625"/><polygon fill="#444444" points="587.8132,147.5625,591.8132,157.5625,595.8132,147.5625,591.8132,151.5625" style="stroke:#444444;stroke-width:1;"/><line style="stroke:#444444;stroke-width:1;" x1="163.9307" x2="163.9307" y1="438.3438" y2="473.3438"/><polygon fill="#444444" points="159.9307,463.3438,163.9307,473.3438,167.9307,463.3438,163.9307,467.3438" style="stroke:#444444;stroke-width:1;"/><line style="stroke:#444444;stroke-width:1;" x1="270.9973" x2="163.9307" y1="382.375" y2="382.375"/><line style="stroke:#444444;stroke-width:1;" x1="163.9307" x2="163.9307" y1="382.375" y2="404.375"/><polygon fill="#444444" points="159.9307,394.375,163.9307,404.375,167.9307,394.375,163.9307,398.375" style="stroke:#444444;stroke-width:1;"/><line style="stroke:#444444;stroke-width:1;" x1="405.6794" x2="512.7461" y1="382.375" y2="382.375"/><line style="stroke:#444444;stroke-width:1;" x1="512.7461" x2="512.7461" y1="382.375" y2="404.375"/><polygon fill="#444444" points="508.7461,394.375,512.7461,404.375,516.7461,394.375,512.7461,398.375" style="stroke:#444444;stroke-width:1;"/><line style="stroke:#444444;stroke-width:1;" x1="163.9307" x2="163.9307" y1="507.3125" y2="525.3125"/><line style="stroke:#444444;stroke-width:1;" x1="163.9307" x2="326.3384" y1="525.3125" y2="525.3125"/><polygon fill="#444444" points="316.3384,521.3125,326.3384,525.3125,316.3384,529.3125,320.3384,525.3125" style="stroke:#444444;stroke-width:1;"/><line style="stroke:#444444;stroke-width:1;" x1="512.7461" x2="512.7461" y1="466.2813" y2="525.3125"/><line style="stroke:#444444;stroke-width:1;" x1="512.7461" x2="350.3384" y1="525.3125" y2="525.3125"/><polygon fill="#444444" points="360.3384,521.3125,350.3384,525.3125,360.3384,529.3125,356.3384,525.3125" style="stroke:#444444;stroke-width:1;"/><line style="stroke:#444444;stroke-width:1;" x1="338.3384" x2="338.3384" y1="335.375" y2="370.375"/><polygon fill="#444444" points="334.3384,360.375,338.3384,370.375,342.3384,360.375,338.3384,364.375" style="stroke:#444444;stroke-width:1;"/><line style="stroke:#444444;stroke-width:1;" x1="338.3384" x2="338.3384" y1="537.3125" y2="557.3125"/><polygon fill="#444444" points="334.3384,547.3125,338.3384,557.3125,342.3384,547.3125,338.3384,551.3125" style="stroke:#444444;stroke-width:1;"/><line style="stroke:#444444;stroke-width:1;" x1="845.2881" x2="845.2881" y1="307.4375" y2="342.4375"/><polygon fill="#444444" points="841.2881,332.4375,845.2881,342.4375,849.2881,332.4375,845.2881,336.4375" style="stroke:#444444;stroke-width:1;"/><line style="stroke:#444444;stroke-width:1;" x1="845.2881" x2="845.2881" y1="376.4063" y2="411.4063"/><polygon fill="#444444" points="841.2881,401.4063,845.2881,411.4063,849.2881,401.4063,845.2881,405.4063" style="stroke:#444444;stroke-width:1;"/><line style="stroke:#444444;stroke-width:1;" x1="546.2278" x2="338.3384" y1="251.4688" y2="251.4688"/><line style="stroke:#444444;stroke-width:1;" x1="338.3384" x2="338.3384" y1="251.4688" y2="273.4688"/><polygon fill="#444444" points="334.3384,263.4688,338.3384,273.4688,342.3384,263.4688,338.3384,267.4688" style="stroke:#444444;stroke-width:1;"/><line style="stroke:#444444;stroke-width:1;" x1="637.3987" x2="845.2881" y1="251.4688" y2="251.4688"/><line style="stroke:#444444;stroke-width:1;" x1="845.2881" x2="845.2881" y1="251.4688" y2="273.4688"/><polygon fill="#444444" points="841.2881,263.4688,845.2881,273.4688,849.2881,263.4688,845.2881,267.4688" style="stroke:#444444;stroke-width:1;"/><line style="stroke:#444444;stroke-width:1;" x1="338.3384" x2="338.3384" y1="591.2813" y2="596.2813"/><line style="stroke:#444444;stroke-width:1;" x1="338.3384" x2="591.8132" y1="596.2813" y2="596.2813"/><line style="stroke:#444444;stroke-width:1;" x1="591.8132" x2="591.8132" y1="596.2813" y2="611.2813"/><polygon fill="#444444" points="587.8132,601.2813,591.8132,611.2813,595.8132,601.2813,591.8132,605.2813" style="stroke:#444444;stroke-width:1;"/><line style="stroke:#444444;stroke-width:1;" x1="591.8132" x2="591.8132" y1="219.4688" y2="239.4688"/><polygon fill="#444444" points="587.8132,229.4688,591.8132,239.4688,595.8132,229.4688,591.8132,233.4688" style="stroke:#444444;stroke-width:1;"/><line style="stroke:#444444;stroke-width:1;" x1="591.8132" x2="591.8132" y1="645.25" y2="665.25"/><polygon fill="#444444" points="587.8132,655.25,591.8132,665.25,595.8132,655.25,591.8132,659.25" style="stroke:#444444;stroke-width:1;"/><!--SRC=[lPJFRXen4CRlVegHSYWWvK3KHXKSgYqBAX9AaCZc50cvkmEuUEsLPu1moqFa2VCajVTF0eHAxQ4n77Qrytdy_MR6ds1y6xUwxVdqrzNyxh8BBq_Fa10wcB5rU-Zs82cqbHaC7rFKC58QGPeCndbX7KCiMGf1QsKAwMGECIxaHlF86hwHEKBabDG7twEKrLRn_hjCrqjdDoORM6qTN8o6uNSkqheCNHtrkLo7KSxPtPy-tbZ6zudy6WnEemwJHEKIWXLxiyTy7amo-qicB1qBqVC-_AP6RjLICXAm1LvXiyDKBh4ln4KKnr-7rxrEn-6Yqu5aCB-F9kCukXkM5RcNMcLUNiimAvEAb-Ud__qNipqnvf2kC5qJB89NV6GqfAmfNQU-rcZOkr0BQ9Km5C4sdFXREtWrqDeZjOK0EECpJgRpqNXI-OoHCVK4DuLMwPlVoYt01_ZzPpu03I6R5vjGuTcFwFBgopMi9ArgGhbljQhs9BU-UW4ZzGEHmEpDRbRwnnDmu5UlpkBxjg2mYp9Bo5w5OSF-KM3XR8gO4UmKhq1LhRcX8CD7HHmU6XLgGcWPMwKwKwHaEhcDukfoE6tzKlCnf5zP1ufrCmR0bJk2L4iYy8CYGHaFEppzb5HvD9bQ1E8De4nHeUMU6ZQ-ZnVAvP93Otkn38FhQtG8vvsscWT_2Jd8aQYSPXzM3NrgdVFbhAC8jNzffiOXEnLw083O5g8-Ngrqk5MuewCpzSETOelV]--></g></svg>