<svg xmlns="http://www.w3.org/2000/svg" xmlns:xlink="http://www.w3.org/1999/xlink" contentStyleType="text/css" height="658px" preserveAspectRatio="none" style="width:809px;height:658px;background:#FFFFFF;" version="1.1" viewBox="0 0 809 658" width="809px" zoomAndPan="magnify"><title>IOD(3)_Pj2_T-1</title><defs/><g><text fill="#000000" font-family="Arial" font-size="14" font-weight="bold" lengthAdjust="spacing" textLength="115.1719" x="345.6846" y="32.9951">IOD(3)_Pj2_T-1</text><text fill="#000000" font-family="Arial" font-size="14" font-weight="bold" lengthAdjust="spacing" textLength="275.5088" x="265.5161" y="49.292">US3: View Room Weekly Timetable</text><ellipse cx="484.8081" cy="73.5938" fill="#222222" rx="10" ry="10" style="stroke:#222222;stroke-width:1;"/><rect fill="#FEFEFE" height="47.9375" rx="12.5" ry="12.5" style="stroke:#444444;stroke-width:0.5;" width="301.8418" x="333.8872" y="103.5938"/><text fill="#000000" font-family="Arial" font-size="12" lengthAdjust="spacing" textLength="281.8418" x="343.8872" y="124.7324">Prerequisite: schedule data has been imported</text><text fill="#000000" font-family="Arial" font-size="12" lengthAdjust="spacing" textLength="180.4863" x="343.8872" y="138.7012">(see US1 &#8212; Upload Excel File)</text><rect fill="#FEFEFE" height="33.9688" rx="12.5" ry="12.5" style="stroke:#444444;stroke-width:0.5;" width="289.5488" x="340.0337" y="171.5313"/><text fill="#000000" font-family="Arial" font-size="12" lengthAdjust="spacing" textLength="269.5488" x="350.0337" y="192.6699">Actor navigates to the Room Timetable Page</text><rect fill="#FEFEFE" height="33.9688" rx="12.5" ry="12.5" style="stroke:#444444;stroke-width:0.5;" width="287.6855" x="340.9653" y="225.5"/><text fill="#000000" font-family="Arial" font-size="12" lengthAdjust="spacing" textLength="267.6855" x="350.9653" y="246.6387">Actor selects a semester from the dropdown</text><polygon fill="#FEFEFE" points="386.9065,279.4688,582.7097,279.4688,594.7097,291.4688,582.7097,303.4688,386.9065,303.4688,374.9065,291.4688,386.9065,279.4688" style="stroke:#444444;stroke-width:0.5;"/><text fill="#000000" font-family="Arial" font-size="11" lengthAdjust="spacing" textLength="195.8032" x="386.9065" y="295.2769">Rooms available for that semester?</text><text fill="#000000" font-family="Arial" font-size="11" lengthAdjust="spacing" textLength="19.0083" x="355.8982" y="288.8745">yes</text><text fill="#000000" font-family="Arial" font-size="11" lengthAdjust="spacing" textLength="13.7017" x="594.7097" y="288.8745">no</text><rect fill="#FEFEFE" height="33.9688" rx="12.5" ry="12.5" style="stroke:#444444;stroke-width:0.5;" width="263.0117" x="151.417" y="313.4688"/><text fill="#000000" font-family="Arial" font-size="12" lengthAdjust="spacing" textLength="243.0117" x="161.417" y="334.6074">Actor selects a room from the dropdown</text><rect fill="#FEFEFE" height="33.9688" rx="12.5" ry="12.5" style="stroke:#444444;stroke-width:0.5;" width="196.2031" x="184.8213" y="367.4375"/><text fill="#000000" font-family="Arial" font-size="12" lengthAdjust="spacing" textLength="176.2031" x="194.8213" y="388.5762">Actor clicks "View Timetable"</text><rect fill="#ADD8E6" height="61.9063" rx="12.5" ry="12.5" style="stroke:#444444;stroke-width:0.5;" width="543.8457" x="11" y="421.4063"/><text fill="#000000" font-family="Arial" font-size="12" font-weight="bold" lengthAdjust="spacing" textLength="19.2773" x="21" y="442.5449">ref</text><text fill="#000000" font-family="Arial" font-size="12" lengthAdjust="spacing" textLength="206.5957" x="44.0918" y="442.5449">UC_ROOM &#8212; View Room Schedule</text><text fill="#000000" font-family="Arial" font-size="12" lengthAdjust="spacing" textLength="325.1074" x="21" y="456.5137">&#9472;&#9472;&#9472;&#9472;&#9472;&#9472;&#9472;&#9472;&#9472;&#9472;&#9472;&#9472;&#9472;&#9472;&#9472;&#9472;&#9472;&#9472;&#9472;&#9472;&#9472;&#9472;&#9472;&#9472;&#9472;&#9472;&#9472;&#9472;&#9472;&#9472;&#9472;&#9472;&#9472;&#9472;&#9472;&#9472;&#9472;&#9472;&#9472;&#9472;&#9472;&#9472;&#9472;&#9472;&#9472;</text><text fill="#000000" font-family="Arial" font-size="12" lengthAdjust="spacing" textLength="523.8457" x="21" y="470.4824">System builds a weekly grid of scheduled classes\nfor the selected room and semester</text><rect fill="#FEFEFE" height="47.9375" rx="12.5" ry="12.5" style="stroke:#444444;stroke-width:0.5;" width="275.3457" x="145.25" y="503.3125"/><text fill="#000000" font-family="Arial" font-size="12" lengthAdjust="spacing" textLength="255.3457" x="155.25" y="524.4512">System displays the weekly timetable grid</text><text fill="#000000" font-family="Arial" font-size="12" lengthAdjust="spacing" textLength="225.3633" x="155.25" y="538.4199">(days as columns, time slots as rows)</text><rect fill="#FEFEFE" height="33.9688" rx="12.5" ry="12.5" style="stroke:#444444;stroke-width:0.5;" width="321.2246" x="122.3105" y="571.25"/><text fill="#000000" font-family="Arial" font-size="12" lengthAdjust="spacing" textLength="301.2246" x="132.3105" y="592.3887">Actor reviews room occupancy and available slots</text><rect fill="#FEFEFE" height="33.9688" rx="12.5" ry="12.5" style="stroke:#444444;stroke-width:0.5;" width="211.8418" x="580.7725" y="313.4688"/><text fill="#000000" font-family="Arial" font-size="12" lengthAdjust="spacing" textLength="191.8418" x="590.7725" y="334.6074">System shows empty dropdown</text><rect fill="#FEFEFE" height="33.9688" rx="12.5" ry="12.5" style="stroke:#444444;stroke-width:0.5;" width="223.6953" x="574.8457" y="367.4375"/><text fill="#000000" font-family="Arial" font-size="12" lengthAdjust="spacing" textLength="203.6953" x="584.8457" y="388.5762">Actor selects a different semester</text><ellipse cx="686.6934" cy="432.4063" fill="none" rx="11" ry="11" style="stroke:#222222;stroke-width:1;"/><ellipse cx="686.6934" cy="432.4063" fill="#222222" rx="6" ry="6" style="stroke:#222222;stroke-width:1;"/><ellipse cx="484.8081" cy="636.2188" fill="none" rx="11" ry="11" style="stroke:#222222;stroke-width:1;"/><ellipse cx="484.8081" cy="636.2188" fill="#222222" rx="6" ry="6" style="stroke:#222222;stroke-width:1;"/><line style="stroke:#444444;stroke-width:1;" x1="484.8081" x2="484.8081" y1="83.5938" y2="103.5938"/><polygon fill="#444444" points="480.8081,93.5938,484.8081,103.5938,488.8081,93.5938,484.8081,97.5938" style="stroke:#444444;stroke-width:1;"/><line style="stroke:#444444;stroke-width:1;" x1="484.8081" x2="484.8081" y1="151.5313" y2="171.5313"/><polygon fill="#444444" points="480.8081,161.5313,484.8081,171.5313,488.8081,161.5313,484.8081,165.5313" style="stroke:#444444;stroke-width:1;"/><line style="stroke:#444444;stroke-width:1;" x1="484.8081" x2="484.8081" y1="205.5" y2="225.5"/><polygon fill="#444444" points="480.8081,215.5,484.8081,225.5,488.8081,215.5,484.8081,219.5" style="stroke:#444444;stroke-width:1;"/><line style="stroke:#444444;stroke-width:1;" x1="282.9229" x2="282.9229" y1="347.4375" y2="367.4375"/><polygon fill="#444444" points="278.9229,357.4375,282.9229,367.4375,286.9229,357.4375,282.9229,361.4375" style="stroke:#444444;stroke-width:1;"/><line style="stroke:#444444;stroke-width:1;" x1="282.9229" x2="282.9229" y1="401.4063" y2="421.4063"/><polygon fill="#444444" points="278.9229,411.4063,282.9229,421.4063,286.9229,411.4063,282.9229,415.4063" style="stroke:#444444;stroke-width:1;"/><line style="stroke:#444444;stroke-width:1;" x1="282.9229" x2="282.9229" y1="483.3125" y2="503.3125"/><polygon fill="#444444" points="278.9229,493.3125,282.9229,503.3125,286.9229,493.3125,282.9229,497.3125" style="stroke:#444444;stroke-width:1;"/><line style="stroke:#444444;stroke-width:1;" x1="282.9229" x2="282.9229" y1="551.25" y2="571.25"/><polygon fill="#444444" points="278.9229,561.25,282.9229,571.25,286.9229,561.25,282.9229,565.25" style="stroke:#444444;stroke-width:1;"/><line style="stroke:#444444;stroke-width:1;" x1="686.6934" x2="686.6934" y1="347.4375" y2="367.4375"/><polygon fill="#444444" points="682.6934,357.4375,686.6934,367.4375,690.6934,357.4375,686.6934,361.4375" style="stroke:#444444;stroke-width:1;"/><line style="stroke:#444444;stroke-width:1;" x1="686.6934" x2="686.6934" y1="401.4063" y2="421.4063"/><polygon fill="#444444" points="682.6934,411.4063,686.6934,421.4063,690.6934,411.4063,686.6934,415.4063" style="stroke:#444444;stroke-width:1;"/><line style="stroke:#444444;stroke-width:1;" x1="374.9065" x2="282.9229" y1="291.4688" y2="291.4688"/><line style="stroke:#444444;stroke-width:1;" x1="282.9229" x2="282.9229" y1="291.4688" y2="313.4688"/><polygon fill="#444444" points="278.9229,303.4688,282.9229,313.4688,286.9229,303.4688,282.9229,307.4688" style="stroke:#444444;stroke-width:1;"/><line style="stroke:#444444;stroke-width:1;" x1="594.7097" x2="686.6934" y1="291.4688" y2="291.4688"/><line style="stroke:#444444;stroke-width:1;" x1="686.6934" x2="686.6934" y1="291.4688" y2="313.4688"/><polygon fill="#444444" points="682.6934,303.4688,686.6934,313.4688,690.6934,303.4688,686.6934,307.4688" style="stroke:#444444;stroke-width:1;"/><line style="stroke:#444444;stroke-width:1;" x1="282.9229" x2="282.9229" y1="605.2188" y2="610.2188"/><line style="stroke:#444444;stroke-width:1;" x1="282.9229" x2="484.8081" y1="610.2188" y2="610.2188"/><line style="stroke:#444444;stroke-width:1;" x1="484.8081" x2="484.8081" y1="610.2188" y2="625.2188"/><polygon fill="#444444" points="480.8081,615.2188,484.8081,625.2188,488.8081,615.2188,484.8081,619.2188" style="stroke:#444444;stroke-width:1;"/><line style="stroke:#444444;stroke-width:1;" x1="484.8081" x2="484.8081" y1="259.4688" y2="279.4688"/><polygon fill="#444444" points="480.8081,269.4688,484.8081,279.4688,488.8081,269.4688,484.8081,273.4688" style="stroke:#444444;stroke-width:1;"/><!--SRC=[pLFBRjj03BphAuZaKCje3ssAed0EXUi7q4DZ8uxRYm5ZhQNihLUxwfAogri-8b-OBmab2xAGfEYrAnq4SJYS7P9luDjitBkAr_DV7zPtxzx3u_q3B0a3BDY74gu6yCFW4Mwzp-0dujwMS6SoPBMn64MqDovNGMKmnbGLbgVUyOtA48R1ADk93nCs1yFbLvNijy4NJe-yzG4kfvFgUGtfWyRGe3xMfuiAmH__5hpnZ2yBoHcDdgEwHORrYI8sRF6PCIktNFpB35Q1esWm3nZmTs78C0w0aXtgGlYqOWKxHR11T62ot0T6lN8zGeJbeh4-jrvfcFn9qCBKM8olXL4i4NrE7SnMCHAm1zxXIKSh0EPgYsSqeSM42PHyPKWiBKs3uAj47Nok_T49sgJGgtW4U536raIffFDESPlv9QxI7FHAf3YA05xK29MKL_XRQ69DiYUug0riDLzSLsoNm_7uy-JJeDyFcFRxi1ojRsUpxxKXPyCNZP6IyFXm_p-yecHHYZyPR0fZTUN3yJGLss0q-BHjlfRxAoAabJkPYurt4gcjKqwtRjUU31fcRIYtggGwfs7djkLL7PaWNG5aiX9lYypHsne1P3tNlsLJAExq8k11NALJPPyaHQvSKjOQpaDGPuiKj8JGSpxkYAATC09cEPUlzVey5jgagIo3uyxb08Xz7g6JOBKqFdy2]--></g></svg>