<?plantuml 1.2026.2?><svg xmlns="http://www.w3.org/2000/svg" xmlns:xlink="http://www.w3.org/1999/xlink" contentStyleType="text/css" data-diagram-type="ACTIVITY" height="797px" preserveAspectRatio="none" style="width:1384px;height:797px;background:#FFFFFF;" version="1.1" viewBox="0 0 1384 797" width="1384px" zoomAndPan="magnify"><title>IOD(10)_Pj2_T-1
US10: View Detailed Class Information</title><defs/><g><rect fill="#FFFFCC" height="26.6406" rx="2.5" ry="2.5" style="stroke:#FFDD88;stroke-width:3;" width="1373.8438" x="5" y="5"/><text fill="#000000" font-family="monospace" font-size="10" lengthAdjust="spacing" textLength="535.8252" x="10" y="20">This&#160;syntax&#160;is&#160;deprecated,&#160;you&#160;must&#160;add&#160;&lt;&lt;#ADD8E6&gt;&gt;&#160;at&#160;the&#160;end&#160;of&#160;the&#160;line,&#160;after&#160;the&#160;';'</text><g class="title" data-source-line="11"><text fill="#000000" font-family="Arial" font-size="14" font-weight="bold" lengthAdjust="spacing" textLength="124.9131" x="620.9653" y="69.6357">IOD(10)_Pj2_T-1</text><text fill="#000000" font-family="Arial" font-size="14" font-weight="bold" lengthAdjust="spacing" textLength="304.5479" x="531.1479" y="85.9326">US10: View Detailed Class Information</text></g><path d="M799.9807,100.2344 L799.9807,125.3672 L944.9568,125.3672 L944.9568,110.2344 L934.9568,100.2344 L799.9807,100.2344" fill="#FFFFCC" style="stroke:#AAAAAA;stroke-width:0.5;"/><path d="M934.9568,100.2344 L934.9568,110.2344 L944.9568,110.2344 L934.9568,100.2344" fill="#FFFFCC" style="stroke:#AAAAAA;stroke-width:0.5;"/><text fill="#000000" font-family="Arial" font-size="13" lengthAdjust="spacing" textLength="123.9761" x="805.9807" y="117.3013">Author: MayfairMI6</text><ellipse cx="872.4688" cy="155.3672" fill="#222222" rx="10" ry="10" style="stroke:#222222;stroke-width:1;"/><rect fill="#FEFEFE" height="47.9375" rx="12.5" ry="12.5" style="stroke:#444444;stroke-width:0.5;" width="301.8418" x="721.5479" y="185.3672"/><text fill="#000000" font-family="Arial" font-size="12" lengthAdjust="spacing" textLength="281.8418" x="731.5479" y="206.5059">Prerequisite: schedule data has been imported</text><text fill="#000000" font-family="Arial" font-size="12" lengthAdjust="spacing" textLength="180.4863" x="731.5479" y="220.4746">(see US1 &#8212; Upload Excel File)</text><rect fill="#FEFEFE" height="33.9688" rx="12.5" ry="12.5" style="stroke:#444444;stroke-width:0.5;" width="328.9824" x="707.9775" y="253.3047"/><text fill="#000000" font-family="Arial" font-size="12" lengthAdjust="spacing" textLength="308.9824" x="717.9775" y="274.4434">Actor navigates to the Search &amp; Filter Classes Page</text><rect fill="#FEFEFE" height="47.9375" rx="12.5" ry="12.5" style="stroke:#444444;stroke-width:0.5;" width="334.5078" x="705.2148" y="307.2734"/><text fill="#000000" font-family="Arial" font-size="12" lengthAdjust="spacing" textLength="314.5078" x="715.2148" y="328.4121">Actor enters search criteria to locate a specific class</text><text fill="#000000" font-family="Arial" font-size="12" lengthAdjust="spacing" textLength="279.5859" x="715.2148" y="342.3809">(e.g., course code, instructor name, semester)</text><rect fill="#FEFEFE" height="61.9063" rx="12.5" ry="12.5" style="stroke:#444444;stroke-width:0.5;" width="431.8027" x="656.5674" y="375.2109"/><text fill="#000000" font-family="Arial" font-size="12" font-weight="bold" lengthAdjust="spacing" textLength="19.2773" x="666.5674" y="396.3496">ref</text><text fill="#000000" font-family="Arial" font-size="12" lengthAdjust="spacing" textLength="243.2461" x="689.6592" y="396.3496">UC_SEARCH &#8212; Search and Filter Classes</text><text fill="#000000" font-family="Arial" font-size="12" lengthAdjust="spacing" textLength="411.8027" x="666.5674" y="410.3184">&#9472;&#9472;&#9472;&#9472;&#9472;&#9472;&#9472;&#9472;&#9472;&#9472;&#9472;&#9472;&#9472;&#9472;&#9472;&#9472;&#9472;&#9472;&#9472;&#9472;&#9472;&#9472;&#9472;&#9472;&#9472;&#9472;&#9472;&#9472;&#9472;&#9472;&#9472;&#9472;&#9472;&#9472;&#9472;&#9472;&#9472;&#9472;&#9472;&#9472;&#9472;&#9472;&#9472;&#9472;&#9472;&#9472;&#9472;&#9472;&#9472;&#9472;&#9472;&#9472;&#9472;&#9472;&#9472;&#9472;&#9472;</text><text fill="#000000" font-family="Arial" font-size="12" lengthAdjust="spacing" textLength="357.2109" x="666.5674" y="424.2871">System queries the database and returns matching classes</text><polygon fill="#FEFEFE" points="831.9304,457.1172,913.0071,457.1172,925.0071,469.1172,913.0071,481.1172,831.9304,481.1172,819.9304,469.1172,831.9304,457.1172" style="stroke:#444444;stroke-width:0.5;"/><text fill="#000000" font-family="Arial" font-size="11" lengthAdjust="spacing" textLength="81.0767" x="831.9304" y="472.9253">Results found?</text><text fill="#000000" font-family="Arial" font-size="11" lengthAdjust="spacing" textLength="19.0083" x="800.9221" y="466.5229">yes</text><text fill="#000000" font-family="Arial" font-size="11" lengthAdjust="spacing" textLength="13.7017" x="925.0071" y="466.5229">no</text><rect fill="#FEFEFE" height="33.9688" rx="12.5" ry="12.5" style="stroke:#444444;stroke-width:0.5;" width="261.8047" x="399.6055" y="491.1172"/><text fill="#000000" font-family="Arial" font-size="12" lengthAdjust="spacing" textLength="241.8047" x="409.6055" y="512.2559">System displays list of matching classes</text><rect fill="#FEFEFE" height="33.9688" rx="12.5" ry="12.5" style="stroke:#444444;stroke-width:0.5;" width="291.2246" x="384.8955" y="545.0859"/><text fill="#000000" font-family="Arial" font-size="12" lengthAdjust="spacing" textLength="271.2246" x="394.8955" y="566.2246">Actor selects a specific class from the results</text><rect fill="#FEFEFE" height="61.9063" rx="12.5" ry="12.5" style="stroke:#444444;stroke-width:0.5;" width="1039.0156" x="11" y="599.0547"/><text fill="#000000" font-family="Arial" font-size="12" font-weight="bold" lengthAdjust="spacing" textLength="19.2773" x="21" y="620.1934">ref</text><text fill="#000000" font-family="Arial" font-size="12" lengthAdjust="spacing" textLength="202.5352" x="44.0918" y="620.1934">UC_DETAILS &#8212; View Class Details</text><text fill="#000000" font-family="Arial" font-size="12" lengthAdjust="spacing" textLength="440.7012" x="21" y="634.1621">&#9472;&#9472;&#9472;&#9472;&#9472;&#9472;&#9472;&#9472;&#9472;&#9472;&#9472;&#9472;&#9472;&#9472;&#9472;&#9472;&#9472;&#9472;&#9472;&#9472;&#9472;&#9472;&#9472;&#9472;&#9472;&#9472;&#9472;&#9472;&#9472;&#9472;&#9472;&#9472;&#9472;&#9472;&#9472;&#9472;&#9472;&#9472;&#9472;&#9472;&#9472;&#9472;&#9472;&#9472;&#9472;&#9472;&#9472;&#9472;&#9472;&#9472;&#9472;&#9472;&#9472;&#9472;&#9472;&#9472;&#9472;&#9472;&#9472;&#9472;&#9472;</text><text fill="#000000" font-family="Arial" font-size="12" lengthAdjust="spacing" textLength="1019.0156" x="21" y="648.1309">System retrieves and displays all attributes of the class:\nCRN, course code, title, section, credits, instructor,\nenrollment, room, meeting days, meeting times, semester</text><rect fill="#FEFEFE" height="33.9688" rx="12.5" ry="12.5" style="stroke:#444444;stroke-width:0.5;" width="268.5547" x="396.2305" y="680.9609"/><text fill="#000000" font-family="Arial" font-size="12" lengthAdjust="spacing" textLength="248.5547" x="406.2305" y="702.0996">Actor reviews complete class information</text><rect fill="#FEFEFE" height="33.9688" rx="12.5" ry="12.5" style="stroke:#444444;stroke-width:0.5;" width="288.8281" x="1070.0156" y="491.1172"/><text fill="#000000" font-family="Arial" font-size="12" lengthAdjust="spacing" textLength="268.8281" x="1080.0156" y="512.2559">System displays "No results found" message</text><rect fill="#FEFEFE" height="33.9688" rx="12.5" ry="12.5" style="stroke:#444444;stroke-width:0.5;" width="264.1484" x="1082.3555" y="545.0859"/><text fill="#000000" font-family="Arial" font-size="12" lengthAdjust="spacing" textLength="244.1484" x="1092.3555" y="566.2246">Actor refines criteria and searches again</text><polygon fill="#FEFEFE" points="872.4688,720.9297,884.4688,732.9297,872.4688,744.9297,860.4688,732.9297,872.4688,720.9297" style="stroke:#444444;stroke-width:0.5;"/><ellipse cx="872.4688" cy="775.9297" fill="none" rx="11" ry="11" style="stroke:#222222;stroke-width:1;"/><ellipse cx="872.4688" cy="775.9297" fill="#222222" rx="6" ry="6" style="stroke:#222222;stroke-width:1;"/><line style="stroke:#444444;stroke-width:1;" x1="872.4688" x2="872.4688" y1="125.3672" y2="145.3672"/><polygon fill="#444444" points="868.4688,135.3672,872.4688,145.3672,876.4688,135.3672,872.4688,139.3672" style="stroke:#444444;stroke-width:1;"/><line style="stroke:#444444;stroke-width:1;" x1="872.4688" x2="872.4688" y1="165.3672" y2="185.3672"/><polygon fill="#444444" points="868.4688,175.3672,872.4688,185.3672,876.4688,175.3672,872.4688,179.3672" style="stroke:#444444;stroke-width:1;"/><line style="stroke:#444444;stroke-width:1;" x1="872.4688" x2="872.4688" y1="233.3047" y2="253.3047"/><polygon fill="#444444" points="868.4688,243.3047,872.4688,253.3047,876.4688,243.3047,872.4688,247.3047" style="stroke:#444444;stroke-width:1;"/><line style="stroke:#444444;stroke-width:1;" x1="872.4688" x2="872.4688" y1="287.2734" y2="307.2734"/><polygon fill="#444444" points="868.4688,297.2734,872.4688,307.2734,876.4688,297.2734,872.4688,301.2734" style="stroke:#444444;stroke-width:1;"/><line style="stroke:#444444;stroke-width:1;" x1="872.4688" x2="872.4688" y1="355.2109" y2="375.2109"/><polygon fill="#444444" points="868.4688,365.2109,872.4688,375.2109,876.4688,365.2109,872.4688,369.2109" style="stroke:#444444;stroke-width:1;"/><line style="stroke:#444444;stroke-width:1;" x1="530.5078" x2="530.5078" y1="525.0859" y2="545.0859"/><polygon fill="#444444" points="526.5078,535.0859,530.5078,545.0859,534.5078,535.0859,530.5078,539.0859" style="stroke:#444444;stroke-width:1;"/><line style="stroke:#444444;stroke-width:1;" x1="530.5078" x2="530.5078" y1="579.0547" y2="599.0547"/><polygon fill="#444444" points="526.5078,589.0547,530.5078,599.0547,534.5078,589.0547,530.5078,593.0547" style="stroke:#444444;stroke-width:1;"/><line style="stroke:#444444;stroke-width:1;" x1="530.5078" x2="530.5078" y1="660.9609" y2="680.9609"/><polygon fill="#444444" points="526.5078,670.9609,530.5078,680.9609,534.5078,670.9609,530.5078,674.9609" style="stroke:#444444;stroke-width:1;"/><line style="stroke:#444444;stroke-width:1;" x1="1214.4297" x2="1214.4297" y1="525.0859" y2="545.0859"/><polygon fill="#444444" points="1210.4297,535.0859,1214.4297,545.0859,1218.4297,535.0859,1214.4297,539.0859" style="stroke:#444444;stroke-width:1;"/><line style="stroke:#444444;stroke-width:1;" x1="819.9304" x2="530.5078" y1="469.1172" y2="469.1172"/><line style="stroke:#444444;stroke-width:1;" x1="530.5078" x2="530.5078" y1="469.1172" y2="491.1172"/><polygon fill="#444444" points="526.5078,481.1172,530.5078,491.1172,534.5078,481.1172,530.5078,485.1172" style="stroke:#444444;stroke-width:1;"/><line style="stroke:#444444;stroke-width:1;" x1="925.0071" x2="1214.4297" y1="469.1172" y2="469.1172"/><line style="stroke:#444444;stroke-width:1;" x1="1214.4297" x2="1214.4297" y1="469.1172" y2="491.1172"/><polygon fill="#444444" points="1210.4297,481.1172,1214.4297,491.1172,1218.4297,481.1172,1214.4297,485.1172" style="stroke:#444444;stroke-width:1;"/><line style="stroke:#444444;stroke-width:1;" x1="530.5078" x2="530.5078" y1="714.9297" y2="732.9297"/><line style="stroke:#444444;stroke-width:1;" x1="530.5078" x2="860.4688" y1="732.9297" y2="732.9297"/><polygon fill="#444444" points="850.4688,728.9297,860.4688,732.9297,850.4688,736.9297,854.4688,732.9297" style="stroke:#444444;stroke-width:1;"/><line style="stroke:#444444;stroke-width:1;" x1="1214.4297" x2="1214.4297" y1="579.0547" y2="732.9297"/><line style="stroke:#444444;stroke-width:1;" x1="1214.4297" x2="884.4688" y1="732.9297" y2="732.9297"/><polygon fill="#444444" points="894.4688,728.9297,884.4688,732.9297,894.4688,736.9297,890.4688,732.9297" style="stroke:#444444;stroke-width:1;"/><line style="stroke:#444444;stroke-width:1;" x1="872.4688" x2="872.4688" y1="437.1172" y2="457.1172"/><polygon fill="#444444" points="868.4688,447.1172,872.4688,457.1172,876.4688,447.1172,872.4688,451.1172" style="stroke:#444444;stroke-width:1;"/><line style="stroke:#444444;stroke-width:1;" x1="872.4688" x2="872.4688" y1="744.9297" y2="764.9297"/><polygon fill="#444444" points="868.4688,754.9297,872.4688,764.9297,876.4688,754.9297,872.4688,758.9297" style="stroke:#444444;stroke-width:1;"/><?plantuml-src rLJDJjj04BxxAKOWbIHA4LGLgjn3vJf1ZLHIHA2dI6Ynn_QMzMwOMOVcnaFmX3n9P-qKqZILUcLZoOhdxzllcva3c7mRzOwF-jVdFzvTNxuzXgU7HxXY99XvHoiuFehXkyPx6A5Nsc0EgL7CCB65erfvxMnq04dZAqSndAbLeJITJKwYY6-rNIXIjOGMgZ7-r5a_LJL2GbgP3NkIURtKVlLPPRSbkSRcgJEEOFzq77wxF1tbI6klz-tPz29oz_yoJft7lml9ITDjhyqYINkYo6jlS9kqkRsQ_GzHaPMqGBgiVBoRCw_8Hr5yJaXursZM7cFWhCAyaRAvyWegnN23Q47N2qSUyxdjCI88X4wyXN4gX_7F30sS2fB-HyaepCarh5hgKdbay0vyXJ13HLa5RuAZ5z5Rp68-LoM-XA4L6mDtpXa9Af4mv30katIWW1UOwK9da8KC0WaFoyCXPAuXHddbE0HjsLEp1bBB1yOQMN85XFl9QFHXV18F1eJ5O01NwVLid5oaNzfBhN4gcsyXZPuU7rxB4yrMSjiQxXgXBsXGTPBUAA4eN8tGDsGPf5soIjko8nDPwD45z2wGPOmOYj2vd_eXta9lXToF8e1udJtNl31gnM0qUt35hcpYtIdBQ32JbDi2Ga6kRW5ILxGDsg7HQ7oPJBxEMf7Qzk-wlXi2bfXNfCyVMW6i-HHHHAsbw1KaUcPN6GFAY-cc2VCaF0UsMlBYkKqlfblDtowEqF9PM0LY9Corvysf6CujMdB6r39mGo3dwY7KY3w8bqlHbtzUo-Iy3D2cf8HBqO6bRBqmwDUOfCpp7X9lD0AiPrr_L-FiJTrlsRjUsvEwpErAs2XJQ2iNVzu6WPrkGmIgIgMb3jfS5s6jkSKl?></g></svg>