<?plantuml 1.2026.2?><svg xmlns="http://www.w3.org/2000/svg" xmlns:xlink="http://www.w3.org/1999/xlink" contentStyleType="text/css" data-diagram-type="SEQUENCE" height="2042px" preserveAspectRatio="none" style="width:1830px;height:2042px;background:#FFFFFF;" version="1.1" viewBox="0 0 1830 2042" width="1830px" zoomAndPan="magnify"><title>Sequence(2)_MOSS_Pj2_T-01
UC2: Search and Filter Classes</title><defs/><g><text fill="#000000" font-family="Arial" font-size="14" font-weight="bold" lengthAdjust="spacing" textLength="226.0029" x="798.0737" y="27.9951">Sequence(2)_MOSS_Pj2_T-01</text><text fill="#000000" font-family="Arial" font-size="14" font-weight="bold" lengthAdjust="spacing" textLength="241.377" x="790.3867" y="44.292">UC2: Search and Filter Classes</text><g><title>SearchPage</title><rect fill="#FFFFFF" height="404.7266" style="stroke:#181818;stroke-width:1;" width="10" x="458.4116" y="225.4531"/></g><g><title>SearchPage</title><rect fill="#FFFFFF" height="1106.3906" style="stroke:#181818;stroke-width:1;" width="10" x="458.4116" y="717.5781"/></g><g><title>SearchPage</title><rect fill="#FFFFFF" height="29.1328" style="stroke:#181818;stroke-width:1;" width="10" x="458.4116" y="1877.2344"/></g><g><title>SearchController</title><rect fill="#FFFFFF" height="346.4609" style="stroke:#181818;stroke-width:1;" width="10" x="887.9214" y="254.5859"/></g><g><title>SearchController</title><rect fill="#FFFFFF" height="973.5938" style="stroke:#181818;stroke-width:1;" width="10" x="887.9214" y="790.9766"/></g><g><title>DataService</title><rect fill="#FFFFFF" height="129.5313" style="stroke:#181818;stroke-width:1;" width="10" x="1330.5791" y="283.7188"/></g><g><title>DataService</title><rect fill="#FFFFFF" height="129.5313" style="stroke:#181818;stroke-width:1;" width="10" x="1330.5791" y="442.3828"/></g><g><title>DataService</title><rect fill="#FFFFFF" height="517.8594" style="stroke:#181818;stroke-width:1;" width="10" x="1330.5791" y="959.4453"/></g><g><title>DataService</title><rect fill="#FFFFFF" height="140.5313" style="stroke:#181818;stroke-width:1;" width="10" x="1335.5791" y="996.5781"/></g><g><title>DataService</title><rect fill="#FFFFFF" height="101.5313" style="stroke:#181818;stroke-width:1;" width="10" x="1330.5791" y="1506.4375"/></g><g><title>ScheduleDatabase</title><rect fill="#FFFFFF" height="29.1328" style="stroke:#181818;stroke-width:1;" width="10" x="1708.5015" y="312.8516"/></g><g><title>ScheduleDatabase</title><rect fill="#FFFFFF" height="29.1328" style="stroke:#181818;stroke-width:1;" width="10" x="1708.5015" y="471.5156"/></g><g><title>ScheduleDatabase</title><rect fill="#FFFFFF" height="29.1328" style="stroke:#181818;stroke-width:1;" width="10" x="1708.5015" y="1030.7109"/></g><rect fill="none" height="1080.2578" style="stroke:#000000;stroke-width:1.5;" width="1803.1504" x="10" y="848.1094"/><rect fill="none" height="101.3984" style="stroke:#000000;stroke-width:1.5;" width="440.1978" x="1218.314" y="1159.1094"/><rect fill="none" height="59.2656" style="stroke:#000000;stroke-width:1.5;" width="495.1875" x="1218.314" y="1274.5078"/><rect fill="none" height="59.2656" style="stroke:#000000;stroke-width:1.5;" width="385.4238" x="1218.314" y="1347.7734"/><rect fill="none" height="298.3984" style="stroke:#000000;stroke-width:1.5;" width="1025.1592" x="20" y="1622.9688"/><rect fill="none" height="75.3984" style="stroke:#000000;stroke-width:1.5;" width="493.4497" x="30" y="1838.9688"/><g class="participant-lifeline" data-entity-uid="part1" data-qualified-name="SCM" id="part1-lifeline"><g><title>Scheduling Committee</title><rect fill="#000000" fill-opacity="0.00000" height="1794.1797" width="8" x="118.7651" y="151.1875"/><line style="stroke:#888888;stroke-width:0.5;stroke-dasharray:5,5;" x1="122" x2="122" y1="151.1875" y2="1945.3672"/></g></g><g class="participant-lifeline" data-entity-uid="part2" data-qualified-name="SearchPage" id="part2-lifeline"><g><title>SearchPage</title><rect fill="#000000" fill-opacity="0.00000" height="1794.1797" width="8" x="459.4116" y="151.1875"/><line style="stroke:#888888;stroke-width:0.5;stroke-dasharray:5,5;" x1="463.3735" x2="463.3735" y1="151.1875" y2="1945.3672"/></g></g><g class="participant-lifeline" data-entity-uid="part3" data-qualified-name="SearchCtrl" id="part3-lifeline"><g><title>SearchController</title><rect fill="#000000" fill-opacity="0.00000" height="1794.1797" width="8" x="888.9214" y="151.1875"/><line style="stroke:#888888;stroke-width:0.5;stroke-dasharray:5,5;" x1="892.6836" x2="892.6836" y1="151.1875" y2="1945.3672"/></g></g><g class="participant-lifeline" data-entity-uid="part4" data-qualified-name="DataSvc" id="part4-lifeline"><g><title>DataService</title><rect fill="#000000" fill-opacity="0.00000" height="1794.1797" width="8" x="1331.5791" y="151.1875"/><line style="stroke:#888888;stroke-width:0.5;stroke-dasharray:5,5;" x1="1335.314" x2="1335.314" y1="151.1875" y2="1945.3672"/></g></g><g class="participant-lifeline" data-entity-uid="part5" data-qualified-name="DB" id="part5-lifeline"><g><title>ScheduleDatabase</title><rect fill="#000000" fill-opacity="0.00000" height="1794.1797" width="8" x="1709.5015" y="151.1875"/><line style="stroke:#888888;stroke-width:0.5;stroke-dasharray:5,5;" x1="1712.8525" x2="1712.8525" y1="151.1875" y2="1945.3672"/></g></g><g class="participant participant-head" data-entity-uid="part1" data-qualified-name="SCM" id="part1-head"><text fill="#000000" font-family="Arial" font-size="14" lengthAdjust="spacing" textLength="159.5303" x="40" y="131.5889">Scheduling Committee</text><text fill="#000000" font-family="Arial" font-size="14" lengthAdjust="spacing" textLength="57.5859" x="90.9722" y="147.8857">Member</text><ellipse cx="122.7651" cy="67.0938" fill="#E2E2F0" rx="8" ry="8" style="stroke:#181818;stroke-width:0.5;"/><path d="M122.7651,75.0938 L122.7651,102.0938 M109.7651,83.0938 L135.7651,83.0938 M122.7651,102.0938 L109.7651,117.0938 M122.7651,102.0938 L135.7651,117.0938" fill="none" style="stroke:#181818;stroke-width:0.5;"/></g><g class="participant participant-tail" data-entity-uid="part1" data-qualified-name="SCM" id="part1-tail"><text fill="#000000" font-family="Arial" font-size="14" lengthAdjust="spacing" textLength="159.5303" x="40" y="1957.3623">Scheduling Committee</text><text fill="#000000" font-family="Arial" font-size="14" lengthAdjust="spacing" textLength="57.5859" x="90.9722" y="1973.6592">Member</text><ellipse cx="122.7651" cy="1985.4609" fill="#E2E2F0" rx="8" ry="8" style="stroke:#181818;stroke-width:0.5;"/><path d="M122.7651,1993.4609 L122.7651,2020.4609 M109.7651,2001.4609 L135.7651,2001.4609 M122.7651,2020.4609 L109.7651,2035.4609 M122.7651,2020.4609 L135.7651,2035.4609" fill="none" style="stroke:#181818;stroke-width:0.5;"/></g><g class="participant participant-head" data-entity-uid="part2" data-qualified-name="SearchPage" id="part2-head"><text fill="#000000" font-family="Arial" font-size="14" lengthAdjust="spacing" textLength="82.9268" x="418.9482" y="131.5889">SearchPage</text><text fill="#000000" font-family="Arial" font-size="14" lengthAdjust="spacing" textLength="94.0762" x="413.3735" y="147.8857">(search.html)</text><path d="M442.9116,90.5938 L442.9116,114.5938 M442.9116,102.5938 L459.9116,102.5938" fill="none" style="stroke:#181818;stroke-width:0.5;"/><ellipse cx="471.9116" cy="102.5938" fill="#E2E2F0" rx="12" ry="12" style="stroke:#181818;stroke-width:0.5;"/></g><g class="participant participant-tail" data-entity-uid="part2" data-qualified-name="SearchPage" id="part2-tail"><text fill="#000000" font-family="Arial" font-size="14" lengthAdjust="spacing" textLength="82.9268" x="418.9482" y="1957.3623">SearchPage</text><text fill="#000000" font-family="Arial" font-size="14" lengthAdjust="spacing" textLength="94.0762" x="413.3735" y="1973.6592">(search.html)</text><path d="M442.9116,1980.9609 L442.9116,2004.9609 M442.9116,1992.9609 L459.9116,1992.9609" fill="none" style="stroke:#181818;stroke-width:0.5;"/><ellipse cx="471.9116" cy="1992.9609" fill="#E2E2F0" rx="12" ry="12" style="stroke:#181818;stroke-width:0.5;"/></g><g class="participant participant-head" data-entity-uid="part3" data-qualified-name="SearchCtrl" id="part3-head"><text fill="#000000" font-family="Arial" font-size="14" lengthAdjust="spacing" textLength="117.5781" x="831.1323" y="131.5889">SearchController</text><text fill="#000000" font-family="Arial" font-size="14" lengthAdjust="spacing" textLength="278.4756" x="750.6836" y="147.8857">(schedule_routes.search_classes_route)</text><ellipse cx="892.9214" cy="102.5938" fill="#E2E2F0" rx="12" ry="12" style="stroke:#181818;stroke-width:0.5;"/><polygon fill="#181818" points="888.9214,90.5938,894.9214,85.5938,892.9214,90.5938,894.9214,95.5938,888.9214,90.5938" style="stroke:#181818;stroke-width:1;"/></g><g class="participant participant-tail" data-entity-uid="part3" data-qualified-name="SearchCtrl" id="part3-tail"><text fill="#000000" font-family="Arial" font-size="14" lengthAdjust="spacing" textLength="117.5781" x="831.1323" y="1957.3623">SearchController</text><text fill="#000000" font-family="Arial" font-size="14" lengthAdjust="spacing" textLength="278.4756" x="750.6836" y="1973.6592">(schedule_routes.search_classes_route)</text><ellipse cx="892.9214" cy="1992.9609" fill="#E2E2F0" rx="12" ry="12" style="stroke:#181818;stroke-width:0.5;"/><polygon fill="#181818" points="888.9214,1980.9609,894.9214,1975.9609,892.9214,1980.9609,894.9214,1985.9609,888.9214,1980.9609" style="stroke:#181818;stroke-width:1;"/></g><g class="participant participant-head" data-entity-uid="part4" data-qualified-name="DataSvc" id="part4-head"><text fill="#000000" font-family="Arial" font-size="14" lengthAdjust="spacing" textLength="85.1689" x="1289.9946" y="131.5889">DataService</text><text fill="#000000" font-family="Arial" font-size="14" lengthAdjust="spacing" textLength="208.5303" x="1228.314" y="147.8857">(data_service.search_classes)</text><ellipse cx="1335.5791" cy="102.5938" fill="#E2E2F0" rx="12" ry="12" style="stroke:#181818;stroke-width:0.5;"/><polygon fill="#181818" points="1331.5791,90.5938,1337.5791,85.5938,1335.5791,90.5938,1337.5791,95.5938,1331.5791,90.5938" style="stroke:#181818;stroke-width:1;"/></g><g class="participant participant-tail" data-entity-uid="part4" data-qualified-name="DataSvc" id="part4-tail"><text fill="#000000" font-family="Arial" font-size="14" lengthAdjust="spacing" textLength="85.1689" x="1289.9946" y="1957.3623">DataService</text><text fill="#000000" font-family="Arial" font-size="14" lengthAdjust="spacing" textLength="208.5303" x="1228.314" y="1973.6592">(data_service.search_classes)</text><ellipse cx="1335.5791" cy="1992.9609" fill="#E2E2F0" rx="12" ry="12" style="stroke:#181818;stroke-width:0.5;"/><polygon fill="#181818" points="1331.5791,1980.9609,1337.5791,1975.9609,1335.5791,1980.9609,1337.5791,1985.9609,1331.5791,1980.9609" style="stroke:#181818;stroke-width:1;"/></g><g class="participant participant-head" data-entity-uid="part5" data-qualified-name="DB" id="part5-head"><text fill="#000000" font-family="Arial" font-size="14" lengthAdjust="spacing" textLength="131.1338" x="1644.9346" y="131.5889">ScheduleDatabase</text><text fill="#000000" font-family="Arial" font-size="14" lengthAdjust="spacing" textLength="173.2979" x="1623.8525" y="147.8857">(schedule_database.csv)</text><path d="M1695.5015,82.5938 C1695.5015,72.5938 1713.5015,72.5938 1713.5015,72.5938 C1713.5015,72.5938 1731.5015,72.5938 1731.5015,82.5938 L1731.5015,108.5938 C1731.5015,118.5938 1713.5015,118.5938 1713.5015,118.5938 C1713.5015,118.5938 1695.5015,118.5938 1695.5015,108.5938 L1695.5015,82.5938" fill="#E2E2F0" style="stroke:#181818;stroke-width:0.5;"/><path d="M1695.5015,82.5938 C1695.5015,92.5938 1713.5015,92.5938 1713.5015,92.5938 C1713.5015,92.5938 1731.5015,92.5938 1731.5015,82.5938" fill="none" style="stroke:#181818;stroke-width:0.5;"/></g><g class="participant participant-tail" data-entity-uid="part5" data-qualified-name="DB" id="part5-tail"><text fill="#000000" font-family="Arial" font-size="14" lengthAdjust="spacing" textLength="131.1338" x="1644.9346" y="1957.3623">ScheduleDatabase</text><text fill="#000000" font-family="Arial" font-size="14" lengthAdjust="spacing" textLength="173.2979" x="1623.8525" y="1973.6592">(schedule_database.csv)</text><path d="M1695.5015,1986.9609 C1695.5015,1976.9609 1713.5015,1976.9609 1713.5015,1976.9609 C1713.5015,1976.9609 1731.5015,1976.9609 1731.5015,1986.9609 L1731.5015,2012.9609 C1731.5015,2022.9609 1713.5015,2022.9609 1713.5015,2022.9609 C1713.5015,2022.9609 1695.5015,2022.9609 1695.5015,2012.9609 L1695.5015,1986.9609" fill="#E2E2F0" style="stroke:#181818;stroke-width:0.5;"/><path d="M1695.5015,1986.9609 C1695.5015,1996.9609 1713.5015,1996.9609 1713.5015,1996.9609 C1713.5015,1996.9609 1731.5015,1996.9609 1731.5015,1986.9609" fill="none" style="stroke:#181818;stroke-width:0.5;"/></g><g><title>SearchPage</title><rect fill="#FFFFFF" height="404.7266" style="stroke:#181818;stroke-width:1;" width="10" x="458.4116" y="225.4531"/></g><g><title>SearchPage</title><rect fill="#FFFFFF" height="1106.3906" style="stroke:#181818;stroke-width:1;" width="10" x="458.4116" y="717.5781"/></g><g><title>SearchPage</title><rect fill="#FFFFFF" height="29.1328" style="stroke:#181818;stroke-width:1;" width="10" x="458.4116" y="1877.2344"/></g><g><title>SearchController</title><rect fill="#FFFFFF" height="346.4609" style="stroke:#181818;stroke-width:1;" width="10" x="887.9214" y="254.5859"/></g><g><title>SearchController</title><rect fill="#FFFFFF" height="973.5938" style="stroke:#181818;stroke-width:1;" width="10" x="887.9214" y="790.9766"/></g><g><title>DataService</title><rect fill="#FFFFFF" height="129.5313" style="stroke:#181818;stroke-width:1;" width="10" x="1330.5791" y="283.7188"/></g><g><title>DataService</title><rect fill="#FFFFFF" height="129.5313" style="stroke:#181818;stroke-width:1;" width="10" x="1330.5791" y="442.3828"/></g><g><title>DataService</title><rect fill="#FFFFFF" height="517.8594" style="stroke:#181818;stroke-width:1;" width="10" x="1330.5791" y="959.4453"/></g><g><title>DataService</title><rect fill="#FFFFFF" height="140.5313" style="stroke:#181818;stroke-width:1;" width="10" x="1335.5791" y="996.5781"/></g><g><title>DataService</title><rect fill="#FFFFFF" height="101.5313" style="stroke:#181818;stroke-width:1;" width="10" x="1330.5791" y="1506.4375"/></g><g><title>ScheduleDatabase</title><rect fill="#FFFFFF" height="29.1328" style="stroke:#181818;stroke-width:1;" width="10" x="1708.5015" y="312.8516"/></g><g><title>ScheduleDatabase</title><rect fill="#FFFFFF" height="29.1328" style="stroke:#181818;stroke-width:1;" width="10" x="1708.5015" y="471.5156"/></g><g><title>ScheduleDatabase</title><rect fill="#FFFFFF" height="29.1328" style="stroke:#181818;stroke-width:1;" width="10" x="1708.5015" y="1030.7109"/></g><rect fill="#EEEEEE" height="3" style="stroke:#EEEEEE;stroke-width:1;" width="1823.1504" x="0" y="181.7539"/><line style="stroke:#000000;stroke-width:1;" x1="0" x2="1823.1504" y1="181.7539" y2="181.7539"/><line style="stroke:#000000;stroke-width:1;" x1="0" x2="1823.1504" y1="184.7539" y2="184.7539"/><rect fill="#EEEEEE" height="23.1328" style="stroke:#000000;stroke-width:2;" width="94.7676" x="864.1914" y="171.1875"/><text fill="#000000" font-family="Arial" font-size="13" font-weight="bold" lengthAdjust="spacing" textLength="76.2417" x="870.1914" y="187.2544">Page Load</text><g class="message" data-entity-1="part1" data-entity-2="part2" id="msg1"><polygon fill="#181818" points="446.4116,221.4531,456.4116,225.4531,446.4116,229.4531,450.4116,225.4531" style="stroke:#181818;stroke-width:1;"/><line style="stroke:#181818;stroke-width:1.5;" x1="122.7651" x2="452.4116" y1="225.4531" y2="225.4531"/><text fill="#000000" font-family="Arial" font-size="13" lengthAdjust="spacing" textLength="188.627" x="129.7651" y="220.3872">navigate to /schedule/search</text></g><g class="message" data-entity-1="part2" data-entity-2="part3" id="msg2"><polygon fill="#181818" points="875.9214,250.5859,885.9214,254.5859,875.9214,258.5859,879.9214,254.5859" style="stroke:#181818;stroke-width:1;"/><line style="stroke:#181818;stroke-width:1.5;" x1="468.4116" x2="881.9214" y1="254.5859" y2="254.5859"/><text fill="#000000" font-family="Arial" font-size="13" lengthAdjust="spacing" textLength="140.8481" x="475.4116" y="249.52">GET /schedule/search</text></g><g class="message" data-entity-1="part3" data-entity-2="part4" id="msg3"><polygon fill="#181818" points="1318.5791,279.7188,1328.5791,283.7188,1318.5791,287.7188,1322.5791,283.7188" style="stroke:#181818;stroke-width:1;"/><line style="stroke:#181818;stroke-width:1.5;" x1="897.9214" x2="1324.5791" y1="283.7188" y2="283.7188"/><text fill="#000000" font-family="Arial" font-size="13" lengthAdjust="spacing" textLength="105.4092" x="904.9214" y="278.6528">get_semesters()</text></g><g class="message" data-entity-1="part4" data-entity-2="part5" id="msg4"><polygon fill="#181818" points="1696.5015,308.8516,1706.5015,312.8516,1696.5015,316.8516,1700.5015,312.8516" style="stroke:#181818;stroke-width:1;"/><line style="stroke:#181818;stroke-width:1.5;" x1="1340.5791" x2="1702.5015" y1="312.8516" y2="312.8516"/><text fill="#000000" font-family="Arial" font-size="13" lengthAdjust="spacing" textLength="184.4692" x="1347.5791" y="307.7856">read schedule_database.csv</text></g><g class="message" data-entity-1="part5" data-entity-2="part4" id="msg5"><polygon fill="#181818" points="1351.5791,337.9844,1341.5791,341.9844,1351.5791,345.9844,1347.5791,341.9844" style="stroke:#181818;stroke-width:1;"/><line style="stroke:#181818;stroke-width:1.5;stroke-dasharray:2,2;" x1="1345.5791" x2="1712.5015" y1="341.9844" y2="341.9844"/><text fill="#000000" font-family="Arial" font-size="13" lengthAdjust="spacing" textLength="72.4902" x="1357.5791" y="336.9185">DataFrame</text></g><g class="message" data-entity-1="part4" data-entity-2="part4" id="msg6"><line style="stroke:#181818;stroke-width:1.5;" x1="1340.5791" x2="1382.5791" y1="371.1172" y2="371.1172"/><line style="stroke:#181818;stroke-width:1.5;" x1="1382.5791" x2="1382.5791" y1="371.1172" y2="384.1172"/><line style="stroke:#181818;stroke-width:1.5;" x1="1341.5791" x2="1382.5791" y1="384.1172" y2="384.1172"/><polygon fill="#181818" points="1351.5791,380.1172,1341.5791,384.1172,1351.5791,388.1172,1347.5791,384.1172" style="stroke:#181818;stroke-width:1;"/><text fill="#000000" font-family="Arial" font-size="13" lengthAdjust="spacing" textLength="182.0063" x="1347.5791" y="366.0513">extract unique TERM values</text></g><g class="message" data-entity-1="part4" data-entity-2="part3" id="msg7"><polygon fill="#181818" points="908.9214,409.25,898.9214,413.25,908.9214,417.25,904.9214,413.25" style="stroke:#181818;stroke-width:1;"/><line style="stroke:#181818;stroke-width:1.5;stroke-dasharray:2,2;" x1="902.9214" x2="1334.5791" y1="413.25" y2="413.25"/><text fill="#000000" font-family="Arial" font-size="13" lengthAdjust="spacing" textLength="149.6079" x="914.9214" y="408.1841">[(term_code, label), ...]</text></g><g class="message" data-entity-1="part3" data-entity-2="part4" id="msg8"><polygon fill="#181818" points="1318.5791,438.3828,1328.5791,442.3828,1318.5791,446.3828,1322.5791,442.3828" style="stroke:#181818;stroke-width:1;"/><line style="stroke:#181818;stroke-width:1.5;" x1="897.9214" x2="1324.5791" y1="442.3828" y2="442.3828"/><text fill="#000000" font-family="Arial" font-size="13" lengthAdjust="spacing" textLength="121.6719" x="904.9214" y="437.3169">get_departments()</text></g><g class="message" data-entity-1="part4" data-entity-2="part5" id="msg9"><polygon fill="#181818" points="1696.5015,467.5156,1706.5015,471.5156,1696.5015,475.5156,1700.5015,471.5156" style="stroke:#181818;stroke-width:1;"/><line style="stroke:#181818;stroke-width:1.5;" x1="1340.5791" x2="1702.5015" y1="471.5156" y2="471.5156"/><text fill="#000000" font-family="Arial" font-size="13" lengthAdjust="spacing" textLength="283.2388" x="1347.5791" y="466.4497">read schedule_database.csv (if not cached)</text></g><g class="message" data-entity-1="part5" data-entity-2="part4" id="msg10"><polygon fill="#181818" points="1351.5791,496.6484,1341.5791,500.6484,1351.5791,504.6484,1347.5791,500.6484" style="stroke:#181818;stroke-width:1;"/><line style="stroke:#181818;stroke-width:1.5;stroke-dasharray:2,2;" x1="1345.5791" x2="1712.5015" y1="500.6484" y2="500.6484"/><text fill="#000000" font-family="Arial" font-size="13" lengthAdjust="spacing" textLength="72.4902" x="1357.5791" y="495.5825">DataFrame</text></g><g class="message" data-entity-1="part4" data-entity-2="part4" id="msg11"><line style="stroke:#181818;stroke-width:1.5;" x1="1340.5791" x2="1382.5791" y1="529.7813" y2="529.7813"/><line style="stroke:#181818;stroke-width:1.5;" x1="1382.5791" x2="1382.5791" y1="529.7813" y2="542.7813"/><line style="stroke:#181818;stroke-width:1.5;" x1="1341.5791" x2="1382.5791" y1="542.7813" y2="542.7813"/><polygon fill="#181818" points="1351.5791,538.7813,1341.5791,542.7813,1351.5791,546.7813,1347.5791,542.7813" style="stroke:#181818;stroke-width:1;"/><text fill="#000000" font-family="Arial" font-size="13" lengthAdjust="spacing" textLength="176.1221" x="1347.5791" y="524.7153">extract unique SUBJ values</text></g><g class="message" data-entity-1="part4" data-entity-2="part3" id="msg12"><polygon fill="#181818" points="908.9214,567.9141,898.9214,571.9141,908.9214,575.9141,904.9214,571.9141" style="stroke:#181818;stroke-width:1;"/><line style="stroke:#181818;stroke-width:1.5;stroke-dasharray:2,2;" x1="902.9214" x2="1334.5791" y1="571.9141" y2="571.9141"/><text fill="#000000" font-family="Arial" font-size="13" lengthAdjust="spacing" textLength="145.5645" x="914.9214" y="566.8481">[department_code, ...]</text></g><g class="message" data-entity-1="part3" data-entity-2="part2" id="msg13"><polygon fill="#181818" points="479.4116,597.0469,469.4116,601.0469,479.4116,605.0469,475.4116,601.0469" style="stroke:#181818;stroke-width:1;"/><line style="stroke:#181818;stroke-width:1.5;stroke-dasharray:2,2;" x1="473.4116" x2="891.9214" y1="601.0469" y2="601.0469"/><text fill="#000000" font-family="Arial" font-size="13" lengthAdjust="spacing" textLength="395.5098" x="485.4116" y="595.981">render search.html (semesters, departments, no results yet)</text></g><g class="message" data-entity-1="part2" data-entity-2="part1" id="msg14"><polygon fill="#181818" points="133.7651,626.1797,123.7651,630.1797,133.7651,634.1797,129.7651,630.1797" style="stroke:#181818;stroke-width:1;"/><line style="stroke:#181818;stroke-width:1.5;stroke-dasharray:2,2;" x1="127.7651" x2="462.4116" y1="630.1797" y2="630.1797"/><text fill="#000000" font-family="Arial" font-size="13" lengthAdjust="spacing" textLength="168.1621" x="139.7651" y="625.1138">display blank search form</text></g><rect fill="#EEEEEE" height="3" style="stroke:#EEEEEE;stroke-width:1;" width="1823.1504" x="0" y="658.7461"/><line style="stroke:#000000;stroke-width:1;" x1="0" x2="1823.1504" y1="658.7461" y2="658.7461"/><line style="stroke:#000000;stroke-width:1;" x1="0" x2="1823.1504" y1="661.7461" y2="661.7461"/><rect fill="#EEEEEE" height="23.1328" style="stroke:#000000;stroke-width:2;" width="232.1118" x="795.5193" y="648.1797"/><text fill="#000000" font-family="Arial" font-size="13" font-weight="bold" lengthAdjust="spacing" textLength="213.5859" x="801.5193" y="664.2466">Basic Flow &#8212; Perform Search</text><g class="message" data-entity-1="part1" data-entity-2="part2" id="msg15"><polygon fill="#181818" points="446.4116,713.5781,456.4116,717.5781,446.4116,721.5781,450.4116,717.5781" style="stroke:#181818;stroke-width:1;"/><line style="stroke:#181818;stroke-width:1.5;" x1="122.7651" x2="452.4116" y1="717.5781" y2="717.5781"/><text fill="#000000" font-family="Arial" font-size="13" lengthAdjust="spacing" textLength="132.5327" x="129.7651" y="697.3794">enter search criteria</text><text fill="#000000" font-family="Arial" font-size="13" lengthAdjust="spacing" textLength="316.6465" x="129.7651" y="712.5122">(course_code, instructor, semester, department)</text></g><g class="message" data-entity-1="part1" data-entity-2="part2" id="msg16"><polygon fill="#181818" points="446.4116,742.7109,456.4116,746.7109,446.4116,750.7109,450.4116,746.7109" style="stroke:#181818;stroke-width:1;"/><line style="stroke:#181818;stroke-width:1.5;" x1="122.7651" x2="452.4116" y1="746.7109" y2="746.7109"/><text fill="#000000" font-family="Arial" font-size="13" lengthAdjust="spacing" textLength="90.0859" x="129.7651" y="741.645">click "Search"</text></g><g class="message" data-entity-1="part2" data-entity-2="part3" id="msg17"><polygon fill="#181818" points="875.9214,786.9766,885.9214,790.9766,875.9214,794.9766,879.9214,790.9766" style="stroke:#181818;stroke-width:1;"/><line style="stroke:#181818;stroke-width:1.5;" x1="468.4116" x2="881.9214" y1="790.9766" y2="790.9766"/><text fill="#000000" font-family="Arial" font-size="13" lengthAdjust="spacing" textLength="148.8843" x="475.4116" y="770.7778">POST /schedule/search</text><text fill="#000000" font-family="Arial" font-size="13" lengthAdjust="spacing" textLength="316.6465" x="475.4116" y="785.9106">(course_code, instructor, semester, department)</text></g><g class="message" data-entity-1="part3" data-entity-2="part3" id="msg18"><line style="stroke:#181818;stroke-width:1.5;" x1="897.9214" x2="939.9214" y1="820.1094" y2="820.1094"/><line style="stroke:#181818;stroke-width:1.5;" x1="939.9214" x2="939.9214" y1="820.1094" y2="833.1094"/><line style="stroke:#181818;stroke-width:1.5;" x1="898.9214" x2="939.9214" y1="833.1094" y2="833.1094"/><polygon fill="#181818" points="908.9214,829.1094,898.9214,833.1094,908.9214,837.1094,904.9214,833.1094" style="stroke:#181818;stroke-width:1;"/><text fill="#000000" font-family="Arial" font-size="13" lengthAdjust="spacing" textLength="275.5391" x="904.9214" y="815.0435">extract search parameters from form/args</text></g><path d="M10,848.1094 L74.4429,848.1094 L74.4429,855.2422 L64.4429,865.2422 L10,865.2422 L10,848.1094" fill="#EEEEEE" style="stroke:#000000;stroke-width:1.5;"/><rect fill="none" height="1080.2578" style="stroke:#000000;stroke-width:1.5;" width="1803.1504" x="10" y="848.1094"/><text fill="#000000" font-family="Arial" font-size="13" font-weight="bold" lengthAdjust="spacing" textLength="19.4429" x="25" y="861.1763">alt</text><text fill="#000000" font-family="Arial" font-size="11" font-weight="bold" lengthAdjust="spacing" textLength="244.4761" x="89.4429" y="860.3198">[No criteria provided (all fields empty)]</text><g class="message" data-entity-1="part3" data-entity-2="part2" id="msg19"><polygon fill="#181818" points="479.4116,882.375,469.4116,886.375,479.4116,890.375,475.4116,886.375" style="stroke:#181818;stroke-width:1;"/><line style="stroke:#181818;stroke-width:1.5;stroke-dasharray:2,2;" x1="473.4116" x2="886.9214" y1="886.375" y2="886.375"/><text fill="#000000" font-family="Arial" font-size="13" lengthAdjust="spacing" textLength="286.9268" x="485.4116" y="881.3091">render search.html with validation message</text></g><g class="message" data-entity-1="part2" data-entity-2="part1" id="msg20"><polygon fill="#181818" points="133.7651,911.5078,123.7651,915.5078,133.7651,919.5078,129.7651,915.5078" style="stroke:#181818;stroke-width:1;"/><line style="stroke:#181818;stroke-width:1.5;stroke-dasharray:2,2;" x1="127.7651" x2="457.4116" y1="915.5078" y2="915.5078"/><text fill="#000000" font-family="Arial" font-size="13" lengthAdjust="spacing" textLength="265.4844" x="139.7651" y="910.4419">display "Enter at least one search value"</text></g><line style="stroke:#000000;stroke-width:1;stroke-dasharray:2,2;" x1="10" x2="1813.1504" y1="924.5078" y2="924.5078"/><text fill="#000000" font-family="Arial" font-size="11" font-weight="bold" lengthAdjust="spacing" textLength="200.4761" x="15" y="934.7183">[At least one criterion provided]</text><g class="message" data-entity-1="part3" data-entity-2="part4" id="msg21"><polygon fill="#181818" points="1318.5791,955.4453,1328.5791,959.4453,1318.5791,963.4453,1322.5791,959.4453" style="stroke:#181818;stroke-width:1;"/><line style="stroke:#181818;stroke-width:1.5;" x1="897.9214" x2="1324.5791" y1="959.4453" y2="959.4453"/><text fill="#000000" font-family="Arial" font-size="13" lengthAdjust="spacing" textLength="413.6577" x="904.9214" y="954.3794">search_classes(course_code, instructor, semester, department)</text></g><g class="message" data-entity-1="part4" data-entity-2="part4" id="msg22"><line style="stroke:#181818;stroke-width:1.5;" x1="1340.5791" x2="1387.5791" y1="983.5781" y2="983.5781"/><line style="stroke:#181818;stroke-width:1.5;" x1="1387.5791" x2="1387.5791" y1="983.5781" y2="996.5781"/><line style="stroke:#181818;stroke-width:1.5;" x1="1346.5791" x2="1387.5791" y1="996.5781" y2="996.5781"/><polygon fill="#181818" points="1356.5791,992.5781,1346.5791,996.5781,1356.5791,1000.5781,1352.5791,996.5781" style="stroke:#181818;stroke-width:1;"/><text fill="#000000" font-family="Arial" font-size="13" lengthAdjust="spacing" textLength="163.3315" x="1352.5791" y="978.5122">load_schedule(semester)</text></g><g class="message" data-entity-1="part4" data-entity-2="part5" id="msg23"><polygon fill="#181818" points="1696.5015,1026.7109,1706.5015,1030.7109,1696.5015,1034.7109,1700.5015,1030.7109" style="stroke:#181818;stroke-width:1;"/><line style="stroke:#181818;stroke-width:1.5;" x1="1345.5791" x2="1702.5015" y1="1030.7109" y2="1030.7109"/><text fill="#000000" font-family="Arial" font-size="13" lengthAdjust="spacing" textLength="184.4692" x="1352.5791" y="1025.645">read schedule_database.csv</text></g><g class="message" data-entity-1="part5" data-entity-2="part4" id="msg24"><polygon fill="#181818" points="1356.5791,1055.8438,1346.5791,1059.8438,1356.5791,1063.8438,1352.5791,1059.8438" style="stroke:#181818;stroke-width:1;"/><line style="stroke:#181818;stroke-width:1.5;stroke-dasharray:2,2;" x1="1350.5791" x2="1712.5015" y1="1059.8438" y2="1059.8438"/><text fill="#000000" font-family="Arial" font-size="13" lengthAdjust="spacing" textLength="96.6621" x="1362.5791" y="1054.7778">full DataFrame</text></g><g class="message" data-entity-1="part4" data-entity-2="part4" id="msg25"><line style="stroke:#181818;stroke-width:1.5;" x1="1345.5791" x2="1387.5791" y1="1088.9766" y2="1088.9766"/><line style="stroke:#181818;stroke-width:1.5;" x1="1387.5791" x2="1387.5791" y1="1088.9766" y2="1101.9766"/><line style="stroke:#181818;stroke-width:1.5;" x1="1346.5791" x2="1387.5791" y1="1101.9766" y2="1101.9766"/><polygon fill="#181818" points="1356.5791,1097.9766,1346.5791,1101.9766,1356.5791,1105.9766,1352.5791,1101.9766" style="stroke:#181818;stroke-width:1;"/><text fill="#000000" font-family="Arial" font-size="13" lengthAdjust="spacing" textLength="265.5034" x="1352.5791" y="1083.9106">filter by TERM == semester (if provided)</text></g><g class="message" data-entity-1="part4" data-entity-2="part4" id="msg26"><line style="stroke:#181818;stroke-width:1.5;stroke-dasharray:2,2;" x1="1345.5791" x2="1387.5791" y1="1136.1094" y2="1136.1094"/><line style="stroke:#181818;stroke-width:1.5;stroke-dasharray:2,2;" x1="1387.5791" x2="1387.5791" y1="1136.1094" y2="1149.1094"/><line style="stroke:#181818;stroke-width:1.5;stroke-dasharray:2,2;" x1="1340.5791" x2="1387.5791" y1="1149.1094" y2="1149.1094"/><polygon fill="#181818" points="1350.5791,1145.1094,1340.5791,1149.1094,1350.5791,1153.1094,1346.5791,1149.1094" style="stroke:#181818;stroke-width:1;"/><text fill="#000000" font-family="Arial" font-size="13" lengthAdjust="spacing" textLength="128.7876" x="1352.5791" y="1131.0435">semester-filtered df</text></g><path d="M1218.314,1159.1094 L1282.7568,1159.1094 L1282.7568,1166.2422 L1272.7568,1176.2422 L1218.314,1176.2422 L1218.314,1159.1094" fill="#EEEEEE" style="stroke:#000000;stroke-width:1.5;"/><rect fill="none" height="101.3984" style="stroke:#000000;stroke-width:1.5;" width="440.1978" x="1218.314" y="1159.1094"/><text fill="#000000" font-family="Arial" font-size="13" font-weight="bold" lengthAdjust="spacing" textLength="19.4429" x="1233.314" y="1172.1763">alt</text><text fill="#000000" font-family="Arial" font-size="11" font-weight="bold" lengthAdjust="spacing" textLength="145.1431" x="1297.7568" y="1171.3198">[course_code provided]</text><g class="message" data-entity-1="part4" data-entity-2="part4" id="msg27"><line style="stroke:#181818;stroke-width:1.5;" x1="1340.5791" x2="1382.5791" y1="1197.375" y2="1197.375"/><line style="stroke:#181818;stroke-width:1.5;" x1="1382.5791" x2="1382.5791" y1="1197.375" y2="1210.375"/><line style="stroke:#181818;stroke-width:1.5;" x1="1341.5791" x2="1382.5791" y1="1210.375" y2="1210.375"/><polygon fill="#181818" points="1351.5791,1206.375,1341.5791,1210.375,1351.5791,1214.375,1347.5791,1210.375" style="stroke:#181818;stroke-width:1;"/><text fill="#000000" font-family="Arial" font-size="13" lengthAdjust="spacing" textLength="266.1763" x="1347.5791" y="1192.3091">parse course_code (SUBJ + CRSE_NUMB)</text></g><g class="message" data-entity-1="part4" data-entity-2="part4" id="msg28"><line style="stroke:#181818;stroke-width:1.5;" x1="1340.5791" x2="1382.5791" y1="1239.5078" y2="1239.5078"/><line style="stroke:#181818;stroke-width:1.5;" x1="1382.5791" x2="1382.5791" y1="1239.5078" y2="1252.5078"/><line style="stroke:#181818;stroke-width:1.5;" x1="1341.5791" x2="1382.5791" y1="1252.5078" y2="1252.5078"/><polygon fill="#181818" points="1351.5791,1248.5078,1341.5791,1252.5078,1351.5791,1256.5078,1347.5791,1252.5078" style="stroke:#181818;stroke-width:1;"/><text fill="#000000" font-family="Arial" font-size="13" lengthAdjust="spacing" textLength="288.9326" x="1347.5791" y="1234.4419">apply mask on df[SUBJ] and df[CRSE_NUMB]</text></g><path d="M1218.314,1274.5078 L1282.7568,1274.5078 L1282.7568,1281.6406 L1272.7568,1291.6406 L1218.314,1291.6406 L1218.314,1274.5078" fill="#EEEEEE" style="stroke:#000000;stroke-width:1.5;"/><rect fill="none" height="59.2656" style="stroke:#000000;stroke-width:1.5;" width="495.1875" x="1218.314" y="1274.5078"/><text fill="#000000" font-family="Arial" font-size="13" font-weight="bold" lengthAdjust="spacing" textLength="19.4429" x="1233.314" y="1287.5747">alt</text><text fill="#000000" font-family="Arial" font-size="11" font-weight="bold" lengthAdjust="spacing" textLength="130.3135" x="1297.7568" y="1286.7183">[instructor provided]</text><g class="message" data-entity-1="part4" data-entity-2="part4" id="msg29"><line style="stroke:#181818;stroke-width:1.5;" x1="1340.5791" x2="1382.5791" y1="1312.7734" y2="1312.7734"/><line style="stroke:#181818;stroke-width:1.5;" x1="1382.5791" x2="1382.5791" y1="1312.7734" y2="1325.7734"/><line style="stroke:#181818;stroke-width:1.5;" x1="1341.5791" x2="1382.5791" y1="1325.7734" y2="1325.7734"/><polygon fill="#181818" points="1351.5791,1321.7734,1341.5791,1325.7734,1351.5791,1329.7734,1347.5791,1325.7734" style="stroke:#181818;stroke-width:1;"/><text fill="#000000" font-family="Arial" font-size="13" lengthAdjust="spacing" textLength="343.9224" x="1347.5791" y="1307.7075">df[INSTRUCTOR].str.contains(instructor, case=False)</text></g><path d="M1218.314,1347.7734 L1282.7568,1347.7734 L1282.7568,1354.9063 L1272.7568,1364.9063 L1218.314,1364.9063 L1218.314,1347.7734" fill="#EEEEEE" style="stroke:#000000;stroke-width:1.5;"/><rect fill="none" height="59.2656" style="stroke:#000000;stroke-width:1.5;" width="385.4238" x="1218.314" y="1347.7734"/><text fill="#000000" font-family="Arial" font-size="13" font-weight="bold" lengthAdjust="spacing" textLength="19.4429" x="1233.314" y="1360.8403">alt</text><text fill="#000000" font-family="Arial" font-size="11" font-weight="bold" lengthAdjust="spacing" textLength="142.2158" x="1297.7568" y="1359.9839">[department provided]</text><g class="message" data-entity-1="part4" data-entity-2="part4" id="msg30"><line style="stroke:#181818;stroke-width:1.5;" x1="1340.5791" x2="1382.5791" y1="1386.0391" y2="1386.0391"/><line style="stroke:#181818;stroke-width:1.5;" x1="1382.5791" x2="1382.5791" y1="1386.0391" y2="1399.0391"/><line style="stroke:#181818;stroke-width:1.5;" x1="1341.5791" x2="1382.5791" y1="1399.0391" y2="1399.0391"/><polygon fill="#181818" points="1351.5791,1395.0391,1341.5791,1399.0391,1351.5791,1403.0391,1347.5791,1399.0391" style="stroke:#181818;stroke-width:1;"/><text fill="#000000" font-family="Arial" font-size="13" lengthAdjust="spacing" textLength="234.1587" x="1347.5791" y="1380.9731">df[SUBJ].str.upper() == department</text></g><g class="message" data-entity-1="part4" data-entity-2="part4" id="msg31"><line style="stroke:#181818;stroke-width:1.5;" x1="1340.5791" x2="1382.5791" y1="1435.1719" y2="1435.1719"/><line style="stroke:#181818;stroke-width:1.5;" x1="1382.5791" x2="1382.5791" y1="1435.1719" y2="1448.1719"/><line style="stroke:#181818;stroke-width:1.5;" x1="1341.5791" x2="1382.5791" y1="1448.1719" y2="1448.1719"/><polygon fill="#181818" points="1351.5791,1444.1719,1341.5791,1448.1719,1351.5791,1452.1719,1347.5791,1448.1719" style="stroke:#181818;stroke-width:1;"/><text fill="#000000" font-family="Arial" font-size="13" lengthAdjust="spacing" textLength="155.8667" x="1347.5791" y="1430.106">reset_index(drop=True)</text></g><g class="message" data-entity-1="part4" data-entity-2="part3" id="msg32"><polygon fill="#181818" points="908.9214,1473.3047,898.9214,1477.3047,908.9214,1481.3047,904.9214,1477.3047" style="stroke:#181818;stroke-width:1;"/><line style="stroke:#181818;stroke-width:1.5;stroke-dasharray:2,2;" x1="902.9214" x2="1334.5791" y1="1477.3047" y2="1477.3047"/><text fill="#000000" font-family="Arial" font-size="13" lengthAdjust="spacing" textLength="174.2876" x="914.9214" y="1472.2388">filtered classes DataFrame</text></g><g class="message" data-entity-1="part3" data-entity-2="part4" id="msg33"><polygon fill="#181818" points="1318.5791,1502.4375,1328.5791,1506.4375,1318.5791,1510.4375,1322.5791,1506.4375" style="stroke:#181818;stroke-width:1;"/><line style="stroke:#181818;stroke-width:1.5;" x1="897.9214" x2="1324.5791" y1="1506.4375" y2="1506.4375"/><text fill="#000000" font-family="Arial" font-size="13" lengthAdjust="spacing" textLength="220.4224" x="904.9214" y="1501.3716">format_search_results(classes_df)</text></g><g class="message" data-entity-1="part4" data-entity-2="part4" id="msg34"><line style="stroke:#181818;stroke-width:1.5;" x1="1340.5791" x2="1382.5791" y1="1565.8359" y2="1565.8359"/><line style="stroke:#181818;stroke-width:1.5;" x1="1382.5791" x2="1382.5791" y1="1565.8359" y2="1578.8359"/><line style="stroke:#181818;stroke-width:1.5;" x1="1341.5791" x2="1382.5791" y1="1578.8359" y2="1578.8359"/><polygon fill="#181818" points="1351.5791,1574.8359,1341.5791,1578.8359,1351.5791,1582.8359,1347.5791,1578.8359" style="stroke:#181818;stroke-width:1;"/><text fill="#000000" font-family="Arial" font-size="13" lengthAdjust="spacing" textLength="158.4438" x="1347.5791" y="1530.5044">convert each row to dict</text><text fill="#000000" font-family="Arial" font-size="13" lengthAdjust="spacing" textLength="249.8057" x="1347.5791" y="1545.6372">(crn, term, dept, course_number, title,</text><text fill="#000000" font-family="Arial" font-size="13" lengthAdjust="spacing" textLength="327.5645" x="1347.5791" y="1560.77">section, instructor, days, times, room, enrollment)</text></g><g class="message" data-entity-1="part4" data-entity-2="part3" id="msg35"><polygon fill="#181818" points="908.9214,1603.9688,898.9214,1607.9688,908.9214,1611.9688,904.9214,1607.9688" style="stroke:#181818;stroke-width:1;"/><line style="stroke:#181818;stroke-width:1.5;stroke-dasharray:2,2;" x1="902.9214" x2="1334.5791" y1="1607.9688" y2="1607.9688"/><text fill="#000000" font-family="Arial" font-size="13" lengthAdjust="spacing" textLength="98.4775" x="914.9214" y="1602.9028">[result_dict, ...]</text></g><path d="M20,1622.9688 L84.4429,1622.9688 L84.4429,1630.1016 L74.4429,1640.1016 L20,1640.1016 L20,1622.9688" fill="#EEEEEE" style="stroke:#000000;stroke-width:1.5;"/><rect fill="none" height="298.3984" style="stroke:#000000;stroke-width:1.5;" width="1025.1592" x="20" y="1622.9688"/><text fill="#000000" font-family="Arial" font-size="13" font-weight="bold" lengthAdjust="spacing" textLength="19.4429" x="35" y="1636.0356">alt</text><text fill="#000000" font-family="Arial" font-size="11" font-weight="bold" lengthAdjust="spacing" textLength="113.1958" x="99.4429" y="1635.1792">[No results found]</text><g class="message" data-entity-1="part3" data-entity-2="part2" id="msg36"><polygon fill="#181818" points="479.4116,1672.3672,469.4116,1676.3672,479.4116,1680.3672,475.4116,1676.3672" style="stroke:#181818;stroke-width:1;"/><line style="stroke:#181818;stroke-width:1.5;stroke-dasharray:2,2;" x1="473.4116" x2="886.9214" y1="1676.3672" y2="1676.3672"/><text fill="#000000" font-family="Arial" font-size="13" lengthAdjust="spacing" textLength="124.522" x="485.4116" y="1656.1685">render search.html</text><text fill="#000000" font-family="Arial" font-size="13" lengthAdjust="spacing" textLength="182.5078" x="485.4116" y="1671.3013">(results=[], total_results=0)</text></g><g class="message" data-entity-1="part2" data-entity-2="part1" id="msg37"><polygon fill="#181818" points="133.7651,1701.5,123.7651,1705.5,133.7651,1709.5,129.7651,1705.5" style="stroke:#181818;stroke-width:1;"/><line style="stroke:#181818;stroke-width:1.5;stroke-dasharray:2,2;" x1="127.7651" x2="457.4116" y1="1705.5" y2="1705.5"/><text fill="#000000" font-family="Arial" font-size="13" lengthAdjust="spacing" textLength="231.8481" x="139.7651" y="1700.4341">display "No results found" message</text></g><line style="stroke:#000000;stroke-width:1;stroke-dasharray:2,2;" x1="20" x2="1045.1592" y1="1714.5" y2="1714.5"/><text fill="#000000" font-family="Arial" font-size="11" font-weight="bold" lengthAdjust="spacing" textLength="95.6484" x="25" y="1724.7104">[Results found]</text><g class="message" data-entity-1="part3" data-entity-2="part2" id="msg38"><polygon fill="#181818" points="479.4116,1760.5703,469.4116,1764.5703,479.4116,1768.5703,475.4116,1764.5703" style="stroke:#181818;stroke-width:1;"/><line style="stroke:#181818;stroke-width:1.5;stroke-dasharray:2,2;" x1="473.4116" x2="891.9214" y1="1764.5703" y2="1764.5703"/><text fill="#000000" font-family="Arial" font-size="13" lengthAdjust="spacing" textLength="124.522" x="485.4116" y="1744.3716">render search.html</text><text fill="#000000" font-family="Arial" font-size="13" lengthAdjust="spacing" textLength="196.3584" x="485.4116" y="1759.5044">(results=[...], total_results=N)</text></g><g class="message" data-entity-1="part2" data-entity-2="part1" id="msg39"><polygon fill="#181818" points="133.7651,1819.9688,123.7651,1823.9688,133.7651,1827.9688,129.7651,1823.9688" style="stroke:#181818;stroke-width:1;"/><line style="stroke:#181818;stroke-width:1.5;stroke-dasharray:2,2;" x1="127.7651" x2="462.4116" y1="1823.9688" y2="1823.9688"/><text fill="#000000" font-family="Arial" font-size="13" lengthAdjust="spacing" textLength="131.187" x="139.7651" y="1788.6372">display results table</text><text fill="#000000" font-family="Arial" font-size="13" lengthAdjust="spacing" textLength="208.4063" x="139.7651" y="1803.77">(course title, section, instructor,</text><text fill="#000000" font-family="Arial" font-size="13" lengthAdjust="spacing" textLength="266.3921" x="139.7651" y="1818.9028">room, days/times, semester, enrollment)</text></g><path d="M30,1838.9688 L99.4512,1838.9688 L99.4512,1846.1016 L89.4512,1856.1016 L30,1856.1016 L30,1838.9688" fill="#EEEEEE" style="stroke:#000000;stroke-width:1.5;"/><rect fill="none" height="75.3984" style="stroke:#000000;stroke-width:1.5;" width="493.4497" x="30" y="1838.9688"/><text fill="#000000" font-family="Arial" font-size="13" font-weight="bold" lengthAdjust="spacing" textLength="24.4512" x="45" y="1852.0356">opt</text><text fill="#000000" font-family="Arial" font-size="11" font-weight="bold" lengthAdjust="spacing" textLength="312.5547" x="114.4512" y="1851.1792">[Actor views class details (UC_DETAILS &#8212; extend)]</text><g class="message" data-entity-1="part1" data-entity-2="part2" id="msg40"><polygon fill="#181818" points="446.4116,1873.2344,456.4116,1877.2344,446.4116,1881.2344,450.4116,1877.2344" style="stroke:#181818;stroke-width:1;"/><line style="stroke:#181818;stroke-width:1.5;" x1="122.7651" x2="452.4116" y1="1877.2344" y2="1877.2344"/><text fill="#000000" font-family="Arial" font-size="13" lengthAdjust="spacing" textLength="125.9375" x="129.7651" y="1872.1685">click on a class row</text></g><g class="message" data-entity-1="part2" data-entity-2="part1" id="msg41"><polygon fill="#181818" points="133.7651,1902.3672,123.7651,1906.3672,133.7651,1910.3672,129.7651,1906.3672" style="stroke:#181818;stroke-width:1;"/><line style="stroke:#181818;stroke-width:1.5;stroke-dasharray:2,2;" x1="127.7651" x2="462.4116" y1="1906.3672" y2="1906.3672"/><text fill="#000000" font-family="Arial" font-size="13" lengthAdjust="spacing" textLength="218.8735" x="139.7651" y="1901.3013">display detailed class information</text></g><?plantuml-src jLVRRkCs47tNLmpIXqgeu-m6Mw08u0AsOXTR94uGEqz9OD3Is6P3KIv9EUktVaI_i5_IeQwKBxbWMmL68dFcSERCDJ_21F_CK4RedmUpwvl9P7Rxn_biUlhfC_pprzzm7vvVa0XJqGgOZ674XK45eM1Qe_Oy_SpbcYcMm2KkM2RCA9Lcp1A4lk9CEEVLFNsbqfVfYaVF4hM6pzsV7Q5RfWoF-9f9Cs3HyrAbcOp3LAGAVXWDxSyHuLJ5g4h1B_dZ28vJW_jmz8JXhfIBqy-V0ovSyGLzP5lwb_pnFCEDmEEiFigtA6MH8RoJIRJ2E1DSBY5CauGRW_Wehp6Pepe1fc4INdlUt7h4r9RaSyHRjYGfN-SltPL9H508rwTUH15IgQWqmk9LeB9wnQKu8wOCwcw1CuiAsuflNS3GAD40NZB39gWsFB8snFGsqyNh3b01aOjl8iyApfd6scUyBBznBQgakf7UbFe3p-lrm3e5LocBeTVpF685Jdzr_8KBa6p3bymWc1JEAi2pmYHBDz_OGuSYpr6lmQol1FRRSFecI4wBvwWHIEaj8IpH42y9QWgxzeD6kIAa4hLQ0r9GICuT9CBH7NWaUzgwoFureiH5ByQMe8DV2-CteqW8CiafTM4wlBk63HCPfMGjlyl5Wqyk9BCeZR43WirH11teThjFhGjBhrxb8qOgCPEWDD_92FXy0J8r435x7Fn_34tk1x-_pL3ZM4dJk-ZPpM25aZeDE6KDVfr27N3Owv3p9Awf5MlOeWdSkvpiT3FStaPbSm4nrsl1jZ0NJ3wNjy4YLSa-I54dL7u3fda48v6-v0FZ5fLLg1hSiP8aKsj_85AStZYZSe_IJ6aigU9I6vNPTjY1oblNsU1WyHwwBX8qRwgET_9gVT_UJFOB_BijEzGHMjTMoLLIaWySjD65XKgJF0XdJ2tjV126PbLD6gnLkk4nnk0p8M31KSGQC5cRRU01FH_CgnTkLZQjELKLJoMGSzhIsa0TIPgJOHvJPa0WqmPIYPKtUPMSU2YeoVVTyz89kgRoOizajmBRK-IZ8R78-sLdlprOxe96ogpAWxhQZi3iehpHjjiOWq9zjpajCefdqw6iJBjB7JLzKQmKystHngbAA_FpzbXn7RGHTgWk54uBB4glUB5dWikXJKid8Es07hMKeaCvuUhvUL_z2SAxoN0slhyU1AyZiFLQR25X-faoYenyiFfF-MP5BpNAKuv2wTvOssJCEuqblA_ZoVJkFfpUt3rrIRjhTnz6GBwRVX65kJTYbEt1_grDHhx_rjob_BvilKRb1pQa3L3xaeCWD15eodAgzcz-hD9rRweot8z_goNLaI_hxPLST1FXMF7Q5iRivfFNS3cY_6grZ1VlhAmQZwZVe390Pgo0_gUmsrtC8sDxjP8TiAj9tW1CfqemcTdjcOxiZjvvb1eZs-FQpIDcMsr5AFyxX9iI24gx8JTTvFYuBzoQMJlAKVzMpOoRSRsmotoT31_hs-Hr2TDxU2BpKyD4HNBlKx23Ugo5xnfpqch_UV---u-DjIJjsZjkx3sylRpBcyeJwhi2wmbU1XyEnVvH5l6sAN1MPa0pItQpuA1vnLvK7QTh0_symsmulkYYaaY9UeRGuD-7iylXjF_rQfBlJhG345KDUExXqMs6kXqh0IdxMqg7R6g1laPROLrLzaHFKRZ4LGlZiEVLAPQvON_Rpxy0?></g></svg>