<?xml version="1.0" encoding="UTF-8" standalone="no"?><svg xmlns="http://www.w3.org/2000/svg" xmlns:xlink="http://www.w3.org/1999/xlink" contentScriptType="application/ecmascript" contentStyleType="text/css" height="2124px" preserveAspectRatio="none" style="width:1863px;height:2124px;" version="1.1" viewBox="0 0 1863 2124" width="1863px" zoomAndPan="magnify"><defs><filter height="300%" id="f3tl8d7ccdq1v" width="300%" x="-1" y="-1"><feGaussianBlur result="blurOut" stdDeviation="2.0"/><feColorMatrix in="blurOut" result="blurOut2" type="matrix" values="0 0 0 0 0 0 0 0 0 0 0 0 0 0 0 0 0 0 .4 0"/><feOffset dx="4.0" dy="4.0" in="blurOut2" result="blurOut3"/><feBlend in="SourceGraphic" in2="blurOut3" mode="normal"/></filter></defs><g><text fill="#000000" font-family="Arial" font-size="18" lengthAdjust="spacingAndGlyphs" textLength="258" x="798.25" y="26.708">Sequence(1)_MOSS_Pj2_T-01</text><text fill="#000000" font-family="Arial" font-size="18" lengthAdjust="spacingAndGlyphs" textLength="202" x="826.25" y="47.6611">UC1: Upload Excel File</text><text fill="#000000" font-family="Arial" font-size="18" lengthAdjust="spacingAndGlyphs" textLength="227" x="813.75" y="68.6143">Author: MayfairMI6 Team</text><rect fill="#FFFFFF" filter="url(#f3tl8d7ccdq1v)" height="1309.2656" style="stroke: #888888; stroke-width: 1.0;" width="10" x="406.5" y="253.7188"/><rect fill="#FFFFFF" filter="url(#f3tl8d7ccdq1v)" height="346.4609" style="stroke: #888888; stroke-width: 1.0;" width="10" x="406.5" y="1656.25"/><rect fill="#FFFFFF" filter="url(#f3tl8d7ccdq1v)" height="1192.7344" style="stroke: #888888; stroke-width: 1.0;" width="10" x="753.5" y="341.1172"/><rect fill="#FFFFFF" filter="url(#f3tl8d7ccdq1v)" height="187.7969" style="stroke: #888888; stroke-width: 1.0;" width="10" x="753.5" y="1785.7813"/><rect fill="#FFFFFF" filter="url(#f3tl8d7ccdq1v)" height="1134.4688" style="stroke: #888888; stroke-width: 1.0;" width="10" x="1109.5" y="370.25"/><rect fill="#FFFFFF" filter="url(#f3tl8d7ccdq1v)" height="87.3984" style="stroke: #888888; stroke-width: 1.0;" width="10" x="1109.5" y="1857.0469"/><rect fill="#FFFFFF" filter="url(#f3tl8d7ccdq1v)" height="113.3984" style="stroke: #888888; stroke-width: 1.0;" width="10" x="1450.5" y="1119.2578"/><rect fill="#FFFFFF" filter="url(#f3tl8d7ccdq1v)" height="29.1328" style="stroke: #888888; stroke-width: 1.0;" width="10" x="1703.5" y="1303.9219"/><rect fill="#FFFFFF" filter="url(#f3tl8d7ccdq1v)" height="29.1328" style="stroke: #888888; stroke-width: 1.0;" width="10" x="1703.5" y="1446.4531"/><rect fill="#FFFFFF" filter="url(#f3tl8d7ccdq1v)" height="29.1328" style="stroke: #888888; stroke-width: 1.0;" width="10" x="1703.5" y="1886.1797"/><rect fill="#FFFFFF" filter="url(#f3tl8d7ccdq1v)" height="1157.6016" style="stroke: #000000; stroke-width: 2.0;" width="1828.5" x="13" y="427.3828"/><rect fill="#FFFFFF" height="1053.0703" style="stroke: none; stroke-width: 1.0;" width="1828.5" x="13" y="531.9141"/><rect fill="#FFFFFF" filter="url(#f3tl8d7ccdq1v)" height="158.3359" style="stroke: #000000; stroke-width: 2.0;" width="615.5" x="1005" y="637.9844"/><rect fill="#FFFFFF" height="99.0703" style="stroke: none; stroke-width: 1.0;" width="615.5" x="1005" y="697.25"/><rect fill="#FFFFFF" filter="url(#f3tl8d7ccdq1v)" height="725.5313" style="stroke: #000000; stroke-width: 2.0;" width="1808.5" x="23" y="852.4531"/><rect fill="#FFFFFF" height="621" style="stroke: none; stroke-width: 1.0;" width="1808.5" x="23" y="956.9844"/><rect fill="#FFFFFF" filter="url(#f3tl8d7ccdq1v)" height="592.1953" style="stroke: #000000; stroke-width: 2.0;" width="1788.5" x="33" y="978.7891"/><rect fill="#FFFFFF" height="487.6641" style="stroke: none; stroke-width: 1.0;" width="1788.5" x="33" y="1083.3203"/><line style="stroke: #888888; stroke-width: 1.0; stroke-dasharray: 5.0,5.0;" x1="124" x2="124" y1="179.4531" y2="2020.7109"/><line style="stroke: #888888; stroke-width: 1.0; stroke-dasharray: 5.0,5.0;" x1="411" x2="411" y1="179.4531" y2="2020.7109"/><line style="stroke: #888888; stroke-width: 1.0; stroke-dasharray: 5.0,5.0;" x1="758" x2="758" y1="179.4531" y2="2020.7109"/><line style="stroke: #888888; stroke-width: 1.0; stroke-dasharray: 5.0,5.0;" x1="1114" x2="1114" y1="179.4531" y2="2020.7109"/><line style="stroke: #888888; stroke-width: 1.0; stroke-dasharray: 5.0,5.0;" x1="1455" x2="1455" y1="179.4531" y2="2020.7109"/><line style="stroke: #888888; stroke-width: 1.0; stroke-dasharray: 5.0,5.0;" x1="1708.5" x2="1708.5" y1="179.4531" y2="2020.7109"/><text fill="#000000" font-family="Arial" font-size="14" lengthAdjust="spacingAndGlyphs" textLength="157" x="43" y="159.8545">Scheduling Committee</text><text fill="#000000" font-family="Arial" font-size="14" lengthAdjust="spacingAndGlyphs" textLength="57" x="93" y="176.1514">Member</text><ellipse cx="124.5" cy="89.8594" fill="#FEFECE" filter="url(#f3tl8d7ccdq1v)" rx="8" ry="8" style="stroke: #A80036; stroke-width: 2.0;"/><path d="M124.5,97.8594 L124.5,124.8594 M111.5,105.8594 L137.5,105.8594 M124.5,124.8594 L111.5,139.8594 M124.5,124.8594 L137.5,139.8594 " fill="none" filter="url(#f3tl8d7ccdq1v)" style="stroke: #A80036; stroke-width: 2.0;"/><text fill="#000000" font-family="Arial" font-size="14" lengthAdjust="spacingAndGlyphs" textLength="157" x="43" y="2032.7061">Scheduling Committee</text><text fill="#000000" font-family="Arial" font-size="14" lengthAdjust="spacingAndGlyphs" textLength="57" x="93" y="2049.0029">Member</text><ellipse cx="124.5" cy="2062.3047" fill="#FEFECE" filter="url(#f3tl8d7ccdq1v)" rx="8" ry="8" style="stroke: #A80036; stroke-width: 2.0;"/><path d="M124.5,2070.3047 L124.5,2097.3047 M111.5,2078.3047 L137.5,2078.3047 M124.5,2097.3047 L111.5,2112.3047 M124.5,2097.3047 L137.5,2112.3047 " fill="none" filter="url(#f3tl8d7ccdq1v)" style="stroke: #A80036; stroke-width: 2.0;"/><text fill="#000000" font-family="Arial" font-size="14" lengthAdjust="spacingAndGlyphs" textLength="83" x="367" y="159.8545">UploadPage</text><text fill="#000000" font-family="Arial" font-size="14" lengthAdjust="spacingAndGlyphs" textLength="179" x="319" y="176.1514">(home.html / upload form)</text><path d="M391,118.8594 L391,142.8594 M391,130.8594 L408,130.8594 " fill="none" filter="url(#f3tl8d7ccdq1v)" style="stroke: #A80036; stroke-width: 2.0;"/><ellipse cx="420" cy="130.8594" fill="#FEFECE" filter="url(#f3tl8d7ccdq1v)" rx="12" ry="12" style="stroke: #A80036; stroke-width: 2.0;"/><text fill="#000000" font-family="Arial" font-size="14" lengthAdjust="spacingAndGlyphs" textLength="83" x="367" y="2032.7061">UploadPage</text><text fill="#000000" font-family="Arial" font-size="14" lengthAdjust="spacingAndGlyphs" textLength="179" x="319" y="2049.0029">(home.html / upload form)</text><path d="M391,2056.3047 L391,2080.3047 M391,2068.3047 L408,2068.3047 " fill="none" filter="url(#f3tl8d7ccdq1v)" style="stroke: #A80036; stroke-width: 2.0;"/><ellipse cx="420" cy="2068.3047" fill="#FEFECE" filter="url(#f3tl8d7ccdq1v)" rx="12" ry="12" style="stroke: #A80036; stroke-width: 2.0;"/><text fill="#000000" font-family="Arial" font-size="14" lengthAdjust="spacingAndGlyphs" textLength="115" x="698" y="159.8545">UploadController</text><text fill="#000000" font-family="Arial" font-size="14" lengthAdjust="spacingAndGlyphs" textLength="106" x="702.5" y="176.1514">(routes.upload)</text><ellipse cx="758.5" cy="130.8594" fill="#FEFECE" filter="url(#f3tl8d7ccdq1v)" rx="12" ry="12" style="stroke: #A80036; stroke-width: 2.0;"/><polygon fill="#A80036" points="754.5,118.8594,760.5,113.8594,758.5,118.8594,760.5,123.8594,754.5,118.8594" style="stroke: #A80036; stroke-width: 1.0;"/><text fill="#000000" font-family="Arial" font-size="14" lengthAdjust="spacingAndGlyphs" textLength="115" x="698" y="2032.7061">UploadController</text><text fill="#000000" font-family="Arial" font-size="14" lengthAdjust="spacingAndGlyphs" textLength="106" x="702.5" y="2049.0029">(routes.upload)</text><ellipse cx="758.5" cy="2068.3047" fill="#FEFECE" filter="url(#f3tl8d7ccdq1v)" rx="12" ry="12" style="stroke: #A80036; stroke-width: 2.0;"/><polygon fill="#A80036" points="754.5,2056.3047,760.5,2051.3047,758.5,2056.3047,760.5,2061.3047,754.5,2056.3047" style="stroke: #A80036; stroke-width: 1.0;"/><text fill="#000000" font-family="Arial" font-size="14" lengthAdjust="spacingAndGlyphs" textLength="86" x="1068.5" y="159.8545">ExcelService</text><text fill="#000000" font-family="Arial" font-size="14" lengthAdjust="spacingAndGlyphs" textLength="193" x="1015" y="176.1514">(excel_service.import_excel)</text><ellipse cx="1114.5" cy="130.8594" fill="#FEFECE" filter="url(#f3tl8d7ccdq1v)" rx="12" ry="12" style="stroke: #A80036; stroke-width: 2.0;"/><polygon fill="#A80036" points="1110.5,118.8594,1116.5,113.8594,1114.5,118.8594,1116.5,123.8594,1110.5,118.8594" style="stroke: #A80036; stroke-width: 1.0;"/><text fill="#000000" font-family="Arial" font-size="14" lengthAdjust="spacingAndGlyphs" textLength="86" x="1068.5" y="2032.7061">ExcelService</text><text fill="#000000" font-family="Arial" font-size="14" lengthAdjust="spacingAndGlyphs" textLength="193" x="1015" y="2049.0029">(excel_service.import_excel)</text><ellipse cx="1114.5" cy="2068.3047" fill="#FEFECE" filter="url(#f3tl8d7ccdq1v)" rx="12" ry="12" style="stroke: #A80036; stroke-width: 2.0;"/><polygon fill="#A80036" points="1110.5,2056.3047,1116.5,2051.3047,1114.5,2056.3047,1116.5,2061.3047,1110.5,2056.3047" style="stroke: #A80036; stroke-width: 1.0;"/><text fill="#000000" font-family="Arial" font-size="14" lengthAdjust="spacingAndGlyphs" textLength="82" x="1411.5" y="159.8545">DataService</text><text fill="#000000" font-family="Arial" font-size="14" lengthAdjust="spacingAndGlyphs" textLength="243" x="1331" y="176.1514">(data_service.normalize_dataframe)</text><ellipse cx="1455.5" cy="130.8594" fill="#FEFECE" filter="url(#f3tl8d7ccdq1v)" rx="12" ry="12" style="stroke: #A80036; stroke-width: 2.0;"/><line style="stroke: #A80036; stroke-width: 2.0;" x1="1443.5" x2="1467.5" y1="144.8594" y2="144.8594"/><text fill="#000000" font-family="Arial" font-size="14" lengthAdjust="spacingAndGlyphs" textLength="82" x="1411.5" y="2032.7061">DataService</text><text fill="#000000" font-family="Arial" font-size="14" lengthAdjust="spacingAndGlyphs" textLength="243" x="1331" y="2049.0029">(data_service.normalize_dataframe)</text><ellipse cx="1455.5" cy="2068.3047" fill="#FEFECE" filter="url(#f3tl8d7ccdq1v)" rx="12" ry="12" style="stroke: #A80036; stroke-width: 2.0;"/><line style="stroke: #A80036; stroke-width: 2.0;" x1="1443.5" x2="1467.5" y1="2082.3047" y2="2082.3047"/><text fill="#000000" font-family="Arial" font-size="14" lengthAdjust="spacingAndGlyphs" textLength="131" x="1640" y="159.8545">ScheduleDatabase</text><text fill="#000000" font-family="Arial" font-size="14" lengthAdjust="spacingAndGlyphs" textLength="172" x="1619.5" y="176.1514">(schedule_database.csv)</text><path d="M1690.5,110.8594 C1690.5,100.8594 1708.5,100.8594 1708.5,100.8594 C1708.5,100.8594 1726.5,100.8594 1726.5,110.8594 L1726.5,136.8594 C1726.5,146.8594 1708.5,146.8594 1708.5,146.8594 C1708.5,146.8594 1690.5,146.8594 1690.5,136.8594 L1690.5,110.8594 " fill="#FEFECE" filter="url(#f3tl8d7ccdq1v)" style="stroke: #000000; stroke-width: 1.5;"/><path d="M1690.5,110.8594 C1690.5,120.8594 1708.5,120.8594 1708.5,120.8594 C1708.5,120.8594 1726.5,120.8594 1726.5,110.8594 " fill="none" style="stroke: #000000; stroke-width: 1.5;"/><text fill="#000000" font-family="Arial" font-size="14" lengthAdjust="spacingAndGlyphs" textLength="131" x="1640" y="2032.7061">ScheduleDatabase</text><text fill="#000000" font-family="Arial" font-size="14" lengthAdjust="spacingAndGlyphs" textLength="172" x="1619.5" y="2049.0029">(schedule_database.csv)</text><path d="M1690.5,2062.3047 C1690.5,2052.3047 1708.5,2052.3047 1708.5,2052.3047 C1708.5,2052.3047 1726.5,2052.3047 1726.5,2062.3047 L1726.5,2088.3047 C1726.5,2098.3047 1708.5,2098.3047 1708.5,2098.3047 C1708.5,2098.3047 1690.5,2098.3047 1690.5,2088.3047 L1690.5,2062.3047 " fill="#FEFECE" filter="url(#f3tl8d7ccdq1v)" style="stroke: #000000; stroke-width: 1.5;"/><path d="M1690.5,2062.3047 C1690.5,2072.3047 1708.5,2072.3047 1708.5,2072.3047 C1708.5,2072.3047 1726.5,2072.3047 1726.5,2062.3047 " fill="none" style="stroke: #000000; stroke-width: 1.5;"/><rect fill="#FFFFFF" filter="url(#f3tl8d7ccdq1v)" height="1309.2656" style="stroke: #888888; stroke-width: 1.0;" width="10" x="406.5" y="253.7188"/><rect fill="#FFFFFF" filter="url(#f3tl8d7ccdq1v)" height="346.4609" style="stroke: #888888; stroke-width: 1.0;" width="10" x="406.5" y="1656.25"/><rect fill="#FFFFFF" filter="url(#f3tl8d7ccdq1v)" height="1192.7344" style="stroke: #888888; stroke-width: 1.0;" width="10" x="753.5" y="341.1172"/><rect fill="#FFFFFF" filter="url(#f3tl8d7ccdq1v)" height="187.7969" style="stroke: #888888; stroke-width: 1.0;" width="10" x="753.5" y="1785.7813"/><rect fill="#FFFFFF" filter="url(#f3tl8d7ccdq1v)" height="1134.4688" style="stroke: #888888; stroke-width: 1.0;" width="10" x="1109.5" y="370.25"/><rect fill="#FFFFFF" filter="url(#f3tl8d7ccdq1v)" height="87.3984" style="stroke: #888888; stroke-width: 1.0;" width="10" x="1109.5" y="1857.0469"/><rect fill="#FFFFFF" filter="url(#f3tl8d7ccdq1v)" height="113.3984" style="stroke: #888888; stroke-width: 1.0;" width="10" x="1450.5" y="1119.2578"/><rect fill="#FFFFFF" filter="url(#f3tl8d7ccdq1v)" height="29.1328" style="stroke: #888888; stroke-width: 1.0;" width="10" x="1703.5" y="1303.9219"/><rect fill="#FFFFFF" filter="url(#f3tl8d7ccdq1v)" height="29.1328" style="stroke: #888888; stroke-width: 1.0;" width="10" x="1703.5" y="1446.4531"/><rect fill="#FFFFFF" filter="url(#f3tl8d7ccdq1v)" height="29.1328" style="stroke: #888888; stroke-width: 1.0;" width="10" x="1703.5" y="1886.1797"/><rect fill="#EEEEEE" filter="url(#f3tl8d7ccdq1v)" height="3" style="stroke: #EEEEEE; stroke-width: 1.0;" width="1848.5" x="3" y="210.0195"/><line style="stroke: #000000; stroke-width: 1.0;" x1="3" x2="1851.5" y1="210.0195" y2="210.0195"/><line style="stroke: #000000; stroke-width: 1.0;" x1="3" x2="1851.5" y1="213.0195" y2="213.0195"/><rect fill="#EEEEEE" filter="url(#f3tl8d7ccdq1v)" height="23.1328" style="stroke: #000000; stroke-width: 2.0;" width="97" x="878.75" y="199.4531"/><text fill="#000000" font-family="Arial" font-size="13" font-weight="bold" lengthAdjust="spacingAndGlyphs" textLength="78" x="884.75" y="215.52">Basic Flow</text><polygon fill="#A80036" points="394.5,249.7188,404.5,253.7188,394.5,257.7188,398.5,253.7188" style="stroke: #A80036; stroke-width: 1.0;"/><line style="stroke: #A80036; stroke-width: 1.5;" x1="124.5" x2="400.5" y1="253.7188" y2="253.7188"/><text fill="#000000" font-family="Arial" font-size="13" lengthAdjust="spacingAndGlyphs" textLength="155" x="131.5" y="248.6528">navigate to upload page</text><polygon fill="#A80036" points="394.5,278.8516,404.5,282.8516,394.5,286.8516,398.5,282.8516" style="stroke: #A80036; stroke-width: 1.0;"/><line style="stroke: #A80036; stroke-width: 1.5;" x1="124.5" x2="400.5" y1="282.8516" y2="282.8516"/><text fill="#000000" font-family="Arial" font-size="13" lengthAdjust="spacingAndGlyphs" textLength="164" x="131.5" y="277.7856">select Excel file (.xlsx/.xls)</text><polygon fill="#A80036" points="394.5,307.9844,404.5,311.9844,394.5,315.9844,398.5,311.9844" style="stroke: #A80036; stroke-width: 1.0;"/><line style="stroke: #A80036; stroke-width: 1.5;" x1="124.5" x2="400.5" y1="311.9844" y2="311.9844"/><text fill="#000000" font-family="Arial" font-size="13" lengthAdjust="spacingAndGlyphs" textLength="66" x="131.5" y="306.9185">submit file</text><polygon fill="#A80036" points="741.5,337.1172,751.5,341.1172,741.5,345.1172,745.5,341.1172" style="stroke: #A80036; stroke-width: 1.0;"/><line style="stroke: #A80036; stroke-width: 1.5;" x1="416.5" x2="747.5" y1="341.1172" y2="341.1172"/><text fill="#000000" font-family="Arial" font-size="13" lengthAdjust="spacingAndGlyphs" textLength="117" x="423.5" y="336.0513">POST /upload (file)</text><polygon fill="#A80036" points="1097.5,366.25,1107.5,370.25,1097.5,374.25,1101.5,370.25" style="stroke: #A80036; stroke-width: 1.0;"/><line style="stroke: #A80036; stroke-width: 1.5;" x1="763.5" x2="1103.5" y1="370.25" y2="370.25"/><text fill="#000000" font-family="Arial" font-size="13" lengthAdjust="spacingAndGlyphs" textLength="110" x="770.5" y="365.1841">import_excel(file)</text><line style="stroke: #A80036; stroke-width: 1.5;" x1="1119.5" x2="1161.5" y1="399.3828" y2="399.3828"/><line style="stroke: #A80036; stroke-width: 1.5;" x1="1161.5" x2="1161.5" y1="399.3828" y2="412.3828"/><line style="stroke: #A80036; stroke-width: 1.5;" x1="1120.5" x2="1161.5" y1="412.3828" y2="412.3828"/><polygon fill="#A80036" points="1130.5,408.3828,1120.5,412.3828,1130.5,416.3828,1126.5,412.3828" style="stroke: #A80036; stroke-width: 1.0;"/><text fill="#000000" font-family="Arial" font-size="13" lengthAdjust="spacingAndGlyphs" textLength="190" x="1126.5" y="394.3169">validate filename &amp; extension</text><path d="M1328,384.75 L1328,409.75 L1526,409.75 L1526,394.75 L1516,384.75 L1328,384.75 " fill="#FFFFCC" filter="url(#f3tl8d7ccdq1v)" style="stroke: #AAAAAA; stroke-width: 1.0;"/><path d="M1516,384.75 L1516,394.75 L1526,394.75 L1516,384.75 " fill="#FFFFCC" style="stroke: #AAAAAA; stroke-width: 1.0;"/><text fill="#000000" font-family="Arial" font-size="13" lengthAdjust="spacingAndGlyphs" textLength="177" x="1334" y="401.8169">Checks .xlsx / .xls extension</text><path d="M13,427.3828 L77,427.3828 L77,434.3828 L67,444.3828 L13,444.3828 L13,427.3828 " fill="#EEEEEE" style="stroke: #000000; stroke-width: 1.0;"/><rect fill="none" height="1157.6016" style="stroke: #000000; stroke-width: 2.0;" width="1828.5" x="13" y="427.3828"/><text fill="#000000" font-family="Arial" font-size="13" font-weight="bold" lengthAdjust="spacingAndGlyphs" textLength="19" x="28" y="440.4497">alt</text><text fill="#000000" font-family="Arial" font-size="11" font-weight="bold" lengthAdjust="spacingAndGlyphs" textLength="195" x="92" y="439.5933">[Invalid file type or empty file]</text><polygon fill="#A80036" points="774.5,461.6484,764.5,465.6484,774.5,469.6484,770.5,465.6484" style="stroke: #A80036; stroke-width: 1.0;"/><line style="stroke: #A80036; stroke-width: 1.5; stroke-dasharray: 2.0,2.0;" x1="768.5" x2="1108.5" y1="465.6484" y2="465.6484"/><text fill="#000000" font-family="Arial" font-size="13" lengthAdjust="spacingAndGlyphs" textLength="269" x="780.5" y="460.5825">raise ValueError("Invalid file type / empty")</text><polygon fill="#A80036" points="427.5,490.7813,417.5,494.7813,427.5,498.7813,423.5,494.7813" style="stroke: #A80036; stroke-width: 1.0;"/><line style="stroke: #A80036; stroke-width: 1.5; stroke-dasharray: 2.0,2.0;" x1="421.5" x2="752.5" y1="494.7813" y2="494.7813"/><text fill="#000000" font-family="Arial" font-size="13" lengthAdjust="spacingAndGlyphs" textLength="276" x="433.5" y="489.7153">400 { message: "Invalid file type / empty" }</text><polygon fill="#A80036" points="135.5,519.9141,125.5,523.9141,135.5,527.9141,131.5,523.9141" style="stroke: #A80036; stroke-width: 1.0;"/><line style="stroke: #A80036; stroke-width: 1.5; stroke-dasharray: 2.0,2.0;" x1="129.5" x2="405.5" y1="523.9141" y2="523.9141"/><text fill="#000000" font-family="Arial" font-size="13" lengthAdjust="spacingAndGlyphs" textLength="142" x="141.5" y="518.8481">display error message</text><line style="stroke: #000000; stroke-width: 1.0; stroke-dasharray: 2.0,2.0;" x1="13" x2="1841.5" y1="532.9141" y2="532.9141"/><text fill="#000000" font-family="Arial" font-size="11" font-weight="bold" lengthAdjust="spacingAndGlyphs" textLength="67" x="18" y="543.1245">[Valid file]</text><line style="stroke: #A80036; stroke-width: 1.5;" x1="1119.5" x2="1161.5" y1="567.8516" y2="567.8516"/><line style="stroke: #A80036; stroke-width: 1.5;" x1="1161.5" x2="1161.5" y1="567.8516" y2="580.8516"/><line style="stroke: #A80036; stroke-width: 1.5;" x1="1120.5" x2="1161.5" y1="580.8516" y2="580.8516"/><polygon fill="#A80036" points="1130.5,576.8516,1120.5,580.8516,1130.5,584.8516,1126.5,580.8516" style="stroke: #A80036; stroke-width: 1.0;"/><text fill="#000000" font-family="Arial" font-size="13" lengthAdjust="spacingAndGlyphs" textLength="230" x="1126.5" y="562.7856">compute SHA-256 hash of file bytes</text><line style="stroke: #A80036; stroke-width: 1.5;" x1="1119.5" x2="1161.5" y1="609.9844" y2="609.9844"/><line style="stroke: #A80036; stroke-width: 1.5;" x1="1161.5" x2="1161.5" y1="609.9844" y2="622.9844"/><line style="stroke: #A80036; stroke-width: 1.5;" x1="1120.5" x2="1161.5" y1="622.9844" y2="622.9844"/><polygon fill="#A80036" points="1130.5,618.9844,1120.5,622.9844,1130.5,626.9844,1126.5,622.9844" style="stroke: #A80036; stroke-width: 1.0;"/><text fill="#000000" font-family="Arial" font-size="13" lengthAdjust="spacingAndGlyphs" textLength="246" x="1126.5" y="604.9185">scan uploads/ folder for duplicate hash</text><path d="M1384,595.3516 L1384,620.3516 L1693,620.3516 L1693,605.3516 L1683,595.3516 L1384,595.3516 " fill="#FFFFCC" filter="url(#f3tl8d7ccdq1v)" style="stroke: #AAAAAA; stroke-width: 1.0;"/><path d="M1683,595.3516 L1683,605.3516 L1693,605.3516 L1683,595.3516 " fill="#FFFFCC" style="stroke: #AAAAAA; stroke-width: 1.0;"/><text fill="#000000" font-family="Arial" font-size="13" lengthAdjust="spacingAndGlyphs" textLength="288" x="1390" y="612.4185">UC_DUP_FILE — Detect Duplicate Upload File</text><path d="M1005,637.9844 L1069,637.9844 L1069,644.9844 L1059,654.9844 L1005,654.9844 L1005,637.9844 " fill="#EEEEEE" style="stroke: #000000; stroke-width: 1.0;"/><rect fill="none" height="158.3359" style="stroke: #000000; stroke-width: 2.0;" width="615.5" x="1005" y="637.9844"/><text fill="#000000" font-family="Arial" font-size="13" font-weight="bold" lengthAdjust="spacingAndGlyphs" textLength="19" x="1020" y="651.0513">alt</text><text fill="#000000" font-family="Arial" font-size="11" font-weight="bold" lengthAdjust="spacingAndGlyphs" textLength="157" x="1084" y="650.1948">[Duplicate file detected]</text><line style="stroke: #A80036; stroke-width: 1.5;" x1="1119.5" x2="1161.5" y1="676.25" y2="676.25"/><line style="stroke: #A80036; stroke-width: 1.5;" x1="1161.5" x2="1161.5" y1="676.25" y2="689.25"/><line style="stroke: #A80036; stroke-width: 1.5;" x1="1120.5" x2="1161.5" y1="689.25" y2="689.25"/><polygon fill="#A80036" points="1130.5,685.25,1120.5,689.25,1130.5,693.25,1126.5,689.25" style="stroke: #A80036; stroke-width: 1.0;"/><text fill="#000000" font-family="Arial" font-size="13" lengthAdjust="spacingAndGlyphs" textLength="248" x="1126.5" y="671.1841">skip saving file; reuse existing filename</text><path d="M1386,661.6172 L1386,686.6172 L1596,686.6172 L1596,671.6172 L1586,661.6172 L1386,661.6172 " fill="#FFFFCC" filter="url(#f3tl8d7ccdq1v)" style="stroke: #AAAAAA; stroke-width: 1.0;"/><path d="M1586,661.6172 L1586,671.6172 L1596,671.6172 L1586,661.6172 " fill="#FFFFCC" style="stroke: #AAAAAA; stroke-width: 1.0;"/><text fill="#000000" font-family="Arial" font-size="13" lengthAdjust="spacingAndGlyphs" textLength="189" x="1392" y="678.6841">duplicate_of = existing_name</text><line style="stroke: #000000; stroke-width: 1.0; stroke-dasharray: 2.0,2.0;" x1="1005" x2="1620.5" y1="698.25" y2="698.25"/><text fill="#000000" font-family="Arial" font-size="11" font-weight="bold" lengthAdjust="spacingAndGlyphs" textLength="63" x="1010" y="708.4604">[New file]</text><line style="stroke: #A80036; stroke-width: 1.5;" x1="1119.5" x2="1161.5" y1="733.1875" y2="733.1875"/><line style="stroke: #A80036; stroke-width: 1.5;" x1="1161.5" x2="1161.5" y1="733.1875" y2="746.1875"/><line style="stroke: #A80036; stroke-width: 1.5;" x1="1120.5" x2="1161.5" y1="746.1875" y2="746.1875"/><polygon fill="#A80036" points="1130.5,742.1875,1120.5,746.1875,1130.5,750.1875,1126.5,746.1875" style="stroke: #A80036; stroke-width: 1.0;"/><text fill="#000000" font-family="Arial" font-size="13" lengthAdjust="spacingAndGlyphs" textLength="164" x="1126.5" y="728.1216">generate unique filename</text><line style="stroke: #A80036; stroke-width: 1.5;" x1="1119.5" x2="1161.5" y1="775.3203" y2="775.3203"/><line style="stroke: #A80036; stroke-width: 1.5;" x1="1161.5" x2="1161.5" y1="775.3203" y2="788.3203"/><line style="stroke: #A80036; stroke-width: 1.5;" x1="1120.5" x2="1161.5" y1="788.3203" y2="788.3203"/><polygon fill="#A80036" points="1130.5,784.3203,1120.5,788.3203,1130.5,792.3203,1126.5,788.3203" style="stroke: #A80036; stroke-width: 1.0;"/><text fill="#000000" font-family="Arial" font-size="13" lengthAdjust="spacingAndGlyphs" textLength="144" x="1126.5" y="770.2544">save bytes to uploads/</text><path d="M1282,760.6875 L1282,785.6875 L1493,785.6875 L1493,770.6875 L1483,760.6875 L1282,760.6875 " fill="#FFFFCC" filter="url(#f3tl8d7ccdq1v)" style="stroke: #AAAAAA; stroke-width: 1.0;"/><path d="M1483,760.6875 L1483,770.6875 L1493,770.6875 L1483,760.6875 " fill="#FFFFCC" style="stroke: #AAAAAA; stroke-width: 1.0;"/><text fill="#000000" font-family="Arial" font-size="13" lengthAdjust="spacingAndGlyphs" textLength="190" x="1288" y="777.7544">UC_UPLOAD — persist to disk</text><line style="stroke: #A80036; stroke-width: 1.5;" x1="1119.5" x2="1161.5" y1="824.4531" y2="824.4531"/><line style="stroke: #A80036; stroke-width: 1.5;" x1="1161.5" x2="1161.5" y1="824.4531" y2="837.4531"/><line style="stroke: #A80036; stroke-width: 1.5;" x1="1120.5" x2="1161.5" y1="837.4531" y2="837.4531"/><polygon fill="#A80036" points="1130.5,833.4531,1120.5,837.4531,1130.5,841.4531,1126.5,837.4531" style="stroke: #A80036; stroke-width: 1.0;"/><text fill="#000000" font-family="Arial" font-size="13" lengthAdjust="spacingAndGlyphs" textLength="159" x="1126.5" y="819.3872">pd.read_excel(file_bytes)</text><path d="M1297,809.8203 L1297,834.8203 L1542,834.8203 L1542,819.8203 L1532,809.8203 L1297,809.8203 " fill="#FFFFCC" filter="url(#f3tl8d7ccdq1v)" style="stroke: #AAAAAA; stroke-width: 1.0;"/><path d="M1532,809.8203 L1532,819.8203 L1542,819.8203 L1532,809.8203 " fill="#FFFFCC" style="stroke: #AAAAAA; stroke-width: 1.0;"/><text fill="#000000" font-family="Arial" font-size="13" lengthAdjust="spacingAndGlyphs" textLength="224" x="1303" y="826.8872">Parse spreadsheet into DataFrame</text><path d="M23,852.4531 L87,852.4531 L87,859.4531 L77,869.4531 L23,869.4531 L23,852.4531 " fill="#EEEEEE" style="stroke: #000000; stroke-width: 1.0;"/><rect fill="none" height="725.5313" style="stroke: #000000; stroke-width: 2.0;" width="1808.5" x="23" y="852.4531"/><text fill="#000000" font-family="Arial" font-size="13" font-weight="bold" lengthAdjust="spacingAndGlyphs" textLength="19" x="38" y="865.52">alt</text><text fill="#000000" font-family="Arial" font-size="11" font-weight="bold" lengthAdjust="spacingAndGlyphs" textLength="174" x="102" y="864.6636">[Excel content unreadable]</text><polygon fill="#A80036" points="774.5,886.7188,764.5,890.7188,774.5,894.7188,770.5,890.7188" style="stroke: #A80036; stroke-width: 1.0;"/><line style="stroke: #A80036; stroke-width: 1.5; stroke-dasharray: 2.0,2.0;" x1="768.5" x2="1108.5" y1="890.7188" y2="890.7188"/><text fill="#000000" font-family="Arial" font-size="13" lengthAdjust="spacingAndGlyphs" textLength="274" x="780.5" y="885.6528">raise ValueError("Invalid Excel file content")</text><polygon fill="#A80036" points="427.5,915.8516,417.5,919.8516,427.5,923.8516,423.5,919.8516" style="stroke: #A80036; stroke-width: 1.0;"/><line style="stroke: #A80036; stroke-width: 1.5; stroke-dasharray: 2.0,2.0;" x1="421.5" x2="752.5" y1="919.8516" y2="919.8516"/><text fill="#000000" font-family="Arial" font-size="13" lengthAdjust="spacingAndGlyphs" textLength="141" x="433.5" y="914.7856">400 { message: "..." }</text><polygon fill="#A80036" points="135.5,944.9844,125.5,948.9844,135.5,952.9844,131.5,948.9844" style="stroke: #A80036; stroke-width: 1.0;"/><line style="stroke: #A80036; stroke-width: 1.5; stroke-dasharray: 2.0,2.0;" x1="129.5" x2="405.5" y1="948.9844" y2="948.9844"/><text fill="#000000" font-family="Arial" font-size="13" lengthAdjust="spacingAndGlyphs" textLength="142" x="141.5" y="943.9185">display error message</text><line style="stroke: #000000; stroke-width: 1.0; stroke-dasharray: 2.0,2.0;" x1="23" x2="1831.5" y1="957.9844" y2="957.9844"/><text fill="#000000" font-family="Arial" font-size="11" font-weight="bold" lengthAdjust="spacingAndGlyphs" textLength="123" x="28" y="968.1948">[Readable content]</text><path d="M33,978.7891 L97,978.7891 L97,985.7891 L87,995.7891 L33,995.7891 L33,978.7891 " fill="#EEEEEE" style="stroke: #000000; stroke-width: 1.0;"/><rect fill="none" height="592.1953" style="stroke: #000000; stroke-width: 2.0;" width="1788.5" x="33" y="978.7891"/><text fill="#000000" font-family="Arial" font-size="13" font-weight="bold" lengthAdjust="spacingAndGlyphs" textLength="19" x="48" y="991.856">alt</text><text fill="#000000" font-family="Arial" font-size="11" font-weight="bold" lengthAdjust="spacingAndGlyphs" textLength="138" x="112" y="990.9995">[DataFrame is empty]</text><polygon fill="#A80036" points="774.5,1013.0547,764.5,1017.0547,774.5,1021.0547,770.5,1017.0547" style="stroke: #A80036; stroke-width: 1.0;"/><line style="stroke: #A80036; stroke-width: 1.5; stroke-dasharray: 2.0,2.0;" x1="768.5" x2="1108.5" y1="1017.0547" y2="1017.0547"/><text fill="#000000" font-family="Arial" font-size="13" lengthAdjust="spacingAndGlyphs" textLength="322" x="780.5" y="1011.9888">raise ValueError("Uploaded Excel file has no rows")</text><polygon fill="#A80036" points="427.5,1042.1875,417.5,1046.1875,427.5,1050.1875,423.5,1046.1875" style="stroke: #A80036; stroke-width: 1.0;"/><line style="stroke: #A80036; stroke-width: 1.5; stroke-dasharray: 2.0,2.0;" x1="421.5" x2="752.5" y1="1046.1875" y2="1046.1875"/><text fill="#000000" font-family="Arial" font-size="13" lengthAdjust="spacingAndGlyphs" textLength="141" x="433.5" y="1041.1216">400 { message: "..." }</text><polygon fill="#A80036" points="135.5,1071.3203,125.5,1075.3203,135.5,1079.3203,131.5,1075.3203" style="stroke: #A80036; stroke-width: 1.0;"/><line style="stroke: #A80036; stroke-width: 1.5; stroke-dasharray: 2.0,2.0;" x1="129.5" x2="405.5" y1="1075.3203" y2="1075.3203"/><text fill="#000000" font-family="Arial" font-size="13" lengthAdjust="spacingAndGlyphs" textLength="142" x="141.5" y="1070.2544">display error message</text><line style="stroke: #000000; stroke-width: 1.0; stroke-dasharray: 2.0,2.0;" x1="33" x2="1821.5" y1="1084.3203" y2="1084.3203"/><text fill="#000000" font-family="Arial" font-size="11" font-weight="bold" lengthAdjust="spacingAndGlyphs" textLength="153" x="38" y="1094.5308">[Non-empty DataFrame]</text><polygon fill="#A80036" points="1438.5,1115.2578,1448.5,1119.2578,1438.5,1123.2578,1442.5,1119.2578" style="stroke: #A80036; stroke-width: 1.0;"/><line style="stroke: #A80036; stroke-width: 1.5;" x1="1119.5" x2="1444.5" y1="1119.2578" y2="1119.2578"/><text fill="#000000" font-family="Arial" font-size="13" lengthAdjust="spacingAndGlyphs" textLength="159" x="1126.5" y="1114.1919">normalize_dataframe(df)</text><line style="stroke: #A80036; stroke-width: 1.5;" x1="1460.5" x2="1502.5" y1="1148.3906" y2="1148.3906"/><line style="stroke: #A80036; stroke-width: 1.5;" x1="1502.5" x2="1502.5" y1="1148.3906" y2="1161.3906"/><line style="stroke: #A80036; stroke-width: 1.5;" x1="1461.5" x2="1502.5" y1="1161.3906" y2="1161.3906"/><polygon fill="#A80036" points="1471.5,1157.3906,1461.5,1161.3906,1471.5,1165.3906,1467.5,1161.3906" style="stroke: #A80036; stroke-width: 1.0;"/><text fill="#000000" font-family="Arial" font-size="13" lengthAdjust="spacingAndGlyphs" textLength="229" x="1467.5" y="1143.3247">rename columns per COLUMN_MAP</text><line style="stroke: #A80036; stroke-width: 1.5;" x1="1460.5" x2="1502.5" y1="1190.5234" y2="1190.5234"/><line style="stroke: #A80036; stroke-width: 1.5;" x1="1502.5" x2="1502.5" y1="1190.5234" y2="1203.5234"/><line style="stroke: #A80036; stroke-width: 1.5;" x1="1461.5" x2="1502.5" y1="1203.5234" y2="1203.5234"/><polygon fill="#A80036" points="1471.5,1199.5234,1461.5,1203.5234,1471.5,1207.5234,1467.5,1203.5234" style="stroke: #A80036; stroke-width: 1.0;"/><text fill="#000000" font-family="Arial" font-size="13" lengthAdjust="spacingAndGlyphs" textLength="151" x="1467.5" y="1185.4575">strip / clean string fields</text><polygon fill="#A80036" points="1130.5,1228.6563,1120.5,1232.6563,1130.5,1236.6563,1126.5,1232.6563" style="stroke: #A80036; stroke-width: 1.0;"/><line style="stroke: #A80036; stroke-width: 1.5; stroke-dasharray: 2.0,2.0;" x1="1124.5" x2="1454.5" y1="1232.6563" y2="1232.6563"/><text fill="#000000" font-family="Arial" font-size="13" lengthAdjust="spacingAndGlyphs" textLength="87" x="1136.5" y="1227.5903">normalized df</text><line style="stroke: #A80036; stroke-width: 1.5;" x1="1119.5" x2="1161.5" y1="1261.7891" y2="1261.7891"/><line style="stroke: #A80036; stroke-width: 1.5;" x1="1161.5" x2="1161.5" y1="1261.7891" y2="1274.7891"/><line style="stroke: #A80036; stroke-width: 1.5;" x1="1120.5" x2="1161.5" y1="1274.7891" y2="1274.7891"/><polygon fill="#A80036" points="1130.5,1270.7891,1120.5,1274.7891,1130.5,1278.7891,1126.5,1274.7891" style="stroke: #A80036; stroke-width: 1.0;"/><text fill="#000000" font-family="Arial" font-size="13" lengthAdjust="spacingAndGlyphs" textLength="230" x="1126.5" y="1256.7231">normalize key columns (TERM, CRN)</text><polygon fill="#A80036" points="1691.5,1299.9219,1701.5,1303.9219,1691.5,1307.9219,1695.5,1303.9219" style="stroke: #A80036; stroke-width: 1.0;"/><line style="stroke: #A80036; stroke-width: 1.5;" x1="1119.5" x2="1697.5" y1="1303.9219" y2="1303.9219"/><text fill="#000000" font-family="Arial" font-size="13" lengthAdjust="spacingAndGlyphs" textLength="235" x="1126.5" y="1298.856">read existing schedule_database.csv</text><polygon fill="#A80036" points="1130.5,1329.0547,1120.5,1333.0547,1130.5,1337.0547,1126.5,1333.0547" style="stroke: #A80036; stroke-width: 1.0;"/><line style="stroke: #A80036; stroke-width: 1.5; stroke-dasharray: 2.0,2.0;" x1="1124.5" x2="1707.5" y1="1333.0547" y2="1333.0547"/><text fill="#000000" font-family="Arial" font-size="13" lengthAdjust="spacingAndGlyphs" textLength="273" x="1136.5" y="1327.9888">existing DataFrame (or empty if not found)</text><line style="stroke: #A80036; stroke-width: 1.5;" x1="1119.5" x2="1161.5" y1="1362.1875" y2="1362.1875"/><line style="stroke: #A80036; stroke-width: 1.5;" x1="1161.5" x2="1161.5" y1="1362.1875" y2="1375.1875"/><line style="stroke: #A80036; stroke-width: 1.5;" x1="1120.5" x2="1161.5" y1="1375.1875" y2="1375.1875"/><polygon fill="#A80036" points="1130.5,1371.1875,1120.5,1375.1875,1130.5,1379.1875,1126.5,1375.1875" style="stroke: #A80036; stroke-width: 1.0;"/><text fill="#000000" font-family="Arial" font-size="13" lengthAdjust="spacingAndGlyphs" textLength="174" x="1126.5" y="1357.1216">pd.concat(existing, new_df)</text><line style="stroke: #A80036; stroke-width: 1.5;" x1="1119.5" x2="1161.5" y1="1404.3203" y2="1404.3203"/><line style="stroke: #A80036; stroke-width: 1.5;" x1="1161.5" x2="1161.5" y1="1404.3203" y2="1417.3203"/><line style="stroke: #A80036; stroke-width: 1.5;" x1="1120.5" x2="1161.5" y1="1417.3203" y2="1417.3203"/><polygon fill="#A80036" points="1130.5,1413.3203,1120.5,1417.3203,1130.5,1421.3203,1126.5,1417.3203" style="stroke: #A80036; stroke-width: 1.0;"/><text fill="#000000" font-family="Arial" font-size="13" lengthAdjust="spacingAndGlyphs" textLength="317" x="1126.5" y="1399.2544">drop_duplicates(subset=[CRN, TERM], keep=last)</text><path d="M1455,1389.6875 L1455,1414.6875 L1797,1414.6875 L1797,1399.6875 L1787,1389.6875 L1455,1389.6875 " fill="#FFFFCC" filter="url(#f3tl8d7ccdq1v)" style="stroke: #AAAAAA; stroke-width: 1.0;"/><path d="M1787,1389.6875 L1787,1399.6875 L1797,1399.6875 L1787,1389.6875 " fill="#FFFFCC" style="stroke: #AAAAAA; stroke-width: 1.0;"/><text fill="#000000" font-family="Arial" font-size="13" lengthAdjust="spacingAndGlyphs" textLength="321" x="1461" y="1406.7544">UC_DUP_DATA — deduplicate by CRN + semester</text><polygon fill="#A80036" points="1691.5,1442.4531,1701.5,1446.4531,1691.5,1450.4531,1695.5,1446.4531" style="stroke: #A80036; stroke-width: 1.0;"/><line style="stroke: #A80036; stroke-width: 1.5;" x1="1119.5" x2="1697.5" y1="1446.4531" y2="1446.4531"/><text fill="#000000" font-family="Arial" font-size="13" lengthAdjust="spacingAndGlyphs" textLength="330" x="1126.5" y="1441.3872">write merged DataFrame to schedule_database.csv</text><polygon fill="#A80036" points="1130.5,1471.5859,1120.5,1475.5859,1130.5,1479.5859,1126.5,1475.5859" style="stroke: #A80036; stroke-width: 1.0;"/><line style="stroke: #A80036; stroke-width: 1.5; stroke-dasharray: 2.0,2.0;" x1="1124.5" x2="1707.5" y1="1475.5859" y2="1475.5859"/><text fill="#000000" font-family="Arial" font-size="13" lengthAdjust="spacingAndGlyphs" textLength="98" x="1136.5" y="1470.52">write confirmed</text><polygon fill="#A80036" points="774.5,1500.7188,764.5,1504.7188,774.5,1508.7188,770.5,1504.7188" style="stroke: #A80036; stroke-width: 1.0;"/><line style="stroke: #A80036; stroke-width: 1.5; stroke-dasharray: 2.0,2.0;" x1="768.5" x2="1113.5" y1="1504.7188" y2="1504.7188"/><text fill="#000000" font-family="Arial" font-size="13" lengthAdjust="spacingAndGlyphs" textLength="257" x="780.5" y="1499.6528">{ message, rows, saved_file, duplicate }</text><polygon fill="#A80036" points="427.5,1529.8516,417.5,1533.8516,427.5,1537.8516,423.5,1533.8516" style="stroke: #A80036; stroke-width: 1.0;"/><line style="stroke: #A80036; stroke-width: 1.5; stroke-dasharray: 2.0,2.0;" x1="421.5" x2="757.5" y1="1533.8516" y2="1533.8516"/><text fill="#000000" font-family="Arial" font-size="13" lengthAdjust="spacingAndGlyphs" textLength="313" x="433.5" y="1528.7856">200 { message: "Data imported. File saved: ..." }</text><polygon fill="#A80036" points="135.5,1558.9844,125.5,1562.9844,135.5,1566.9844,131.5,1562.9844" style="stroke: #A80036; stroke-width: 1.0;"/><line style="stroke: #A80036; stroke-width: 1.5; stroke-dasharray: 2.0,2.0;" x1="129.5" x2="410.5" y1="1562.9844" y2="1562.9844"/><text fill="#000000" font-family="Arial" font-size="13" lengthAdjust="spacingAndGlyphs" textLength="183" x="141.5" y="1557.9185">display success confirmation</text><rect fill="#EEEEEE" filter="url(#f3tl8d7ccdq1v)" height="3" style="stroke: #EEEEEE; stroke-width: 1.0;" width="1848.5" x="3" y="1612.5508"/><line style="stroke: #000000; stroke-width: 1.0;" x1="3" x2="1851.5" y1="1612.5508" y2="1612.5508"/><line style="stroke: #000000; stroke-width: 1.0;" x1="3" x2="1851.5" y1="1615.5508" y2="1615.5508"/><rect fill="#EEEEEE" filter="url(#f3tl8d7ccdq1v)" height="23.1328" style="stroke: #000000; stroke-width: 2.0;" width="350" x="752.25" y="1601.9844"/><text fill="#000000" font-family="Arial" font-size="13" font-weight="bold" lengthAdjust="spacingAndGlyphs" textLength="331" x="758.25" y="1618.0513">Alternative Flow 6a — Remove Uploaded File</text><polygon fill="#A80036" points="394.5,1652.25,404.5,1656.25,394.5,1660.25,398.5,1656.25" style="stroke: #A80036; stroke-width: 1.0;"/><line style="stroke: #A80036; stroke-width: 1.5;" x1="124.5" x2="400.5" y1="1656.25" y2="1656.25"/><text fill="#000000" font-family="Arial" font-size="13" lengthAdjust="spacingAndGlyphs" textLength="105" x="131.5" y="1651.1841">navigate to /files</text><line style="stroke: #A80036; stroke-width: 1.5;" x1="416.5" x2="458.5" y1="1685.3828" y2="1685.3828"/><line style="stroke: #A80036; stroke-width: 1.5;" x1="458.5" x2="458.5" y1="1685.3828" y2="1698.3828"/><line style="stroke: #A80036; stroke-width: 1.5;" x1="417.5" x2="458.5" y1="1698.3828" y2="1698.3828"/><polygon fill="#A80036" points="427.5,1694.3828,417.5,1698.3828,427.5,1702.3828,423.5,1698.3828" style="stroke: #A80036; stroke-width: 1.0;"/><text fill="#000000" font-family="Arial" font-size="13" lengthAdjust="spacingAndGlyphs" textLength="120" x="423.5" y="1680.3169">list files in uploads/</text><polygon fill="#A80036" points="135.5,1723.5156,125.5,1727.5156,135.5,1731.5156,131.5,1727.5156" style="stroke: #A80036; stroke-width: 1.0;"/><line style="stroke: #A80036; stroke-width: 1.5; stroke-dasharray: 2.0,2.0;" x1="129.5" x2="405.5" y1="1727.5156" y2="1727.5156"/><text fill="#000000" font-family="Arial" font-size="13" lengthAdjust="spacingAndGlyphs" textLength="88" x="141.5" y="1722.4497">display file list</text><polygon fill="#A80036" points="394.5,1752.6484,404.5,1756.6484,394.5,1760.6484,398.5,1756.6484" style="stroke: #A80036; stroke-width: 1.0;"/><line style="stroke: #A80036; stroke-width: 1.5;" x1="124.5" x2="400.5" y1="1756.6484" y2="1756.6484"/><text fill="#000000" font-family="Arial" font-size="13" lengthAdjust="spacingAndGlyphs" textLength="127" x="131.5" y="1751.5825">click Delete on a file</text><polygon fill="#A80036" points="741.5,1781.7813,751.5,1785.7813,741.5,1789.7813,745.5,1785.7813" style="stroke: #A80036; stroke-width: 1.0;"/><line style="stroke: #A80036; stroke-width: 1.5;" x1="416.5" x2="747.5" y1="1785.7813" y2="1785.7813"/><text fill="#000000" font-family="Arial" font-size="13" lengthAdjust="spacingAndGlyphs" textLength="163" x="423.5" y="1780.7153">POST /delete/&lt;filename&gt;</text><line style="stroke: #A80036; stroke-width: 1.5;" x1="763.5" x2="805.5" y1="1814.9141" y2="1814.9141"/><line style="stroke: #A80036; stroke-width: 1.5;" x1="805.5" x2="805.5" y1="1814.9141" y2="1827.9141"/><line style="stroke: #A80036; stroke-width: 1.5;" x1="764.5" x2="805.5" y1="1827.9141" y2="1827.9141"/><polygon fill="#A80036" points="774.5,1823.9141,764.5,1827.9141,774.5,1831.9141,770.5,1827.9141" style="stroke: #A80036; stroke-width: 1.0;"/><text fill="#000000" font-family="Arial" font-size="13" lengthAdjust="spacingAndGlyphs" textLength="125" x="770.5" y="1809.8481">os.remove(filepath)</text><polygon fill="#A80036" points="1097.5,1853.0469,1107.5,1857.0469,1097.5,1861.0469,1101.5,1857.0469" style="stroke: #A80036; stroke-width: 1.0;"/><line style="stroke: #A80036; stroke-width: 1.5;" x1="763.5" x2="1103.5" y1="1857.0469" y2="1857.0469"/><text fill="#000000" font-family="Arial" font-size="13" lengthAdjust="spacingAndGlyphs" textLength="278" x="770.5" y="1851.981">rebuild_schedule_database_from_uploads()</text><polygon fill="#A80036" points="1691.5,1882.1797,1701.5,1886.1797,1691.5,1890.1797,1695.5,1886.1797" style="stroke: #A80036; stroke-width: 1.0;"/><line style="stroke: #A80036; stroke-width: 1.5;" x1="1119.5" x2="1697.5" y1="1886.1797" y2="1886.1797"/><text fill="#000000" font-family="Arial" font-size="13" lengthAdjust="spacingAndGlyphs" textLength="252" x="1126.5" y="1881.1138">rebuild CSV from remaining upload files</text><polygon fill="#A80036" points="1130.5,1911.3125,1120.5,1915.3125,1130.5,1919.3125,1126.5,1915.3125" style="stroke: #A80036; stroke-width: 1.0;"/><line style="stroke: #A80036; stroke-width: 1.5; stroke-dasharray: 2.0,2.0;" x1="1124.5" x2="1707.5" y1="1915.3125" y2="1915.3125"/><text fill="#000000" font-family="Arial" font-size="13" lengthAdjust="spacingAndGlyphs" textLength="98" x="1136.5" y="1910.2466">write confirmed</text><polygon fill="#A80036" points="774.5,1940.4453,764.5,1944.4453,774.5,1948.4453,770.5,1944.4453" style="stroke: #A80036; stroke-width: 1.0;"/><line style="stroke: #A80036; stroke-width: 1.5; stroke-dasharray: 2.0,2.0;" x1="768.5" x2="1113.5" y1="1944.4453" y2="1944.4453"/><text fill="#000000" font-family="Arial" font-size="13" lengthAdjust="spacingAndGlyphs" textLength="65" x="780.5" y="1939.3794">row_count</text><polygon fill="#A80036" points="427.5,1969.5781,417.5,1973.5781,427.5,1977.5781,423.5,1973.5781" style="stroke: #A80036; stroke-width: 1.0;"/><line style="stroke: #A80036; stroke-width: 1.5; stroke-dasharray: 2.0,2.0;" x1="421.5" x2="757.5" y1="1973.5781" y2="1973.5781"/><text fill="#000000" font-family="Arial" font-size="13" lengthAdjust="spacingAndGlyphs" textLength="221" x="433.5" y="1968.5122">redirect /files?message=Deleted...</text><polygon fill="#A80036" points="135.5,1998.7109,125.5,2002.7109,135.5,2006.7109,131.5,2002.7109" style="stroke: #A80036; stroke-width: 1.0;"/><line style="stroke: #A80036; stroke-width: 1.5; stroke-dasharray: 2.0,2.0;" x1="129.5" x2="410.5" y1="2002.7109" y2="2002.7109"/><text fill="#000000" font-family="Arial" font-size="13" lengthAdjust="spacingAndGlyphs" textLength="258" x="141.5" y="1997.645">display updated file list with confirmation</text><!--MD5=[a06430e47f033779734b7e4be8e4df8f]
@startuml

skinparam DefaultFontName Arial
skinparam SequenceArrowThickness 1.5
skinparam ParticipantBackgroundColor #FEFEFE
skinparam ParticipantBorderColor #444444
skinparam NoteBackgroundColor #FFFFCC
skinparam NoteBorderColor #AAAAAA
skinparam SequenceLifeLineBorderColor #888888

title Sequence(1)_MOSS_Pj2_T-01\nUC1: Upload Excel File\nAuthor: MayfairMI6 Team

actor "Scheduling Committee\nMember" as SCM

boundary "UploadPage\n(home.html / upload form)" as UploadPage
control "UploadController\n(routes.upload)" as UploadCtrl
control "ExcelService\n(excel_service.import_excel)" as ExcelSvc
entity "DataService\n(data_service.normalize_dataframe)" as DataSvc
database "ScheduleDatabase\n(schedule_database.csv)" as DB

== Basic Flow ==

SCM -> UploadPage : navigate to upload page
activate UploadPage

SCM -> UploadPage : select Excel file (.xlsx/.xls)
SCM -> UploadPage : submit file

UploadPage -> UploadCtrl : POST /upload (file)
activate UploadCtrl

UploadCtrl -> ExcelSvc : import_excel(file)
activate ExcelSvc

ExcelSvc -> ExcelSvc : validate filename & extension
note right: Checks .xlsx / .xls extension

alt Invalid file type or empty file
    ExcelSvc - -> UploadCtrl : raise ValueError("Invalid file type / empty")
    UploadCtrl - -> UploadPage : 400 { message: "Invalid file type / empty" }
    UploadPage - -> SCM : display error message
else Valid file
    ExcelSvc -> ExcelSvc : compute SHA-256 hash of file bytes

    ExcelSvc -> ExcelSvc : scan uploads/ folder for duplicate hash
    note right: UC_DUP_FILE — Detect Duplicate Upload File

    alt Duplicate file detected
        ExcelSvc -> ExcelSvc : skip saving file; reuse existing filename
        note right: duplicate_of = existing_name
    else New file
        ExcelSvc -> ExcelSvc : generate unique filename
        ExcelSvc -> ExcelSvc : save bytes to uploads/
        note right: UC_UPLOAD — persist to disk
    end

    ExcelSvc -> ExcelSvc : pd.read_excel(file_bytes)
    note right: Parse spreadsheet into DataFrame

    alt Excel content unreadable
        ExcelSvc - -> UploadCtrl : raise ValueError("Invalid Excel file content")
        UploadCtrl - -> UploadPage : 400 { message: "..." }
        UploadPage - -> SCM : display error message
    else Readable content
        alt DataFrame is empty
            ExcelSvc - -> UploadCtrl : raise ValueError("Uploaded Excel file has no rows")
            UploadCtrl - -> UploadPage : 400 { message: "..." }
            UploadPage - -> SCM : display error message
        else Non-empty DataFrame
            ExcelSvc -> DataSvc : normalize_dataframe(df)
            activate DataSvc
            DataSvc -> DataSvc : rename columns per COLUMN_MAP
            DataSvc -> DataSvc : strip / clean string fields
            DataSvc - -> ExcelSvc : normalized df
            deactivate DataSvc

            ExcelSvc -> ExcelSvc : normalize key columns (TERM, CRN)

            ExcelSvc -> DB : read existing schedule_database.csv
            activate DB
            DB - -> ExcelSvc : existing DataFrame (or empty if not found)
            deactivate DB

            ExcelSvc -> ExcelSvc : pd.concat(existing, new_df)
            ExcelSvc -> ExcelSvc : drop_duplicates(subset=[CRN, TERM], keep=last)
            note right: UC_DUP_DATA — deduplicate by CRN + semester

            ExcelSvc -> DB : write merged DataFrame to schedule_database.csv
            activate DB
            DB - -> ExcelSvc : write confirmed
            deactivate DB

            ExcelSvc - -> UploadCtrl : { message, rows, saved_file, duplicate }
            deactivate ExcelSvc

            UploadCtrl - -> UploadPage : 200 { message: "Data imported. File saved: ..." }
            deactivate UploadCtrl

            UploadPage - -> SCM : display success confirmation
            deactivate UploadPage
        end
    end
end

== Alternative Flow 6a — Remove Uploaded File ==

SCM -> UploadPage : navigate to /files
activate UploadPage
UploadPage -> UploadPage : list files in uploads/
UploadPage - -> SCM : display file list

SCM -> UploadPage : click Delete on a file
UploadPage -> UploadCtrl : POST /delete/<filename>
activate UploadCtrl
UploadCtrl -> UploadCtrl : os.remove(filepath)
UploadCtrl -> ExcelSvc : rebuild_schedule_database_from_uploads()
activate ExcelSvc
ExcelSvc -> DB : rebuild CSV from remaining upload files
activate DB
DB - -> ExcelSvc : write confirmed
deactivate DB
ExcelSvc - -> UploadCtrl : row_count
deactivate ExcelSvc
UploadCtrl - -> UploadPage : redirect /files?message=Deleted...
deactivate UploadCtrl
UploadPage - -> SCM : display updated file list with confirmation
deactivate UploadPage

@enduml

PlantUML version 1.2020.02(Sun Mar 01 10:22:07 UTC 2020)
(GPL source distribution)
Java Runtime: OpenJDK Runtime Environment
JVM: OpenJDK 64-Bit Server VM
Java Version: 17.0.18+8
Operating System: Linux
Default Encoding: UTF-8
Language: en
Country: null
--></g></svg>