<?xml version="1.0" encoding="UTF-8" standalone="no"?><svg xmlns="http://www.w3.org/2000/svg" xmlns:xlink="http://www.w3.org/1999/xlink" contentScriptType="application/ecmascript" contentStyleType="text/css" height="2056px" preserveAspectRatio="none" style="width:1804px;height:2056px;" version="1.1" viewBox="0 0 1804 2056" width="1804px" zoomAndPan="magnify"><defs><filter height="300%" id="fxwzumhh13um4" width="300%" x="-1" y="-1"><feGaussianBlur result="blurOut" stdDeviation="2.0"/><feColorMatrix in="blurOut" result="blurOut2" type="matrix" values="0 0 0 0 0 0 0 0 0 0 0 0 0 0 0 0 0 0 .4 0"/><feOffset dx="4.0" dy="4.0" in="blurOut2" result="blurOut3"/><feBlend in="SourceGraphic" in2="blurOut3" mode="normal"/></filter></defs><g><text fill="#000000" font-family="Arial" font-size="18" lengthAdjust="spacingAndGlyphs" textLength="258" x="768.75" y="26.708">Sequence(2)_MOSS_Pj2_T-01</text><text fill="#000000" font-family="Arial" font-size="18" lengthAdjust="spacingAndGlyphs" textLength="269" x="763.25" y="47.6611">UC2: Search and Filter Classes</text><rect fill="#FFFFFF" filter="url(#fxwzumhh13um4)" height="404.7266" style="stroke: #888888; stroke-width: 1.0;" width="10" x="456.5" y="232.7656"/><rect fill="#FFFFFF" filter="url(#fxwzumhh13um4)" height="1106.3906" style="stroke: #888888; stroke-width: 1.0;" width="10" x="456.5" y="724.8906"/><rect fill="#FFFFFF" filter="url(#fxwzumhh13um4)" height="29.1328" style="stroke: #888888; stroke-width: 1.0;" width="10" x="456.5" y="1884.5469"/><rect fill="#FFFFFF" filter="url(#fxwzumhh13um4)" height="346.4609" style="stroke: #888888; stroke-width: 1.0;" width="10" x="880.5" y="261.8984"/><rect fill="#FFFFFF" filter="url(#fxwzumhh13um4)" height="973.5938" style="stroke: #888888; stroke-width: 1.0;" width="10" x="880.5" y="798.2891"/><rect fill="#FFFFFF" filter="url(#fxwzumhh13um4)" height="129.5313" style="stroke: #888888; stroke-width: 1.0;" width="10" x="1319.5" y="291.0313"/><rect fill="#FFFFFF" filter="url(#fxwzumhh13um4)" height="129.5313" style="stroke: #888888; stroke-width: 1.0;" width="10" x="1319.5" y="449.6953"/><rect fill="#FFFFFF" filter="url(#fxwzumhh13um4)" height="517.8594" style="stroke: #888888; stroke-width: 1.0;" width="10" x="1319.5" y="966.7578"/><rect fill="#FFFFFF" filter="url(#fxwzumhh13um4)" height="140.5313" style="stroke: #888888; stroke-width: 1.0;" width="10" x="1324.5" y="1003.8906"/><rect fill="#FFFFFF" filter="url(#fxwzumhh13um4)" height="101.5313" style="stroke: #888888; stroke-width: 1.0;" width="10" x="1319.5" y="1513.75"/><rect fill="#FFFFFF" filter="url(#fxwzumhh13um4)" height="29.1328" style="stroke: #888888; stroke-width: 1.0;" width="10" x="1678.5" y="320.1641"/><rect fill="#FFFFFF" filter="url(#fxwzumhh13um4)" height="29.1328" style="stroke: #888888; stroke-width: 1.0;" width="10" x="1678.5" y="478.8281"/><rect fill="#FFFFFF" filter="url(#fxwzumhh13um4)" height="29.1328" style="stroke: #888888; stroke-width: 1.0;" width="10" x="1678.5" y="1038.0234"/><rect fill="#FFFFFF" filter="url(#fxwzumhh13um4)" height="1080.2578" style="stroke: #000000; stroke-width: 2.0;" width="1769.5" x="13" y="855.4219"/><rect fill="#FFFFFF" height="1004.8594" style="stroke: none; stroke-width: 1.0;" width="1769.5" x="13" y="930.8203"/><rect fill="#FFFFFF" filter="url(#fxwzumhh13um4)" height="101.3984" style="stroke: #000000; stroke-width: 2.0;" width="425" x="1208.5" y="1166.4219"/><rect fill="#FFFFFF" filter="url(#fxwzumhh13um4)" height="59.2656" style="stroke: #000000; stroke-width: 2.0;" width="475" x="1208.5" y="1281.8203"/><rect fill="#FFFFFF" filter="url(#fxwzumhh13um4)" height="59.2656" style="stroke: #000000; stroke-width: 2.0;" width="371" x="1208.5" y="1355.0859"/><rect fill="#FFFFFF" filter="url(#fxwzumhh13um4)" height="298.3984" style="stroke: #000000; stroke-width: 2.0;" width="1015.5" x="23" y="1630.2813"/><rect fill="#FFFFFF" height="207.8672" style="stroke: none; stroke-width: 1.0;" width="1015.5" x="23" y="1720.8125"/><rect fill="#FFFFFF" filter="url(#fxwzumhh13um4)" height="75.3984" style="stroke: #000000; stroke-width: 2.0;" width="487" x="33" y="1846.2813"/><line style="stroke: #888888; stroke-width: 1.0; stroke-dasharray: 5.0,5.0;" x1="124" x2="124" y1="158.5" y2="1952.6797"/><line style="stroke: #888888; stroke-width: 1.0; stroke-dasharray: 5.0,5.0;" x1="461" x2="461" y1="158.5" y2="1952.6797"/><line style="stroke: #888888; stroke-width: 1.0; stroke-dasharray: 5.0,5.0;" x1="885.5" x2="885.5" y1="158.5" y2="1952.6797"/><line style="stroke: #888888; stroke-width: 1.0; stroke-dasharray: 5.0,5.0;" x1="1324.5" x2="1324.5" y1="158.5" y2="1952.6797"/><line style="stroke: #888888; stroke-width: 1.0; stroke-dasharray: 5.0,5.0;" x1="1683.5" x2="1683.5" y1="158.5" y2="1952.6797"/><text fill="#000000" font-family="Arial" font-size="14" lengthAdjust="spacingAndGlyphs" textLength="157" x="43" y="138.9014">Scheduling Committee</text><text fill="#000000" font-family="Arial" font-size="14" lengthAdjust="spacingAndGlyphs" textLength="57" x="93" y="155.1982">Member</text><ellipse cx="124.5" cy="68.9063" fill="#FEFECE" filter="url(#fxwzumhh13um4)" rx="8" ry="8" style="stroke: #A80036; stroke-width: 2.0;"/><path d="M124.5,76.9063 L124.5,103.9063 M111.5,84.9063 L137.5,84.9063 M124.5,103.9063 L111.5,118.9063 M124.5,103.9063 L137.5,118.9063 " fill="none" filter="url(#fxwzumhh13um4)" style="stroke: #A80036; stroke-width: 2.0;"/><text fill="#000000" font-family="Arial" font-size="14" lengthAdjust="spacingAndGlyphs" textLength="157" x="43" y="1964.6748">Scheduling Committee</text><text fill="#000000" font-family="Arial" font-size="14" lengthAdjust="spacingAndGlyphs" textLength="57" x="93" y="1980.9717">Member</text><ellipse cx="124.5" cy="1994.2734" fill="#FEFECE" filter="url(#fxwzumhh13um4)" rx="8" ry="8" style="stroke: #A80036; stroke-width: 2.0;"/><path d="M124.5,2002.2734 L124.5,2029.2734 M111.5,2010.2734 L137.5,2010.2734 M124.5,2029.2734 L111.5,2044.2734 M124.5,2029.2734 L137.5,2044.2734 " fill="none" filter="url(#fxwzumhh13um4)" style="stroke: #A80036; stroke-width: 2.0;"/><text fill="#000000" font-family="Arial" font-size="14" lengthAdjust="spacingAndGlyphs" textLength="83" x="417" y="138.9014">SearchPage</text><text fill="#000000" font-family="Arial" font-size="14" lengthAdjust="spacingAndGlyphs" textLength="91" x="413" y="155.1982">(search.html)</text><path d="M441,97.9063 L441,121.9063 M441,109.9063 L458,109.9063 " fill="none" filter="url(#fxwzumhh13um4)" style="stroke: #A80036; stroke-width: 2.0;"/><ellipse cx="470" cy="109.9063" fill="#FEFECE" filter="url(#fxwzumhh13um4)" rx="12" ry="12" style="stroke: #A80036; stroke-width: 2.0;"/><text fill="#000000" font-family="Arial" font-size="14" lengthAdjust="spacingAndGlyphs" textLength="83" x="417" y="1964.6748">SearchPage</text><text fill="#000000" font-family="Arial" font-size="14" lengthAdjust="spacingAndGlyphs" textLength="91" x="413" y="1980.9717">(search.html)</text><path d="M441,1988.2734 L441,2012.2734 M441,2000.2734 L458,2000.2734 " fill="none" filter="url(#fxwzumhh13um4)" style="stroke: #A80036; stroke-width: 2.0;"/><ellipse cx="470" cy="2000.2734" fill="#FEFECE" filter="url(#fxwzumhh13um4)" rx="12" ry="12" style="stroke: #A80036; stroke-width: 2.0;"/><text fill="#000000" font-family="Arial" font-size="14" lengthAdjust="spacingAndGlyphs" textLength="115" x="825" y="138.9014">SearchController</text><text fill="#000000" font-family="Arial" font-size="14" lengthAdjust="spacingAndGlyphs" textLength="280" x="742.5" y="155.1982">(schedule_routes.search_classes_route)</text><ellipse cx="885.5" cy="109.9063" fill="#FEFECE" filter="url(#fxwzumhh13um4)" rx="12" ry="12" style="stroke: #A80036; stroke-width: 2.0;"/><polygon fill="#A80036" points="881.5,97.9063,887.5,92.9063,885.5,97.9063,887.5,102.9063,881.5,97.9063" style="stroke: #A80036; stroke-width: 1.0;"/><text fill="#000000" font-family="Arial" font-size="14" lengthAdjust="spacingAndGlyphs" textLength="115" x="825" y="1964.6748">SearchController</text><text fill="#000000" font-family="Arial" font-size="14" lengthAdjust="spacingAndGlyphs" textLength="280" x="742.5" y="1980.9717">(schedule_routes.search_classes_route)</text><ellipse cx="885.5" cy="2000.2734" fill="#FEFECE" filter="url(#fxwzumhh13um4)" rx="12" ry="12" style="stroke: #A80036; stroke-width: 2.0;"/><polygon fill="#A80036" points="881.5,1988.2734,887.5,1983.2734,885.5,1988.2734,887.5,1993.2734,881.5,1988.2734" style="stroke: #A80036; stroke-width: 1.0;"/><text fill="#000000" font-family="Arial" font-size="14" lengthAdjust="spacingAndGlyphs" textLength="82" x="1280.5" y="138.9014">DataService</text><text fill="#000000" font-family="Arial" font-size="14" lengthAdjust="spacingAndGlyphs" textLength="206" x="1218.5" y="155.1982">(data_service.search_classes)</text><ellipse cx="1324.5" cy="109.9063" fill="#FEFECE" filter="url(#fxwzumhh13um4)" rx="12" ry="12" style="stroke: #A80036; stroke-width: 2.0;"/><polygon fill="#A80036" points="1320.5,97.9063,1326.5,92.9063,1324.5,97.9063,1326.5,102.9063,1320.5,97.9063" style="stroke: #A80036; stroke-width: 1.0;"/><text fill="#000000" font-family="Arial" font-size="14" lengthAdjust="spacingAndGlyphs" textLength="82" x="1280.5" y="1964.6748">DataService</text><text fill="#000000" font-family="Arial" font-size="14" lengthAdjust="spacingAndGlyphs" textLength="206" x="1218.5" y="1980.9717">(data_service.search_classes)</text><ellipse cx="1324.5" cy="2000.2734" fill="#FEFECE" filter="url(#fxwzumhh13um4)" rx="12" ry="12" style="stroke: #A80036; stroke-width: 2.0;"/><polygon fill="#A80036" points="1320.5,1988.2734,1326.5,1983.2734,1324.5,1988.2734,1326.5,1993.2734,1320.5,1988.2734" style="stroke: #A80036; stroke-width: 1.0;"/><text fill="#000000" font-family="Arial" font-size="14" lengthAdjust="spacingAndGlyphs" textLength="131" x="1615" y="138.9014">ScheduleDatabase</text><text fill="#000000" font-family="Arial" font-size="14" lengthAdjust="spacingAndGlyphs" textLength="172" x="1594.5" y="155.1982">(schedule_database.csv)</text><path d="M1665.5,89.9063 C1665.5,79.9063 1683.5,79.9063 1683.5,79.9063 C1683.5,79.9063 1701.5,79.9063 1701.5,89.9063 L1701.5,115.9063 C1701.5,125.9063 1683.5,125.9063 1683.5,125.9063 C1683.5,125.9063 1665.5,125.9063 1665.5,115.9063 L1665.5,89.9063 " fill="#FEFECE" filter="url(#fxwzumhh13um4)" style="stroke: #000000; stroke-width: 1.5;"/><path d="M1665.5,89.9063 C1665.5,99.9063 1683.5,99.9063 1683.5,99.9063 C1683.5,99.9063 1701.5,99.9063 1701.5,89.9063 " fill="none" style="stroke: #000000; stroke-width: 1.5;"/><text fill="#000000" font-family="Arial" font-size="14" lengthAdjust="spacingAndGlyphs" textLength="131" x="1615" y="1964.6748">ScheduleDatabase</text><text fill="#000000" font-family="Arial" font-size="14" lengthAdjust="spacingAndGlyphs" textLength="172" x="1594.5" y="1980.9717">(schedule_database.csv)</text><path d="M1665.5,1994.2734 C1665.5,1984.2734 1683.5,1984.2734 1683.5,1984.2734 C1683.5,1984.2734 1701.5,1984.2734 1701.5,1994.2734 L1701.5,2020.2734 C1701.5,2030.2734 1683.5,2030.2734 1683.5,2030.2734 C1683.5,2030.2734 1665.5,2030.2734 1665.5,2020.2734 L1665.5,1994.2734 " fill="#FEFECE" filter="url(#fxwzumhh13um4)" style="stroke: #000000; stroke-width: 1.5;"/><path d="M1665.5,1994.2734 C1665.5,2004.2734 1683.5,2004.2734 1683.5,2004.2734 C1683.5,2004.2734 1701.5,2004.2734 1701.5,1994.2734 " fill="none" style="stroke: #000000; stroke-width: 1.5;"/><rect fill="#FFFFFF" filter="url(#fxwzumhh13um4)" height="404.7266" style="stroke: #888888; stroke-width: 1.0;" width="10" x="456.5" y="232.7656"/><rect fill="#FFFFFF" filter="url(#fxwzumhh13um4)" height="1106.3906" style="stroke: #888888; stroke-width: 1.0;" width="10" x="456.5" y="724.8906"/><rect fill="#FFFFFF" filter="url(#fxwzumhh13um4)" height="29.1328" style="stroke: #888888; stroke-width: 1.0;" width="10" x="456.5" y="1884.5469"/><rect fill="#FFFFFF" filter="url(#fxwzumhh13um4)" height="346.4609" style="stroke: #888888; stroke-width: 1.0;" width="10" x="880.5" y="261.8984"/><rect fill="#FFFFFF" filter="url(#fxwzumhh13um4)" height="973.5938" style="stroke: #888888; stroke-width: 1.0;" width="10" x="880.5" y="798.2891"/><rect fill="#FFFFFF" filter="url(#fxwzumhh13um4)" height="129.5313" style="stroke: #888888; stroke-width: 1.0;" width="10" x="1319.5" y="291.0313"/><rect fill="#FFFFFF" filter="url(#fxwzumhh13um4)" height="129.5313" style="stroke: #888888; stroke-width: 1.0;" width="10" x="1319.5" y="449.6953"/><rect fill="#FFFFFF" filter="url(#fxwzumhh13um4)" height="517.8594" style="stroke: #888888; stroke-width: 1.0;" width="10" x="1319.5" y="966.7578"/><rect fill="#FFFFFF" filter="url(#fxwzumhh13um4)" height="140.5313" style="stroke: #888888; stroke-width: 1.0;" width="10" x="1324.5" y="1003.8906"/><rect fill="#FFFFFF" filter="url(#fxwzumhh13um4)" height="101.5313" style="stroke: #888888; stroke-width: 1.0;" width="10" x="1319.5" y="1513.75"/><rect fill="#FFFFFF" filter="url(#fxwzumhh13um4)" height="29.1328" style="stroke: #888888; stroke-width: 1.0;" width="10" x="1678.5" y="320.1641"/><rect fill="#FFFFFF" filter="url(#fxwzumhh13um4)" height="29.1328" style="stroke: #888888; stroke-width: 1.0;" width="10" x="1678.5" y="478.8281"/><rect fill="#FFFFFF" filter="url(#fxwzumhh13um4)" height="29.1328" style="stroke: #888888; stroke-width: 1.0;" width="10" x="1678.5" y="1038.0234"/><rect fill="#EEEEEE" filter="url(#fxwzumhh13um4)" height="3" style="stroke: #EEEEEE; stroke-width: 1.0;" width="1789.5" x="3" y="189.0664"/><line style="stroke: #000000; stroke-width: 1.0;" x1="3" x2="1792.5" y1="189.0664" y2="189.0664"/><line style="stroke: #000000; stroke-width: 1.0;" x1="3" x2="1792.5" y1="192.0664" y2="192.0664"/><rect fill="#EEEEEE" filter="url(#fxwzumhh13um4)" height="23.1328" style="stroke: #000000; stroke-width: 2.0;" width="98" x="848.75" y="178.5"/><text fill="#000000" font-family="Arial" font-size="13" font-weight="bold" lengthAdjust="spacingAndGlyphs" textLength="79" x="854.75" y="194.5669">Page Load</text><polygon fill="#A80036" points="444.5,228.7656,454.5,232.7656,444.5,236.7656,448.5,232.7656" style="stroke: #A80036; stroke-width: 1.0;"/><line style="stroke: #A80036; stroke-width: 1.5;" x1="124.5" x2="450.5" y1="232.7656" y2="232.7656"/><text fill="#000000" font-family="Arial" font-size="13" lengthAdjust="spacingAndGlyphs" textLength="184" x="131.5" y="227.6997">navigate to /schedule/search</text><polygon fill="#A80036" points="868.5,257.8984,878.5,261.8984,868.5,265.8984,872.5,261.8984" style="stroke: #A80036; stroke-width: 1.0;"/><line style="stroke: #A80036; stroke-width: 1.5;" x1="466.5" x2="874.5" y1="261.8984" y2="261.8984"/><text fill="#000000" font-family="Arial" font-size="13" lengthAdjust="spacingAndGlyphs" textLength="137" x="473.5" y="256.8325">GET /schedule/search</text><polygon fill="#A80036" points="1307.5,287.0313,1317.5,291.0313,1307.5,295.0313,1311.5,291.0313" style="stroke: #A80036; stroke-width: 1.0;"/><line style="stroke: #A80036; stroke-width: 1.5;" x1="890.5" x2="1313.5" y1="291.0313" y2="291.0313"/><text fill="#000000" font-family="Arial" font-size="13" lengthAdjust="spacingAndGlyphs" textLength="106" x="897.5" y="285.9653">get_semesters()</text><polygon fill="#A80036" points="1666.5,316.1641,1676.5,320.1641,1666.5,324.1641,1670.5,320.1641" style="stroke: #A80036; stroke-width: 1.0;"/><line style="stroke: #A80036; stroke-width: 1.5;" x1="1329.5" x2="1672.5" y1="320.1641" y2="320.1641"/><text fill="#000000" font-family="Arial" font-size="13" lengthAdjust="spacingAndGlyphs" textLength="182" x="1336.5" y="315.0981">read schedule_database.csv</text><polygon fill="#A80036" points="1340.5,345.2969,1330.5,349.2969,1340.5,353.2969,1336.5,349.2969" style="stroke: #A80036; stroke-width: 1.0;"/><line style="stroke: #A80036; stroke-width: 1.5; stroke-dasharray: 2.0,2.0;" x1="1334.5" x2="1682.5" y1="349.2969" y2="349.2969"/><text fill="#000000" font-family="Arial" font-size="13" lengthAdjust="spacingAndGlyphs" textLength="72" x="1346.5" y="344.231">DataFrame</text><line style="stroke: #A80036; stroke-width: 1.5;" x1="1329.5" x2="1371.5" y1="378.4297" y2="378.4297"/><line style="stroke: #A80036; stroke-width: 1.5;" x1="1371.5" x2="1371.5" y1="378.4297" y2="391.4297"/><line style="stroke: #A80036; stroke-width: 1.5;" x1="1330.5" x2="1371.5" y1="391.4297" y2="391.4297"/><polygon fill="#A80036" points="1340.5,387.4297,1330.5,391.4297,1340.5,395.4297,1336.5,391.4297" style="stroke: #A80036; stroke-width: 1.0;"/><text fill="#000000" font-family="Arial" font-size="13" lengthAdjust="spacingAndGlyphs" textLength="175" x="1336.5" y="373.3638">extract unique TERM values</text><polygon fill="#A80036" points="901.5,416.5625,891.5,420.5625,901.5,424.5625,897.5,420.5625" style="stroke: #A80036; stroke-width: 1.0;"/><line style="stroke: #A80036; stroke-width: 1.5; stroke-dasharray: 2.0,2.0;" x1="895.5" x2="1323.5" y1="420.5625" y2="420.5625"/><text fill="#000000" font-family="Arial" font-size="13" lengthAdjust="spacingAndGlyphs" textLength="147" x="907.5" y="415.4966">[(term_code, label), ...]</text><polygon fill="#A80036" points="1307.5,445.6953,1317.5,449.6953,1307.5,453.6953,1311.5,449.6953" style="stroke: #A80036; stroke-width: 1.0;"/><line style="stroke: #A80036; stroke-width: 1.5;" x1="890.5" x2="1313.5" y1="449.6953" y2="449.6953"/><text fill="#000000" font-family="Arial" font-size="13" lengthAdjust="spacingAndGlyphs" textLength="121" x="897.5" y="444.6294">get_departments()</text><polygon fill="#A80036" points="1666.5,474.8281,1676.5,478.8281,1666.5,482.8281,1670.5,478.8281" style="stroke: #A80036; stroke-width: 1.0;"/><line style="stroke: #A80036; stroke-width: 1.5;" x1="1329.5" x2="1672.5" y1="478.8281" y2="478.8281"/><text fill="#000000" font-family="Arial" font-size="13" lengthAdjust="spacingAndGlyphs" textLength="278" x="1336.5" y="473.7622">read schedule_database.csv (if not cached)</text><polygon fill="#A80036" points="1340.5,503.9609,1330.5,507.9609,1340.5,511.9609,1336.5,507.9609" style="stroke: #A80036; stroke-width: 1.0;"/><line style="stroke: #A80036; stroke-width: 1.5; stroke-dasharray: 2.0,2.0;" x1="1334.5" x2="1682.5" y1="507.9609" y2="507.9609"/><text fill="#000000" font-family="Arial" font-size="13" lengthAdjust="spacingAndGlyphs" textLength="72" x="1346.5" y="502.895">DataFrame</text><line style="stroke: #A80036; stroke-width: 1.5;" x1="1329.5" x2="1371.5" y1="537.0938" y2="537.0938"/><line style="stroke: #A80036; stroke-width: 1.5;" x1="1371.5" x2="1371.5" y1="537.0938" y2="550.0938"/><line style="stroke: #A80036; stroke-width: 1.5;" x1="1330.5" x2="1371.5" y1="550.0938" y2="550.0938"/><polygon fill="#A80036" points="1340.5,546.0938,1330.5,550.0938,1340.5,554.0938,1336.5,550.0938" style="stroke: #A80036; stroke-width: 1.0;"/><text fill="#000000" font-family="Arial" font-size="13" lengthAdjust="spacingAndGlyphs" textLength="172" x="1336.5" y="532.0278">extract unique SUBJ values</text><polygon fill="#A80036" points="901.5,575.2266,891.5,579.2266,901.5,583.2266,897.5,579.2266" style="stroke: #A80036; stroke-width: 1.0;"/><line style="stroke: #A80036; stroke-width: 1.5; stroke-dasharray: 2.0,2.0;" x1="895.5" x2="1323.5" y1="579.2266" y2="579.2266"/><text fill="#000000" font-family="Arial" font-size="13" lengthAdjust="spacingAndGlyphs" textLength="144" x="907.5" y="574.1606">[department_code, ...]</text><polygon fill="#A80036" points="477.5,604.3594,467.5,608.3594,477.5,612.3594,473.5,608.3594" style="stroke: #A80036; stroke-width: 1.0;"/><line style="stroke: #A80036; stroke-width: 1.5; stroke-dasharray: 2.0,2.0;" x1="471.5" x2="884.5" y1="608.3594" y2="608.3594"/><text fill="#000000" font-family="Arial" font-size="13" lengthAdjust="spacingAndGlyphs" textLength="390" x="483.5" y="603.2935">render search.html (semesters, departments, no results yet)</text><polygon fill="#A80036" points="135.5,633.4922,125.5,637.4922,135.5,641.4922,131.5,637.4922" style="stroke: #A80036; stroke-width: 1.0;"/><line style="stroke: #A80036; stroke-width: 1.5; stroke-dasharray: 2.0,2.0;" x1="129.5" x2="460.5" y1="637.4922" y2="637.4922"/><text fill="#000000" font-family="Arial" font-size="13" lengthAdjust="spacingAndGlyphs" textLength="163" x="141.5" y="632.4263">display blank search form</text><rect fill="#EEEEEE" filter="url(#fxwzumhh13um4)" height="3" style="stroke: #EEEEEE; stroke-width: 1.0;" width="1789.5" x="3" y="666.0586"/><line style="stroke: #000000; stroke-width: 1.0;" x1="3" x2="1792.5" y1="666.0586" y2="666.0586"/><line style="stroke: #000000; stroke-width: 1.0;" x1="3" x2="1792.5" y1="669.0586" y2="669.0586"/><rect fill="#EEEEEE" filter="url(#fxwzumhh13um4)" height="23.1328" style="stroke: #000000; stroke-width: 2.0;" width="235" x="780.25" y="655.4922"/><text fill="#000000" font-family="Arial" font-size="13" font-weight="bold" lengthAdjust="spacingAndGlyphs" textLength="216" x="786.25" y="671.5591">Basic Flow — Perform Search</text><polygon fill="#A80036" points="444.5,720.8906,454.5,724.8906,444.5,728.8906,448.5,724.8906" style="stroke: #A80036; stroke-width: 1.0;"/><line style="stroke: #A80036; stroke-width: 1.5;" x1="124.5" x2="450.5" y1="724.8906" y2="724.8906"/><text fill="#000000" font-family="Arial" font-size="13" lengthAdjust="spacingAndGlyphs" textLength="129" x="131.5" y="704.6919">enter search criteria</text><text fill="#000000" font-family="Arial" font-size="13" lengthAdjust="spacingAndGlyphs" textLength="313" x="131.5" y="719.8247">(course_code, instructor, semester, department)</text><polygon fill="#A80036" points="444.5,750.0234,454.5,754.0234,444.5,758.0234,448.5,754.0234" style="stroke: #A80036; stroke-width: 1.0;"/><line style="stroke: #A80036; stroke-width: 1.5;" x1="124.5" x2="450.5" y1="754.0234" y2="754.0234"/><text fill="#000000" font-family="Arial" font-size="13" lengthAdjust="spacingAndGlyphs" textLength="86" x="131.5" y="748.9575">click "Search"</text><polygon fill="#A80036" points="868.5,794.2891,878.5,798.2891,868.5,802.2891,872.5,798.2891" style="stroke: #A80036; stroke-width: 1.0;"/><line style="stroke: #A80036; stroke-width: 1.5;" x1="466.5" x2="874.5" y1="798.2891" y2="798.2891"/><text fill="#000000" font-family="Arial" font-size="13" lengthAdjust="spacingAndGlyphs" textLength="146" x="473.5" y="778.0903">POST /schedule/search</text><text fill="#000000" font-family="Arial" font-size="13" lengthAdjust="spacingAndGlyphs" textLength="313" x="473.5" y="793.2231">(course_code, instructor, semester, department)</text><line style="stroke: #A80036; stroke-width: 1.5;" x1="890.5" x2="932.5" y1="827.4219" y2="827.4219"/><line style="stroke: #A80036; stroke-width: 1.5;" x1="932.5" x2="932.5" y1="827.4219" y2="840.4219"/><line style="stroke: #A80036; stroke-width: 1.5;" x1="891.5" x2="932.5" y1="840.4219" y2="840.4219"/><polygon fill="#A80036" points="901.5,836.4219,891.5,840.4219,901.5,844.4219,897.5,840.4219" style="stroke: #A80036; stroke-width: 1.0;"/><text fill="#000000" font-family="Arial" font-size="13" lengthAdjust="spacingAndGlyphs" textLength="271" x="897.5" y="822.356">extract search parameters from form/args</text><path d="M13,855.4219 L77,855.4219 L77,862.4219 L67,872.4219 L13,872.4219 L13,855.4219 " fill="#EEEEEE" style="stroke: #000000; stroke-width: 1.0;"/><rect fill="none" height="1080.2578" style="stroke: #000000; stroke-width: 2.0;" width="1769.5" x="13" y="855.4219"/><text fill="#000000" font-family="Arial" font-size="13" font-weight="bold" lengthAdjust="spacingAndGlyphs" textLength="19" x="28" y="868.4888">alt</text><text fill="#000000" font-family="Arial" font-size="11" font-weight="bold" lengthAdjust="spacingAndGlyphs" textLength="250" x="92" y="867.6323">[No criteria provided (all fields empty)]</text><polygon fill="#A80036" points="477.5,889.6875,467.5,893.6875,477.5,897.6875,473.5,893.6875" style="stroke: #A80036; stroke-width: 1.0;"/><line style="stroke: #A80036; stroke-width: 1.5; stroke-dasharray: 2.0,2.0;" x1="471.5" x2="879.5" y1="893.6875" y2="893.6875"/><text fill="#000000" font-family="Arial" font-size="13" lengthAdjust="spacingAndGlyphs" textLength="279" x="483.5" y="888.6216">render search.html with validation message</text><polygon fill="#A80036" points="135.5,918.8203,125.5,922.8203,135.5,926.8203,131.5,922.8203" style="stroke: #A80036; stroke-width: 1.0;"/><line style="stroke: #A80036; stroke-width: 1.5; stroke-dasharray: 2.0,2.0;" x1="129.5" x2="455.5" y1="922.8203" y2="922.8203"/><text fill="#000000" font-family="Arial" font-size="13" lengthAdjust="spacingAndGlyphs" textLength="257" x="141.5" y="917.7544">display "Enter at least one search value"</text><line style="stroke: #000000; stroke-width: 1.0; stroke-dasharray: 2.0,2.0;" x1="13" x2="1782.5" y1="931.8203" y2="931.8203"/><text fill="#000000" font-family="Arial" font-size="11" font-weight="bold" lengthAdjust="spacingAndGlyphs" textLength="205" x="18" y="942.0308">[At least one criterion provided]</text><polygon fill="#A80036" points="1307.5,962.7578,1317.5,966.7578,1307.5,970.7578,1311.5,966.7578" style="stroke: #A80036; stroke-width: 1.0;"/><line style="stroke: #A80036; stroke-width: 1.5;" x1="890.5" x2="1313.5" y1="966.7578" y2="966.7578"/><text fill="#000000" font-family="Arial" font-size="13" lengthAdjust="spacingAndGlyphs" textLength="410" x="897.5" y="961.6919">search_classes(course_code, instructor, semester, department)</text><line style="stroke: #A80036; stroke-width: 1.5;" x1="1329.5" x2="1376.5" y1="990.8906" y2="990.8906"/><line style="stroke: #A80036; stroke-width: 1.5;" x1="1376.5" x2="1376.5" y1="990.8906" y2="1003.8906"/><line style="stroke: #A80036; stroke-width: 1.5;" x1="1335.5" x2="1376.5" y1="1003.8906" y2="1003.8906"/><polygon fill="#A80036" points="1345.5,999.8906,1335.5,1003.8906,1345.5,1007.8906,1341.5,1003.8906" style="stroke: #A80036; stroke-width: 1.0;"/><text fill="#000000" font-family="Arial" font-size="13" lengthAdjust="spacingAndGlyphs" textLength="162" x="1341.5" y="985.8247">load_schedule(semester)</text><polygon fill="#A80036" points="1666.5,1034.0234,1676.5,1038.0234,1666.5,1042.0234,1670.5,1038.0234" style="stroke: #A80036; stroke-width: 1.0;"/><line style="stroke: #A80036; stroke-width: 1.5;" x1="1334.5" x2="1672.5" y1="1038.0234" y2="1038.0234"/><text fill="#000000" font-family="Arial" font-size="13" lengthAdjust="spacingAndGlyphs" textLength="182" x="1341.5" y="1032.9575">read schedule_database.csv</text><polygon fill="#A80036" points="1345.5,1063.1563,1335.5,1067.1563,1345.5,1071.1563,1341.5,1067.1563" style="stroke: #A80036; stroke-width: 1.0;"/><line style="stroke: #A80036; stroke-width: 1.5; stroke-dasharray: 2.0,2.0;" x1="1339.5" x2="1682.5" y1="1067.1563" y2="1067.1563"/><text fill="#000000" font-family="Arial" font-size="13" lengthAdjust="spacingAndGlyphs" textLength="94" x="1351.5" y="1062.0903">full DataFrame</text><line style="stroke: #A80036; stroke-width: 1.5;" x1="1334.5" x2="1376.5" y1="1096.2891" y2="1096.2891"/><line style="stroke: #A80036; stroke-width: 1.5;" x1="1376.5" x2="1376.5" y1="1096.2891" y2="1109.2891"/><line style="stroke: #A80036; stroke-width: 1.5;" x1="1335.5" x2="1376.5" y1="1109.2891" y2="1109.2891"/><polygon fill="#A80036" points="1345.5,1105.2891,1335.5,1109.2891,1345.5,1113.2891,1341.5,1109.2891" style="stroke: #A80036; stroke-width: 1.0;"/><text fill="#000000" font-family="Arial" font-size="13" lengthAdjust="spacingAndGlyphs" textLength="256" x="1341.5" y="1091.2231">filter by TERM == semester (if provided)</text><line style="stroke: #A80036; stroke-width: 1.5; stroke-dasharray: 2.0,2.0;" x1="1334.5" x2="1376.5" y1="1143.4219" y2="1143.4219"/><line style="stroke: #A80036; stroke-width: 1.5; stroke-dasharray: 2.0,2.0;" x1="1376.5" x2="1376.5" y1="1143.4219" y2="1156.4219"/><line style="stroke: #A80036; stroke-width: 1.5; stroke-dasharray: 2.0,2.0;" x1="1329.5" x2="1376.5" y1="1156.4219" y2="1156.4219"/><polygon fill="#A80036" points="1339.5,1152.4219,1329.5,1156.4219,1339.5,1160.4219,1335.5,1156.4219" style="stroke: #A80036; stroke-width: 1.0;"/><text fill="#000000" font-family="Arial" font-size="13" lengthAdjust="spacingAndGlyphs" textLength="126" x="1341.5" y="1138.356">semester-filtered df</text><path d="M1208.5,1166.4219 L1272.5,1166.4219 L1272.5,1173.4219 L1262.5,1183.4219 L1208.5,1183.4219 L1208.5,1166.4219 " fill="#EEEEEE" style="stroke: #000000; stroke-width: 1.0;"/><rect fill="none" height="101.3984" style="stroke: #000000; stroke-width: 2.0;" width="425" x="1208.5" y="1166.4219"/><text fill="#000000" font-family="Arial" font-size="13" font-weight="bold" lengthAdjust="spacingAndGlyphs" textLength="19" x="1223.5" y="1179.4888">alt</text><text fill="#000000" font-family="Arial" font-size="11" font-weight="bold" lengthAdjust="spacingAndGlyphs" textLength="150" x="1287.5" y="1178.6323">[course_code provided]</text><line style="stroke: #A80036; stroke-width: 1.5;" x1="1329.5" x2="1371.5" y1="1204.6875" y2="1204.6875"/><line style="stroke: #A80036; stroke-width: 1.5;" x1="1371.5" x2="1371.5" y1="1204.6875" y2="1217.6875"/><line style="stroke: #A80036; stroke-width: 1.5;" x1="1330.5" x2="1371.5" y1="1217.6875" y2="1217.6875"/><polygon fill="#A80036" points="1340.5,1213.6875,1330.5,1217.6875,1340.5,1221.6875,1336.5,1217.6875" style="stroke: #A80036; stroke-width: 1.0;"/><text fill="#000000" font-family="Arial" font-size="13" lengthAdjust="spacingAndGlyphs" textLength="266" x="1336.5" y="1199.6216">parse course_code (SUBJ + CRSE_NUMB)</text><line style="stroke: #A80036; stroke-width: 1.5;" x1="1329.5" x2="1371.5" y1="1246.8203" y2="1246.8203"/><line style="stroke: #A80036; stroke-width: 1.5;" x1="1371.5" x2="1371.5" y1="1246.8203" y2="1259.8203"/><line style="stroke: #A80036; stroke-width: 1.5;" x1="1330.5" x2="1371.5" y1="1259.8203" y2="1259.8203"/><polygon fill="#A80036" points="1340.5,1255.8203,1330.5,1259.8203,1340.5,1263.8203,1336.5,1259.8203" style="stroke: #A80036; stroke-width: 1.0;"/><text fill="#000000" font-family="Arial" font-size="13" lengthAdjust="spacingAndGlyphs" textLength="285" x="1336.5" y="1241.7544">apply mask on df[SUBJ] and df[CRSE_NUMB]</text><path d="M1208.5,1281.8203 L1272.5,1281.8203 L1272.5,1288.8203 L1262.5,1298.8203 L1208.5,1298.8203 L1208.5,1281.8203 " fill="#EEEEEE" style="stroke: #000000; stroke-width: 1.0;"/><rect fill="none" height="59.2656" style="stroke: #000000; stroke-width: 2.0;" width="475" x="1208.5" y="1281.8203"/><text fill="#000000" font-family="Arial" font-size="13" font-weight="bold" lengthAdjust="spacingAndGlyphs" textLength="19" x="1223.5" y="1294.8872">alt</text><text fill="#000000" font-family="Arial" font-size="11" font-weight="bold" lengthAdjust="spacingAndGlyphs" textLength="132" x="1287.5" y="1294.0308">[instructor provided]</text><line style="stroke: #A80036; stroke-width: 1.5;" x1="1329.5" x2="1371.5" y1="1320.0859" y2="1320.0859"/><line style="stroke: #A80036; stroke-width: 1.5;" x1="1371.5" x2="1371.5" y1="1320.0859" y2="1333.0859"/><line style="stroke: #A80036; stroke-width: 1.5;" x1="1330.5" x2="1371.5" y1="1333.0859" y2="1333.0859"/><polygon fill="#A80036" points="1340.5,1329.0859,1330.5,1333.0859,1340.5,1337.0859,1336.5,1333.0859" style="stroke: #A80036; stroke-width: 1.0;"/><text fill="#000000" font-family="Arial" font-size="13" lengthAdjust="spacingAndGlyphs" textLength="335" x="1336.5" y="1315.02">df[INSTRUCTOR].str.contains(instructor, case=False)</text><path d="M1208.5,1355.0859 L1272.5,1355.0859 L1272.5,1362.0859 L1262.5,1372.0859 L1208.5,1372.0859 L1208.5,1355.0859 " fill="#EEEEEE" style="stroke: #000000; stroke-width: 1.0;"/><rect fill="none" height="59.2656" style="stroke: #000000; stroke-width: 2.0;" width="371" x="1208.5" y="1355.0859"/><text fill="#000000" font-family="Arial" font-size="13" font-weight="bold" lengthAdjust="spacingAndGlyphs" textLength="19" x="1223.5" y="1368.1528">alt</text><text fill="#000000" font-family="Arial" font-size="11" font-weight="bold" lengthAdjust="spacingAndGlyphs" textLength="144" x="1287.5" y="1367.2964">[department provided]</text><line style="stroke: #A80036; stroke-width: 1.5;" x1="1329.5" x2="1371.5" y1="1393.3516" y2="1393.3516"/><line style="stroke: #A80036; stroke-width: 1.5;" x1="1371.5" x2="1371.5" y1="1393.3516" y2="1406.3516"/><line style="stroke: #A80036; stroke-width: 1.5;" x1="1330.5" x2="1371.5" y1="1406.3516" y2="1406.3516"/><polygon fill="#A80036" points="1340.5,1402.3516,1330.5,1406.3516,1340.5,1410.3516,1336.5,1406.3516" style="stroke: #A80036; stroke-width: 1.0;"/><text fill="#000000" font-family="Arial" font-size="13" lengthAdjust="spacingAndGlyphs" textLength="231" x="1336.5" y="1388.2856">df[SUBJ].str.upper() == department</text><line style="stroke: #A80036; stroke-width: 1.5;" x1="1329.5" x2="1371.5" y1="1442.4844" y2="1442.4844"/><line style="stroke: #A80036; stroke-width: 1.5;" x1="1371.5" x2="1371.5" y1="1442.4844" y2="1455.4844"/><line style="stroke: #A80036; stroke-width: 1.5;" x1="1330.5" x2="1371.5" y1="1455.4844" y2="1455.4844"/><polygon fill="#A80036" points="1340.5,1451.4844,1330.5,1455.4844,1340.5,1459.4844,1336.5,1455.4844" style="stroke: #A80036; stroke-width: 1.0;"/><text fill="#000000" font-family="Arial" font-size="13" lengthAdjust="spacingAndGlyphs" textLength="152" x="1336.5" y="1437.4185">reset_index(drop=True)</text><polygon fill="#A80036" points="901.5,1480.6172,891.5,1484.6172,901.5,1488.6172,897.5,1484.6172" style="stroke: #A80036; stroke-width: 1.0;"/><line style="stroke: #A80036; stroke-width: 1.5; stroke-dasharray: 2.0,2.0;" x1="895.5" x2="1323.5" y1="1484.6172" y2="1484.6172"/><text fill="#000000" font-family="Arial" font-size="13" lengthAdjust="spacingAndGlyphs" textLength="171" x="907.5" y="1479.5513">filtered classes DataFrame</text><polygon fill="#A80036" points="1307.5,1509.75,1317.5,1513.75,1307.5,1517.75,1311.5,1513.75" style="stroke: #A80036; stroke-width: 1.0;"/><line style="stroke: #A80036; stroke-width: 1.5;" x1="890.5" x2="1313.5" y1="1513.75" y2="1513.75"/><text fill="#000000" font-family="Arial" font-size="13" lengthAdjust="spacingAndGlyphs" textLength="219" x="897.5" y="1508.6841">format_search_results(classes_df)</text><line style="stroke: #A80036; stroke-width: 1.5;" x1="1329.5" x2="1371.5" y1="1573.1484" y2="1573.1484"/><line style="stroke: #A80036; stroke-width: 1.5;" x1="1371.5" x2="1371.5" y1="1573.1484" y2="1586.1484"/><line style="stroke: #A80036; stroke-width: 1.5;" x1="1330.5" x2="1371.5" y1="1586.1484" y2="1586.1484"/><polygon fill="#A80036" points="1340.5,1582.1484,1330.5,1586.1484,1340.5,1590.1484,1336.5,1586.1484" style="stroke: #A80036; stroke-width: 1.0;"/><text fill="#000000" font-family="Arial" font-size="13" lengthAdjust="spacingAndGlyphs" textLength="153" x="1336.5" y="1537.8169">convert each row to dict</text><text fill="#000000" font-family="Arial" font-size="13" lengthAdjust="spacingAndGlyphs" textLength="245" x="1336.5" y="1552.9497">(crn, term, dept, course_number, title,</text><text fill="#000000" font-family="Arial" font-size="13" lengthAdjust="spacingAndGlyphs" textLength="321" x="1336.5" y="1568.0825">section, instructor, days, times, room, enrollment)</text><polygon fill="#A80036" points="901.5,1611.2813,891.5,1615.2813,901.5,1619.2813,897.5,1615.2813" style="stroke: #A80036; stroke-width: 1.0;"/><line style="stroke: #A80036; stroke-width: 1.5; stroke-dasharray: 2.0,2.0;" x1="895.5" x2="1323.5" y1="1615.2813" y2="1615.2813"/><text fill="#000000" font-family="Arial" font-size="13" lengthAdjust="spacingAndGlyphs" textLength="96" x="907.5" y="1610.2153">[result_dict, ...]</text><path d="M23,1630.2813 L87,1630.2813 L87,1637.2813 L77,1647.2813 L23,1647.2813 L23,1630.2813 " fill="#EEEEEE" style="stroke: #000000; stroke-width: 1.0;"/><rect fill="none" height="298.3984" style="stroke: #000000; stroke-width: 2.0;" width="1015.5" x="23" y="1630.2813"/><text fill="#000000" font-family="Arial" font-size="13" font-weight="bold" lengthAdjust="spacingAndGlyphs" textLength="19" x="38" y="1643.3481">alt</text><text fill="#000000" font-family="Arial" font-size="11" font-weight="bold" lengthAdjust="spacingAndGlyphs" textLength="116" x="102" y="1642.4917">[No results found]</text><polygon fill="#A80036" points="477.5,1679.6797,467.5,1683.6797,477.5,1687.6797,473.5,1683.6797" style="stroke: #A80036; stroke-width: 1.0;"/><line style="stroke: #A80036; stroke-width: 1.5; stroke-dasharray: 2.0,2.0;" x1="471.5" x2="879.5" y1="1683.6797" y2="1683.6797"/><text fill="#000000" font-family="Arial" font-size="13" lengthAdjust="spacingAndGlyphs" textLength="122" x="483.5" y="1663.481">render search.html</text><text fill="#000000" font-family="Arial" font-size="13" lengthAdjust="spacingAndGlyphs" textLength="180" x="483.5" y="1678.6138">(results=[], total_results=0)</text><polygon fill="#A80036" points="135.5,1708.8125,125.5,1712.8125,135.5,1716.8125,131.5,1712.8125" style="stroke: #A80036; stroke-width: 1.0;"/><line style="stroke: #A80036; stroke-width: 1.5; stroke-dasharray: 2.0,2.0;" x1="129.5" x2="455.5" y1="1712.8125" y2="1712.8125"/><text fill="#000000" font-family="Arial" font-size="13" lengthAdjust="spacingAndGlyphs" textLength="226" x="141.5" y="1707.7466">display "No results found" message</text><line style="stroke: #000000; stroke-width: 1.0; stroke-dasharray: 2.0,2.0;" x1="23" x2="1038.5" y1="1721.8125" y2="1721.8125"/><text fill="#000000" font-family="Arial" font-size="11" font-weight="bold" lengthAdjust="spacingAndGlyphs" textLength="98" x="28" y="1732.0229">[Results found]</text><polygon fill="#A80036" points="477.5,1767.8828,467.5,1771.8828,477.5,1775.8828,473.5,1771.8828" style="stroke: #A80036; stroke-width: 1.0;"/><line style="stroke: #A80036; stroke-width: 1.5; stroke-dasharray: 2.0,2.0;" x1="471.5" x2="884.5" y1="1771.8828" y2="1771.8828"/><text fill="#000000" font-family="Arial" font-size="13" lengthAdjust="spacingAndGlyphs" textLength="122" x="483.5" y="1751.6841">render search.html</text><text fill="#000000" font-family="Arial" font-size="13" lengthAdjust="spacingAndGlyphs" textLength="194" x="483.5" y="1766.8169">(results=[...], total_results=N)</text><polygon fill="#A80036" points="135.5,1827.2813,125.5,1831.2813,135.5,1835.2813,131.5,1831.2813" style="stroke: #A80036; stroke-width: 1.0;"/><line style="stroke: #A80036; stroke-width: 1.5; stroke-dasharray: 2.0,2.0;" x1="129.5" x2="460.5" y1="1831.2813" y2="1831.2813"/><text fill="#000000" font-family="Arial" font-size="13" lengthAdjust="spacingAndGlyphs" textLength="127" x="141.5" y="1795.9497">display results table</text><text fill="#000000" font-family="Arial" font-size="13" lengthAdjust="spacingAndGlyphs" textLength="203" x="141.5" y="1811.0825">(course title, section, instructor,</text><text fill="#000000" font-family="Arial" font-size="13" lengthAdjust="spacingAndGlyphs" textLength="263" x="141.5" y="1826.2153">room, days/times, semester, enrollment)</text><path d="M33,1846.2813 L103,1846.2813 L103,1853.2813 L93,1863.2813 L33,1863.2813 L33,1846.2813 " fill="#EEEEEE" style="stroke: #000000; stroke-width: 1.0;"/><rect fill="none" height="75.3984" style="stroke: #000000; stroke-width: 2.0;" width="487" x="33" y="1846.2813"/><text fill="#000000" font-family="Arial" font-size="13" font-weight="bold" lengthAdjust="spacingAndGlyphs" textLength="25" x="48" y="1859.3481">opt</text><text fill="#000000" font-family="Arial" font-size="11" font-weight="bold" lengthAdjust="spacingAndGlyphs" textLength="322" x="118" y="1858.4917">[Actor views class details (UC_DETAILS — extend)]</text><polygon fill="#A80036" points="444.5,1880.5469,454.5,1884.5469,444.5,1888.5469,448.5,1884.5469" style="stroke: #A80036; stroke-width: 1.0;"/><line style="stroke: #A80036; stroke-width: 1.5;" x1="124.5" x2="450.5" y1="1884.5469" y2="1884.5469"/><text fill="#000000" font-family="Arial" font-size="13" lengthAdjust="spacingAndGlyphs" textLength="121" x="131.5" y="1879.481">click on a class row</text><polygon fill="#A80036" points="135.5,1909.6797,125.5,1913.6797,135.5,1917.6797,131.5,1913.6797" style="stroke: #A80036; stroke-width: 1.0;"/><line style="stroke: #A80036; stroke-width: 1.5; stroke-dasharray: 2.0,2.0;" x1="129.5" x2="460.5" y1="1913.6797" y2="1913.6797"/><text fill="#000000" font-family="Arial" font-size="13" lengthAdjust="spacingAndGlyphs" textLength="212" x="141.5" y="1908.6138">display detailed class information</text><!--MD5=[72ba98ea2054ccd98dd447dd153c9f41]
@startuml

skinparam DefaultFontName Arial
skinparam SequenceArrowThickness 1.5
skinparam ParticipantBackgroundColor #FEFEFE
skinparam ParticipantBorderColor #444444
skinparam NoteBackgroundColor #FFFFCC
skinparam NoteBorderColor #AAAAAA
skinparam SequenceLifeLineBorderColor #888888

title Sequence(2)_MOSS_Pj2_T-01\nUC2: Search and Filter Classes

actor "Scheduling Committee\nMember" as SCM

boundary "SearchPage\n(search.html)" as SearchPage
control "SearchController\n(schedule_routes.search_classes_route)" as SearchCtrl
control "DataService\n(data_service.search_classes)" as DataSvc
database "ScheduleDatabase\n(schedule_database.csv)" as DB

== Page Load ==

SCM -> SearchPage : navigate to /schedule/search
activate SearchPage

SearchPage -> SearchCtrl : GET /schedule/search
activate SearchCtrl

SearchCtrl -> DataSvc : get_semesters()
activate DataSvc
DataSvc -> DB : read schedule_database.csv
activate DB
DB - -> DataSvc : DataFrame
deactivate DB
DataSvc -> DataSvc : extract unique TERM values
DataSvc - -> SearchCtrl : [(term_code, label), ...]
deactivate DataSvc

SearchCtrl -> DataSvc : get_departments()
activate DataSvc
DataSvc -> DB : read schedule_database.csv (if not cached)
activate DB
DB - -> DataSvc : DataFrame
deactivate DB
DataSvc -> DataSvc : extract unique SUBJ values
DataSvc - -> SearchCtrl : [department_code, ...]
deactivate DataSvc

SearchCtrl - -> SearchPage : render search.html (semesters, departments, no results yet)
deactivate SearchCtrl
SearchPage - -> SCM : display blank search form
deactivate SearchPage

== Basic Flow — Perform Search ==

SCM -> SearchPage : enter search criteria\n(course_code, instructor, semester, department)
activate SearchPage
SCM -> SearchPage : click "Search"

SearchPage -> SearchCtrl : POST /schedule/search\n(course_code, instructor, semester, department)
activate SearchCtrl

SearchCtrl -> SearchCtrl : extract search parameters from form/args

alt No criteria provided (all fields empty)
    SearchCtrl - -> SearchPage : render search.html with validation message
    SearchPage - -> SCM : display "Enter at least one search value"
else At least one criterion provided
    SearchCtrl -> DataSvc : search_classes(course_code, instructor, semester, department)
    activate DataSvc

    DataSvc -> DataSvc : load_schedule(semester)
    activate DataSvc
    DataSvc -> DB : read schedule_database.csv
    activate DB
    DB - -> DataSvc : full DataFrame
    deactivate DB
    DataSvc -> DataSvc : filter by TERM == semester (if provided)
    DataSvc - -> DataSvc : semester-filtered df
    deactivate DataSvc

    alt course_code provided
        DataSvc -> DataSvc : parse course_code (SUBJ + CRSE_NUMB)
        DataSvc -> DataSvc : apply mask on df[SUBJ] and df[CRSE_NUMB]
    end

    alt instructor provided
        DataSvc -> DataSvc : df[INSTRUCTOR].str.contains(instructor, case=False)
    end

    alt department provided
        DataSvc -> DataSvc : df[SUBJ].str.upper() == department
    end

    DataSvc -> DataSvc : reset_index(drop=True)
    DataSvc - -> SearchCtrl : filtered classes DataFrame
    deactivate DataSvc

    SearchCtrl -> DataSvc : format_search_results(classes_df)
    activate DataSvc
    DataSvc -> DataSvc : convert each row to dict\n(crn, term, dept, course_number, title,\nsection, instructor, days, times, room, enrollment)
    DataSvc - -> SearchCtrl : [result_dict, ...]
    deactivate DataSvc

    alt No results found
        SearchCtrl - -> SearchPage : render search.html\n(results=[], total_results=0)
        SearchPage - -> SCM : display "No results found" message
    else Results found
        SearchCtrl - -> SearchPage : render search.html\n(results=[...], total_results=N)
        deactivate SearchCtrl
        SearchPage - -> SCM : display results table\n(course title, section, instructor,\nroom, days/times, semester, enrollment)
        deactivate SearchPage

        opt Actor views class details (UC_DETAILS — extend)
            SCM -> SearchPage : click on a class row
            activate SearchPage
            SearchPage - -> SCM : display detailed class information
            deactivate SearchPage
        end
    end
end

@enduml

PlantUML version 1.2020.02(Sun Mar 01 10:22:07 UTC 2020)
(GPL source distribution)
Java Runtime: OpenJDK Runtime Environment
JVM: OpenJDK 64-Bit Server VM
Java Version: 17.0.18+8
Operating System: Linux
Default Encoding: UTF-8
Language: en
Country: null
--></g></svg>