<?xml version="1.0" encoding="UTF-8" standalone="no"?><svg xmlns="http://www.w3.org/2000/svg" xmlns:xlink="http://www.w3.org/1999/xlink" contentScriptType="application/ecmascript" contentStyleType="text/css" height="2103px" preserveAspectRatio="none" style="width:1814px;height:2103px;" version="1.1" viewBox="0 0 1814 2103" width="1814px" zoomAndPan="magnify"><defs><filter height="300%" id="flk4zglq7rn1a" width="300%" x="-1" y="-1"><feGaussianBlur result="blurOut" stdDeviation="2.0"/><feColorMatrix in="blurOut" result="blurOut2" type="matrix" values="0 0 0 0 0 0 0 0 0 0 0 0 0 0 0 0 0 0 .4 0"/><feOffset dx="4.0" dy="4.0" in="blurOut2" result="blurOut3"/><feBlend in="SourceGraphic" in2="blurOut3" mode="normal"/></filter></defs><g><text fill="#000000" font-family="Arial" font-size="18" lengthAdjust="spacingAndGlyphs" textLength="258" x="773.75" y="26.708">Sequence(1)_MOSS_Pj2_T-01</text><text fill="#000000" font-family="Arial" font-size="18" lengthAdjust="spacingAndGlyphs" textLength="202" x="801.75" y="47.6611">UC1: Upload Excel File</text><rect fill="#FFFFFF" filter="url(#flk4zglq7rn1a)" height="1309.2656" style="stroke: #888888; stroke-width: 1.0;" width="10" x="406.5" y="232.7656"/><rect fill="#FFFFFF" filter="url(#flk4zglq7rn1a)" height="346.4609" style="stroke: #888888; stroke-width: 1.0;" width="10" x="406.5" y="1635.2969"/><rect fill="#FFFFFF" filter="url(#flk4zglq7rn1a)" height="1192.7344" style="stroke: #888888; stroke-width: 1.0;" width="10" x="753.5" y="320.1641"/><rect fill="#FFFFFF" filter="url(#flk4zglq7rn1a)" height="187.7969" style="stroke: #888888; stroke-width: 1.0;" width="10" x="753.5" y="1764.8281"/><rect fill="#FFFFFF" filter="url(#flk4zglq7rn1a)" height="1134.4688" style="stroke: #888888; stroke-width: 1.0;" width="10" x="1060.5" y="349.2969"/><rect fill="#FFFFFF" filter="url(#flk4zglq7rn1a)" height="87.3984" style="stroke: #888888; stroke-width: 1.0;" width="10" x="1060.5" y="1836.0938"/><rect fill="#FFFFFF" filter="url(#flk4zglq7rn1a)" height="113.3984" style="stroke: #888888; stroke-width: 1.0;" width="10" x="1401.5" y="1098.3047"/><rect fill="#FFFFFF" filter="url(#flk4zglq7rn1a)" height="29.1328" style="stroke: #888888; stroke-width: 1.0;" width="10" x="1654.5" y="1282.9688"/><rect fill="#FFFFFF" filter="url(#flk4zglq7rn1a)" height="29.1328" style="stroke: #888888; stroke-width: 1.0;" width="10" x="1654.5" y="1425.5"/><rect fill="#FFFFFF" filter="url(#flk4zglq7rn1a)" height="29.1328" style="stroke: #888888; stroke-width: 1.0;" width="10" x="1654.5" y="1865.2266"/><rect fill="#FFFFFF" filter="url(#flk4zglq7rn1a)" height="1157.6016" style="stroke: #000000; stroke-width: 2.0;" width="1779.5" x="13" y="406.4297"/><rect fill="#FFFFFF" height="1053.0703" style="stroke: none; stroke-width: 1.0;" width="1779.5" x="13" y="510.9609"/><rect fill="#FFFFFF" filter="url(#flk4zglq7rn1a)" height="158.3359" style="stroke: #000000; stroke-width: 2.0;" width="615.5" x="956" y="617.0313"/><rect fill="#FFFFFF" height="99.0703" style="stroke: none; stroke-width: 1.0;" width="615.5" x="956" y="676.2969"/><rect fill="#FFFFFF" filter="url(#flk4zglq7rn1a)" height="725.5313" style="stroke: #000000; stroke-width: 2.0;" width="1759.5" x="23" y="831.5"/><rect fill="#FFFFFF" height="621" style="stroke: none; stroke-width: 1.0;" width="1759.5" x="23" y="936.0313"/><rect fill="#FFFFFF" filter="url(#flk4zglq7rn1a)" height="592.1953" style="stroke: #000000; stroke-width: 2.0;" width="1739.5" x="33" y="957.8359"/><rect fill="#FFFFFF" height="487.6641" style="stroke: none; stroke-width: 1.0;" width="1739.5" x="33" y="1062.3672"/><line style="stroke: #888888; stroke-width: 1.0; stroke-dasharray: 5.0,5.0;" x1="124" x2="124" y1="158.5" y2="1999.7578"/><line style="stroke: #888888; stroke-width: 1.0; stroke-dasharray: 5.0,5.0;" x1="411" x2="411" y1="158.5" y2="1999.7578"/><line style="stroke: #888888; stroke-width: 1.0; stroke-dasharray: 5.0,5.0;" x1="758" x2="758" y1="158.5" y2="1999.7578"/><line style="stroke: #888888; stroke-width: 1.0; stroke-dasharray: 5.0,5.0;" x1="1065" x2="1065" y1="158.5" y2="1999.7578"/><line style="stroke: #888888; stroke-width: 1.0; stroke-dasharray: 5.0,5.0;" x1="1406" x2="1406" y1="158.5" y2="1999.7578"/><line style="stroke: #888888; stroke-width: 1.0; stroke-dasharray: 5.0,5.0;" x1="1659.5" x2="1659.5" y1="158.5" y2="1999.7578"/><text fill="#000000" font-family="Arial" font-size="14" lengthAdjust="spacingAndGlyphs" textLength="157" x="43" y="138.9014">Scheduling Committee</text><text fill="#000000" font-family="Arial" font-size="14" lengthAdjust="spacingAndGlyphs" textLength="57" x="93" y="155.1982">Member</text><ellipse cx="124.5" cy="68.9063" fill="#FEFECE" filter="url(#flk4zglq7rn1a)" rx="8" ry="8" style="stroke: #A80036; stroke-width: 2.0;"/><path d="M124.5,76.9063 L124.5,103.9063 M111.5,84.9063 L137.5,84.9063 M124.5,103.9063 L111.5,118.9063 M124.5,103.9063 L137.5,118.9063 " fill="none" filter="url(#flk4zglq7rn1a)" style="stroke: #A80036; stroke-width: 2.0;"/><text fill="#000000" font-family="Arial" font-size="14" lengthAdjust="spacingAndGlyphs" textLength="157" x="43" y="2011.7529">Scheduling Committee</text><text fill="#000000" font-family="Arial" font-size="14" lengthAdjust="spacingAndGlyphs" textLength="57" x="93" y="2028.0498">Member</text><ellipse cx="124.5" cy="2041.3516" fill="#FEFECE" filter="url(#flk4zglq7rn1a)" rx="8" ry="8" style="stroke: #A80036; stroke-width: 2.0;"/><path d="M124.5,2049.3516 L124.5,2076.3516 M111.5,2057.3516 L137.5,2057.3516 M124.5,2076.3516 L111.5,2091.3516 M124.5,2076.3516 L137.5,2091.3516 " fill="none" filter="url(#flk4zglq7rn1a)" style="stroke: #A80036; stroke-width: 2.0;"/><text fill="#000000" font-family="Arial" font-size="14" lengthAdjust="spacingAndGlyphs" textLength="83" x="367" y="138.9014">UploadPage</text><text fill="#000000" font-family="Arial" font-size="14" lengthAdjust="spacingAndGlyphs" textLength="179" x="319" y="155.1982">(home.html / upload form)</text><path d="M391,97.9063 L391,121.9063 M391,109.9063 L408,109.9063 " fill="none" filter="url(#flk4zglq7rn1a)" style="stroke: #A80036; stroke-width: 2.0;"/><ellipse cx="420" cy="109.9063" fill="#FEFECE" filter="url(#flk4zglq7rn1a)" rx="12" ry="12" style="stroke: #A80036; stroke-width: 2.0;"/><text fill="#000000" font-family="Arial" font-size="14" lengthAdjust="spacingAndGlyphs" textLength="83" x="367" y="2011.7529">UploadPage</text><text fill="#000000" font-family="Arial" font-size="14" lengthAdjust="spacingAndGlyphs" textLength="179" x="319" y="2028.0498">(home.html / upload form)</text><path d="M391,2035.3516 L391,2059.3516 M391,2047.3516 L408,2047.3516 " fill="none" filter="url(#flk4zglq7rn1a)" style="stroke: #A80036; stroke-width: 2.0;"/><ellipse cx="420" cy="2047.3516" fill="#FEFECE" filter="url(#flk4zglq7rn1a)" rx="12" ry="12" style="stroke: #A80036; stroke-width: 2.0;"/><text fill="#000000" font-family="Arial" font-size="14" lengthAdjust="spacingAndGlyphs" textLength="115" x="698" y="138.9014">UploadController</text><text fill="#000000" font-family="Arial" font-size="14" lengthAdjust="spacingAndGlyphs" textLength="106" x="702.5" y="155.1982">(routes.upload)</text><ellipse cx="758.5" cy="109.9063" fill="#FEFECE" filter="url(#flk4zglq7rn1a)" rx="12" ry="12" style="stroke: #A80036; stroke-width: 2.0;"/><polygon fill="#A80036" points="754.5,97.9063,760.5,92.9063,758.5,97.9063,760.5,102.9063,754.5,97.9063" style="stroke: #A80036; stroke-width: 1.0;"/><text fill="#000000" font-family="Arial" font-size="14" lengthAdjust="spacingAndGlyphs" textLength="115" x="698" y="2011.7529">UploadController</text><text fill="#000000" font-family="Arial" font-size="14" lengthAdjust="spacingAndGlyphs" textLength="106" x="702.5" y="2028.0498">(routes.upload)</text><ellipse cx="758.5" cy="2047.3516" fill="#FEFECE" filter="url(#flk4zglq7rn1a)" rx="12" ry="12" style="stroke: #A80036; stroke-width: 2.0;"/><polygon fill="#A80036" points="754.5,2035.3516,760.5,2030.3516,758.5,2035.3516,760.5,2040.3516,754.5,2035.3516" style="stroke: #A80036; stroke-width: 1.0;"/><text fill="#000000" font-family="Arial" font-size="14" lengthAdjust="spacingAndGlyphs" textLength="86" x="1019.5" y="138.9014">ExcelService</text><text fill="#000000" font-family="Arial" font-size="14" lengthAdjust="spacingAndGlyphs" textLength="193" x="966" y="155.1982">(excel_service.import_excel)</text><ellipse cx="1065.5" cy="109.9063" fill="#FEFECE" filter="url(#flk4zglq7rn1a)" rx="12" ry="12" style="stroke: #A80036; stroke-width: 2.0;"/><polygon fill="#A80036" points="1061.5,97.9063,1067.5,92.9063,1065.5,97.9063,1067.5,102.9063,1061.5,97.9063" style="stroke: #A80036; stroke-width: 1.0;"/><text fill="#000000" font-family="Arial" font-size="14" lengthAdjust="spacingAndGlyphs" textLength="86" x="1019.5" y="2011.7529">ExcelService</text><text fill="#000000" font-family="Arial" font-size="14" lengthAdjust="spacingAndGlyphs" textLength="193" x="966" y="2028.0498">(excel_service.import_excel)</text><ellipse cx="1065.5" cy="2047.3516" fill="#FEFECE" filter="url(#flk4zglq7rn1a)" rx="12" ry="12" style="stroke: #A80036; stroke-width: 2.0;"/><polygon fill="#A80036" points="1061.5,2035.3516,1067.5,2030.3516,1065.5,2035.3516,1067.5,2040.3516,1061.5,2035.3516" style="stroke: #A80036; stroke-width: 1.0;"/><text fill="#000000" font-family="Arial" font-size="14" lengthAdjust="spacingAndGlyphs" textLength="82" x="1362.5" y="138.9014">DataService</text><text fill="#000000" font-family="Arial" font-size="14" lengthAdjust="spacingAndGlyphs" textLength="243" x="1282" y="155.1982">(data_service.normalize_dataframe)</text><ellipse cx="1406.5" cy="109.9063" fill="#FEFECE" filter="url(#flk4zglq7rn1a)" rx="12" ry="12" style="stroke: #A80036; stroke-width: 2.0;"/><line style="stroke: #A80036; stroke-width: 2.0;" x1="1394.5" x2="1418.5" y1="123.9063" y2="123.9063"/><text fill="#000000" font-family="Arial" font-size="14" lengthAdjust="spacingAndGlyphs" textLength="82" x="1362.5" y="2011.7529">DataService</text><text fill="#000000" font-family="Arial" font-size="14" lengthAdjust="spacingAndGlyphs" textLength="243" x="1282" y="2028.0498">(data_service.normalize_dataframe)</text><ellipse cx="1406.5" cy="2047.3516" fill="#FEFECE" filter="url(#flk4zglq7rn1a)" rx="12" ry="12" style="stroke: #A80036; stroke-width: 2.0;"/><line style="stroke: #A80036; stroke-width: 2.0;" x1="1394.5" x2="1418.5" y1="2061.3516" y2="2061.3516"/><text fill="#000000" font-family="Arial" font-size="14" lengthAdjust="spacingAndGlyphs" textLength="131" x="1591" y="138.9014">ScheduleDatabase</text><text fill="#000000" font-family="Arial" font-size="14" lengthAdjust="spacingAndGlyphs" textLength="172" x="1570.5" y="155.1982">(schedule_database.csv)</text><path d="M1641.5,89.9063 C1641.5,79.9063 1659.5,79.9063 1659.5,79.9063 C1659.5,79.9063 1677.5,79.9063 1677.5,89.9063 L1677.5,115.9063 C1677.5,125.9063 1659.5,125.9063 1659.5,125.9063 C1659.5,125.9063 1641.5,125.9063 1641.5,115.9063 L1641.5,89.9063 " fill="#FEFECE" filter="url(#flk4zglq7rn1a)" style="stroke: #000000; stroke-width: 1.5;"/><path d="M1641.5,89.9063 C1641.5,99.9063 1659.5,99.9063 1659.5,99.9063 C1659.5,99.9063 1677.5,99.9063 1677.5,89.9063 " fill="none" style="stroke: #000000; stroke-width: 1.5;"/><text fill="#000000" font-family="Arial" font-size="14" lengthAdjust="spacingAndGlyphs" textLength="131" x="1591" y="2011.7529">ScheduleDatabase</text><text fill="#000000" font-family="Arial" font-size="14" lengthAdjust="spacingAndGlyphs" textLength="172" x="1570.5" y="2028.0498">(schedule_database.csv)</text><path d="M1641.5,2041.3516 C1641.5,2031.3516 1659.5,2031.3516 1659.5,2031.3516 C1659.5,2031.3516 1677.5,2031.3516 1677.5,2041.3516 L1677.5,2067.3516 C1677.5,2077.3516 1659.5,2077.3516 1659.5,2077.3516 C1659.5,2077.3516 1641.5,2077.3516 1641.5,2067.3516 L1641.5,2041.3516 " fill="#FEFECE" filter="url(#flk4zglq7rn1a)" style="stroke: #000000; stroke-width: 1.5;"/><path d="M1641.5,2041.3516 C1641.5,2051.3516 1659.5,2051.3516 1659.5,2051.3516 C1659.5,2051.3516 1677.5,2051.3516 1677.5,2041.3516 " fill="none" style="stroke: #000000; stroke-width: 1.5;"/><rect fill="#FFFFFF" filter="url(#flk4zglq7rn1a)" height="1309.2656" style="stroke: #888888; stroke-width: 1.0;" width="10" x="406.5" y="232.7656"/><rect fill="#FFFFFF" filter="url(#flk4zglq7rn1a)" height="346.4609" style="stroke: #888888; stroke-width: 1.0;" width="10" x="406.5" y="1635.2969"/><rect fill="#FFFFFF" filter="url(#flk4zglq7rn1a)" height="1192.7344" style="stroke: #888888; stroke-width: 1.0;" width="10" x="753.5" y="320.1641"/><rect fill="#FFFFFF" filter="url(#flk4zglq7rn1a)" height="187.7969" style="stroke: #888888; stroke-width: 1.0;" width="10" x="753.5" y="1764.8281"/><rect fill="#FFFFFF" filter="url(#flk4zglq7rn1a)" height="1134.4688" style="stroke: #888888; stroke-width: 1.0;" width="10" x="1060.5" y="349.2969"/><rect fill="#FFFFFF" filter="url(#flk4zglq7rn1a)" height="87.3984" style="stroke: #888888; stroke-width: 1.0;" width="10" x="1060.5" y="1836.0938"/><rect fill="#FFFFFF" filter="url(#flk4zglq7rn1a)" height="113.3984" style="stroke: #888888; stroke-width: 1.0;" width="10" x="1401.5" y="1098.3047"/><rect fill="#FFFFFF" filter="url(#flk4zglq7rn1a)" height="29.1328" style="stroke: #888888; stroke-width: 1.0;" width="10" x="1654.5" y="1282.9688"/><rect fill="#FFFFFF" filter="url(#flk4zglq7rn1a)" height="29.1328" style="stroke: #888888; stroke-width: 1.0;" width="10" x="1654.5" y="1425.5"/><rect fill="#FFFFFF" filter="url(#flk4zglq7rn1a)" height="29.1328" style="stroke: #888888; stroke-width: 1.0;" width="10" x="1654.5" y="1865.2266"/><rect fill="#EEEEEE" filter="url(#flk4zglq7rn1a)" height="3" style="stroke: #EEEEEE; stroke-width: 1.0;" width="1799.5" x="3" y="189.0664"/><line style="stroke: #000000; stroke-width: 1.0;" x1="3" x2="1802.5" y1="189.0664" y2="189.0664"/><line style="stroke: #000000; stroke-width: 1.0;" x1="3" x2="1802.5" y1="192.0664" y2="192.0664"/><rect fill="#EEEEEE" filter="url(#flk4zglq7rn1a)" height="23.1328" style="stroke: #000000; stroke-width: 2.0;" width="97" x="854.25" y="178.5"/><text fill="#000000" font-family="Arial" font-size="13" font-weight="bold" lengthAdjust="spacingAndGlyphs" textLength="78" x="860.25" y="194.5669">Basic Flow</text><polygon fill="#A80036" points="394.5,228.7656,404.5,232.7656,394.5,236.7656,398.5,232.7656" style="stroke: #A80036; stroke-width: 1.0;"/><line style="stroke: #A80036; stroke-width: 1.5;" x1="124.5" x2="400.5" y1="232.7656" y2="232.7656"/><text fill="#000000" font-family="Arial" font-size="13" lengthAdjust="spacingAndGlyphs" textLength="155" x="131.5" y="227.6997">navigate to upload page</text><polygon fill="#A80036" points="394.5,257.8984,404.5,261.8984,394.5,265.8984,398.5,261.8984" style="stroke: #A80036; stroke-width: 1.0;"/><line style="stroke: #A80036; stroke-width: 1.5;" x1="124.5" x2="400.5" y1="261.8984" y2="261.8984"/><text fill="#000000" font-family="Arial" font-size="13" lengthAdjust="spacingAndGlyphs" textLength="164" x="131.5" y="256.8325">select Excel file (.xlsx/.xls)</text><polygon fill="#A80036" points="394.5,287.0313,404.5,291.0313,394.5,295.0313,398.5,291.0313" style="stroke: #A80036; stroke-width: 1.0;"/><line style="stroke: #A80036; stroke-width: 1.5;" x1="124.5" x2="400.5" y1="291.0313" y2="291.0313"/><text fill="#000000" font-family="Arial" font-size="13" lengthAdjust="spacingAndGlyphs" textLength="66" x="131.5" y="285.9653">submit file</text><polygon fill="#A80036" points="741.5,316.1641,751.5,320.1641,741.5,324.1641,745.5,320.1641" style="stroke: #A80036; stroke-width: 1.0;"/><line style="stroke: #A80036; stroke-width: 1.5;" x1="416.5" x2="747.5" y1="320.1641" y2="320.1641"/><text fill="#000000" font-family="Arial" font-size="13" lengthAdjust="spacingAndGlyphs" textLength="117" x="423.5" y="315.0981">POST /upload (file)</text><polygon fill="#A80036" points="1048.5,345.2969,1058.5,349.2969,1048.5,353.2969,1052.5,349.2969" style="stroke: #A80036; stroke-width: 1.0;"/><line style="stroke: #A80036; stroke-width: 1.5;" x1="763.5" x2="1054.5" y1="349.2969" y2="349.2969"/><text fill="#000000" font-family="Arial" font-size="13" lengthAdjust="spacingAndGlyphs" textLength="110" x="770.5" y="344.231">import_excel(file)</text><line style="stroke: #A80036; stroke-width: 1.5;" x1="1070.5" x2="1112.5" y1="378.4297" y2="378.4297"/><line style="stroke: #A80036; stroke-width: 1.5;" x1="1112.5" x2="1112.5" y1="378.4297" y2="391.4297"/><line style="stroke: #A80036; stroke-width: 1.5;" x1="1071.5" x2="1112.5" y1="391.4297" y2="391.4297"/><polygon fill="#A80036" points="1081.5,387.4297,1071.5,391.4297,1081.5,395.4297,1077.5,391.4297" style="stroke: #A80036; stroke-width: 1.0;"/><text fill="#000000" font-family="Arial" font-size="13" lengthAdjust="spacingAndGlyphs" textLength="190" x="1077.5" y="373.3638">validate filename &amp; extension</text><path d="M1279,363.7969 L1279,388.7969 L1477,388.7969 L1477,373.7969 L1467,363.7969 L1279,363.7969 " fill="#FFFFCC" filter="url(#flk4zglq7rn1a)" style="stroke: #AAAAAA; stroke-width: 1.0;"/><path d="M1467,363.7969 L1467,373.7969 L1477,373.7969 L1467,363.7969 " fill="#FFFFCC" style="stroke: #AAAAAA; stroke-width: 1.0;"/><text fill="#000000" font-family="Arial" font-size="13" lengthAdjust="spacingAndGlyphs" textLength="177" x="1285" y="380.8638">Checks .xlsx / .xls extension</text><path d="M13,406.4297 L77,406.4297 L77,413.4297 L67,423.4297 L13,423.4297 L13,406.4297 " fill="#EEEEEE" style="stroke: #000000; stroke-width: 1.0;"/><rect fill="none" height="1157.6016" style="stroke: #000000; stroke-width: 2.0;" width="1779.5" x="13" y="406.4297"/><text fill="#000000" font-family="Arial" font-size="13" font-weight="bold" lengthAdjust="spacingAndGlyphs" textLength="19" x="28" y="419.4966">alt</text><text fill="#000000" font-family="Arial" font-size="11" font-weight="bold" lengthAdjust="spacingAndGlyphs" textLength="195" x="92" y="418.6401">[Invalid file type or empty file]</text><polygon fill="#A80036" points="774.5,440.6953,764.5,444.6953,774.5,448.6953,770.5,444.6953" style="stroke: #A80036; stroke-width: 1.0;"/><line style="stroke: #A80036; stroke-width: 1.5; stroke-dasharray: 2.0,2.0;" x1="768.5" x2="1059.5" y1="444.6953" y2="444.6953"/><text fill="#000000" font-family="Arial" font-size="13" lengthAdjust="spacingAndGlyphs" textLength="147" x="780.5" y="439.6294">return validation failure</text><polygon fill="#A80036" points="427.5,469.8281,417.5,473.8281,427.5,477.8281,423.5,473.8281" style="stroke: #A80036; stroke-width: 1.0;"/><line style="stroke: #A80036; stroke-width: 1.5; stroke-dasharray: 2.0,2.0;" x1="421.5" x2="752.5" y1="473.8281" y2="473.8281"/><text fill="#000000" font-family="Arial" font-size="13" lengthAdjust="spacingAndGlyphs" textLength="276" x="433.5" y="468.7622">400 { message: "Invalid file type / empty" }</text><polygon fill="#A80036" points="135.5,498.9609,125.5,502.9609,135.5,506.9609,131.5,502.9609" style="stroke: #A80036; stroke-width: 1.0;"/><line style="stroke: #A80036; stroke-width: 1.5; stroke-dasharray: 2.0,2.0;" x1="129.5" x2="405.5" y1="502.9609" y2="502.9609"/><text fill="#000000" font-family="Arial" font-size="13" lengthAdjust="spacingAndGlyphs" textLength="142" x="141.5" y="497.895">display error message</text><line style="stroke: #000000; stroke-width: 1.0; stroke-dasharray: 2.0,2.0;" x1="13" x2="1792.5" y1="511.9609" y2="511.9609"/><text fill="#000000" font-family="Arial" font-size="11" font-weight="bold" lengthAdjust="spacingAndGlyphs" textLength="67" x="18" y="522.1714">[Valid file]</text><line style="stroke: #A80036; stroke-width: 1.5;" x1="1070.5" x2="1112.5" y1="546.8984" y2="546.8984"/><line style="stroke: #A80036; stroke-width: 1.5;" x1="1112.5" x2="1112.5" y1="546.8984" y2="559.8984"/><line style="stroke: #A80036; stroke-width: 1.5;" x1="1071.5" x2="1112.5" y1="559.8984" y2="559.8984"/><polygon fill="#A80036" points="1081.5,555.8984,1071.5,559.8984,1081.5,563.8984,1077.5,559.8984" style="stroke: #A80036; stroke-width: 1.0;"/><text fill="#000000" font-family="Arial" font-size="13" lengthAdjust="spacingAndGlyphs" textLength="230" x="1077.5" y="541.8325">compute SHA-256 hash of file bytes</text><line style="stroke: #A80036; stroke-width: 1.5;" x1="1070.5" x2="1112.5" y1="589.0313" y2="589.0313"/><line style="stroke: #A80036; stroke-width: 1.5;" x1="1112.5" x2="1112.5" y1="589.0313" y2="602.0313"/><line style="stroke: #A80036; stroke-width: 1.5;" x1="1071.5" x2="1112.5" y1="602.0313" y2="602.0313"/><polygon fill="#A80036" points="1081.5,598.0313,1071.5,602.0313,1081.5,606.0313,1077.5,602.0313" style="stroke: #A80036; stroke-width: 1.0;"/><text fill="#000000" font-family="Arial" font-size="13" lengthAdjust="spacingAndGlyphs" textLength="246" x="1077.5" y="583.9653">scan uploads/ folder for duplicate hash</text><path d="M1335,574.3984 L1335,599.3984 L1644,599.3984 L1644,584.3984 L1634,574.3984 L1335,574.3984 " fill="#FFFFCC" filter="url(#flk4zglq7rn1a)" style="stroke: #AAAAAA; stroke-width: 1.0;"/><path d="M1634,574.3984 L1634,584.3984 L1644,584.3984 L1634,574.3984 " fill="#FFFFCC" style="stroke: #AAAAAA; stroke-width: 1.0;"/><text fill="#000000" font-family="Arial" font-size="13" lengthAdjust="spacingAndGlyphs" textLength="288" x="1341" y="591.4653">UC_DUP_FILE — Detect Duplicate Upload File</text><path d="M956,617.0313 L1020,617.0313 L1020,624.0313 L1010,634.0313 L956,634.0313 L956,617.0313 " fill="#EEEEEE" style="stroke: #000000; stroke-width: 1.0;"/><rect fill="none" height="158.3359" style="stroke: #000000; stroke-width: 2.0;" width="615.5" x="956" y="617.0313"/><text fill="#000000" font-family="Arial" font-size="13" font-weight="bold" lengthAdjust="spacingAndGlyphs" textLength="19" x="971" y="630.0981">alt</text><text fill="#000000" font-family="Arial" font-size="11" font-weight="bold" lengthAdjust="spacingAndGlyphs" textLength="157" x="1035" y="629.2417">[Duplicate file detected]</text><line style="stroke: #A80036; stroke-width: 1.5;" x1="1070.5" x2="1112.5" y1="655.2969" y2="655.2969"/><line style="stroke: #A80036; stroke-width: 1.5;" x1="1112.5" x2="1112.5" y1="655.2969" y2="668.2969"/><line style="stroke: #A80036; stroke-width: 1.5;" x1="1071.5" x2="1112.5" y1="668.2969" y2="668.2969"/><polygon fill="#A80036" points="1081.5,664.2969,1071.5,668.2969,1081.5,672.2969,1077.5,668.2969" style="stroke: #A80036; stroke-width: 1.0;"/><text fill="#000000" font-family="Arial" font-size="13" lengthAdjust="spacingAndGlyphs" textLength="248" x="1077.5" y="650.231">skip saving file; reuse existing filename</text><path d="M1337,640.6641 L1337,665.6641 L1547,665.6641 L1547,650.6641 L1537,640.6641 L1337,640.6641 " fill="#FFFFCC" filter="url(#flk4zglq7rn1a)" style="stroke: #AAAAAA; stroke-width: 1.0;"/><path d="M1537,640.6641 L1537,650.6641 L1547,650.6641 L1537,640.6641 " fill="#FFFFCC" style="stroke: #AAAAAA; stroke-width: 1.0;"/><text fill="#000000" font-family="Arial" font-size="13" lengthAdjust="spacingAndGlyphs" textLength="189" x="1343" y="657.731">duplicate_of = existing_name</text><line style="stroke: #000000; stroke-width: 1.0; stroke-dasharray: 2.0,2.0;" x1="956" x2="1571.5" y1="677.2969" y2="677.2969"/><text fill="#000000" font-family="Arial" font-size="11" font-weight="bold" lengthAdjust="spacingAndGlyphs" textLength="63" x="961" y="687.5073">[New file]</text><line style="stroke: #A80036; stroke-width: 1.5;" x1="1070.5" x2="1112.5" y1="712.2344" y2="712.2344"/><line style="stroke: #A80036; stroke-width: 1.5;" x1="1112.5" x2="1112.5" y1="712.2344" y2="725.2344"/><line style="stroke: #A80036; stroke-width: 1.5;" x1="1071.5" x2="1112.5" y1="725.2344" y2="725.2344"/><polygon fill="#A80036" points="1081.5,721.2344,1071.5,725.2344,1081.5,729.2344,1077.5,725.2344" style="stroke: #A80036; stroke-width: 1.0;"/><text fill="#000000" font-family="Arial" font-size="13" lengthAdjust="spacingAndGlyphs" textLength="164" x="1077.5" y="707.1685">generate unique filename</text><line style="stroke: #A80036; stroke-width: 1.5;" x1="1070.5" x2="1112.5" y1="754.3672" y2="754.3672"/><line style="stroke: #A80036; stroke-width: 1.5;" x1="1112.5" x2="1112.5" y1="754.3672" y2="767.3672"/><line style="stroke: #A80036; stroke-width: 1.5;" x1="1071.5" x2="1112.5" y1="767.3672" y2="767.3672"/><polygon fill="#A80036" points="1081.5,763.3672,1071.5,767.3672,1081.5,771.3672,1077.5,767.3672" style="stroke: #A80036; stroke-width: 1.0;"/><text fill="#000000" font-family="Arial" font-size="13" lengthAdjust="spacingAndGlyphs" textLength="144" x="1077.5" y="749.3013">save bytes to uploads/</text><path d="M1233,739.7344 L1233,764.7344 L1444,764.7344 L1444,749.7344 L1434,739.7344 L1233,739.7344 " fill="#FFFFCC" filter="url(#flk4zglq7rn1a)" style="stroke: #AAAAAA; stroke-width: 1.0;"/><path d="M1434,739.7344 L1434,749.7344 L1444,749.7344 L1434,739.7344 " fill="#FFFFCC" style="stroke: #AAAAAA; stroke-width: 1.0;"/><text fill="#000000" font-family="Arial" font-size="13" lengthAdjust="spacingAndGlyphs" textLength="190" x="1239" y="756.8013">UC_UPLOAD — persist to disk</text><line style="stroke: #A80036; stroke-width: 1.5;" x1="1070.5" x2="1112.5" y1="803.5" y2="803.5"/><line style="stroke: #A80036; stroke-width: 1.5;" x1="1112.5" x2="1112.5" y1="803.5" y2="816.5"/><line style="stroke: #A80036; stroke-width: 1.5;" x1="1071.5" x2="1112.5" y1="816.5" y2="816.5"/><polygon fill="#A80036" points="1081.5,812.5,1071.5,816.5,1081.5,820.5,1077.5,816.5" style="stroke: #A80036; stroke-width: 1.0;"/><text fill="#000000" font-family="Arial" font-size="13" lengthAdjust="spacingAndGlyphs" textLength="159" x="1077.5" y="798.4341">pd.read_excel(file_bytes)</text><path d="M1248,788.8672 L1248,813.8672 L1493,813.8672 L1493,798.8672 L1483,788.8672 L1248,788.8672 " fill="#FFFFCC" filter="url(#flk4zglq7rn1a)" style="stroke: #AAAAAA; stroke-width: 1.0;"/><path d="M1483,788.8672 L1483,798.8672 L1493,798.8672 L1483,788.8672 " fill="#FFFFCC" style="stroke: #AAAAAA; stroke-width: 1.0;"/><text fill="#000000" font-family="Arial" font-size="13" lengthAdjust="spacingAndGlyphs" textLength="224" x="1254" y="805.9341">Parse spreadsheet into DataFrame</text><path d="M23,831.5 L87,831.5 L87,838.5 L77,848.5 L23,848.5 L23,831.5 " fill="#EEEEEE" style="stroke: #000000; stroke-width: 1.0;"/><rect fill="none" height="725.5313" style="stroke: #000000; stroke-width: 2.0;" width="1759.5" x="23" y="831.5"/><text fill="#000000" font-family="Arial" font-size="13" font-weight="bold" lengthAdjust="spacingAndGlyphs" textLength="19" x="38" y="844.5669">alt</text><text fill="#000000" font-family="Arial" font-size="11" font-weight="bold" lengthAdjust="spacingAndGlyphs" textLength="174" x="102" y="843.7104">[Excel content unreadable]</text><polygon fill="#A80036" points="774.5,865.7656,764.5,869.7656,774.5,873.7656,770.5,869.7656" style="stroke: #A80036; stroke-width: 1.0;"/><line style="stroke: #A80036; stroke-width: 1.5; stroke-dasharray: 2.0,2.0;" x1="768.5" x2="1059.5" y1="869.7656" y2="869.7656"/><text fill="#000000" font-family="Arial" font-size="13" lengthAdjust="spacingAndGlyphs" textLength="122" x="780.5" y="864.6997">return parse failure</text><polygon fill="#A80036" points="427.5,894.8984,417.5,898.8984,427.5,902.8984,423.5,898.8984" style="stroke: #A80036; stroke-width: 1.0;"/><line style="stroke: #A80036; stroke-width: 1.5; stroke-dasharray: 2.0,2.0;" x1="421.5" x2="752.5" y1="898.8984" y2="898.8984"/><text fill="#000000" font-family="Arial" font-size="13" lengthAdjust="spacingAndGlyphs" textLength="281" x="433.5" y="893.8325">400 { message: "Invalid Excel file content" }</text><polygon fill="#A80036" points="135.5,924.0313,125.5,928.0313,135.5,932.0313,131.5,928.0313" style="stroke: #A80036; stroke-width: 1.0;"/><line style="stroke: #A80036; stroke-width: 1.5; stroke-dasharray: 2.0,2.0;" x1="129.5" x2="405.5" y1="928.0313" y2="928.0313"/><text fill="#000000" font-family="Arial" font-size="13" lengthAdjust="spacingAndGlyphs" textLength="142" x="141.5" y="922.9653">display error message</text><line style="stroke: #000000; stroke-width: 1.0; stroke-dasharray: 2.0,2.0;" x1="23" x2="1782.5" y1="937.0313" y2="937.0313"/><text fill="#000000" font-family="Arial" font-size="11" font-weight="bold" lengthAdjust="spacingAndGlyphs" textLength="123" x="28" y="947.2417">[Readable content]</text><path d="M33,957.8359 L97,957.8359 L97,964.8359 L87,974.8359 L33,974.8359 L33,957.8359 " fill="#EEEEEE" style="stroke: #000000; stroke-width: 1.0;"/><rect fill="none" height="592.1953" style="stroke: #000000; stroke-width: 2.0;" width="1739.5" x="33" y="957.8359"/><text fill="#000000" font-family="Arial" font-size="13" font-weight="bold" lengthAdjust="spacingAndGlyphs" textLength="19" x="48" y="970.9028">alt</text><text fill="#000000" font-family="Arial" font-size="11" font-weight="bold" lengthAdjust="spacingAndGlyphs" textLength="138" x="112" y="970.0464">[DataFrame is empty]</text><polygon fill="#A80036" points="774.5,992.1016,764.5,996.1016,774.5,1000.1016,770.5,996.1016" style="stroke: #A80036; stroke-width: 1.0;"/><line style="stroke: #A80036; stroke-width: 1.5; stroke-dasharray: 2.0,2.0;" x1="768.5" x2="1059.5" y1="996.1016" y2="996.1016"/><text fill="#000000" font-family="Arial" font-size="13" lengthAdjust="spacingAndGlyphs" textLength="150" x="780.5" y="991.0356">return empty-file failure</text><polygon fill="#A80036" points="427.5,1021.2344,417.5,1025.2344,427.5,1029.2344,423.5,1025.2344" style="stroke: #A80036; stroke-width: 1.0;"/><line style="stroke: #A80036; stroke-width: 1.5; stroke-dasharray: 2.0,2.0;" x1="421.5" x2="752.5" y1="1025.2344" y2="1025.2344"/><text fill="#000000" font-family="Arial" font-size="13" lengthAdjust="spacingAndGlyphs" textLength="292" x="433.5" y="1020.1685">400 { message: "Uploaded file has no rows" }</text><polygon fill="#A80036" points="135.5,1050.3672,125.5,1054.3672,135.5,1058.3672,131.5,1054.3672" style="stroke: #A80036; stroke-width: 1.0;"/><line style="stroke: #A80036; stroke-width: 1.5; stroke-dasharray: 2.0,2.0;" x1="129.5" x2="405.5" y1="1054.3672" y2="1054.3672"/><text fill="#000000" font-family="Arial" font-size="13" lengthAdjust="spacingAndGlyphs" textLength="142" x="141.5" y="1049.3013">display error message</text><line style="stroke: #000000; stroke-width: 1.0; stroke-dasharray: 2.0,2.0;" x1="33" x2="1772.5" y1="1063.3672" y2="1063.3672"/><text fill="#000000" font-family="Arial" font-size="11" font-weight="bold" lengthAdjust="spacingAndGlyphs" textLength="153" x="38" y="1073.5776">[Non-empty DataFrame]</text><polygon fill="#A80036" points="1389.5,1094.3047,1399.5,1098.3047,1389.5,1102.3047,1393.5,1098.3047" style="stroke: #A80036; stroke-width: 1.0;"/><line style="stroke: #A80036; stroke-width: 1.5;" x1="1070.5" x2="1395.5" y1="1098.3047" y2="1098.3047"/><text fill="#000000" font-family="Arial" font-size="13" lengthAdjust="spacingAndGlyphs" textLength="159" x="1077.5" y="1093.2388">normalize_dataframe(df)</text><line style="stroke: #A80036; stroke-width: 1.5;" x1="1411.5" x2="1453.5" y1="1127.4375" y2="1127.4375"/><line style="stroke: #A80036; stroke-width: 1.5;" x1="1453.5" x2="1453.5" y1="1127.4375" y2="1140.4375"/><line style="stroke: #A80036; stroke-width: 1.5;" x1="1412.5" x2="1453.5" y1="1140.4375" y2="1140.4375"/><polygon fill="#A80036" points="1422.5,1136.4375,1412.5,1140.4375,1422.5,1144.4375,1418.5,1140.4375" style="stroke: #A80036; stroke-width: 1.0;"/><text fill="#000000" font-family="Arial" font-size="13" lengthAdjust="spacingAndGlyphs" textLength="229" x="1418.5" y="1122.3716">rename columns per COLUMN_MAP</text><line style="stroke: #A80036; stroke-width: 1.5;" x1="1411.5" x2="1453.5" y1="1169.5703" y2="1169.5703"/><line style="stroke: #A80036; stroke-width: 1.5;" x1="1453.5" x2="1453.5" y1="1169.5703" y2="1182.5703"/><line style="stroke: #A80036; stroke-width: 1.5;" x1="1412.5" x2="1453.5" y1="1182.5703" y2="1182.5703"/><polygon fill="#A80036" points="1422.5,1178.5703,1412.5,1182.5703,1422.5,1186.5703,1418.5,1182.5703" style="stroke: #A80036; stroke-width: 1.0;"/><text fill="#000000" font-family="Arial" font-size="13" lengthAdjust="spacingAndGlyphs" textLength="151" x="1418.5" y="1164.5044">strip / clean string fields</text><polygon fill="#A80036" points="1081.5,1207.7031,1071.5,1211.7031,1081.5,1215.7031,1077.5,1211.7031" style="stroke: #A80036; stroke-width: 1.0;"/><line style="stroke: #A80036; stroke-width: 1.5; stroke-dasharray: 2.0,2.0;" x1="1075.5" x2="1405.5" y1="1211.7031" y2="1211.7031"/><text fill="#000000" font-family="Arial" font-size="13" lengthAdjust="spacingAndGlyphs" textLength="87" x="1087.5" y="1206.6372">normalized df</text><line style="stroke: #A80036; stroke-width: 1.5;" x1="1070.5" x2="1112.5" y1="1240.8359" y2="1240.8359"/><line style="stroke: #A80036; stroke-width: 1.5;" x1="1112.5" x2="1112.5" y1="1240.8359" y2="1253.8359"/><line style="stroke: #A80036; stroke-width: 1.5;" x1="1071.5" x2="1112.5" y1="1253.8359" y2="1253.8359"/><polygon fill="#A80036" points="1081.5,1249.8359,1071.5,1253.8359,1081.5,1257.8359,1077.5,1253.8359" style="stroke: #A80036; stroke-width: 1.0;"/><text fill="#000000" font-family="Arial" font-size="13" lengthAdjust="spacingAndGlyphs" textLength="230" x="1077.5" y="1235.77">normalize key columns (TERM, CRN)</text><polygon fill="#A80036" points="1642.5,1278.9688,1652.5,1282.9688,1642.5,1286.9688,1646.5,1282.9688" style="stroke: #A80036; stroke-width: 1.0;"/><line style="stroke: #A80036; stroke-width: 1.5;" x1="1070.5" x2="1648.5" y1="1282.9688" y2="1282.9688"/><text fill="#000000" font-family="Arial" font-size="13" lengthAdjust="spacingAndGlyphs" textLength="235" x="1077.5" y="1277.9028">read existing schedule_database.csv</text><polygon fill="#A80036" points="1081.5,1308.1016,1071.5,1312.1016,1081.5,1316.1016,1077.5,1312.1016" style="stroke: #A80036; stroke-width: 1.0;"/><line style="stroke: #A80036; stroke-width: 1.5; stroke-dasharray: 2.0,2.0;" x1="1075.5" x2="1658.5" y1="1312.1016" y2="1312.1016"/><text fill="#000000" font-family="Arial" font-size="13" lengthAdjust="spacingAndGlyphs" textLength="273" x="1087.5" y="1307.0356">existing DataFrame (or empty if not found)</text><line style="stroke: #A80036; stroke-width: 1.5;" x1="1070.5" x2="1112.5" y1="1341.2344" y2="1341.2344"/><line style="stroke: #A80036; stroke-width: 1.5;" x1="1112.5" x2="1112.5" y1="1341.2344" y2="1354.2344"/><line style="stroke: #A80036; stroke-width: 1.5;" x1="1071.5" x2="1112.5" y1="1354.2344" y2="1354.2344"/><polygon fill="#A80036" points="1081.5,1350.2344,1071.5,1354.2344,1081.5,1358.2344,1077.5,1354.2344" style="stroke: #A80036; stroke-width: 1.0;"/><text fill="#000000" font-family="Arial" font-size="13" lengthAdjust="spacingAndGlyphs" textLength="174" x="1077.5" y="1336.1685">pd.concat(existing, new_df)</text><line style="stroke: #A80036; stroke-width: 1.5;" x1="1070.5" x2="1112.5" y1="1383.3672" y2="1383.3672"/><line style="stroke: #A80036; stroke-width: 1.5;" x1="1112.5" x2="1112.5" y1="1383.3672" y2="1396.3672"/><line style="stroke: #A80036; stroke-width: 1.5;" x1="1071.5" x2="1112.5" y1="1396.3672" y2="1396.3672"/><polygon fill="#A80036" points="1081.5,1392.3672,1071.5,1396.3672,1081.5,1400.3672,1077.5,1396.3672" style="stroke: #A80036; stroke-width: 1.0;"/><text fill="#000000" font-family="Arial" font-size="13" lengthAdjust="spacingAndGlyphs" textLength="317" x="1077.5" y="1378.3013">drop_duplicates(subset=[CRN, TERM], keep=last)</text><path d="M1406,1368.7344 L1406,1393.7344 L1748,1393.7344 L1748,1378.7344 L1738,1368.7344 L1406,1368.7344 " fill="#FFFFCC" filter="url(#flk4zglq7rn1a)" style="stroke: #AAAAAA; stroke-width: 1.0;"/><path d="M1738,1368.7344 L1738,1378.7344 L1748,1378.7344 L1738,1368.7344 " fill="#FFFFCC" style="stroke: #AAAAAA; stroke-width: 1.0;"/><text fill="#000000" font-family="Arial" font-size="13" lengthAdjust="spacingAndGlyphs" textLength="321" x="1412" y="1385.8013">UC_DUP_DATA — deduplicate by CRN + semester</text><polygon fill="#A80036" points="1642.5,1421.5,1652.5,1425.5,1642.5,1429.5,1646.5,1425.5" style="stroke: #A80036; stroke-width: 1.0;"/><line style="stroke: #A80036; stroke-width: 1.5;" x1="1070.5" x2="1648.5" y1="1425.5" y2="1425.5"/><text fill="#000000" font-family="Arial" font-size="13" lengthAdjust="spacingAndGlyphs" textLength="330" x="1077.5" y="1420.4341">write merged DataFrame to schedule_database.csv</text><polygon fill="#A80036" points="1081.5,1450.6328,1071.5,1454.6328,1081.5,1458.6328,1077.5,1454.6328" style="stroke: #A80036; stroke-width: 1.0;"/><line style="stroke: #A80036; stroke-width: 1.5; stroke-dasharray: 2.0,2.0;" x1="1075.5" x2="1658.5" y1="1454.6328" y2="1454.6328"/><text fill="#000000" font-family="Arial" font-size="13" lengthAdjust="spacingAndGlyphs" textLength="98" x="1087.5" y="1449.5669">write confirmed</text><polygon fill="#A80036" points="774.5,1479.7656,764.5,1483.7656,774.5,1487.7656,770.5,1483.7656" style="stroke: #A80036; stroke-width: 1.0;"/><line style="stroke: #A80036; stroke-width: 1.5; stroke-dasharray: 2.0,2.0;" x1="768.5" x2="1064.5" y1="1483.7656" y2="1483.7656"/><text fill="#000000" font-family="Arial" font-size="13" lengthAdjust="spacingAndGlyphs" textLength="257" x="780.5" y="1478.6997">{ message, rows, saved_file, duplicate }</text><polygon fill="#A80036" points="427.5,1508.8984,417.5,1512.8984,427.5,1516.8984,423.5,1512.8984" style="stroke: #A80036; stroke-width: 1.0;"/><line style="stroke: #A80036; stroke-width: 1.5; stroke-dasharray: 2.0,2.0;" x1="421.5" x2="757.5" y1="1512.8984" y2="1512.8984"/><text fill="#000000" font-family="Arial" font-size="13" lengthAdjust="spacingAndGlyphs" textLength="313" x="433.5" y="1507.8325">200 { message: "Data imported. File saved: ..." }</text><polygon fill="#A80036" points="135.5,1538.0313,125.5,1542.0313,135.5,1546.0313,131.5,1542.0313" style="stroke: #A80036; stroke-width: 1.0;"/><line style="stroke: #A80036; stroke-width: 1.5; stroke-dasharray: 2.0,2.0;" x1="129.5" x2="410.5" y1="1542.0313" y2="1542.0313"/><text fill="#000000" font-family="Arial" font-size="13" lengthAdjust="spacingAndGlyphs" textLength="183" x="141.5" y="1536.9653">display success confirmation</text><rect fill="#EEEEEE" filter="url(#flk4zglq7rn1a)" height="3" style="stroke: #EEEEEE; stroke-width: 1.0;" width="1799.5" x="3" y="1591.5977"/><line style="stroke: #000000; stroke-width: 1.0;" x1="3" x2="1802.5" y1="1591.5977" y2="1591.5977"/><line style="stroke: #000000; stroke-width: 1.0;" x1="3" x2="1802.5" y1="1594.5977" y2="1594.5977"/><rect fill="#EEEEEE" filter="url(#flk4zglq7rn1a)" height="23.1328" style="stroke: #000000; stroke-width: 2.0;" width="350" x="727.75" y="1581.0313"/><text fill="#000000" font-family="Arial" font-size="13" font-weight="bold" lengthAdjust="spacingAndGlyphs" textLength="331" x="733.75" y="1597.0981">Alternative Flow 6a — Remove Uploaded File</text><polygon fill="#A80036" points="394.5,1631.2969,404.5,1635.2969,394.5,1639.2969,398.5,1635.2969" style="stroke: #A80036; stroke-width: 1.0;"/><line style="stroke: #A80036; stroke-width: 1.5;" x1="124.5" x2="400.5" y1="1635.2969" y2="1635.2969"/><text fill="#000000" font-family="Arial" font-size="13" lengthAdjust="spacingAndGlyphs" textLength="105" x="131.5" y="1630.231">navigate to /files</text><line style="stroke: #A80036; stroke-width: 1.5;" x1="416.5" x2="458.5" y1="1664.4297" y2="1664.4297"/><line style="stroke: #A80036; stroke-width: 1.5;" x1="458.5" x2="458.5" y1="1664.4297" y2="1677.4297"/><line style="stroke: #A80036; stroke-width: 1.5;" x1="417.5" x2="458.5" y1="1677.4297" y2="1677.4297"/><polygon fill="#A80036" points="427.5,1673.4297,417.5,1677.4297,427.5,1681.4297,423.5,1677.4297" style="stroke: #A80036; stroke-width: 1.0;"/><text fill="#000000" font-family="Arial" font-size="13" lengthAdjust="spacingAndGlyphs" textLength="120" x="423.5" y="1659.3638">list files in uploads/</text><polygon fill="#A80036" points="135.5,1702.5625,125.5,1706.5625,135.5,1710.5625,131.5,1706.5625" style="stroke: #A80036; stroke-width: 1.0;"/><line style="stroke: #A80036; stroke-width: 1.5; stroke-dasharray: 2.0,2.0;" x1="129.5" x2="405.5" y1="1706.5625" y2="1706.5625"/><text fill="#000000" font-family="Arial" font-size="13" lengthAdjust="spacingAndGlyphs" textLength="88" x="141.5" y="1701.4966">display file list</text><polygon fill="#A80036" points="394.5,1731.6953,404.5,1735.6953,394.5,1739.6953,398.5,1735.6953" style="stroke: #A80036; stroke-width: 1.0;"/><line style="stroke: #A80036; stroke-width: 1.5;" x1="124.5" x2="400.5" y1="1735.6953" y2="1735.6953"/><text fill="#000000" font-family="Arial" font-size="13" lengthAdjust="spacingAndGlyphs" textLength="127" x="131.5" y="1730.6294">click Delete on a file</text><polygon fill="#A80036" points="741.5,1760.8281,751.5,1764.8281,741.5,1768.8281,745.5,1764.8281" style="stroke: #A80036; stroke-width: 1.0;"/><line style="stroke: #A80036; stroke-width: 1.5;" x1="416.5" x2="747.5" y1="1764.8281" y2="1764.8281"/><text fill="#000000" font-family="Arial" font-size="13" lengthAdjust="spacingAndGlyphs" textLength="163" x="423.5" y="1759.7622">POST /delete/&lt;filename&gt;</text><line style="stroke: #A80036; stroke-width: 1.5;" x1="763.5" x2="805.5" y1="1793.9609" y2="1793.9609"/><line style="stroke: #A80036; stroke-width: 1.5;" x1="805.5" x2="805.5" y1="1793.9609" y2="1806.9609"/><line style="stroke: #A80036; stroke-width: 1.5;" x1="764.5" x2="805.5" y1="1806.9609" y2="1806.9609"/><polygon fill="#A80036" points="774.5,1802.9609,764.5,1806.9609,774.5,1810.9609,770.5,1806.9609" style="stroke: #A80036; stroke-width: 1.0;"/><text fill="#000000" font-family="Arial" font-size="13" lengthAdjust="spacingAndGlyphs" textLength="125" x="770.5" y="1788.895">os.remove(filepath)</text><polygon fill="#A80036" points="1048.5,1832.0938,1058.5,1836.0938,1048.5,1840.0938,1052.5,1836.0938" style="stroke: #A80036; stroke-width: 1.0;"/><line style="stroke: #A80036; stroke-width: 1.5;" x1="763.5" x2="1054.5" y1="1836.0938" y2="1836.0938"/><text fill="#000000" font-family="Arial" font-size="13" lengthAdjust="spacingAndGlyphs" textLength="278" x="770.5" y="1831.0278">rebuild_schedule_database_from_uploads()</text><polygon fill="#A80036" points="1642.5,1861.2266,1652.5,1865.2266,1642.5,1869.2266,1646.5,1865.2266" style="stroke: #A80036; stroke-width: 1.0;"/><line style="stroke: #A80036; stroke-width: 1.5;" x1="1070.5" x2="1648.5" y1="1865.2266" y2="1865.2266"/><text fill="#000000" font-family="Arial" font-size="13" lengthAdjust="spacingAndGlyphs" textLength="252" x="1077.5" y="1860.1606">rebuild CSV from remaining upload files</text><polygon fill="#A80036" points="1081.5,1890.3594,1071.5,1894.3594,1081.5,1898.3594,1077.5,1894.3594" style="stroke: #A80036; stroke-width: 1.0;"/><line style="stroke: #A80036; stroke-width: 1.5; stroke-dasharray: 2.0,2.0;" x1="1075.5" x2="1658.5" y1="1894.3594" y2="1894.3594"/><text fill="#000000" font-family="Arial" font-size="13" lengthAdjust="spacingAndGlyphs" textLength="98" x="1087.5" y="1889.2935">write confirmed</text><polygon fill="#A80036" points="774.5,1919.4922,764.5,1923.4922,774.5,1927.4922,770.5,1923.4922" style="stroke: #A80036; stroke-width: 1.0;"/><line style="stroke: #A80036; stroke-width: 1.5; stroke-dasharray: 2.0,2.0;" x1="768.5" x2="1064.5" y1="1923.4922" y2="1923.4922"/><text fill="#000000" font-family="Arial" font-size="13" lengthAdjust="spacingAndGlyphs" textLength="65" x="780.5" y="1918.4263">row_count</text><polygon fill="#A80036" points="427.5,1948.625,417.5,1952.625,427.5,1956.625,423.5,1952.625" style="stroke: #A80036; stroke-width: 1.0;"/><line style="stroke: #A80036; stroke-width: 1.5; stroke-dasharray: 2.0,2.0;" x1="421.5" x2="757.5" y1="1952.625" y2="1952.625"/><text fill="#000000" font-family="Arial" font-size="13" lengthAdjust="spacingAndGlyphs" textLength="221" x="433.5" y="1947.5591">redirect /files?message=Deleted...</text><polygon fill="#A80036" points="135.5,1977.7578,125.5,1981.7578,135.5,1985.7578,131.5,1981.7578" style="stroke: #A80036; stroke-width: 1.0;"/><line style="stroke: #A80036; stroke-width: 1.5; stroke-dasharray: 2.0,2.0;" x1="129.5" x2="410.5" y1="1981.7578" y2="1981.7578"/><text fill="#000000" font-family="Arial" font-size="13" lengthAdjust="spacingAndGlyphs" textLength="258" x="141.5" y="1976.6919">display updated file list with confirmation</text><!--MD5=[7ccd7f2cb326b3f7b8246d8791d8aac7]
@startuml

skinparam DefaultFontName Arial
skinparam SequenceArrowThickness 1.5
skinparam ParticipantBackgroundColor #FEFEFE
skinparam ParticipantBorderColor #444444
skinparam NoteBackgroundColor #FFFFCC
skinparam NoteBorderColor #AAAAAA
skinparam SequenceLifeLineBorderColor #888888

title Sequence(1)_MOSS_Pj2_T-01\nUC1: Upload Excel File

actor "Scheduling Committee\nMember" as SCM

boundary "UploadPage\n(home.html / upload form)" as UploadPage
control "UploadController\n(routes.upload)" as UploadCtrl
control "ExcelService\n(excel_service.import_excel)" as ExcelSvc
entity "DataService\n(data_service.normalize_dataframe)" as DataSvc
database "ScheduleDatabase\n(schedule_database.csv)" as DB

== Basic Flow ==

SCM -> UploadPage : navigate to upload page
activate UploadPage

SCM -> UploadPage : select Excel file (.xlsx/.xls)
SCM -> UploadPage : submit file

UploadPage -> UploadCtrl : POST /upload (file)
activate UploadCtrl

UploadCtrl -> ExcelSvc : import_excel(file)
activate ExcelSvc

ExcelSvc -> ExcelSvc : validate filename & extension
note right: Checks .xlsx / .xls extension

alt Invalid file type or empty file
    ExcelSvc - -> UploadCtrl : return validation failure
    UploadCtrl - -> UploadPage : 400 { message: "Invalid file type / empty" }
    UploadPage - -> SCM : display error message
else Valid file
    ExcelSvc -> ExcelSvc : compute SHA-256 hash of file bytes

    ExcelSvc -> ExcelSvc : scan uploads/ folder for duplicate hash
    note right: UC_DUP_FILE — Detect Duplicate Upload File

    alt Duplicate file detected
        ExcelSvc -> ExcelSvc : skip saving file; reuse existing filename
        note right: duplicate_of = existing_name
    else New file
        ExcelSvc -> ExcelSvc : generate unique filename
        ExcelSvc -> ExcelSvc : save bytes to uploads/
        note right: UC_UPLOAD — persist to disk
    end

    ExcelSvc -> ExcelSvc : pd.read_excel(file_bytes)
    note right: Parse spreadsheet into DataFrame

    alt Excel content unreadable
        ExcelSvc - -> UploadCtrl : return parse failure
        UploadCtrl - -> UploadPage : 400 { message: "Invalid Excel file content" }
        UploadPage - -> SCM : display error message
    else Readable content
        alt DataFrame is empty
            ExcelSvc - -> UploadCtrl : return empty-file failure
            UploadCtrl - -> UploadPage : 400 { message: "Uploaded file has no rows" }
            UploadPage - -> SCM : display error message
        else Non-empty DataFrame
            ExcelSvc -> DataSvc : normalize_dataframe(df)
            activate DataSvc
            DataSvc -> DataSvc : rename columns per COLUMN_MAP
            DataSvc -> DataSvc : strip / clean string fields
            DataSvc - -> ExcelSvc : normalized df
            deactivate DataSvc

            ExcelSvc -> ExcelSvc : normalize key columns (TERM, CRN)

            ExcelSvc -> DB : read existing schedule_database.csv
            activate DB
            DB - -> ExcelSvc : existing DataFrame (or empty if not found)
            deactivate DB

            ExcelSvc -> ExcelSvc : pd.concat(existing, new_df)
            ExcelSvc -> ExcelSvc : drop_duplicates(subset=[CRN, TERM], keep=last)
            note right: UC_DUP_DATA — deduplicate by CRN + semester

            ExcelSvc -> DB : write merged DataFrame to schedule_database.csv
            activate DB
            DB - -> ExcelSvc : write confirmed
            deactivate DB

            ExcelSvc - -> UploadCtrl : { message, rows, saved_file, duplicate }
            deactivate ExcelSvc

            UploadCtrl - -> UploadPage : 200 { message: "Data imported. File saved: ..." }
            deactivate UploadCtrl

            UploadPage - -> SCM : display success confirmation
            deactivate UploadPage
        end
    end
end

== Alternative Flow 6a — Remove Uploaded File ==

SCM -> UploadPage : navigate to /files
activate UploadPage
UploadPage -> UploadPage : list files in uploads/
UploadPage - -> SCM : display file list

SCM -> UploadPage : click Delete on a file
UploadPage -> UploadCtrl : POST /delete/<filename>
activate UploadCtrl
UploadCtrl -> UploadCtrl : os.remove(filepath)
UploadCtrl -> ExcelSvc : rebuild_schedule_database_from_uploads()
activate ExcelSvc
ExcelSvc -> DB : rebuild CSV from remaining upload files
activate DB
DB - -> ExcelSvc : write confirmed
deactivate DB
ExcelSvc - -> UploadCtrl : row_count
deactivate ExcelSvc
UploadCtrl - -> UploadPage : redirect /files?message=Deleted...
deactivate UploadCtrl
UploadPage - -> SCM : display updated file list with confirmation
deactivate UploadPage

@enduml

PlantUML version 1.2020.02(Sun Mar 01 10:22:07 UTC 2020)
(GPL source distribution)
Java Runtime: OpenJDK Runtime Environment
JVM: OpenJDK 64-Bit Server VM
Java Version: 17.0.18+8
Operating System: Linux
Default Encoding: UTF-8
Language: en
Country: null
--></g></svg>