<?xml version="1.0" encoding="UTF-8" standalone="no"?><svg xmlns="http://www.w3.org/2000/svg" xmlns:xlink="http://www.w3.org/1999/xlink" contentScriptType="application/ecmascript" contentStyleType="text/css" height="2077px" preserveAspectRatio="none" style="width:1804px;height:2077px;" version="1.1" viewBox="0 0 1804 2077" width="1804px" zoomAndPan="magnify"><defs><filter height="300%" id="f1gib8bykjegx" width="300%" x="-1" y="-1"><feGaussianBlur result="blurOut" stdDeviation="2.0"/><feColorMatrix in="blurOut" result="blurOut2" type="matrix" values="0 0 0 0 0 0 0 0 0 0 0 0 0 0 0 0 0 0 .4 0"/><feOffset dx="4.0" dy="4.0" in="blurOut2" result="blurOut3"/><feBlend in="SourceGraphic" in2="blurOut3" mode="normal"/></filter></defs><g><text fill="#000000" font-family="Arial" font-size="18" lengthAdjust="spacingAndGlyphs" textLength="258" x="768.75" y="26.708">Sequence(2)_MOSS_Pj2_T-01</text><text fill="#000000" font-family="Arial" font-size="18" lengthAdjust="spacingAndGlyphs" textLength="269" x="763.25" y="47.6611">UC2: Search and Filter Classes</text><text fill="#000000" font-family="Arial" font-size="18" lengthAdjust="spacingAndGlyphs" textLength="227" x="784.25" y="68.6143">Author: MayfairMI6 Team</text><rect fill="#FFFFFF" filter="url(#f1gib8bykjegx)" height="404.7266" style="stroke: #888888; stroke-width: 1.0;" width="10" x="456.5" y="253.7188"/><rect fill="#FFFFFF" filter="url(#f1gib8bykjegx)" height="1106.3906" style="stroke: #888888; stroke-width: 1.0;" width="10" x="456.5" y="745.8438"/><rect fill="#FFFFFF" filter="url(#f1gib8bykjegx)" height="29.1328" style="stroke: #888888; stroke-width: 1.0;" width="10" x="456.5" y="1905.5"/><rect fill="#FFFFFF" filter="url(#f1gib8bykjegx)" height="346.4609" style="stroke: #888888; stroke-width: 1.0;" width="10" x="880.5" y="282.8516"/><rect fill="#FFFFFF" filter="url(#f1gib8bykjegx)" height="973.5938" style="stroke: #888888; stroke-width: 1.0;" width="10" x="880.5" y="819.2422"/><rect fill="#FFFFFF" filter="url(#f1gib8bykjegx)" height="129.5313" style="stroke: #888888; stroke-width: 1.0;" width="10" x="1319.5" y="311.9844"/><rect fill="#FFFFFF" filter="url(#f1gib8bykjegx)" height="129.5313" style="stroke: #888888; stroke-width: 1.0;" width="10" x="1319.5" y="470.6484"/><rect fill="#FFFFFF" filter="url(#f1gib8bykjegx)" height="517.8594" style="stroke: #888888; stroke-width: 1.0;" width="10" x="1319.5" y="987.7109"/><rect fill="#FFFFFF" filter="url(#f1gib8bykjegx)" height="140.5313" style="stroke: #888888; stroke-width: 1.0;" width="10" x="1324.5" y="1024.8438"/><rect fill="#FFFFFF" filter="url(#f1gib8bykjegx)" height="101.5313" style="stroke: #888888; stroke-width: 1.0;" width="10" x="1319.5" y="1534.7031"/><rect fill="#FFFFFF" filter="url(#f1gib8bykjegx)" height="29.1328" style="stroke: #888888; stroke-width: 1.0;" width="10" x="1678.5" y="341.1172"/><rect fill="#FFFFFF" filter="url(#f1gib8bykjegx)" height="29.1328" style="stroke: #888888; stroke-width: 1.0;" width="10" x="1678.5" y="499.7813"/><rect fill="#FFFFFF" filter="url(#f1gib8bykjegx)" height="29.1328" style="stroke: #888888; stroke-width: 1.0;" width="10" x="1678.5" y="1058.9766"/><rect fill="#FFFFFF" filter="url(#f1gib8bykjegx)" height="1080.2578" style="stroke: #000000; stroke-width: 2.0;" width="1769.5" x="13" y="876.375"/><rect fill="#FFFFFF" height="1004.8594" style="stroke: none; stroke-width: 1.0;" width="1769.5" x="13" y="951.7734"/><rect fill="#FFFFFF" filter="url(#f1gib8bykjegx)" height="101.3984" style="stroke: #000000; stroke-width: 2.0;" width="425" x="1208.5" y="1187.375"/><rect fill="#FFFFFF" filter="url(#f1gib8bykjegx)" height="59.2656" style="stroke: #000000; stroke-width: 2.0;" width="475" x="1208.5" y="1302.7734"/><rect fill="#FFFFFF" filter="url(#f1gib8bykjegx)" height="59.2656" style="stroke: #000000; stroke-width: 2.0;" width="371" x="1208.5" y="1376.0391"/><rect fill="#FFFFFF" filter="url(#f1gib8bykjegx)" height="298.3984" style="stroke: #000000; stroke-width: 2.0;" width="1015.5" x="23" y="1651.2344"/><rect fill="#FFFFFF" height="207.8672" style="stroke: none; stroke-width: 1.0;" width="1015.5" x="23" y="1741.7656"/><rect fill="#FFFFFF" filter="url(#f1gib8bykjegx)" height="75.3984" style="stroke: #000000; stroke-width: 2.0;" width="487" x="33" y="1867.2344"/><line style="stroke: #888888; stroke-width: 1.0; stroke-dasharray: 5.0,5.0;" x1="124" x2="124" y1="179.4531" y2="1973.6328"/><line style="stroke: #888888; stroke-width: 1.0; stroke-dasharray: 5.0,5.0;" x1="461" x2="461" y1="179.4531" y2="1973.6328"/><line style="stroke: #888888; stroke-width: 1.0; stroke-dasharray: 5.0,5.0;" x1="885.5" x2="885.5" y1="179.4531" y2="1973.6328"/><line style="stroke: #888888; stroke-width: 1.0; stroke-dasharray: 5.0,5.0;" x1="1324.5" x2="1324.5" y1="179.4531" y2="1973.6328"/><line style="stroke: #888888; stroke-width: 1.0; stroke-dasharray: 5.0,5.0;" x1="1683.5" x2="1683.5" y1="179.4531" y2="1973.6328"/><text fill="#000000" font-family="Arial" font-size="14" lengthAdjust="spacingAndGlyphs" textLength="157" x="43" y="159.8545">Scheduling Committee</text><text fill="#000000" font-family="Arial" font-size="14" lengthAdjust="spacingAndGlyphs" textLength="57" x="93" y="176.1514">Member</text><ellipse cx="124.5" cy="89.8594" fill="#FEFECE" filter="url(#f1gib8bykjegx)" rx="8" ry="8" style="stroke: #A80036; stroke-width: 2.0;"/><path d="M124.5,97.8594 L124.5,124.8594 M111.5,105.8594 L137.5,105.8594 M124.5,124.8594 L111.5,139.8594 M124.5,124.8594 L137.5,139.8594 " fill="none" filter="url(#f1gib8bykjegx)" style="stroke: #A80036; stroke-width: 2.0;"/><text fill="#000000" font-family="Arial" font-size="14" lengthAdjust="spacingAndGlyphs" textLength="157" x="43" y="1985.6279">Scheduling Committee</text><text fill="#000000" font-family="Arial" font-size="14" lengthAdjust="spacingAndGlyphs" textLength="57" x="93" y="2001.9248">Member</text><ellipse cx="124.5" cy="2015.2266" fill="#FEFECE" filter="url(#f1gib8bykjegx)" rx="8" ry="8" style="stroke: #A80036; stroke-width: 2.0;"/><path d="M124.5,2023.2266 L124.5,2050.2266 M111.5,2031.2266 L137.5,2031.2266 M124.5,2050.2266 L111.5,2065.2266 M124.5,2050.2266 L137.5,2065.2266 " fill="none" filter="url(#f1gib8bykjegx)" style="stroke: #A80036; stroke-width: 2.0;"/><text fill="#000000" font-family="Arial" font-size="14" lengthAdjust="spacingAndGlyphs" textLength="83" x="417" y="159.8545">SearchPage</text><text fill="#000000" font-family="Arial" font-size="14" lengthAdjust="spacingAndGlyphs" textLength="91" x="413" y="176.1514">(search.html)</text><path d="M441,118.8594 L441,142.8594 M441,130.8594 L458,130.8594 " fill="none" filter="url(#f1gib8bykjegx)" style="stroke: #A80036; stroke-width: 2.0;"/><ellipse cx="470" cy="130.8594" fill="#FEFECE" filter="url(#f1gib8bykjegx)" rx="12" ry="12" style="stroke: #A80036; stroke-width: 2.0;"/><text fill="#000000" font-family="Arial" font-size="14" lengthAdjust="spacingAndGlyphs" textLength="83" x="417" y="1985.6279">SearchPage</text><text fill="#000000" font-family="Arial" font-size="14" lengthAdjust="spacingAndGlyphs" textLength="91" x="413" y="2001.9248">(search.html)</text><path d="M441,2009.2266 L441,2033.2266 M441,2021.2266 L458,2021.2266 " fill="none" filter="url(#f1gib8bykjegx)" style="stroke: #A80036; stroke-width: 2.0;"/><ellipse cx="470" cy="2021.2266" fill="#FEFECE" filter="url(#f1gib8bykjegx)" rx="12" ry="12" style="stroke: #A80036; stroke-width: 2.0;"/><text fill="#000000" font-family="Arial" font-size="14" lengthAdjust="spacingAndGlyphs" textLength="115" x="825" y="159.8545">SearchController</text><text fill="#000000" font-family="Arial" font-size="14" lengthAdjust="spacingAndGlyphs" textLength="280" x="742.5" y="176.1514">(schedule_routes.search_classes_route)</text><ellipse cx="885.5" cy="130.8594" fill="#FEFECE" filter="url(#f1gib8bykjegx)" rx="12" ry="12" style="stroke: #A80036; stroke-width: 2.0;"/><polygon fill="#A80036" points="881.5,118.8594,887.5,113.8594,885.5,118.8594,887.5,123.8594,881.5,118.8594" style="stroke: #A80036; stroke-width: 1.0;"/><text fill="#000000" font-family="Arial" font-size="14" lengthAdjust="spacingAndGlyphs" textLength="115" x="825" y="1985.6279">SearchController</text><text fill="#000000" font-family="Arial" font-size="14" lengthAdjust="spacingAndGlyphs" textLength="280" x="742.5" y="2001.9248">(schedule_routes.search_classes_route)</text><ellipse cx="885.5" cy="2021.2266" fill="#FEFECE" filter="url(#f1gib8bykjegx)" rx="12" ry="12" style="stroke: #A80036; stroke-width: 2.0;"/><polygon fill="#A80036" points="881.5,2009.2266,887.5,2004.2266,885.5,2009.2266,887.5,2014.2266,881.5,2009.2266" style="stroke: #A80036; stroke-width: 1.0;"/><text fill="#000000" font-family="Arial" font-size="14" lengthAdjust="spacingAndGlyphs" textLength="82" x="1280.5" y="159.8545">DataService</text><text fill="#000000" font-family="Arial" font-size="14" lengthAdjust="spacingAndGlyphs" textLength="206" x="1218.5" y="176.1514">(data_service.search_classes)</text><ellipse cx="1324.5" cy="130.8594" fill="#FEFECE" filter="url(#f1gib8bykjegx)" rx="12" ry="12" style="stroke: #A80036; stroke-width: 2.0;"/><polygon fill="#A80036" points="1320.5,118.8594,1326.5,113.8594,1324.5,118.8594,1326.5,123.8594,1320.5,118.8594" style="stroke: #A80036; stroke-width: 1.0;"/><text fill="#000000" font-family="Arial" font-size="14" lengthAdjust="spacingAndGlyphs" textLength="82" x="1280.5" y="1985.6279">DataService</text><text fill="#000000" font-family="Arial" font-size="14" lengthAdjust="spacingAndGlyphs" textLength="206" x="1218.5" y="2001.9248">(data_service.search_classes)</text><ellipse cx="1324.5" cy="2021.2266" fill="#FEFECE" filter="url(#f1gib8bykjegx)" rx="12" ry="12" style="stroke: #A80036; stroke-width: 2.0;"/><polygon fill="#A80036" points="1320.5,2009.2266,1326.5,2004.2266,1324.5,2009.2266,1326.5,2014.2266,1320.5,2009.2266" style="stroke: #A80036; stroke-width: 1.0;"/><text fill="#000000" font-family="Arial" font-size="14" lengthAdjust="spacingAndGlyphs" textLength="131" x="1615" y="159.8545">ScheduleDatabase</text><text fill="#000000" font-family="Arial" font-size="14" lengthAdjust="spacingAndGlyphs" textLength="172" x="1594.5" y="176.1514">(schedule_database.csv)</text><path d="M1665.5,110.8594 C1665.5,100.8594 1683.5,100.8594 1683.5,100.8594 C1683.5,100.8594 1701.5,100.8594 1701.5,110.8594 L1701.5,136.8594 C1701.5,146.8594 1683.5,146.8594 1683.5,146.8594 C1683.5,146.8594 1665.5,146.8594 1665.5,136.8594 L1665.5,110.8594 " fill="#FEFECE" filter="url(#f1gib8bykjegx)" style="stroke: #000000; stroke-width: 1.5;"/><path d="M1665.5,110.8594 C1665.5,120.8594 1683.5,120.8594 1683.5,120.8594 C1683.5,120.8594 1701.5,120.8594 1701.5,110.8594 " fill="none" style="stroke: #000000; stroke-width: 1.5;"/><text fill="#000000" font-family="Arial" font-size="14" lengthAdjust="spacingAndGlyphs" textLength="131" x="1615" y="1985.6279">ScheduleDatabase</text><text fill="#000000" font-family="Arial" font-size="14" lengthAdjust="spacingAndGlyphs" textLength="172" x="1594.5" y="2001.9248">(schedule_database.csv)</text><path d="M1665.5,2015.2266 C1665.5,2005.2266 1683.5,2005.2266 1683.5,2005.2266 C1683.5,2005.2266 1701.5,2005.2266 1701.5,2015.2266 L1701.5,2041.2266 C1701.5,2051.2266 1683.5,2051.2266 1683.5,2051.2266 C1683.5,2051.2266 1665.5,2051.2266 1665.5,2041.2266 L1665.5,2015.2266 " fill="#FEFECE" filter="url(#f1gib8bykjegx)" style="stroke: #000000; stroke-width: 1.5;"/><path d="M1665.5,2015.2266 C1665.5,2025.2266 1683.5,2025.2266 1683.5,2025.2266 C1683.5,2025.2266 1701.5,2025.2266 1701.5,2015.2266 " fill="none" style="stroke: #000000; stroke-width: 1.5;"/><rect fill="#FFFFFF" filter="url(#f1gib8bykjegx)" height="404.7266" style="stroke: #888888; stroke-width: 1.0;" width="10" x="456.5" y="253.7188"/><rect fill="#FFFFFF" filter="url(#f1gib8bykjegx)" height="1106.3906" style="stroke: #888888; stroke-width: 1.0;" width="10" x="456.5" y="745.8438"/><rect fill="#FFFFFF" filter="url(#f1gib8bykjegx)" height="29.1328" style="stroke: #888888; stroke-width: 1.0;" width="10" x="456.5" y="1905.5"/><rect fill="#FFFFFF" filter="url(#f1gib8bykjegx)" height="346.4609" style="stroke: #888888; stroke-width: 1.0;" width="10" x="880.5" y="282.8516"/><rect fill="#FFFFFF" filter="url(#f1gib8bykjegx)" height="973.5938" style="stroke: #888888; stroke-width: 1.0;" width="10" x="880.5" y="819.2422"/><rect fill="#FFFFFF" filter="url(#f1gib8bykjegx)" height="129.5313" style="stroke: #888888; stroke-width: 1.0;" width="10" x="1319.5" y="311.9844"/><rect fill="#FFFFFF" filter="url(#f1gib8bykjegx)" height="129.5313" style="stroke: #888888; stroke-width: 1.0;" width="10" x="1319.5" y="470.6484"/><rect fill="#FFFFFF" filter="url(#f1gib8bykjegx)" height="517.8594" style="stroke: #888888; stroke-width: 1.0;" width="10" x="1319.5" y="987.7109"/><rect fill="#FFFFFF" filter="url(#f1gib8bykjegx)" height="140.5313" style="stroke: #888888; stroke-width: 1.0;" width="10" x="1324.5" y="1024.8438"/><rect fill="#FFFFFF" filter="url(#f1gib8bykjegx)" height="101.5313" style="stroke: #888888; stroke-width: 1.0;" width="10" x="1319.5" y="1534.7031"/><rect fill="#FFFFFF" filter="url(#f1gib8bykjegx)" height="29.1328" style="stroke: #888888; stroke-width: 1.0;" width="10" x="1678.5" y="341.1172"/><rect fill="#FFFFFF" filter="url(#f1gib8bykjegx)" height="29.1328" style="stroke: #888888; stroke-width: 1.0;" width="10" x="1678.5" y="499.7813"/><rect fill="#FFFFFF" filter="url(#f1gib8bykjegx)" height="29.1328" style="stroke: #888888; stroke-width: 1.0;" width="10" x="1678.5" y="1058.9766"/><rect fill="#EEEEEE" filter="url(#f1gib8bykjegx)" height="3" style="stroke: #EEEEEE; stroke-width: 1.0;" width="1789.5" x="3" y="210.0195"/><line style="stroke: #000000; stroke-width: 1.0;" x1="3" x2="1792.5" y1="210.0195" y2="210.0195"/><line style="stroke: #000000; stroke-width: 1.0;" x1="3" x2="1792.5" y1="213.0195" y2="213.0195"/><rect fill="#EEEEEE" filter="url(#f1gib8bykjegx)" height="23.1328" style="stroke: #000000; stroke-width: 2.0;" width="98" x="848.75" y="199.4531"/><text fill="#000000" font-family="Arial" font-size="13" font-weight="bold" lengthAdjust="spacingAndGlyphs" textLength="79" x="854.75" y="215.52">Page Load</text><polygon fill="#A80036" points="444.5,249.7188,454.5,253.7188,444.5,257.7188,448.5,253.7188" style="stroke: #A80036; stroke-width: 1.0;"/><line style="stroke: #A80036; stroke-width: 1.5;" x1="124.5" x2="450.5" y1="253.7188" y2="253.7188"/><text fill="#000000" font-family="Arial" font-size="13" lengthAdjust="spacingAndGlyphs" textLength="184" x="131.5" y="248.6528">navigate to /schedule/search</text><polygon fill="#A80036" points="868.5,278.8516,878.5,282.8516,868.5,286.8516,872.5,282.8516" style="stroke: #A80036; stroke-width: 1.0;"/><line style="stroke: #A80036; stroke-width: 1.5;" x1="466.5" x2="874.5" y1="282.8516" y2="282.8516"/><text fill="#000000" font-family="Arial" font-size="13" lengthAdjust="spacingAndGlyphs" textLength="137" x="473.5" y="277.7856">GET /schedule/search</text><polygon fill="#A80036" points="1307.5,307.9844,1317.5,311.9844,1307.5,315.9844,1311.5,311.9844" style="stroke: #A80036; stroke-width: 1.0;"/><line style="stroke: #A80036; stroke-width: 1.5;" x1="890.5" x2="1313.5" y1="311.9844" y2="311.9844"/><text fill="#000000" font-family="Arial" font-size="13" lengthAdjust="spacingAndGlyphs" textLength="106" x="897.5" y="306.9185">get_semesters()</text><polygon fill="#A80036" points="1666.5,337.1172,1676.5,341.1172,1666.5,345.1172,1670.5,341.1172" style="stroke: #A80036; stroke-width: 1.0;"/><line style="stroke: #A80036; stroke-width: 1.5;" x1="1329.5" x2="1672.5" y1="341.1172" y2="341.1172"/><text fill="#000000" font-family="Arial" font-size="13" lengthAdjust="spacingAndGlyphs" textLength="182" x="1336.5" y="336.0513">read schedule_database.csv</text><polygon fill="#A80036" points="1340.5,366.25,1330.5,370.25,1340.5,374.25,1336.5,370.25" style="stroke: #A80036; stroke-width: 1.0;"/><line style="stroke: #A80036; stroke-width: 1.5; stroke-dasharray: 2.0,2.0;" x1="1334.5" x2="1682.5" y1="370.25" y2="370.25"/><text fill="#000000" font-family="Arial" font-size="13" lengthAdjust="spacingAndGlyphs" textLength="72" x="1346.5" y="365.1841">DataFrame</text><line style="stroke: #A80036; stroke-width: 1.5;" x1="1329.5" x2="1371.5" y1="399.3828" y2="399.3828"/><line style="stroke: #A80036; stroke-width: 1.5;" x1="1371.5" x2="1371.5" y1="399.3828" y2="412.3828"/><line style="stroke: #A80036; stroke-width: 1.5;" x1="1330.5" x2="1371.5" y1="412.3828" y2="412.3828"/><polygon fill="#A80036" points="1340.5,408.3828,1330.5,412.3828,1340.5,416.3828,1336.5,412.3828" style="stroke: #A80036; stroke-width: 1.0;"/><text fill="#000000" font-family="Arial" font-size="13" lengthAdjust="spacingAndGlyphs" textLength="175" x="1336.5" y="394.3169">extract unique TERM values</text><polygon fill="#A80036" points="901.5,437.5156,891.5,441.5156,901.5,445.5156,897.5,441.5156" style="stroke: #A80036; stroke-width: 1.0;"/><line style="stroke: #A80036; stroke-width: 1.5; stroke-dasharray: 2.0,2.0;" x1="895.5" x2="1323.5" y1="441.5156" y2="441.5156"/><text fill="#000000" font-family="Arial" font-size="13" lengthAdjust="spacingAndGlyphs" textLength="147" x="907.5" y="436.4497">[(term_code, label), ...]</text><polygon fill="#A80036" points="1307.5,466.6484,1317.5,470.6484,1307.5,474.6484,1311.5,470.6484" style="stroke: #A80036; stroke-width: 1.0;"/><line style="stroke: #A80036; stroke-width: 1.5;" x1="890.5" x2="1313.5" y1="470.6484" y2="470.6484"/><text fill="#000000" font-family="Arial" font-size="13" lengthAdjust="spacingAndGlyphs" textLength="121" x="897.5" y="465.5825">get_departments()</text><polygon fill="#A80036" points="1666.5,495.7813,1676.5,499.7813,1666.5,503.7813,1670.5,499.7813" style="stroke: #A80036; stroke-width: 1.0;"/><line style="stroke: #A80036; stroke-width: 1.5;" x1="1329.5" x2="1672.5" y1="499.7813" y2="499.7813"/><text fill="#000000" font-family="Arial" font-size="13" lengthAdjust="spacingAndGlyphs" textLength="278" x="1336.5" y="494.7153">read schedule_database.csv (if not cached)</text><polygon fill="#A80036" points="1340.5,524.9141,1330.5,528.9141,1340.5,532.9141,1336.5,528.9141" style="stroke: #A80036; stroke-width: 1.0;"/><line style="stroke: #A80036; stroke-width: 1.5; stroke-dasharray: 2.0,2.0;" x1="1334.5" x2="1682.5" y1="528.9141" y2="528.9141"/><text fill="#000000" font-family="Arial" font-size="13" lengthAdjust="spacingAndGlyphs" textLength="72" x="1346.5" y="523.8481">DataFrame</text><line style="stroke: #A80036; stroke-width: 1.5;" x1="1329.5" x2="1371.5" y1="558.0469" y2="558.0469"/><line style="stroke: #A80036; stroke-width: 1.5;" x1="1371.5" x2="1371.5" y1="558.0469" y2="571.0469"/><line style="stroke: #A80036; stroke-width: 1.5;" x1="1330.5" x2="1371.5" y1="571.0469" y2="571.0469"/><polygon fill="#A80036" points="1340.5,567.0469,1330.5,571.0469,1340.5,575.0469,1336.5,571.0469" style="stroke: #A80036; stroke-width: 1.0;"/><text fill="#000000" font-family="Arial" font-size="13" lengthAdjust="spacingAndGlyphs" textLength="172" x="1336.5" y="552.981">extract unique SUBJ values</text><polygon fill="#A80036" points="901.5,596.1797,891.5,600.1797,901.5,604.1797,897.5,600.1797" style="stroke: #A80036; stroke-width: 1.0;"/><line style="stroke: #A80036; stroke-width: 1.5; stroke-dasharray: 2.0,2.0;" x1="895.5" x2="1323.5" y1="600.1797" y2="600.1797"/><text fill="#000000" font-family="Arial" font-size="13" lengthAdjust="spacingAndGlyphs" textLength="144" x="907.5" y="595.1138">[department_code, ...]</text><polygon fill="#A80036" points="477.5,625.3125,467.5,629.3125,477.5,633.3125,473.5,629.3125" style="stroke: #A80036; stroke-width: 1.0;"/><line style="stroke: #A80036; stroke-width: 1.5; stroke-dasharray: 2.0,2.0;" x1="471.5" x2="884.5" y1="629.3125" y2="629.3125"/><text fill="#000000" font-family="Arial" font-size="13" lengthAdjust="spacingAndGlyphs" textLength="390" x="483.5" y="624.2466">render search.html (semesters, departments, no results yet)</text><polygon fill="#A80036" points="135.5,654.4453,125.5,658.4453,135.5,662.4453,131.5,658.4453" style="stroke: #A80036; stroke-width: 1.0;"/><line style="stroke: #A80036; stroke-width: 1.5; stroke-dasharray: 2.0,2.0;" x1="129.5" x2="460.5" y1="658.4453" y2="658.4453"/><text fill="#000000" font-family="Arial" font-size="13" lengthAdjust="spacingAndGlyphs" textLength="163" x="141.5" y="653.3794">display blank search form</text><rect fill="#EEEEEE" filter="url(#f1gib8bykjegx)" height="3" style="stroke: #EEEEEE; stroke-width: 1.0;" width="1789.5" x="3" y="687.0117"/><line style="stroke: #000000; stroke-width: 1.0;" x1="3" x2="1792.5" y1="687.0117" y2="687.0117"/><line style="stroke: #000000; stroke-width: 1.0;" x1="3" x2="1792.5" y1="690.0117" y2="690.0117"/><rect fill="#EEEEEE" filter="url(#f1gib8bykjegx)" height="23.1328" style="stroke: #000000; stroke-width: 2.0;" width="235" x="780.25" y="676.4453"/><text fill="#000000" font-family="Arial" font-size="13" font-weight="bold" lengthAdjust="spacingAndGlyphs" textLength="216" x="786.25" y="692.5122">Basic Flow — Perform Search</text><polygon fill="#A80036" points="444.5,741.8438,454.5,745.8438,444.5,749.8438,448.5,745.8438" style="stroke: #A80036; stroke-width: 1.0;"/><line style="stroke: #A80036; stroke-width: 1.5;" x1="124.5" x2="450.5" y1="745.8438" y2="745.8438"/><text fill="#000000" font-family="Arial" font-size="13" lengthAdjust="spacingAndGlyphs" textLength="129" x="131.5" y="725.645">enter search criteria</text><text fill="#000000" font-family="Arial" font-size="13" lengthAdjust="spacingAndGlyphs" textLength="313" x="131.5" y="740.7778">(course_code, instructor, semester, department)</text><polygon fill="#A80036" points="444.5,770.9766,454.5,774.9766,444.5,778.9766,448.5,774.9766" style="stroke: #A80036; stroke-width: 1.0;"/><line style="stroke: #A80036; stroke-width: 1.5;" x1="124.5" x2="450.5" y1="774.9766" y2="774.9766"/><text fill="#000000" font-family="Arial" font-size="13" lengthAdjust="spacingAndGlyphs" textLength="86" x="131.5" y="769.9106">click "Search"</text><polygon fill="#A80036" points="868.5,815.2422,878.5,819.2422,868.5,823.2422,872.5,819.2422" style="stroke: #A80036; stroke-width: 1.0;"/><line style="stroke: #A80036; stroke-width: 1.5;" x1="466.5" x2="874.5" y1="819.2422" y2="819.2422"/><text fill="#000000" font-family="Arial" font-size="13" lengthAdjust="spacingAndGlyphs" textLength="146" x="473.5" y="799.0435">POST /schedule/search</text><text fill="#000000" font-family="Arial" font-size="13" lengthAdjust="spacingAndGlyphs" textLength="313" x="473.5" y="814.1763">(course_code, instructor, semester, department)</text><line style="stroke: #A80036; stroke-width: 1.5;" x1="890.5" x2="932.5" y1="848.375" y2="848.375"/><line style="stroke: #A80036; stroke-width: 1.5;" x1="932.5" x2="932.5" y1="848.375" y2="861.375"/><line style="stroke: #A80036; stroke-width: 1.5;" x1="891.5" x2="932.5" y1="861.375" y2="861.375"/><polygon fill="#A80036" points="901.5,857.375,891.5,861.375,901.5,865.375,897.5,861.375" style="stroke: #A80036; stroke-width: 1.0;"/><text fill="#000000" font-family="Arial" font-size="13" lengthAdjust="spacingAndGlyphs" textLength="271" x="897.5" y="843.3091">extract search parameters from form/args</text><path d="M13,876.375 L77,876.375 L77,883.375 L67,893.375 L13,893.375 L13,876.375 " fill="#EEEEEE" style="stroke: #000000; stroke-width: 1.0;"/><rect fill="none" height="1080.2578" style="stroke: #000000; stroke-width: 2.0;" width="1769.5" x="13" y="876.375"/><text fill="#000000" font-family="Arial" font-size="13" font-weight="bold" lengthAdjust="spacingAndGlyphs" textLength="19" x="28" y="889.4419">alt</text><text fill="#000000" font-family="Arial" font-size="11" font-weight="bold" lengthAdjust="spacingAndGlyphs" textLength="250" x="92" y="888.5854">[No criteria provided (all fields empty)]</text><polygon fill="#A80036" points="477.5,910.6406,467.5,914.6406,477.5,918.6406,473.5,914.6406" style="stroke: #A80036; stroke-width: 1.0;"/><line style="stroke: #A80036; stroke-width: 1.5; stroke-dasharray: 2.0,2.0;" x1="471.5" x2="879.5" y1="914.6406" y2="914.6406"/><text fill="#000000" font-family="Arial" font-size="13" lengthAdjust="spacingAndGlyphs" textLength="279" x="483.5" y="909.5747">render search.html with validation message</text><polygon fill="#A80036" points="135.5,939.7734,125.5,943.7734,135.5,947.7734,131.5,943.7734" style="stroke: #A80036; stroke-width: 1.0;"/><line style="stroke: #A80036; stroke-width: 1.5; stroke-dasharray: 2.0,2.0;" x1="129.5" x2="455.5" y1="943.7734" y2="943.7734"/><text fill="#000000" font-family="Arial" font-size="13" lengthAdjust="spacingAndGlyphs" textLength="257" x="141.5" y="938.7075">display "Enter at least one search value"</text><line style="stroke: #000000; stroke-width: 1.0; stroke-dasharray: 2.0,2.0;" x1="13" x2="1782.5" y1="952.7734" y2="952.7734"/><text fill="#000000" font-family="Arial" font-size="11" font-weight="bold" lengthAdjust="spacingAndGlyphs" textLength="205" x="18" y="962.9839">[At least one criterion provided]</text><polygon fill="#A80036" points="1307.5,983.7109,1317.5,987.7109,1307.5,991.7109,1311.5,987.7109" style="stroke: #A80036; stroke-width: 1.0;"/><line style="stroke: #A80036; stroke-width: 1.5;" x1="890.5" x2="1313.5" y1="987.7109" y2="987.7109"/><text fill="#000000" font-family="Arial" font-size="13" lengthAdjust="spacingAndGlyphs" textLength="410" x="897.5" y="982.645">search_classes(course_code, instructor, semester, department)</text><line style="stroke: #A80036; stroke-width: 1.5;" x1="1329.5" x2="1376.5" y1="1011.8438" y2="1011.8438"/><line style="stroke: #A80036; stroke-width: 1.5;" x1="1376.5" x2="1376.5" y1="1011.8438" y2="1024.8438"/><line style="stroke: #A80036; stroke-width: 1.5;" x1="1335.5" x2="1376.5" y1="1024.8438" y2="1024.8438"/><polygon fill="#A80036" points="1345.5,1020.8438,1335.5,1024.8438,1345.5,1028.8438,1341.5,1024.8438" style="stroke: #A80036; stroke-width: 1.0;"/><text fill="#000000" font-family="Arial" font-size="13" lengthAdjust="spacingAndGlyphs" textLength="162" x="1341.5" y="1006.7778">load_schedule(semester)</text><polygon fill="#A80036" points="1666.5,1054.9766,1676.5,1058.9766,1666.5,1062.9766,1670.5,1058.9766" style="stroke: #A80036; stroke-width: 1.0;"/><line style="stroke: #A80036; stroke-width: 1.5;" x1="1334.5" x2="1672.5" y1="1058.9766" y2="1058.9766"/><text fill="#000000" font-family="Arial" font-size="13" lengthAdjust="spacingAndGlyphs" textLength="182" x="1341.5" y="1053.9106">read schedule_database.csv</text><polygon fill="#A80036" points="1345.5,1084.1094,1335.5,1088.1094,1345.5,1092.1094,1341.5,1088.1094" style="stroke: #A80036; stroke-width: 1.0;"/><line style="stroke: #A80036; stroke-width: 1.5; stroke-dasharray: 2.0,2.0;" x1="1339.5" x2="1682.5" y1="1088.1094" y2="1088.1094"/><text fill="#000000" font-family="Arial" font-size="13" lengthAdjust="spacingAndGlyphs" textLength="94" x="1351.5" y="1083.0435">full DataFrame</text><line style="stroke: #A80036; stroke-width: 1.5;" x1="1334.5" x2="1376.5" y1="1117.2422" y2="1117.2422"/><line style="stroke: #A80036; stroke-width: 1.5;" x1="1376.5" x2="1376.5" y1="1117.2422" y2="1130.2422"/><line style="stroke: #A80036; stroke-width: 1.5;" x1="1335.5" x2="1376.5" y1="1130.2422" y2="1130.2422"/><polygon fill="#A80036" points="1345.5,1126.2422,1335.5,1130.2422,1345.5,1134.2422,1341.5,1130.2422" style="stroke: #A80036; stroke-width: 1.0;"/><text fill="#000000" font-family="Arial" font-size="13" lengthAdjust="spacingAndGlyphs" textLength="256" x="1341.5" y="1112.1763">filter by TERM == semester (if provided)</text><line style="stroke: #A80036; stroke-width: 1.5; stroke-dasharray: 2.0,2.0;" x1="1334.5" x2="1376.5" y1="1164.375" y2="1164.375"/><line style="stroke: #A80036; stroke-width: 1.5; stroke-dasharray: 2.0,2.0;" x1="1376.5" x2="1376.5" y1="1164.375" y2="1177.375"/><line style="stroke: #A80036; stroke-width: 1.5; stroke-dasharray: 2.0,2.0;" x1="1329.5" x2="1376.5" y1="1177.375" y2="1177.375"/><polygon fill="#A80036" points="1339.5,1173.375,1329.5,1177.375,1339.5,1181.375,1335.5,1177.375" style="stroke: #A80036; stroke-width: 1.0;"/><text fill="#000000" font-family="Arial" font-size="13" lengthAdjust="spacingAndGlyphs" textLength="126" x="1341.5" y="1159.3091">semester-filtered df</text><path d="M1208.5,1187.375 L1272.5,1187.375 L1272.5,1194.375 L1262.5,1204.375 L1208.5,1204.375 L1208.5,1187.375 " fill="#EEEEEE" style="stroke: #000000; stroke-width: 1.0;"/><rect fill="none" height="101.3984" style="stroke: #000000; stroke-width: 2.0;" width="425" x="1208.5" y="1187.375"/><text fill="#000000" font-family="Arial" font-size="13" font-weight="bold" lengthAdjust="spacingAndGlyphs" textLength="19" x="1223.5" y="1200.4419">alt</text><text fill="#000000" font-family="Arial" font-size="11" font-weight="bold" lengthAdjust="spacingAndGlyphs" textLength="150" x="1287.5" y="1199.5854">[course_code provided]</text><line style="stroke: #A80036; stroke-width: 1.5;" x1="1329.5" x2="1371.5" y1="1225.6406" y2="1225.6406"/><line style="stroke: #A80036; stroke-width: 1.5;" x1="1371.5" x2="1371.5" y1="1225.6406" y2="1238.6406"/><line style="stroke: #A80036; stroke-width: 1.5;" x1="1330.5" x2="1371.5" y1="1238.6406" y2="1238.6406"/><polygon fill="#A80036" points="1340.5,1234.6406,1330.5,1238.6406,1340.5,1242.6406,1336.5,1238.6406" style="stroke: #A80036; stroke-width: 1.0;"/><text fill="#000000" font-family="Arial" font-size="13" lengthAdjust="spacingAndGlyphs" textLength="266" x="1336.5" y="1220.5747">parse course_code (SUBJ + CRSE_NUMB)</text><line style="stroke: #A80036; stroke-width: 1.5;" x1="1329.5" x2="1371.5" y1="1267.7734" y2="1267.7734"/><line style="stroke: #A80036; stroke-width: 1.5;" x1="1371.5" x2="1371.5" y1="1267.7734" y2="1280.7734"/><line style="stroke: #A80036; stroke-width: 1.5;" x1="1330.5" x2="1371.5" y1="1280.7734" y2="1280.7734"/><polygon fill="#A80036" points="1340.5,1276.7734,1330.5,1280.7734,1340.5,1284.7734,1336.5,1280.7734" style="stroke: #A80036; stroke-width: 1.0;"/><text fill="#000000" font-family="Arial" font-size="13" lengthAdjust="spacingAndGlyphs" textLength="285" x="1336.5" y="1262.7075">apply mask on df[SUBJ] and df[CRSE_NUMB]</text><path d="M1208.5,1302.7734 L1272.5,1302.7734 L1272.5,1309.7734 L1262.5,1319.7734 L1208.5,1319.7734 L1208.5,1302.7734 " fill="#EEEEEE" style="stroke: #000000; stroke-width: 1.0;"/><rect fill="none" height="59.2656" style="stroke: #000000; stroke-width: 2.0;" width="475" x="1208.5" y="1302.7734"/><text fill="#000000" font-family="Arial" font-size="13" font-weight="bold" lengthAdjust="spacingAndGlyphs" textLength="19" x="1223.5" y="1315.8403">alt</text><text fill="#000000" font-family="Arial" font-size="11" font-weight="bold" lengthAdjust="spacingAndGlyphs" textLength="132" x="1287.5" y="1314.9839">[instructor provided]</text><line style="stroke: #A80036; stroke-width: 1.5;" x1="1329.5" x2="1371.5" y1="1341.0391" y2="1341.0391"/><line style="stroke: #A80036; stroke-width: 1.5;" x1="1371.5" x2="1371.5" y1="1341.0391" y2="1354.0391"/><line style="stroke: #A80036; stroke-width: 1.5;" x1="1330.5" x2="1371.5" y1="1354.0391" y2="1354.0391"/><polygon fill="#A80036" points="1340.5,1350.0391,1330.5,1354.0391,1340.5,1358.0391,1336.5,1354.0391" style="stroke: #A80036; stroke-width: 1.0;"/><text fill="#000000" font-family="Arial" font-size="13" lengthAdjust="spacingAndGlyphs" textLength="335" x="1336.5" y="1335.9731">df[INSTRUCTOR].str.contains(instructor, case=False)</text><path d="M1208.5,1376.0391 L1272.5,1376.0391 L1272.5,1383.0391 L1262.5,1393.0391 L1208.5,1393.0391 L1208.5,1376.0391 " fill="#EEEEEE" style="stroke: #000000; stroke-width: 1.0;"/><rect fill="none" height="59.2656" style="stroke: #000000; stroke-width: 2.0;" width="371" x="1208.5" y="1376.0391"/><text fill="#000000" font-family="Arial" font-size="13" font-weight="bold" lengthAdjust="spacingAndGlyphs" textLength="19" x="1223.5" y="1389.106">alt</text><text fill="#000000" font-family="Arial" font-size="11" font-weight="bold" lengthAdjust="spacingAndGlyphs" textLength="144" x="1287.5" y="1388.2495">[department provided]</text><line style="stroke: #A80036; stroke-width: 1.5;" x1="1329.5" x2="1371.5" y1="1414.3047" y2="1414.3047"/><line style="stroke: #A80036; stroke-width: 1.5;" x1="1371.5" x2="1371.5" y1="1414.3047" y2="1427.3047"/><line style="stroke: #A80036; stroke-width: 1.5;" x1="1330.5" x2="1371.5" y1="1427.3047" y2="1427.3047"/><polygon fill="#A80036" points="1340.5,1423.3047,1330.5,1427.3047,1340.5,1431.3047,1336.5,1427.3047" style="stroke: #A80036; stroke-width: 1.0;"/><text fill="#000000" font-family="Arial" font-size="13" lengthAdjust="spacingAndGlyphs" textLength="231" x="1336.5" y="1409.2388">df[SUBJ].str.upper() == department</text><line style="stroke: #A80036; stroke-width: 1.5;" x1="1329.5" x2="1371.5" y1="1463.4375" y2="1463.4375"/><line style="stroke: #A80036; stroke-width: 1.5;" x1="1371.5" x2="1371.5" y1="1463.4375" y2="1476.4375"/><line style="stroke: #A80036; stroke-width: 1.5;" x1="1330.5" x2="1371.5" y1="1476.4375" y2="1476.4375"/><polygon fill="#A80036" points="1340.5,1472.4375,1330.5,1476.4375,1340.5,1480.4375,1336.5,1476.4375" style="stroke: #A80036; stroke-width: 1.0;"/><text fill="#000000" font-family="Arial" font-size="13" lengthAdjust="spacingAndGlyphs" textLength="152" x="1336.5" y="1458.3716">reset_index(drop=True)</text><polygon fill="#A80036" points="901.5,1501.5703,891.5,1505.5703,901.5,1509.5703,897.5,1505.5703" style="stroke: #A80036; stroke-width: 1.0;"/><line style="stroke: #A80036; stroke-width: 1.5; stroke-dasharray: 2.0,2.0;" x1="895.5" x2="1323.5" y1="1505.5703" y2="1505.5703"/><text fill="#000000" font-family="Arial" font-size="13" lengthAdjust="spacingAndGlyphs" textLength="171" x="907.5" y="1500.5044">filtered classes DataFrame</text><polygon fill="#A80036" points="1307.5,1530.7031,1317.5,1534.7031,1307.5,1538.7031,1311.5,1534.7031" style="stroke: #A80036; stroke-width: 1.0;"/><line style="stroke: #A80036; stroke-width: 1.5;" x1="890.5" x2="1313.5" y1="1534.7031" y2="1534.7031"/><text fill="#000000" font-family="Arial" font-size="13" lengthAdjust="spacingAndGlyphs" textLength="219" x="897.5" y="1529.6372">format_search_results(classes_df)</text><line style="stroke: #A80036; stroke-width: 1.5;" x1="1329.5" x2="1371.5" y1="1594.1016" y2="1594.1016"/><line style="stroke: #A80036; stroke-width: 1.5;" x1="1371.5" x2="1371.5" y1="1594.1016" y2="1607.1016"/><line style="stroke: #A80036; stroke-width: 1.5;" x1="1330.5" x2="1371.5" y1="1607.1016" y2="1607.1016"/><polygon fill="#A80036" points="1340.5,1603.1016,1330.5,1607.1016,1340.5,1611.1016,1336.5,1607.1016" style="stroke: #A80036; stroke-width: 1.0;"/><text fill="#000000" font-family="Arial" font-size="13" lengthAdjust="spacingAndGlyphs" textLength="153" x="1336.5" y="1558.77">convert each row to dict</text><text fill="#000000" font-family="Arial" font-size="13" lengthAdjust="spacingAndGlyphs" textLength="245" x="1336.5" y="1573.9028">(crn, term, dept, course_number, title,</text><text fill="#000000" font-family="Arial" font-size="13" lengthAdjust="spacingAndGlyphs" textLength="321" x="1336.5" y="1589.0356">section, instructor, days, times, room, enrollment)</text><polygon fill="#A80036" points="901.5,1632.2344,891.5,1636.2344,901.5,1640.2344,897.5,1636.2344" style="stroke: #A80036; stroke-width: 1.0;"/><line style="stroke: #A80036; stroke-width: 1.5; stroke-dasharray: 2.0,2.0;" x1="895.5" x2="1323.5" y1="1636.2344" y2="1636.2344"/><text fill="#000000" font-family="Arial" font-size="13" lengthAdjust="spacingAndGlyphs" textLength="96" x="907.5" y="1631.1685">[result_dict, ...]</text><path d="M23,1651.2344 L87,1651.2344 L87,1658.2344 L77,1668.2344 L23,1668.2344 L23,1651.2344 " fill="#EEEEEE" style="stroke: #000000; stroke-width: 1.0;"/><rect fill="none" height="298.3984" style="stroke: #000000; stroke-width: 2.0;" width="1015.5" x="23" y="1651.2344"/><text fill="#000000" font-family="Arial" font-size="13" font-weight="bold" lengthAdjust="spacingAndGlyphs" textLength="19" x="38" y="1664.3013">alt</text><text fill="#000000" font-family="Arial" font-size="11" font-weight="bold" lengthAdjust="spacingAndGlyphs" textLength="116" x="102" y="1663.4448">[No results found]</text><polygon fill="#A80036" points="477.5,1700.6328,467.5,1704.6328,477.5,1708.6328,473.5,1704.6328" style="stroke: #A80036; stroke-width: 1.0;"/><line style="stroke: #A80036; stroke-width: 1.5; stroke-dasharray: 2.0,2.0;" x1="471.5" x2="879.5" y1="1704.6328" y2="1704.6328"/><text fill="#000000" font-family="Arial" font-size="13" lengthAdjust="spacingAndGlyphs" textLength="122" x="483.5" y="1684.4341">render search.html</text><text fill="#000000" font-family="Arial" font-size="13" lengthAdjust="spacingAndGlyphs" textLength="180" x="483.5" y="1699.5669">(results=[], total_results=0)</text><polygon fill="#A80036" points="135.5,1729.7656,125.5,1733.7656,135.5,1737.7656,131.5,1733.7656" style="stroke: #A80036; stroke-width: 1.0;"/><line style="stroke: #A80036; stroke-width: 1.5; stroke-dasharray: 2.0,2.0;" x1="129.5" x2="455.5" y1="1733.7656" y2="1733.7656"/><text fill="#000000" font-family="Arial" font-size="13" lengthAdjust="spacingAndGlyphs" textLength="226" x="141.5" y="1728.6997">display "No results found" message</text><line style="stroke: #000000; stroke-width: 1.0; stroke-dasharray: 2.0,2.0;" x1="23" x2="1038.5" y1="1742.7656" y2="1742.7656"/><text fill="#000000" font-family="Arial" font-size="11" font-weight="bold" lengthAdjust="spacingAndGlyphs" textLength="98" x="28" y="1752.9761">[Results found]</text><polygon fill="#A80036" points="477.5,1788.8359,467.5,1792.8359,477.5,1796.8359,473.5,1792.8359" style="stroke: #A80036; stroke-width: 1.0;"/><line style="stroke: #A80036; stroke-width: 1.5; stroke-dasharray: 2.0,2.0;" x1="471.5" x2="884.5" y1="1792.8359" y2="1792.8359"/><text fill="#000000" font-family="Arial" font-size="13" lengthAdjust="spacingAndGlyphs" textLength="122" x="483.5" y="1772.6372">render search.html</text><text fill="#000000" font-family="Arial" font-size="13" lengthAdjust="spacingAndGlyphs" textLength="194" x="483.5" y="1787.77">(results=[...], total_results=N)</text><polygon fill="#A80036" points="135.5,1848.2344,125.5,1852.2344,135.5,1856.2344,131.5,1852.2344" style="stroke: #A80036; stroke-width: 1.0;"/><line style="stroke: #A80036; stroke-width: 1.5; stroke-dasharray: 2.0,2.0;" x1="129.5" x2="460.5" y1="1852.2344" y2="1852.2344"/><text fill="#000000" font-family="Arial" font-size="13" lengthAdjust="spacingAndGlyphs" textLength="127" x="141.5" y="1816.9028">display results table</text><text fill="#000000" font-family="Arial" font-size="13" lengthAdjust="spacingAndGlyphs" textLength="203" x="141.5" y="1832.0356">(course title, section, instructor,</text><text fill="#000000" font-family="Arial" font-size="13" lengthAdjust="spacingAndGlyphs" textLength="263" x="141.5" y="1847.1685">room, days/times, semester, enrollment)</text><path d="M33,1867.2344 L103,1867.2344 L103,1874.2344 L93,1884.2344 L33,1884.2344 L33,1867.2344 " fill="#EEEEEE" style="stroke: #000000; stroke-width: 1.0;"/><rect fill="none" height="75.3984" style="stroke: #000000; stroke-width: 2.0;" width="487" x="33" y="1867.2344"/><text fill="#000000" font-family="Arial" font-size="13" font-weight="bold" lengthAdjust="spacingAndGlyphs" textLength="25" x="48" y="1880.3013">opt</text><text fill="#000000" font-family="Arial" font-size="11" font-weight="bold" lengthAdjust="spacingAndGlyphs" textLength="322" x="118" y="1879.4448">[Actor views class details (UC_DETAILS — extend)]</text><polygon fill="#A80036" points="444.5,1901.5,454.5,1905.5,444.5,1909.5,448.5,1905.5" style="stroke: #A80036; stroke-width: 1.0;"/><line style="stroke: #A80036; stroke-width: 1.5;" x1="124.5" x2="450.5" y1="1905.5" y2="1905.5"/><text fill="#000000" font-family="Arial" font-size="13" lengthAdjust="spacingAndGlyphs" textLength="121" x="131.5" y="1900.4341">click on a class row</text><polygon fill="#A80036" points="135.5,1930.6328,125.5,1934.6328,135.5,1938.6328,131.5,1934.6328" style="stroke: #A80036; stroke-width: 1.0;"/><line style="stroke: #A80036; stroke-width: 1.5; stroke-dasharray: 2.0,2.0;" x1="129.5" x2="460.5" y1="1934.6328" y2="1934.6328"/><text fill="#000000" font-family="Arial" font-size="13" lengthAdjust="spacingAndGlyphs" textLength="212" x="141.5" y="1929.5669">display detailed class information</text><!--MD5=[debd10ec1da4de54b59d29b0a431b283]
@startuml

skinparam DefaultFontName Arial
skinparam SequenceArrowThickness 1.5
skinparam ParticipantBackgroundColor #FEFEFE
skinparam ParticipantBorderColor #444444
skinparam NoteBackgroundColor #FFFFCC
skinparam NoteBorderColor #AAAAAA
skinparam SequenceLifeLineBorderColor #888888

title Sequence(2)_MOSS_Pj2_T-01\nUC2: Search and Filter Classes\nAuthor: MayfairMI6 Team

actor "Scheduling Committee\nMember" as SCM

boundary "SearchPage\n(search.html)" as SearchPage
control "SearchController\n(schedule_routes.search_classes_route)" as SearchCtrl
control "DataService\n(data_service.search_classes)" as DataSvc
database "ScheduleDatabase\n(schedule_database.csv)" as DB

== Page Load ==

SCM -> SearchPage : navigate to /schedule/search
activate SearchPage

SearchPage -> SearchCtrl : GET /schedule/search
activate SearchCtrl

SearchCtrl -> DataSvc : get_semesters()
activate DataSvc
DataSvc -> DB : read schedule_database.csv
activate DB
DB - -> DataSvc : DataFrame
deactivate DB
DataSvc -> DataSvc : extract unique TERM values
DataSvc - -> SearchCtrl : [(term_code, label), ...]
deactivate DataSvc

SearchCtrl -> DataSvc : get_departments()
activate DataSvc
DataSvc -> DB : read schedule_database.csv (if not cached)
activate DB
DB - -> DataSvc : DataFrame
deactivate DB
DataSvc -> DataSvc : extract unique SUBJ values
DataSvc - -> SearchCtrl : [department_code, ...]
deactivate DataSvc

SearchCtrl - -> SearchPage : render search.html (semesters, departments, no results yet)
deactivate SearchCtrl
SearchPage - -> SCM : display blank search form
deactivate SearchPage

== Basic Flow — Perform Search ==

SCM -> SearchPage : enter search criteria\n(course_code, instructor, semester, department)
activate SearchPage
SCM -> SearchPage : click "Search"

SearchPage -> SearchCtrl : POST /schedule/search\n(course_code, instructor, semester, department)
activate SearchCtrl

SearchCtrl -> SearchCtrl : extract search parameters from form/args

alt No criteria provided (all fields empty)
    SearchCtrl - -> SearchPage : render search.html with validation message
    SearchPage - -> SCM : display "Enter at least one search value"
else At least one criterion provided
    SearchCtrl -> DataSvc : search_classes(course_code, instructor, semester, department)
    activate DataSvc

    DataSvc -> DataSvc : load_schedule(semester)
    activate DataSvc
    DataSvc -> DB : read schedule_database.csv
    activate DB
    DB - -> DataSvc : full DataFrame
    deactivate DB
    DataSvc -> DataSvc : filter by TERM == semester (if provided)
    DataSvc - -> DataSvc : semester-filtered df
    deactivate DataSvc

    alt course_code provided
        DataSvc -> DataSvc : parse course_code (SUBJ + CRSE_NUMB)
        DataSvc -> DataSvc : apply mask on df[SUBJ] and df[CRSE_NUMB]
    end

    alt instructor provided
        DataSvc -> DataSvc : df[INSTRUCTOR].str.contains(instructor, case=False)
    end

    alt department provided
        DataSvc -> DataSvc : df[SUBJ].str.upper() == department
    end

    DataSvc -> DataSvc : reset_index(drop=True)
    DataSvc - -> SearchCtrl : filtered classes DataFrame
    deactivate DataSvc

    SearchCtrl -> DataSvc : format_search_results(classes_df)
    activate DataSvc
    DataSvc -> DataSvc : convert each row to dict\n(crn, term, dept, course_number, title,\nsection, instructor, days, times, room, enrollment)
    DataSvc - -> SearchCtrl : [result_dict, ...]
    deactivate DataSvc

    alt No results found
        SearchCtrl - -> SearchPage : render search.html\n(results=[], total_results=0)
        SearchPage - -> SCM : display "No results found" message
    else Results found
        SearchCtrl - -> SearchPage : render search.html\n(results=[...], total_results=N)
        deactivate SearchCtrl
        SearchPage - -> SCM : display results table\n(course title, section, instructor,\nroom, days/times, semester, enrollment)
        deactivate SearchPage

        opt Actor views class details (UC_DETAILS — extend)
            SCM -> SearchPage : click on a class row
            activate SearchPage
            SearchPage - -> SCM : display detailed class information
            deactivate SearchPage
        end
    end
end

@enduml

PlantUML version 1.2020.02(Sun Mar 01 10:22:07 UTC 2020)
(GPL source distribution)
Java Runtime: OpenJDK Runtime Environment
JVM: OpenJDK 64-Bit Server VM
Java Version: 17.0.18+8
Operating System: Linux
Default Encoding: UTF-8
Language: en
Country: null
--></g></svg>