<?plantuml 1.2026.2?><svg xmlns="http://www.w3.org/2000/svg" xmlns:xlink="http://www.w3.org/1999/xlink" contentStyleType="text/css" data-diagram-type="DESCRIPTION" height="800px" preserveAspectRatio="none" style="width:1727px;height:800px;background:#FFFFFF;" version="1.1" viewBox="0 0 1727 800" width="1727px" zoomAndPan="magnify"><defs><filter height="1" id="b1ghmrmlvfj99b0" width="1" x="0" y="0"><feFlood flood-color="#90EE90" result="flood"/><feComposite in="SourceGraphic" in2="flood" operator="over"/></filter><filter height="1" id="b1ghmrmlvfj99b1" width="1" x="0" y="0"><feFlood flood-color="#FFFFE0" result="flood"/><feComposite in="SourceGraphic" in2="flood" operator="over"/></filter></defs><g><!--cluster Bellini Classes System--><g class="cluster" data-qualified-name="Bellini Classes System" data-source-line="11" id="ent0004"><rect fill="none" height="498" rx="2.5" ry="2.5" style="stroke:#181818;stroke-width:1;" width="1187.5" x="275" y="198"/><text fill="#000000" font-family="sans-serif" font-size="14" font-weight="bold" lengthAdjust="spacing" textLength="176.4082" x="780.5459" y="212.9951">Bellini Classes System</text></g><!--entity UC_UPLOAD--><g class="entity" data-qualified-name="Bellini Classes System.UC_UPLOAD" data-source-line="12" id="ent0005"><ellipse cx="382.4143" cy="447.9829" fill="#90EE90" rx="75.4143" ry="17.4829" style="stroke:#000000;stroke-width:0.5;"/><text fill="#000000" font-family="sans-serif" font-size="14" lengthAdjust="spacing" textLength="119.7314" x="322.5486" y="452.6313">Upload Excel File</text></g><!--entity UC_REMOVE--><g class="entity" data-qualified-name="Bellini Classes System.UC_REMOVE" data-source-line="13" id="ent0006"><ellipse cx="382.5952" cy="521.219" fill="#90EE90" rx="91.5952" ry="20.719" style="stroke:#000000;stroke-width:0.5;"/><text fill="#000000" font-family="sans-serif" font-size="14" lengthAdjust="spacing" textLength="157.3428" x="303.9238" y="525.8675">Remove Uploaded File</text></g><!--entity UC_SEARCH--><g class="entity" data-qualified-name="Bellini Classes System.UC_SEARCH" data-source-line="14" id="ent0007"><ellipse cx="715.2118" cy="255.9424" fill="#90EE90" rx="100.2118" ry="22.4424" style="stroke:#000000;stroke-width:0.5;"/><text fill="#000000" font-family="sans-serif" font-size="14" lengthAdjust="spacing" textLength="176.5244" x="626.9496" y="260.5908">Search and Filter Classes</text></g><!--entity UC_COMPARE--><g class="entity" data-qualified-name="Bellini Classes System.UC_COMPARE" data-source-line="15" id="ent0008"><ellipse cx="715.2075" cy="339.1415" fill="#90EE90" rx="116.2075" ry="25.6415" style="stroke:#000000;stroke-width:0.5;"/><text fill="#000000" font-family="sans-serif" font-size="14" lengthAdjust="spacing" textLength="211.2441" x="609.5855" y="343.7899">Compare Semester Schedules</text></g><!--entity UC_INSTRUCTOR--><g class="entity" data-qualified-name="Bellini Classes System.UC_INSTRUCTOR" data-source-line="16" id="ent0009"><ellipse cx="714.8778" cy="421.7756" fill="#90EE90" rx="99.3778" ry="22.2756" style="stroke:#000000;stroke-width:0.5;"/><text fill="#000000" font-family="sans-serif" font-size="14" lengthAdjust="spacing" textLength="174.6855" x="627.5351" y="426.424">View Instructor Schedule</text></g><!--entity UC_VACANCY--><g class="entity" data-qualified-name="Bellini Classes System.UC_VACANCY" data-source-line="17" id="ent0010"><ellipse cx="382.3107" cy="662.8621" fill="#90EE90" rx="72.3107" ry="16.8621" style="stroke:#000000;stroke-width:0.5;"/><text fill="#000000" font-family="sans-serif" font-size="14" lengthAdjust="spacing" textLength="112.1436" x="326.2389" y="667.5106">Vacancy Search</text></g><!--entity UC_EXPORT--><g class="entity" data-qualified-name="Bellini Classes System.UC_EXPORT" data-source-line="18" id="ent0011"><ellipse cx="382.3126" cy="594.0625" fill="#90EE90" rx="73.3126" ry="17.0625" style="stroke:#000000;stroke-width:0.5;"/><text fill="#000000" font-family="sans-serif" font-size="14" lengthAdjust="spacing" textLength="114.6113" x="325.007" y="598.711">Export Schedule</text></g><!--entity UC_ROOM--><g class="entity" data-qualified-name="Bellini Classes System.UC_ROOM" data-source-line="20" id="ent0012"><ellipse cx="715.1504" cy="659.8301" fill="#FFFFE0" rx="87.1504" ry="19.8301" style="stroke:#000000;stroke-width:0.5;"/><text fill="#000000" font-family="sans-serif" font-size="14" lengthAdjust="spacing" textLength="147.2598" x="641.5205" y="664.4785">View Room Schedule</text></g><!--entity UC_CONFLICT--><g class="entity" data-qualified-name="Bellini Classes System.UC_CONFLICT" data-source-line="21" id="ent0013"><ellipse cx="1338.4115" cy="425.9823" fill="#FFFFE0" rx="107.9115" ry="23.9823" style="stroke:#000000;stroke-width:0.5;"/><text fill="#000000" font-family="sans-serif" font-size="14" lengthAdjust="spacing" textLength="193.3545" x="1241.7342" y="430.6307">Detect Scheduling Conflicts</text></g><!--entity UC_VALIDATE--><g class="entity" data-qualified-name="Bellini Classes System.UC_VALIDATE" data-source-line="22" id="ent0014"><ellipse cx="715.1225" cy="500.2245" fill="#FFFFE0" rx="91.6225" ry="20.7245" style="stroke:#000000;stroke-width:0.5;"/><text fill="#000000" font-family="sans-serif" font-size="14" lengthAdjust="spacing" textLength="157.4043" x="636.4204" y="504.8729">Validate Uploaded File</text></g><!--entity UC_DUP_FILE--><g class="entity" data-qualified-name="Bellini Classes System.UC_DUP_FILE" data-source-line="23" id="ent0015"><ellipse cx="715.0883" cy="580.1177" fill="#FFFFE0" rx="111.0883" ry="24.6177" style="stroke:#000000;stroke-width:0.5;"/><text fill="#000000" font-family="sans-serif" font-size="14" lengthAdjust="spacing" textLength="200.2314" x="614.9726" y="584.7661">Detect Duplicate Upload File</text></g><!--entity UC_DETAILS--><g class="entity" data-qualified-name="Bellini Classes System.UC_DETAILS" data-source-line="24" id="ent0016"><ellipse cx="1338.2826" cy="308.1565" fill="#FFFFE0" rx="78.7826" ry="18.1565" style="stroke:#000000;stroke-width:0.5;"/><text fill="#000000" font-family="sans-serif" font-size="14" lengthAdjust="spacing" textLength="127.7979" x="1274.3836" y="312.805">View Class Details</text></g><!--entity UC_STATS--><g class="entity" data-qualified-name="Bellini Classes System.UC_STATS" data-source-line="25" id="ent0017"><ellipse cx="1338.2649" cy="507.153" fill="#FFFFE0" rx="98.7649" ry="22.153" style="stroke:#000000;stroke-width:0.5;"/><text fill="#000000" font-family="sans-serif" font-size="14" lengthAdjust="spacing" textLength="173.332" x="1251.5989" y="511.8014">View Semester Statistics</text></g><!--entity SCM--><g class="entity" data-qualified-name="SCM" data-source-line="8" id="ent0002"><ellipse cx="116.7832" cy="375.5" fill="#F1F1F1" rx="8" ry="8" style="stroke:#181818;stroke-width:0.5;"/><path d="M116.7832,383.5 L116.7832,410.5 M103.7832,391.5 L129.7832,391.5 M116.7832,410.5 L103.7832,425.5 M116.7832,410.5 L129.7832,425.5" fill="none" style="stroke:#181818;stroke-width:0.5;"/><text fill="#000000" font-family="sans-serif" font-size="14" lengthAdjust="spacing" textLength="221.5664" x="6" y="439.9951">Scheduling Committee Member</text></g><!--entity SC--><g class="entity" data-qualified-name="SC" data-source-line="9" id="ent0003"><ellipse cx="116.7603" cy="633.5" fill="#F1F1F1" rx="8" ry="8" style="stroke:#181818;stroke-width:0.5;"/><path d="M116.7603,641.5 L116.7603,668.5 M103.7603,649.5 L129.7603,649.5 M116.7603,668.5 L103.7603,683.5 M116.7603,668.5 L129.7603,683.5" fill="none" style="stroke:#181818;stroke-width:0.5;"/><text fill="#000000" font-family="sans-serif" font-size="14" lengthAdjust="spacing" textLength="164.5205" x="34.5" y="697.9951">Scheduling Coordinator</text></g><g class="entity" data-qualified-name="GMN34" data-source-line="53" id="ent0035"><path d="M956,6 L956,182.4609 L1720.9009,182.4609 L1720.9009,16 L1710.9009,6 L956,6" fill="#FEFFDD" style="stroke:#181818;stroke-width:0.5;"/><path d="M1710.9009,6 L1710.9009,16 L1720.9009,16 L1710.9009,6" fill="#FEFFDD" style="stroke:#181818;stroke-width:1;"/><text fill="#000000" font-family="sans-serif" font-size="13" lengthAdjust="spacing" textLength="212.1069" x="962" y="23.0669">User Story -&gt; Use Case Mapping</text><text fill="#000000" font-family="sans-serif" font-size="13" lengthAdjust="spacing" textLength="706.856" x="962" y="38.1997">US1: Upload/import schedule data -&gt; Upload Excel File, Validate Uploaded File, Detect Duplicate Upload File</text><text fill="#000000" font-family="sans-serif" font-size="13" lengthAdjust="spacing" textLength="508.333" x="962" y="53.3325">US2: Search and filter classes -&gt; Search and Filter Classes, View Class Details</text><text fill="#000000" font-family="sans-serif" font-size="13" lengthAdjust="spacing" textLength="348.7656" x="962" y="68.4653">US3: Room weekly timetable -&gt; View Room Schedule</text><text fill="#000000" font-family="sans-serif" font-size="13" lengthAdjust="spacing" textLength="583.4702" x="962" y="83.5981">US4: Instructor weekly schedule -&gt; View Instructor Schedule, Detect Scheduling Conflicts</text><text fill="#000000" font-family="sans-serif" font-size="13" lengthAdjust="spacing" textLength="410.1919" x="962" y="98.731">US5: Vacancy search -&gt; Vacancy Search, View Room Schedule</text><text fill="#000000" font-family="sans-serif" font-size="13" lengthAdjust="spacing" textLength="743.9009" x="962" y="113.8638">US6: Compare semester schedules -&gt; Compare Semester Schedules, View Semester Statistics, View Class Details</text><text fill="#000000" font-family="sans-serif" font-size="13" lengthAdjust="spacing" textLength="562.5483" x="962" y="128.9966">US7: Classroom utilization statistics -&gt; View Room Schedule, View Semester Statistics</text><text fill="#000000" font-family="sans-serif" font-size="13" lengthAdjust="spacing" textLength="269.769" x="962" y="144.1294">US8: Export schedule -&gt; Export Schedule</text><text fill="#000000" font-family="sans-serif" font-size="13" lengthAdjust="spacing" textLength="346.4297" x="962" y="159.2622">US9: Remove uploaded file -&gt; Remove Uploaded File</text><text fill="#000000" font-family="sans-serif" font-size="13" lengthAdjust="spacing" textLength="561.3677" x="962" y="174.395">US10: View detailed class information -&gt; Search and Filter Classes, View Class Details</text></g><!--link SCM to UC_UPLOAD--><g class="link" data-entity-1="ent0002" data-entity-2="ent0005" data-link-type="association" data-source-line="28" id="lnk18"><path d="M228.22,422.99 C259.67,428.12 292.8,433.53 320.18,437.99" fill="none" id="SCM-UC_UPLOAD" style="stroke:#181818;stroke-width:1;"/></g><!--link SCM to UC_REMOVE--><g class="link" data-entity-1="ent0002" data-entity-2="ent0006" data-link-type="association" data-source-line="29" id="lnk19"><path d="M185.12,443.09 C210.36,456.62 239.58,471.37 267,483 C285.99,491.06 307.32,498.54 326.37,504.7" fill="none" id="SCM-UC_REMOVE" style="stroke:#181818;stroke-width:1;"/></g><!--link SCM to UC_SEARCH--><g class="link" data-entity-1="ent0002" data-entity-2="ent0007" data-link-type="association" data-source-line="30" id="lnk20"><path d="M193.19,366.95 C216.41,356.36 242.36,345.68 267,338 C388.28,300.22 533.81,277.53 625.12,265.89" fill="none" id="SCM-UC_SEARCH" style="stroke:#181818;stroke-width:1;"/></g><!--link SCM to UC_COMPARE--><g class="link" data-entity-1="ent0002" data-entity-2="ent0008" data-link-type="association" data-source-line="31" id="lnk21"><path d="M228.21,380.85 C238.25,379.05 248.3,377.39 258,376 C374.36,359.29 508.59,349.54 601.13,344.28" fill="none" id="SCM-UC_COMPARE" style="stroke:#181818;stroke-width:1;"/></g><!--link SCM to UC_INSTRUCTOR--><g class="link" data-entity-1="ent0002" data-entity-2="ent0009" data-link-type="association" data-source-line="32" id="lnk22"><path d="M228.05,402.42 C238.17,402.25 248.28,402.1 258,402 C383.39,400.66 528.01,408.62 620.17,414.89" fill="none" id="SCM-UC_INSTRUCTOR" style="stroke:#181818;stroke-width:1;"/></g><!--link SCM to UC_EXPORT--><g class="link" data-entity-1="ent0002" data-entity-2="ent0011" data-link-type="association" data-source-line="33" id="lnk23"><path d="M145.79,443.27 C173,478.14 217.5,528.7 267,559 C284.91,569.96 306.51,577.72 326.1,583.1" fill="none" id="SCM-UC_EXPORT" style="stroke:#181818;stroke-width:1;"/></g><!--link SC to UC_VACANCY--><g class="link" data-entity-1="ent0003" data-entity-2="ent0010" data-link-type="association" data-source-line="34" id="lnk24"><path d="M199.57,663 C234.79,663 275.63,663 309.68,663" fill="none" id="SC-UC_VACANCY" style="stroke:#181818;stroke-width:1;"/></g><!--link UC_UPLOAD to UC_VALIDATE--><g class="link" data-entity-1="ent0005" data-entity-2="ent0014" data-link-type="dependency" data-source-line="36" id="lnk25"><path d="M445.66,457.78 C500.73,466.45 575.303,478.1771 633.753,487.3771" fill="none" id="UC_UPLOAD-to-UC_VALIDATE" style="stroke:#181818;stroke-width:1;stroke-dasharray:7,7;"/><polygon fill="#181818" points="639.68,488.31,631.4114,482.9593,634.7408,487.5326,630.1675,490.862,639.68,488.31" style="stroke:#181818;stroke-width:1;"/><text fill="#000000" font-family="sans-serif" font-size="13" lengthAdjust="spacing" textLength="63.0068" x="505" y="464.0669">&#171;include&#187;</text></g><!--link UC_UPLOAD to UC_DUP_FILE--><g class="link" data-entity-1="ent0005" data-entity-2="ent0015" data-link-type="dependency" data-source-line="37" id="lnk26"><path d="M426.24,462.34 C441.62,468.07 458.9,475.17 474,483 C488.22,490.38 489.72,495.74 504,503 C544.11,523.4 556.76,522.5 599,538 C617.76,544.88 632.6147,550.31 651.0247,557.04" fill="none" id="UC_UPLOAD-to-UC_DUP_FILE" style="stroke:#181818;stroke-width:1;stroke-dasharray:7,7;"/><polygon fill="#181818" points="656.66,559.1,649.5805,552.2531,651.9639,557.3833,646.8337,559.7668,656.66,559.1" style="stroke:#181818;stroke-width:1;"/><text fill="#000000" font-family="sans-serif" font-size="13" lengthAdjust="spacing" textLength="63.0068" x="505" y="499.0669">&#171;include&#187;</text></g><!--link UC_INSTRUCTOR to UC_CONFLICT--><g class="link" data-entity-1="ent0009" data-entity-2="ent0013" data-link-type="dependency" data-source-line="38" id="lnk27"><path d="M776.27,439.76 C794.26,445.91 813.78,453.44 831,462 C845.35,469.13 845.66,477.36 861,482 C888.65,490.37 897.88,488.64 926,482 C940.51,478.58 941.7,471.2 956,467 C1046.13,440.56 1146.7159,431.0751 1224.2759,427.6451" fill="none" id="UC_INSTRUCTOR-to-UC_CONFLICT" style="stroke:#181818;stroke-width:1;stroke-dasharray:7,7;"/><polygon fill="#181818" points="1230.27,427.38,1221.1021,423.7815,1225.2749,427.6009,1221.4555,431.7737,1230.27,427.38" style="stroke:#181818;stroke-width:1;"/><text fill="#000000" font-family="sans-serif" font-size="13" lengthAdjust="spacing" textLength="63.0068" x="862" y="478.0669">&#171;include&#187;</text></g><!--link UC_INSTRUCTOR to UC_DETAILS--><g class="link" data-entity-1="ent0009" data-entity-2="ent0016" data-link-type="dependency" data-source-line="39" id="lnk28"><path d="M814.27,424.31 C829.9,424.6 845.89,424.84 861,425 C889.89,425.3 900.24,438.07 926,425 C946.14,414.78 936.96,396.14 956,384 C1048.66,324.89 1171.6936,310.4291 1253.4036,307.5791" fill="none" id="UC_INSTRUCTOR-to-UC_DETAILS" style="stroke:#181818;stroke-width:1;stroke-dasharray:7,7;"/><polygon fill="#181818" points="1259.4,307.37,1250.266,303.6862,1254.403,307.5443,1250.5449,311.6813,1259.4,307.37" style="stroke:#181818;stroke-width:1;"/><text fill="#000000" font-family="sans-serif" font-size="13" lengthAdjust="spacing" textLength="63.0068" x="862" y="421.0669">&#171;include&#187;</text></g><!--link UC_COMPARE to UC_STATS--><g class="link" data-entity-1="ent0008" data-entity-2="ent0017" data-link-type="dependency" data-source-line="40" id="lnk29"><path d="M814.69,352.14 C852.98,361.39 894.97,377.16 926,404 C949.45,424.29 930.68,449.1 956,467 C1044.5,529.57 1168.6941,529.389 1251.7841,520.489" fill="none" id="UC_COMPARE-to-UC_STATS" style="stroke:#181818;stroke-width:1;stroke-dasharray:7,7;"/><polygon fill="#181818" points="1257.75,519.85,1248.3752,516.8313,1252.7784,520.3825,1249.2272,524.7858,1257.75,519.85" style="stroke:#181818;stroke-width:1;"/><text fill="#000000" font-family="sans-serif" font-size="13" lengthAdjust="spacing" textLength="63.0068" x="862" y="364.0669">&#171;include&#187;</text></g><!--link UC_COMPARE to UC_DETAILS--><g class="link" data-entity-1="ent0008" data-entity-2="ent0016" data-link-type="dependency" data-source-line="41" id="lnk30"><path d="M828.19,333.4 C953.36,327.16 1146.4974,317.5289 1254.9674,312.1189" fill="none" id="UC_COMPARE-to-UC_DETAILS" style="stroke:#181818;stroke-width:1;stroke-dasharray:7,7;"/><polygon fill="#181818" points="1260.96,311.82,1251.7719,308.2733,1255.9662,312.0691,1252.1704,316.2634,1260.96,311.82" style="stroke:#181818;stroke-width:1;"/><text fill="#000000" font-family="sans-serif" font-size="13" lengthAdjust="spacing" textLength="61.1851" x="863" y="325.0669">&#171;extend&#187;</text></g><!--link UC_VACANCY to UC_ROOM--><g class="link" data-entity-1="ent0010" data-entity-2="ent0012" data-link-type="dependency" data-source-line="42" id="lnk31"><path d="M455.21,662.35 C506,661.89 568.3602,661.3247 622.0602,660.8347" fill="none" id="UC_VACANCY-to-UC_ROOM" style="stroke:#181818;stroke-width:1;stroke-dasharray:7,7;"/><polygon fill="#181818" points="628.06,660.78,619.0239,656.8623,623.0602,660.8256,619.0969,664.862,628.06,660.78" style="stroke:#181818;stroke-width:1;"/><text fill="#000000" font-family="sans-serif" font-size="13" lengthAdjust="spacing" textLength="63.0068" x="505" y="658.0669">&#171;include&#187;</text></g><!--link UC_SEARCH to UC_DETAILS--><g class="link" data-entity-1="ent0007" data-entity-2="ent0016" data-link-type="dependency" data-source-line="43" id="lnk32"><path d="M809.04,263.78 C933.15,274.17 1144.3809,291.8398 1257.8109,301.3298" fill="none" id="UC_SEARCH-to-UC_DETAILS" style="stroke:#181818;stroke-width:1;stroke-dasharray:7,7;"/><polygon fill="#181818" points="1263.79,301.83,1255.1548,297.0936,1258.8074,301.4131,1254.4878,305.0657,1263.79,301.83" style="stroke:#181818;stroke-width:1;"/><text fill="#000000" font-family="sans-serif" font-size="13" lengthAdjust="spacing" textLength="61.1851" x="863" y="265.0669">&#171;extend&#187;</text></g><!--link UC_ROOM to UC_STATS--><g class="link" data-entity-1="ent0012" data-entity-2="ent0017" data-link-type="dependency" data-source-line="44" id="lnk33"><path d="M775.03,645.47 C891.38,616.82 1143.774,554.6946 1265.604,524.6946" fill="none" id="UC_ROOM-to-UC_STATS" style="stroke:#181818;stroke-width:1;stroke-dasharray:7,7;"/><polygon fill="#181818" points="1271.43,523.26,1261.7346,521.5279,1266.575,524.4555,1263.6475,529.2959,1271.43,523.26" style="stroke:#181818;stroke-width:1;"/><text fill="#000000" font-family="sans-serif" font-size="13" lengthAdjust="spacing" textLength="61.1851" x="863" y="607.0669">&#171;extend&#187;</text></g><!--link UC_STATS to GMN34--><g class="link" data-entity-1="ent0017" data-entity-2="ent0035" data-link-type="association" data-source-line="53" id="lnk36"><path d="M1271.6,523.35 C1170.03,543.66 979.65,563.08 893.5,449.5 C835.76,373.37 837.01,311.57 893.5,234.5 C910.74,210.98 931.93,191.29 955.62,174.83" fill="none" id="UC_STATS-GMN34" style="stroke:#181818;stroke-width:1;stroke-dasharray:7,7;"/></g><g class="legend" data-source-line="46"><rect fill="#DDDDDD" height="62.8906" rx="7.5" ry="7.5" style="stroke:#000000;stroke-width:1;" width="245.792" x="1456.1089" y="717.4951"/><text fill="#000000" font-family="sans-serif" font-size="14" font-weight="bold" lengthAdjust="spacing" textLength="41.2139" x="1465.9829" y="737.4902">Color</text><text fill="#000000" font-family="sans-serif" font-size="14" font-weight="bold" lengthAdjust="spacing" textLength="67.6279" x="1545.8813" y="737.4902">Meaning</text><text fill="#000000" filter="url(#b1ghmrmlvfj99b0)" font-family="sans-serif" font-size="14" lengthAdjust="spacing" textLength="77.6426" x="1461.1089" y="753.7871">LightGreen</text><text fill="#000000" font-family="sans-serif" font-size="14" lengthAdjust="spacing" textLength="155.8936" x="1541.0073" y="753.7871">Documented use case</text><text fill="#000000" filter="url(#b1ghmrmlvfj99b1)" font-family="sans-serif" font-size="14" lengthAdjust="spacing" textLength="79.8984" x="1461.1089" y="770.084">LightYellow</text><text fill="#000000" font-family="sans-serif" font-size="14" lengthAdjust="spacing" textLength="121.4199" x="1541.0073" y="770.084">Inferred use case</text><line style="stroke:#000000;stroke-width:1;" x1="1461.1089" x2="1696.9009" y1="724.4951" y2="724.4951"/><line style="stroke:#000000;stroke-width:1;" x1="1461.1089" x2="1696.9009" y1="740.792" y2="740.792"/><line style="stroke:#000000;stroke-width:1;" x1="1461.1089" x2="1696.9009" y1="757.0889" y2="757.0889"/><line style="stroke:#000000;stroke-width:1;" x1="1461.1089" x2="1696.9009" y1="773.3857" y2="773.3857"/><line style="stroke:#000000;stroke-width:1;" x1="1461.1089" x2="1461.1089" y1="724.4951" y2="773.3857"/><line style="stroke:#000000;stroke-width:1;" x1="1541.0073" x2="1541.0073" y1="724.4951" y2="773.3857"/><line style="stroke:#000000;stroke-width:1;" x1="1696.9009" x2="1696.9009" y1="724.4951" y2="773.3857"/></g><?plantuml-src bLRRRjiu47tNLmoyhqcpjxPR8Mj0aPtMW1q7acridmf66Zj4ADAWg2Pki__UaIZg4jdDxfjCdZES6PuvjC2j0QD0yzszWPHhJ0nNqiiVkDmppJBOi-I1xJ0s1u5GRZEv4zW153acB4VuxW5S4NYdLI7JK0cbOLw6_QWHPRcfT8hQRbm9Gdh_UXvB3FqSnSazfeNWSWUXoZ9k328iCBj3FGAMGnmkZa8f99UCrckKvpKfmkWA1S4uX8BbETBs8JUOZQfCNTQZzLuebiBqAK41rrnW5MaTVbdVpfV1f0kDC5DV4Im3qnuwcYwMcsaN7IFJoJqmMG4DQfU7eyJJ80e_TIbKElKK8SOCyv9HrzfomkNYDeXwvsmuFi9CvaONLOCSnr5cD_4gMeUhPTHZiOJ9v00sIuVT165m4txk0gTFUwND8EhqdzjbjF86YKHAPGDmj5mku9TA39_fJjHZbpP1GrS6lMkLMy4Jqwdwvde-2rSdOsoOu2ap9-vc4yndas0rVIs5IR6dOzimlI2JzUsNwzdyT92g_EgAWU8nBfhq9zDLC9l7FsUsTswOuRdXIIkKLR1wmQR9eP60y_EEKjk5MepjGYsrTi7fg5tfoAHTh6yv3klVJXzUSogyUJFkzTY7oqik4r6aE1uFSKqR1xWs0OTjhlq_O5sF1z2wKeUplNmDrOs6JmPbQc5r_GvMwNeGopRxjL0LTv1KW_04xkZB6hFt_3TOtwIF1J9PJicpztnvHoxgjoOxRZylBygzyVD49KM6qj18aDwW55oVQ0KrxdmxwankKUiUaJAoUNcUL3GdTyeObNdhlDAjqWSufu887fR2Nh3zdZBrrl5lVZrI5pohx2Il7G9eQbb5Ucd3Pt1ygC_WPzDAP_tkGyTwjzPwa_e9e9DE-ZATE1XXYlU7Rqtj4V517C3mZBRkA7MADRGy8lpfT-sufZK5EzOHnsvAE-Q55FYj3ywsSrj46Qndv6V7KthdWtjRSkSpBgEgAQTVdZhY4NiwqQ_tlbtIPGw5uO9_O-L_2iWRvl7MdJw9elxbG_qITJlvud4Yt0UwBVjC5qur984AVEpvBhNvgsyFJgiIQACI2t2vLJgpgVzlsPIZMqx83m00?></g></svg>